<?xml version="1.0" standalone="no"?>
<!DOCTYPE svg PUBLIC "-//W3C//DTD SVG 1.1//EN" "http://www.w3.org/Graphics/SVG/1.1/DTD/svg11.dtd" >
<svg xmlns="http://www.w3.org/2000/svg" xmlns:xlink="http://www.w3.org/1999/xlink" version="1.1">
<metadata></metadata>
<defs>
<font id="skautbold" horiz-adv-x="763" >
<font-face units-per-em="1000" ascent="800" descent="-200" />
<missing-glyph horiz-adv-x="340" />
<glyph horiz-adv-x="0" />
<glyph horiz-adv-x="333" />
<glyph unicode=" "  horiz-adv-x="340" />
<glyph unicode="&#x09;" horiz-adv-x="340" />
<glyph unicode="&#xa0;" horiz-adv-x="340" />
<glyph unicode="!" horiz-adv-x="286" d="M213 700q15 0 15 -16l-17 -441q-1 -15 -19 -18q-75 -11 -95.5 4t-23.5 86l-15 369q0 16 15 16h140zM143 -10q-38 0 -65.5 27.5t-27.5 65.5q0 37 28 65t65 28q38 0 65.5 -27.5t27.5 -65.5t-27 -65.5t-66 -27.5z" />
<glyph unicode="&#x22;" horiz-adv-x="382" d="M50 785q0 6 4.5 10.5t10.5 4.5h92q6 0 10.5 -4.5t4.5 -10.5v-234q0 -6 -4.5 -10.5t-10.5 -4.5h-92q-6 0 -10.5 4.5t-4.5 10.5v234zM210 785q0 6 4.5 10.5t10.5 4.5h92q6 0 10.5 -4.5t4.5 -10.5v-234q0 -6 -4.5 -10.5t-10.5 -4.5h-92q-6 0 -10.5 4.5t-4.5 10.5v234z" />
<glyph unicode="#" horiz-adv-x="687" d="M497 424h78q5 0 8.5 4t3.5 9v71q0 4 -3.5 8t-8.5 4h-68l17 168q0 12 -12 12h-78q-10 0 -12 -10l-17 -170h-137l17 168q1 5 -2.5 8.5t-9.5 3.5h-77q-11 0 -13 -10l-17 -170h-80q-11 0 -11 -12v-71q0 -13 11 -13h70l-15 -146h-79q-12 0 -12 -12v-72q0 -12 12 -12h68 l-18 -170q0 -4 4 -8t8 -4h78q10 0 12 10l18 172h137l-18 -170q0 -12 12 -12h77q11 0 13 10l18 172h80q11 0 11 12v72q0 12 -11 12h-70zM258 424h137l-16 -146h-137z" />
<glyph unicode="$" horiz-adv-x="566" d="M516 206q0 -147 -161 -191v-100q0 -6 -4.5 -10.5t-10.5 -4.5h-102q-6 0 -10.5 4.5t-4.5 10.5v85q-94 1 -133.5 39t-39.5 93q0 21 3 33q5 17 24 8q73 -35 145 -35q63 0 97.5 13.5t34.5 48.5q0 31 -30 55t-73.5 42.5t-86.5 41.5t-73 65.5t-30 102.5q0 153 162 190v88 q0 6 4.5 10.5t10.5 4.5h102q6 0 10.5 -4.5t4.5 -10.5v-75q53 0 100 -10q13 -3 12 -16l-17 -113q-2 -12 -16 -9q-60 10 -94 10q-67 0 -92 -19.5t-25 -44.5q0 -23 16 -41t42 -31t57 -25.5t62.5 -29.5t57.5 -38.5t42 -56.5t16 -80z" />
<glyph unicode="%" horiz-adv-x="828" d="M216 364q-79 0 -122.5 44t-43.5 125q0 76 48 126.5t123 50.5q78 0 121.5 -42.5t43.5 -121.5t-48 -130.5t-122 -51.5zM86 0q-11 0 -14 7.5t3 14.5l526 663q13 15 29 15h111q11 0 14 -7.5t-3 -14.5l-526 -663q-12 -15 -27 -15h-113zM220 465q22 0 35 20.5t13 52.5 q0 44 -13.5 58.5t-37.5 14.5q-22 0 -35 -20.5t-13 -52.5q0 -44 14 -58.5t37 -14.5zM608 -9q-79 0 -122.5 44t-43.5 125q0 76 48 126.5t123 50.5q78 0 121.5 -42.5t43.5 -121.5t-48 -130.5t-122 -51.5zM612 92q22 0 35 20.5t13 52.5q0 44 -13.5 58.5t-37.5 14.5 q-22 0 -35 -20.5t-13 -52.5q0 -44 14 -58.5t37 -14.5z" />
<glyph unicode="&#x26;" horiz-adv-x="785" d="M475 434q0 18 19 18q20 0 55.5 2t54.5 2q40 0 61.5 -20.5t18.5 -58.5q-11 -119 -76 -210q38 -34 111 -66q10 -4 13 -7t3 -12q0 -28 -24.5 -55.5t-64.5 -27.5q-34 0 -71 25l-60 44q-104 -78 -242 -78q-101 0 -162 53t-61 141q0 61 30 106t83 88q-79 90 -79 166 q0 66 50 116t143 50q80 0 127 -40.5t47 -107.5q0 -101 -105 -186q71 -68 162 -134q33 45 42 89q-69 12 -75 103zM265 461q54 50 54 94q0 48 -50 48q-23 0 -37 -14t-14 -36q0 -37 47 -92zM295 117q75 0 107 35q-95 75 -154 134q-49 -42 -49 -88q0 -32 25.5 -56.5t70.5 -24.5z " />
<glyph unicode="'" horiz-adv-x="242" d="M50 785q0 6 4.5 10.5t10.5 4.5h112q6 0 10.5 -4.5t4.5 -10.5v-234q0 -6 -4.5 -10.5t-10.5 -4.5h-112q-6 0 -10.5 4.5t-4.5 10.5v234z" />
<glyph unicode="(" horiz-adv-x="371" d="M212 349q0 -274 106 -458q6 -13 -6 -19l-87 -45q-12 -7 -19 6q-156 248 -156 516t156 516q7 13 19 6l88 -45q12 -6 6 -19q-107 -186 -107 -458z" />
<glyph unicode=")" horiz-adv-x="371" d="M159 349q0 272 -107 458q-6 13 6 19l88 45q12 7 19 -6q156 -248 156 -516t-156 -516q-7 -13 -19 -6l-87 45q-12 6 -6 19q106 184 106 458z" />
<glyph unicode="*" horiz-adv-x="455" d="M95 503q-14 11 -3 24l66 70l-94 19q-7 2 -11 7.5t-2 12.5l24 75q2 7 8.5 10t14.5 -1l86 -42l-12 96q-1 8 4 13t12 5h78q7 0 12 -5t4 -13l-12 -95l88 40q17 7 22 -9l24 -74q2 -7 -2 -12.5t-11 -7.5l-95 -19l66 -71q13 -13 -2 -24l-63 -45q-14 -10 -24 6l-46 84l-46 -84 q-9 -16 -24 -5z" />
<glyph unicode="+" horiz-adv-x="602" d="M65 284q-6 0 -10.5 4.5t-4.5 10.5v102q0 6 4.5 10.5t10.5 4.5h160v175q0 6 4.5 10.5t10.5 4.5h122q6 0 10.5 -4.5t4.5 -10.5v-175h160q6 0 10.5 -4.5t4.5 -10.5v-102q0 -6 -4.5 -10.5t-10.5 -4.5h-160v-175q0 -6 -4.5 -10.5t-10.5 -4.5h-122q-6 0 -10.5 4.5t-4.5 10.5 v175h-160z" />
<glyph unicode="," horiz-adv-x="286" d="M35 -135q-7 3 -7 10q0 6 6 10q48 41 48 85q0 23 -16 55t-16 58q0 37 28 65t65 28q36 0 64.5 -29t28.5 -84q0 -71 -57 -137t-116 -66q-17 0 -28 5z" />
<glyph unicode="-" horiz-adv-x="400" d="M65 284q-6 0 -10.5 4.5t-4.5 10.5v102q0 6 4.5 10.5t10.5 4.5h270q6 0 10.5 -4.5t4.5 -10.5v-102q0 -6 -4.5 -10.5t-10.5 -4.5h-270z" />
<glyph unicode="." horiz-adv-x="286" d="M143 -10q-38 0 -65.5 27.5t-27.5 65.5q0 37 28 65t65 28q38 0 65.5 -27.5t27.5 -65.5t-27 -65.5t-66 -27.5z" />
<glyph unicode="/" horiz-adv-x="472" d="M26 -33l280 771q5 11 16 11h113q7 0 10 -5t1 -12l-280 -771q-5 -11 -16 -11h-113q-7 0 -10 5t-1 12z" />
<glyph unicode="0" horiz-adv-x="612" d="M306 -10q-253 0 -256 364q-2 172 64.5 264t191.5 92q253 0 256 -356q2 -176 -64.5 -270t-191.5 -94zM306 128q52 0 74 52.5t20 173.5q-1 117 -22.5 167.5t-71.5 50.5q-51 0 -73 -50.5t-21 -167.5q1 -121 23 -173.5t71 -52.5z" />
<glyph unicode="1" horiz-adv-x="411" d="M6 553q-1 15 10 18q22 7 96 49q12 7 47.5 28.5t57.5 33t38 15.5q11 3 59 3q16 0 16 -15v-670q0 -6 -4.5 -10.5t-10.5 -4.5h-122q-6 0 -10.5 4.5t-4.5 10.5v480l-33 -19q-55 -28 -94 -1t-45 78z" />
<glyph unicode="2" horiz-adv-x="550" d="M69 530q-7 -5 -14 -2t-8 11l-16 102q-3 17 11 24q88 45 188 45q122 0 180.5 -63t58.5 -148q0 -64 -40 -129t-134 -162l-73 -76h157q69 2 107 11q14 4 14 -10q3 -130 -105 -133h-360q-6 0 -10.5 4.5t-4.5 10.5v66q0 26 6.5 42t25.5 35l69 70q114 115 150 165t36 89 q0 42 -29 66t-77 24q-65 0 -132 -42z" />
<glyph unicode="3" horiz-adv-x="561" d="M42 148q3 13 17 8q58 -28 150 -28q140 0 140 83q0 40 -40.5 60.5t-108.5 20.5q-41 0 -91 -5q-8 -1 -13 4t-5 12v99q0 15 16 15q110 2 162.5 22t52.5 67q0 66 -99 66q-76 0 -141 -27q-16 -7 -18 9l-15 102q-3 15 10 19q100 35 191 35q111 0 177.5 -48.5t66.5 -131.5 q0 -51 -28.5 -89.5t-76.5 -60.5q57 -16 89.5 -57.5t32.5 -96.5q0 -109 -82.5 -172.5t-224.5 -63.5q-96 0 -134.5 44.5t-27.5 113.5z" />
<glyph unicode="4" horiz-adv-x="615" d="M40 305l205 332q19 31 42 47t60 16h119q6 0 10.5 -4.5t4.5 -10.5v-398q62 0 99 8q11 4 14 -5q1 -4 1 -11q0 -56 -23 -90t-69 -34h-22v-140q0 -6 -4.5 -10.5t-10.5 -4.5h-122q-6 0 -10.5 4.5t-4.5 10.5v140h-294q-6 0 -10.5 4.5t-4.5 10.5v66q0 36 20 69zM185 287h144v231 z" />
<glyph unicode="5" horiz-adv-x="566" d="M51 150q2 15 15 9q76 -31 154 -31q62 0 98 25t36 71q0 81 -162 81q-36 0 -101 -7q-17 -2 -17 14v373q0 6 4.5 10.5t10.5 4.5h386q6 0 10.5 -4.5t4.5 -10.5v-102q0 -6 -4.5 -10.5t-10.5 -4.5h-249v-115q0 -10 10 -10h21q119 0 189 -55.5t70 -148.5q0 -108 -81 -178.5 t-210 -70.5q-87 0 -135 40t-39 120z" />
<glyph unicode="6" horiz-adv-x="614" d="M538 543q-5 -15 -19 -6q-58 35 -128 35q-145 0 -180 -163q52 43 131 43q100 0 161 -57.5t61 -150.5q0 -116 -70 -185t-187 -69q-123 0 -190 79.5t-67 225.5q0 120 36 212t114.5 147.5t190.5 55.5q93 0 132 -49t15 -118zM307 313q-43 0 -69 -25t-26 -67q0 -44 25.5 -68.5 t69.5 -24.5t69.5 24.5t25.5 68.5q0 42 -26 67t-69 25z" />
<glyph unicode="7" horiz-adv-x="561" d="M117 553q-56 2 -89 49q-18 27 -23 81q-1 9 4.5 13t14.5 4h472q6 0 10.5 -4.5t4.5 -10.5v-85q0 -24 -10 -50l-184 -453q-20 -50 -24 -96q-1 -11 -12 -11q-61 0 -92 24q-40 32 -42 79t28 106l168 359q-1 0 -96 -3t-130 -2z" />
<glyph unicode="8" horiz-adv-x="614" d="M301 -9q-115 0 -183 50.5t-68 136.5q-1 55 32 95t88 77q-102 62 -102 159q-1 89 67 145t176 56q103 0 167 -50t65 -130q0 -88 -103 -160q123 -73 124 -173q1 -92 -72.5 -149t-190.5 -57zM311 427q80 46 80 92q0 28 -24 45.5t-64 17.5q-37 0 -60.5 -17t-22.5 -45 q1 -27 21.5 -48t69.5 -45zM311 129q41 0 66 18.5t25 48.5t-26.5 51t-78.5 44q-85 -50 -85 -93q0 -33 26 -51t73 -18z" />
<glyph unicode="9" horiz-adv-x="604" d="M66 157q5 14 19 6q58 -35 128 -35q145 0 180 163q-52 -43 -131 -43q-100 0 -161 57.5t-61 150.5q0 116 70 185t187 69q123 0 190 -79.5t67 -225.5q0 -120 -36 -212t-114.5 -147.5t-190.5 -55.5q-93 0 -132 49t-15 118zM297 387q43 0 69 25t26 67q0 44 -25.5 68.5 t-69.5 24.5t-69.5 -24.5t-25.5 -68.5q0 -42 26 -67t69 -25z" />
<glyph unicode=":" horiz-adv-x="286" d="M143 364q-38 0 -65.5 27.5t-27.5 65.5q0 37 28 65t65 28q38 0 65.5 -27.5t27.5 -65.5t-27 -65.5t-66 -27.5zM143 -10q-38 0 -65.5 27.5t-27.5 65.5q0 37 28 65t65 28q38 0 65.5 -27.5t27.5 -65.5t-27 -65.5t-66 -27.5z" />
<glyph unicode=";" horiz-adv-x="308" d="M165 364q-38 0 -65.5 27.5t-27.5 65.5q0 37 28 65t65 28q38 0 65.5 -27.5t27.5 -65.5t-27 -65.5t-66 -27.5zM35 -135q-7 3 -7 10q0 6 6 10q48 41 48 85q0 23 -16 55t-16 58q0 37 28 65t65 28q36 0 64.5 -29t28.5 -84q0 -71 -57 -137t-116 -66q-17 0 -28 5z" />
<glyph unicode="&#x3c;" horiz-adv-x="535" d="M479 139q12 -10 1 -23l-84 -85q-11 -11 -21 -1l-318 295q-15 15 0 30l317 295q10 10 21 0l85 -86q11 -13 -1 -23l-218 -201z" />
<glyph unicode="=" horiz-adv-x="500" d="M65 388q-6 0 -10.5 4.5t-4.5 10.5v92q0 6 4.5 10.5t10.5 4.5h370q6 0 10.5 -4.5t4.5 -10.5v-92q0 -6 -4.5 -10.5t-10.5 -4.5h-370zM65 190q-6 0 -10.5 4.5t-4.5 10.5v92q0 6 4.5 10.5t10.5 4.5h370q6 0 10.5 -4.5t4.5 -10.5v-92q0 -6 -4.5 -10.5t-10.5 -4.5h-370z" />
<glyph unicode="&#x3e;" horiz-adv-x="535" d="M55 116q-11 13 1 23l217 201l-217 201q-12 10 -1 23l85 86q10 10 21 0l317 -295q15 -15 0 -30l-318 -295q-10 -10 -21 1z" />
<glyph unicode="?" horiz-adv-x="459" d="M66 695q2 15 17 15q326 -14 326 -194q0 -40 -18 -75.5t-43 -60.5t-49 -48t-38.5 -49t-9.5 -54q2 -11 0 -15t-13 -8q-49 -18 -91 6t-40 79q3 34 25.5 68t47.5 56.5t46 46.5t21 41q0 61 -183 69q-16 0 -14 16zM182 -10q-38 0 -65.5 27.5t-27.5 65.5q0 37 27.5 65t65.5 28 t65.5 -27.5t27.5 -65.5t-27 -65.5t-66 -27.5z" />
<glyph unicode="@" horiz-adv-x="945" d="M455 -81q-190 0 -297.5 101.5t-107.5 281.5q0 205 133.5 342t332.5 137q173 0 276 -93t103 -249q0 -139 -69.5 -220t-188.5 -81q-47 0 -78 22t-36 62q-62 -84 -143 -84q-54 0 -83.5 41t-29.5 115q0 132 67 208.5t183 76.5q68 0 125 -21q11 -3 9 -16l-35 -199 q-9 -41 -0.5 -63t37.5 -22q50 0 78 46t28 129q0 106 -66 166t-184 60q-140 0 -231.5 -97.5t-91.5 -246.5q0 -132 73 -201t213 -69q84 0 183 30q18 5 20 -12q1 -16 -0.5 -32.5t-7 -36t-20.5 -35t-38 -22.5q-60 -18 -154 -18zM411 252q27 0 56 46t47 129l6 28q2 9 -7 11 q-12 3 -27 3q-45 0 -72.5 -51t-27.5 -107q0 -59 25 -59z" />
<glyph unicode="A" horiz-adv-x="827" d="M180 700q42 0 121 2.5t120 2.5q70 0 98.5 -21.5t46.5 -70.5l180 -505q20 -56 44 -89q6 -8 -1 -13q-27 -21 -79 -21q-102 0 -130 84l-22 66q-4 13 -18 13h-263q-12 0 -16 -13l-41 -121q-5 -14 -20 -14h-133q-9 0 -14 7t-2 16l193 545q-40 6 -59.5 33t-23.5 82q-1 9 4.5 13 t14.5 4zM506 287q11 0 8 12l-79 251q-7 23 -25 23h-13l-88 -275q-3 -11 9 -11h188z" />
<glyph unicode="B" horiz-adv-x="681" d="M37 710q51 0 149.5 2.5t149.5 2.5q115 0 180 -48t65 -133q0 -48 -24 -87t-65 -63q51 -19 79 -62.5t28 -91.5q0 -43 -14 -81t-44.5 -71.5t-87.5 -53.5t-134 -20l-203 6q-6 0 -10.5 4.5t-4.5 10.5v553q-39 6 -59 32.5t-24 82.5q-1 9 4.5 13t14.5 4zM300 427q119 0 119 86 q0 70 -99 70q-26 0 -62 -2v-144q0 -10 10 -10h32zM319 136q56 0 87 24t31 67q0 83 -133 83q-20 0 -36 -2q-10 -2 -10 -12v-147q0 -8 8 -10q24 -3 53 -3z" />
<glyph unicode="C" horiz-adv-x="639" d="M404 128q73 0 147 40q19 9 24 -8q4 -16 4 -37q0 -55 -47.5 -94t-155.5 -39q-155 0 -240.5 89.5t-85.5 250.5q0 179 93 279.5t259 100.5q73 0 144 -19q14 -3 12 -17l-17 -113q-3 -16 -19 -11q-67 22 -126 22q-87 0 -135.5 -57.5t-48.5 -161.5q0 -225 192 -225z" />
<glyph unicode="D" horiz-adv-x="739" d="M101 568q-40 6 -59.5 33t-23.5 82q-1 9 4.5 13t14.5 4q51 0 149 2.5t149 2.5q177 0 265.5 -88.5t88.5 -257.5t-102.5 -266.5t-279.5 -97.5l-191 5q-6 0 -10.5 4.5t-4.5 10.5v553zM318 128q100 0 154.5 57.5t54.5 163.5q0 114 -49.5 169t-151.5 55q-18 0 -68 -2v-430 q0 -9 10 -10q21 -3 50 -3z" />
<glyph unicode="E" horiz-adv-x="562" d="M101 568q-40 6 -59.5 33t-23.5 82q-1 9 4.5 13t14.5 4h436q6 0 10.5 -4.5t4.5 -10.5v-102q0 -6 -4.5 -10.5t-10.5 -4.5h-215v-142q0 -10 10 -10h185q6 0 10.5 -4.5t4.5 -10.5v-102q0 -6 -4.5 -10.5t-10.5 -4.5h-185q-10 0 -10 -10v-132q0 -10 10 -10h133q69 0 107 11 q14 4 14 -10q1 -69 -27 -101t-78 -32h-301q-6 0 -10.5 4.5t-4.5 10.5v553z" />
<glyph unicode="F" horiz-adv-x="556" d="M101 568q-40 6 -59.5 33t-23.5 82q-1 9 4.5 13t14.5 4h436q6 0 10.5 -4.5t4.5 -10.5v-102q0 -6 -4.5 -10.5t-10.5 -4.5h-215v-142q0 -10 10 -10h185q6 0 10.5 -4.5t4.5 -10.5v-102q0 -6 -4.5 -10.5t-10.5 -4.5h-185q-10 0 -10 -10v-259q0 -6 -4.5 -10.5t-10.5 -4.5h-127 q-6 0 -10.5 4.5t-4.5 10.5v553z" />
<glyph unicode="G" horiz-adv-x="715" d="M472 259q-43 0 -67 33q-19 26 -24 82q-1 9 4.5 13t14.5 4q28 0 82 2.5t81 2.5q35 0 58.5 -23.5t23.5 -58.5v-260q0 -15 -14 -21q-114 -43 -228 -43q-165 0 -259 92t-94 254q0 168 107 271t280 103q105 0 187 -27q14 -5 12 -20l-17 -111q-3 -16 -19 -11q-83 31 -171 31 q-101 0 -159 -60t-58 -164q0 -105 53.5 -162.5t151.5 -57.5q37 0 65 9q6 1 6 9v113h-16z" />
<glyph unicode="H" d="M37 700q23 0 68.5 2.5t70.5 2.5q35 0 58.5 -23.5t23.5 -58.5v-185q0 -10 10 -10h246q10 0 10 10v247q0 6 4.5 10.5t10.5 4.5h127q6 0 10.5 -4.5t4.5 -10.5v-670q0 -6 -4.5 -10.5t-10.5 -4.5h-127q-6 0 -10.5 4.5t-4.5 10.5v271q0 10 -10 10h-246q-10 0 -10 -10v-271 q0 -6 -4.5 -10.5t-10.5 -4.5h-127q-6 0 -10.5 4.5t-4.5 10.5v553q-40 6 -59.5 33t-23.5 82q-1 9 4.5 13t14.5 4z" />
<glyph unicode="I" horiz-adv-x="340" d="M37 700q24 0 69.5 2.5t69.5 2.5q35 0 58.5 -23.5t23.5 -58.5v-608q0 -6 -4.5 -10.5t-10.5 -4.5h-127q-6 0 -10.5 4.5t-4.5 10.5v553q-40 6 -59.5 33t-23.5 82q-1 9 4.5 13t14.5 4z" />
<glyph unicode="J" horiz-adv-x="470" d="M167 700q24 0 69.5 2.5t69.5 2.5q35 0 58.5 -23.5t23.5 -58.5v-422q0 -102 -53.5 -156.5t-149.5 -54.5q-78 0 -121.5 35.5t-43.5 98.5q0 19 3 35q1 7 7.5 9.5t11.5 -1.5q58 -39 116 -39q34 0 53.5 17.5t19.5 65.5v357q-40 6 -59.5 33t-23.5 82q-1 9 4.5 13t14.5 4z" />
<glyph unicode="K" horiz-adv-x="726" d="M37 700q24 0 69.5 2.5t69.5 2.5q35 0 58.5 -23.5t23.5 -58.5v-239l219 296q14 20 42 20h123q14 0 19 -8.5t-3 -19.5l-225 -297q-5 -6 0 -12q30 -38 91.5 -121t103 -136t62.5 -73q12 -10 0 -20q-35 -28 -81 -28q-54 0 -89 21.5t-68 69.5l-194 276v-337q0 -6 -4.5 -10.5 t-10.5 -4.5h-127q-6 0 -10.5 4.5t-4.5 10.5v553q-40 6 -59.5 33t-23.5 82q-1 9 4.5 13t14.5 4z" />
<glyph unicode="L" horiz-adv-x="530" d="M37 700q24 0 69.5 2.5t69.5 2.5q35 0 58.5 -23.5t23.5 -58.5v-481q0 -10 10 -10h121q69 2 107 11q14 4 14 -10q3 -130 -105 -133h-289q-6 0 -10.5 4.5t-4.5 10.5v553q-40 6 -59.5 33t-23.5 82q-1 9 4.5 13t14.5 4z" />
<glyph unicode="M" horiz-adv-x="981" d="M80 700q34 0 92.5 2.5t92.5 2.5q28 0 50 -15.5t30 -42.5l138 -432l153 469q5 16 22 16h70q34 0 58 -20t29 -54l81 -522q6 -39 23 -83q4 -9 -2 -14q-29 -22 -70 -22q-92 0 -105 94l-53 350l-130 -413q-5 -16 -22 -16h-89q-43 0 -57 44l-122 378l-51 -409q-2 -13 -15 -13 h-127q-8 0 -12.5 5.5t-3.5 13.5l84 549q-40 6 -59.5 33t-23.5 82q-1 9 4 13t15 4z" />
<glyph unicode="N" horiz-adv-x="752" d="M687 32q6 -16 -8 -25q-33 -22 -78 -22q-86 0 -137 90l-211 377v-437q0 -6 -4.5 -10.5t-10.5 -4.5h-122q-6 0 -10.5 4.5t-4.5 10.5v553q-40 6 -59.5 33t-23.5 82q-1 9 4.5 13t14.5 4q35 0 90.5 2.5t90.5 2.5q47 0 69 -40l232 -415v435q0 6 4.5 10.5t10.5 4.5h122 q6 0 10.5 -4.5t4.5 -10.5v-517q0 -91 16 -136z" />
<glyph unicode="O" horiz-adv-x="764" d="M382 -10q-159 0 -245 93.5t-87 266.5q-1 170 87 265t245 95q159 0 245 -93.5t87 -266.5q2 -170 -86 -265t-246 -95zM382 128q81 0 126 58.5t44 163.5q-1 104 -46 163t-124 59q-80 0 -125 -59t-45 -163q1 -105 46 -163.5t124 -58.5z" />
<glyph unicode="P" horiz-adv-x="631" d="M101 568q-40 6 -59.5 33t-23.5 82q-1 9 4.5 13t14.5 4q45 0 131 2.5t131 2.5q129 0 200.5 -55.5t71.5 -159.5q0 -109 -79 -182t-200 -73l-23 1q-11 0 -11 -11v-210q0 -6 -4.5 -10.5t-10.5 -4.5h-127q-6 0 -10.5 4.5t-4.5 10.5v553zM286 367q57 1 90 32t33 81q0 49 -28 71 t-87 22q-12 0 -36 -2v-193q0 -10 9 -10q7 -1 19 -1z" />
<glyph unicode="Q" horiz-adv-x="764" d="M686 -44q18 0 16 -16q-5 -50 -37.5 -80t-86.5 -30q-63 0 -116 49.5t-65 110.5h-15q-160 0 -246 94.5t-86 268.5q0 168 87.5 262.5t244.5 94.5q160 0 246 -94.5t86 -270.5q0 -115 -42.5 -196.5t-121.5 -122.5q10 -31 50 -52t84 -18h2zM212 350q1 -105 46 -163.5t124 -58.5 q80 0 125 58t45 161q0 106 -45 165.5t-125 59.5t-125 -59t-45 -163z" />
<glyph unicode="R" horiz-adv-x="675" d="M101 568q-40 6 -59.5 33t-23.5 82q-1 9 4.5 13t14.5 4q45 0 131 2.5t131 2.5q135 0 210 -53.5t75 -152.5q0 -130 -136 -196q31 -40 80 -106.5t79.5 -105t51.5 -58.5q12 -10 0 -20q-35 -28 -81 -28q-54 0 -89.5 21.5t-67.5 69.5l-114 170q-8 11 -20 11h-19q-10 0 -10 -10 v-232q0 -6 -4.5 -10.5t-10.5 -4.5h-127q-6 0 -10.5 4.5t-4.5 10.5v553zM311 573q-29 0 -53 -2v-172q0 -10 10 -10h39q53 0 84 25t31 68q0 91 -111 91z" />
<glyph unicode="S" horiz-adv-x="556" d="M439 562q-50 10 -104 10q-67 0 -92 -19.5t-25 -44.5q0 -31 30 -53.5t73 -40t86.5 -39.5t73.5 -65t30 -104q0 -105 -80 -160.5t-208 -55.5q-97 0 -137.5 38t-40.5 94q0 21 3 33q5 17 24 8q73 -35 145 -35q59 0 95.5 18t36.5 54q0 31 -30 55t-73.5 42.5t-86.5 41.5 t-73 65.5t-30 102.5q0 203 288 203q67 0 118 -13q14 -3 12 -17l-16 -107q-2 -14 -19 -11z" />
<glyph unicode="T" horiz-adv-x="607" d="M392 561q-10 0 -10 -10v-331q0 -54 12.5 -73.5t45.5 -24.5q17 -3 41 -1q22 3 17 -25q-7 -41 -43.5 -73.5t-93.5 -32.5q-73 0 -104.5 42t-31.5 140v379q0 10 -10 10h-160q-6 0 -10.5 4.5t-4.5 10.5v109q0 6 4.5 10.5t10.5 4.5h497q6 0 10.5 -4.5t4.5 -10.5v-109 q0 -6 -4.5 -10.5t-10.5 -4.5h-160z" />
<glyph unicode="U" d="M101 568q-40 6 -59.5 33t-23.5 82q-1 9 4.5 13t14.5 4q25 0 71 2.5t67 2.5q38 0 60.5 -21t22.5 -62v-350q0 -70 34.5 -106.5t98.5 -36.5t98.5 36.5t34.5 106.5v413q0 6 4.5 10.5t10.5 4.5h127q6 0 10.5 -4.5t4.5 -10.5v-446q0 -119 -76 -183.5t-214 -64.5 q-290 0 -290 248v329z" />
<glyph unicode="V" horiz-adv-x="723" d="M679 678q-25 -38 -46 -93l-206 -570q-5 -15 -21 -15h-121q-27 0 -35 25l-229 652q-3 9 2 16t14 7h88q25 0 44.5 -13.5t26.5 -37.5l147 -447l129 395q22 65 51 91.5t84 26.5q40 0 66 -15q15 -8 6 -22z" />
<glyph unicode="W" horiz-adv-x="1004" d="M960 678q-29 -44 -46 -103l-146 -557q-5 -18 -23 -18h-112q-29 0 -36 29l-115 436l-115 -447q-5 -18 -23 -18h-119q-29 0 -36 28l-168 651q-2 9 3 15t14 6h79q27 0 47.5 -16t26.5 -42l97 -401l118 442q5 17 23 17h66q58 0 73 -56l110 -402l83 365q14 59 42.5 83.5 t84.5 24.5q40 0 66 -15q16 -9 6 -22z" />
<glyph unicode="X" horiz-adv-x="692" d="M661 33q12 -10 0 -20q-35 -28 -81 -28q-54 0 -85 21.5t-63 74.5l-99 157l-128 -220q-10 -18 -29 -18h-127q-12 0 -17 9t1 20l204 327l-193 315q-6 11 -1 20t17 9h97q46 0 68 -39l110 -188l122 209q10 18 30 18h119q12 0 17 -9t-1 -20l-191 -312q38 -54 81 -118.5 t64.5 -97t44.5 -63.5t40 -47z" />
<glyph unicode="Y" horiz-adv-x="639" d="M386 597q26 61 57.5 89.5t85.5 28.5q40 0 66 -15q17 -10 6 -22q-18 -21 -55.5 -93.5t-99 -199t-73.5 -150.5v-220q0 -6 -4.5 -10.5t-10.5 -4.5h-127q-6 0 -10.5 4.5t-4.5 10.5v220l-209 439q-4 10 1 18t16 8h89q46 0 66 -43l117 -260z" />
<glyph unicode="Z" horiz-adv-x="614" d="M448 132q69 2 107 11q14 4 14 -10q3 -130 -105 -133h-399q-6 0 -10.5 4.5t-4.5 10.5v61q0 38 20 69l273 423h-265q-6 0 -10.5 4.5t-4.5 10.5v102q0 6 4.5 10.5t10.5 4.5h428q6 0 10.5 -4.5t4.5 -10.5v-66q0 -25 -3 -36.5t-16 -31.5l-264 -419h210z" />
<glyph unicode="\" horiz-adv-x="472" d="M446 -33q2 -7 -1 -12t-10 -5h-113q-11 0 -16 11l-280 771q-2 7 1 12t10 5h113q11 0 16 -11z" />
<glyph unicode="^" horiz-adv-x="586" d="M535 262q2 -6 -1.5 -10.5t-9.5 -4.5h-116q-13 0 -17 12l-98 279l-98 -279q-5 -12 -16 -12h-117q-6 0 -9.5 5t-1.5 10l149 413q9 25 35 25h127q9 0 13 -9z" />
<glyph unicode="_" horiz-adv-x="500" d="M65 -152q-6 0 -10.5 4.5t-4.5 10.5v102q0 6 4.5 10.5t10.5 4.5h370q6 0 10.5 -4.5t4.5 -10.5v-102q0 -6 -4.5 -10.5t-10.5 -4.5h-370z" />
<glyph unicode="`" horiz-adv-x="352" d="M294 770q4 -11 -0.5 -18t-14.5 -7h-91q-16 0 -27 14l-80 126q-6 10 -2.5 20t14.5 10h122q26 0 36 -27z" />
<glyph unicode="a" horiz-adv-x="827" d="M180 700q42 0 121 2.5t120 2.5q70 0 98.5 -21.5t46.5 -70.5l180 -505q20 -56 44 -89q6 -8 -1 -13q-27 -21 -79 -21q-102 0 -130 84l-22 66q-4 13 -18 13h-263q-12 0 -16 -13l-41 -121q-5 -14 -20 -14h-133q-9 0 -14 7t-2 16l193 545q-40 6 -59.5 33t-23.5 82q-1 9 4.5 13 t14.5 4zM506 287q11 0 8 12l-79 251q-7 23 -25 23h-13l-88 -275q-3 -11 9 -11h188z" />
<glyph unicode="b" horiz-adv-x="681" d="M37 710q51 0 149.5 2.5t149.5 2.5q115 0 180 -48t65 -133q0 -48 -24 -87t-65 -63q51 -19 79 -62.5t28 -91.5q0 -43 -14 -81t-44.5 -71.5t-87.5 -53.5t-134 -20l-203 6q-6 0 -10.5 4.5t-4.5 10.5v553q-39 6 -59 32.5t-24 82.5q-1 9 4.5 13t14.5 4zM300 427q119 0 119 86 q0 70 -99 70q-26 0 -62 -2v-144q0 -10 10 -10h32zM319 136q56 0 87 24t31 67q0 83 -133 83q-20 0 -36 -2q-10 -2 -10 -12v-147q0 -8 8 -10q24 -3 53 -3z" />
<glyph unicode="c" horiz-adv-x="639" d="M404 128q73 0 147 40q19 9 24 -8q4 -16 4 -37q0 -55 -47.5 -94t-155.5 -39q-155 0 -240.5 89.5t-85.5 250.5q0 179 93 279.5t259 100.5q73 0 144 -19q14 -3 12 -17l-17 -113q-3 -16 -19 -11q-67 22 -126 22q-87 0 -135.5 -57.5t-48.5 -161.5q0 -225 192 -225z" />
<glyph unicode="d" horiz-adv-x="739" d="M101 568q-40 6 -59.5 33t-23.5 82q-1 9 4.5 13t14.5 4q51 0 149 2.5t149 2.5q177 0 265.5 -88.5t88.5 -257.5t-102.5 -266.5t-279.5 -97.5l-191 5q-6 0 -10.5 4.5t-4.5 10.5v553zM318 128q100 0 154.5 57.5t54.5 163.5q0 114 -49.5 169t-151.5 55q-18 0 -68 -2v-430 q0 -9 10 -10q21 -3 50 -3z" />
<glyph unicode="e" horiz-adv-x="562" d="M101 568q-40 6 -59.5 33t-23.5 82q-1 9 4.5 13t14.5 4h436q6 0 10.5 -4.5t4.5 -10.5v-102q0 -6 -4.5 -10.5t-10.5 -4.5h-215v-142q0 -10 10 -10h185q6 0 10.5 -4.5t4.5 -10.5v-102q0 -6 -4.5 -10.5t-10.5 -4.5h-185q-10 0 -10 -10v-132q0 -10 10 -10h133q69 0 107 11 q14 4 14 -10q1 -69 -27 -101t-78 -32h-301q-6 0 -10.5 4.5t-4.5 10.5v553z" />
<glyph unicode="f" horiz-adv-x="556" d="M101 568q-40 6 -59.5 33t-23.5 82q-1 9 4.5 13t14.5 4h436q6 0 10.5 -4.5t4.5 -10.5v-102q0 -6 -4.5 -10.5t-10.5 -4.5h-215v-142q0 -10 10 -10h185q6 0 10.5 -4.5t4.5 -10.5v-102q0 -6 -4.5 -10.5t-10.5 -4.5h-185q-10 0 -10 -10v-259q0 -6 -4.5 -10.5t-10.5 -4.5h-127 q-6 0 -10.5 4.5t-4.5 10.5v553z" />
<glyph unicode="g" horiz-adv-x="715" d="M472 259q-43 0 -67 33q-19 26 -24 82q-1 9 4.5 13t14.5 4q28 0 82 2.5t81 2.5q35 0 58.5 -23.5t23.5 -58.5v-260q0 -15 -14 -21q-114 -43 -228 -43q-165 0 -259 92t-94 254q0 168 107 271t280 103q105 0 187 -27q14 -5 12 -20l-17 -111q-3 -16 -19 -11q-83 31 -171 31 q-101 0 -159 -60t-58 -164q0 -105 53.5 -162.5t151.5 -57.5q37 0 65 9q6 1 6 9v113h-16z" />
<glyph unicode="h" d="M37 700q23 0 68.5 2.5t70.5 2.5q35 0 58.5 -23.5t23.5 -58.5v-185q0 -10 10 -10h246q10 0 10 10v247q0 6 4.5 10.5t10.5 4.5h127q6 0 10.5 -4.5t4.5 -10.5v-670q0 -6 -4.5 -10.5t-10.5 -4.5h-127q-6 0 -10.5 4.5t-4.5 10.5v271q0 10 -10 10h-246q-10 0 -10 -10v-271 q0 -6 -4.5 -10.5t-10.5 -4.5h-127q-6 0 -10.5 4.5t-4.5 10.5v553q-40 6 -59.5 33t-23.5 82q-1 9 4.5 13t14.5 4z" />
<glyph unicode="i" horiz-adv-x="340" d="M37 700q24 0 69.5 2.5t69.5 2.5q35 0 58.5 -23.5t23.5 -58.5v-608q0 -6 -4.5 -10.5t-10.5 -4.5h-127q-6 0 -10.5 4.5t-4.5 10.5v553q-40 6 -59.5 33t-23.5 82q-1 9 4.5 13t14.5 4z" />
<glyph unicode="j" horiz-adv-x="470" d="M167 700q24 0 69.5 2.5t69.5 2.5q35 0 58.5 -23.5t23.5 -58.5v-422q0 -102 -53.5 -156.5t-149.5 -54.5q-78 0 -121.5 35.5t-43.5 98.5q0 19 3 35q1 7 7.5 9.5t11.5 -1.5q58 -39 116 -39q34 0 53.5 17.5t19.5 65.5v357q-40 6 -59.5 33t-23.5 82q-1 9 4.5 13t14.5 4z" />
<glyph unicode="k" horiz-adv-x="726" d="M37 700q24 0 69.5 2.5t69.5 2.5q35 0 58.5 -23.5t23.5 -58.5v-239l219 296q14 20 42 20h123q14 0 19 -8.5t-3 -19.5l-225 -297q-5 -6 0 -12q30 -38 91.5 -121t103 -136t62.5 -73q12 -10 0 -20q-35 -28 -81 -28q-54 0 -89 21.5t-68 69.5l-194 276v-337q0 -6 -4.5 -10.5 t-10.5 -4.5h-127q-6 0 -10.5 4.5t-4.5 10.5v553q-40 6 -59.5 33t-23.5 82q-1 9 4.5 13t14.5 4z" />
<glyph unicode="l" horiz-adv-x="530" d="M37 700q24 0 69.5 2.5t69.5 2.5q35 0 58.5 -23.5t23.5 -58.5v-481q0 -10 10 -10h121q69 2 107 11q14 4 14 -10q3 -130 -105 -133h-289q-6 0 -10.5 4.5t-4.5 10.5v553q-40 6 -59.5 33t-23.5 82q-1 9 4.5 13t14.5 4z" />
<glyph unicode="m" horiz-adv-x="981" d="M80 700q34 0 92.5 2.5t92.5 2.5q28 0 50 -15.5t30 -42.5l138 -432l153 469q5 16 22 16h70q34 0 58 -20t29 -54l81 -522q6 -39 23 -83q4 -9 -2 -14q-29 -22 -70 -22q-92 0 -105 94l-53 350l-130 -413q-5 -16 -22 -16h-89q-43 0 -57 44l-122 378l-51 -409q-2 -13 -15 -13 h-127q-8 0 -12.5 5.5t-3.5 13.5l84 549q-40 6 -59.5 33t-23.5 82q-1 9 4 13t15 4z" />
<glyph unicode="n" horiz-adv-x="752" d="M687 32q6 -16 -8 -25q-33 -22 -78 -22q-86 0 -137 90l-211 377v-437q0 -6 -4.5 -10.5t-10.5 -4.5h-122q-6 0 -10.5 4.5t-4.5 10.5v553q-40 6 -59.5 33t-23.5 82q-1 9 4.5 13t14.5 4q35 0 90.5 2.5t90.5 2.5q47 0 69 -40l232 -415v435q0 6 4.5 10.5t10.5 4.5h122 q6 0 10.5 -4.5t4.5 -10.5v-517q0 -91 16 -136z" />
<glyph unicode="o" horiz-adv-x="764" d="M382 -10q-159 0 -245 93.5t-87 266.5q-1 170 87 265t245 95q159 0 245 -93.5t87 -266.5q2 -170 -86 -265t-246 -95zM382 128q81 0 126 58.5t44 163.5q-1 104 -46 163t-124 59q-80 0 -125 -59t-45 -163q1 -105 46 -163.5t124 -58.5z" />
<glyph unicode="p" horiz-adv-x="631" d="M101 568q-40 6 -59.5 33t-23.5 82q-1 9 4.5 13t14.5 4q45 0 131 2.5t131 2.5q129 0 200.5 -55.5t71.5 -159.5q0 -109 -79 -182t-200 -73l-23 1q-11 0 -11 -11v-210q0 -6 -4.5 -10.5t-10.5 -4.5h-127q-6 0 -10.5 4.5t-4.5 10.5v553zM286 367q57 1 90 32t33 81q0 49 -28 71 t-87 22q-12 0 -36 -2v-193q0 -10 9 -10q7 -1 19 -1z" />
<glyph unicode="q" horiz-adv-x="764" d="M686 -44q18 0 16 -16q-5 -50 -37.5 -80t-86.5 -30q-63 0 -116 49.5t-65 110.5h-15q-160 0 -246 94.5t-86 268.5q0 168 87.5 262.5t244.5 94.5q160 0 246 -94.5t86 -270.5q0 -115 -42.5 -196.5t-121.5 -122.5q10 -31 50 -52t84 -18h2zM212 350q1 -105 46 -163.5t124 -58.5 q80 0 125 58t45 161q0 106 -45 165.5t-125 59.5t-125 -59t-45 -163z" />
<glyph unicode="r" horiz-adv-x="675" d="M101 568q-40 6 -59.5 33t-23.5 82q-1 9 4.5 13t14.5 4q45 0 131 2.5t131 2.5q135 0 210 -53.5t75 -152.5q0 -130 -136 -196q31 -40 80 -106.5t79.5 -105t51.5 -58.5q12 -10 0 -20q-35 -28 -81 -28q-54 0 -89.5 21.5t-67.5 69.5l-114 170q-8 11 -20 11h-19q-10 0 -10 -10 v-232q0 -6 -4.5 -10.5t-10.5 -4.5h-127q-6 0 -10.5 4.5t-4.5 10.5v553zM311 573q-29 0 -53 -2v-172q0 -10 10 -10h39q53 0 84 25t31 68q0 91 -111 91z" />
<glyph unicode="s" horiz-adv-x="556" d="M439 562q-50 10 -104 10q-67 0 -92 -19.5t-25 -44.5q0 -31 30 -53.5t73 -40t86.5 -39.5t73.5 -65t30 -104q0 -105 -80 -160.5t-208 -55.5q-97 0 -137.5 38t-40.5 94q0 21 3 33q5 17 24 8q73 -35 145 -35q59 0 95.5 18t36.5 54q0 31 -30 55t-73.5 42.5t-86.5 41.5 t-73 65.5t-30 102.5q0 203 288 203q67 0 118 -13q14 -3 12 -17l-16 -107q-2 -14 -19 -11z" />
<glyph unicode="t" horiz-adv-x="607" d="M392 561q-10 0 -10 -10v-331q0 -54 12.5 -73.5t45.5 -24.5q17 -3 41 -1q22 3 17 -25q-7 -41 -43.5 -73.5t-93.5 -32.5q-73 0 -104.5 42t-31.5 140v379q0 10 -10 10h-160q-6 0 -10.5 4.5t-4.5 10.5v109q0 6 4.5 10.5t10.5 4.5h497q6 0 10.5 -4.5t4.5 -10.5v-109 q0 -6 -4.5 -10.5t-10.5 -4.5h-160z" />
<glyph unicode="u" d="M101 568q-40 6 -59.5 33t-23.5 82q-1 9 4.5 13t14.5 4q25 0 71 2.5t67 2.5q38 0 60.5 -21t22.5 -62v-350q0 -70 34.5 -106.5t98.5 -36.5t98.5 36.5t34.5 106.5v413q0 6 4.5 10.5t10.5 4.5h127q6 0 10.5 -4.5t4.5 -10.5v-446q0 -119 -76 -183.5t-214 -64.5 q-290 0 -290 248v329z" />
<glyph unicode="v" horiz-adv-x="723" d="M679 678q-25 -38 -46 -93l-206 -570q-5 -15 -21 -15h-121q-27 0 -35 25l-229 652q-3 9 2 16t14 7h88q25 0 44.5 -13.5t26.5 -37.5l147 -447l129 395q22 65 51 91.5t84 26.5q40 0 66 -15q15 -8 6 -22z" />
<glyph unicode="w" horiz-adv-x="1004" d="M960 678q-29 -44 -46 -103l-146 -557q-5 -18 -23 -18h-112q-29 0 -36 29l-115 436l-115 -447q-5 -18 -23 -18h-119q-29 0 -36 28l-168 651q-2 9 3 15t14 6h79q27 0 47.5 -16t26.5 -42l97 -401l118 442q5 17 23 17h66q58 0 73 -56l110 -402l83 365q14 59 42.5 83.5 t84.5 24.5q40 0 66 -15q16 -9 6 -22z" />
<glyph unicode="x" horiz-adv-x="692" d="M661 33q12 -10 0 -20q-35 -28 -81 -28q-54 0 -85 21.5t-63 74.5l-99 157l-128 -220q-10 -18 -29 -18h-127q-12 0 -17 9t1 20l204 327l-193 315q-6 11 -1 20t17 9h97q46 0 68 -39l110 -188l122 209q10 18 30 18h119q12 0 17 -9t-1 -20l-191 -312q38 -54 81 -118.5 t64.5 -97t44.5 -63.5t40 -47z" />
<glyph unicode="y" horiz-adv-x="639" d="M386 597q26 61 57.5 89.5t85.5 28.5q40 0 66 -15q17 -10 6 -22q-18 -21 -55.5 -93.5t-99 -199t-73.5 -150.5v-220q0 -6 -4.5 -10.5t-10.5 -4.5h-127q-6 0 -10.5 4.5t-4.5 10.5v220l-209 439q-4 10 1 18t16 8h89q46 0 66 -43l117 -260z" />
<glyph unicode="z" horiz-adv-x="614" d="M448 132q69 2 107 11q14 4 14 -10q3 -130 -105 -133h-399q-6 0 -10.5 4.5t-4.5 10.5v61q0 38 20 69l273 423h-265q-6 0 -10.5 4.5t-4.5 10.5v102q0 6 4.5 10.5t10.5 4.5h428q6 0 10.5 -4.5t4.5 -10.5v-66q0 -25 -3 -36.5t-16 -31.5l-264 -419h210z" />
<glyph unicode="|" horiz-adv-x="257" d="M65 -200q-6 0 -10.5 4.5t-4.5 10.5v970q0 6 4.5 10.5t10.5 4.5h127q6 0 10.5 -4.5t4.5 -10.5v-970q0 -6 -4.5 -10.5t-10.5 -4.5h-127z" />
<glyph unicode="&#xa1;" horiz-adv-x="286" d="M143 510q38 0 65.5 -27.5t27.5 -65.5q0 -37 -28 -65t-65 -28q-38 0 -65.5 27.5t-27.5 65.5t27 65.5t66 27.5zM73 -200q-15 0 -15 16l17 441q1 15 19 18q75 11 95.5 -4t23.5 -86l15 -369q0 -16 -15 -16h-140z" />
<glyph unicode="&#xa3;" horiz-adv-x="599" d="M90 117q3 5 18.5 24t22 29.5t14 31t7.5 40.5q0 31 -2 44h-85q-6 0 -10.5 4.5t-4.5 10.5v102q0 6 4.5 10.5t10.5 4.5h68q-7 47 -7 73q0 219 237 219q55 0 111 -15q13 -3 12 -16l-16 -110q-2 -12 -16 -9q-55 13 -87 12q-79 -1 -79 -81q0 -27 7 -73h132q6 0 10.5 -4.5 t4.5 -10.5v-102q0 -6 -4.5 -10.5t-10.5 -4.5h-115q2 -26 2 -40q0 -72 -47 -114h161q61 0 107 11q14 4 14 -10q3 -133 -105 -133h-359q-6 0 -10.5 4.5t-4.5 10.5v33q0 38 20 69z" />
<glyph unicode="&#xa7;" horiz-adv-x="560" d="M421 628q-42 8 -81 8q-46 0 -65.5 -15t-19.5 -35q0 -22 26.5 -47.5t63.5 -52.5t74.5 -58.5t64 -77.5t26.5 -98q0 -84 -81 -151q36 -50 36 -106q0 -74 -63.5 -129.5t-194.5 -55.5q-85 0 -117.5 43.5t-20.5 115.5q1 6 6 8.5t10 -0.5q62 -29 124 -29q94 0 94 48q0 23 -26 49 t-63 53.5t-74.5 59.5t-63.5 77.5t-26 97.5q0 86 80 152q-37 46 -37 105q0 84 65.5 134t177.5 50q68 0 106 -12q13 -3 12 -16l-17 -109q-2 -12 -16 -9zM337 181q26 23 26 53q0 35 -27.5 67.5t-113.5 103.5q-25 -24 -25 -56q0 -37 33.5 -74t106.5 -94z" />
<glyph unicode="&#xa8;" horiz-adv-x="485" d="M136 745q-36 0 -61 25t-25 60t25 60t61 25q35 0 59.5 -25t24.5 -60t-24.5 -60t-59.5 -25zM349 745q-35 0 -59.5 25t-24.5 60t24.5 60t59.5 25q36 0 61 -25t25 -60t-25 -60t-61 -25z" />
<glyph unicode="&#xab;" horiz-adv-x="675" d="M518 125q-116 -92 -244 -63q-111 26 -181 141q-67 109 -31 238q17 62 56 101t99 72q62 32 139 30q34 -1 53 -2.5t61 -19.5t77 -53q45 -45 70 -141q19 -82 -6 -167q-20 -79 -93 -136zM439 480v64q-9 4 -57 4q-36 0 -63 -25.5t-27 -61.5v-62h-63v-70h63v-185h75v183h61 l11 71h-72v51q0 31 29 31h43z" />
<glyph unicode="&#xac;" horiz-adv-x="766" d="M640 240q-11 -5 -17 -2t-3 13q5 15 5 31q0 23 -14.5 39t-36.5 16q-41 0 -71 -31.5t-30 -74.5q0 -29 21 -45t51 -16h13q11 0 11 -16q0 -23 -15.5 -41.5t-47.5 -18.5q-24 0 -40.5 12.5t-24.5 24.5t-11 12q-12 0 11 -45q7 -14 7 -20q0 -25 -26.5 -56.5t-38.5 -31.5 t-38.5 31.5t-26.5 56.5q0 6 7 20q23 45 11 45q-3 0 -11 -12t-24.5 -24.5t-40.5 -12.5q-32 0 -47.5 18.5t-15.5 41.5q0 16 11 16h13q30 0 51 16t21 45q0 43 -30 74.5t-71 31.5q-22 0 -36.5 -16t-14.5 -39q0 -16 5 -31q3 -10 -3 -13t-17 2q-31 14 -53.5 54t-22.5 80 q0 58 32 91.5t80 33.5q64 0 111 -55q4 -4 10.5 -13t11.5 -14.5t10 -5.5q9 0 9 15q0 16 -12 54.5t-17.5 65.5t6.5 65q14 29 45.5 64t46.5 35t46.5 -35t45.5 -64q12 -38 6.5 -64t-17.5 -64.5t-12 -56.5q0 -15 9 -15q5 0 10 5.5t11.5 14.5t10.5 13q47 55 111 55q48 0 80 -33.5 t32 -91.5q0 -44 -23.5 -82.5t-52.5 -51.5z" />
<glyph unicode="&#xad;" horiz-adv-x="400" d="M65 284q-6 0 -10.5 4.5t-4.5 10.5v102q0 6 4.5 10.5t10.5 4.5h270q6 0 10.5 -4.5t4.5 -10.5v-102q0 -6 -4.5 -10.5t-10.5 -4.5h-270z" />
<glyph unicode="&#xaf;" horiz-adv-x="430" d="M65 752q-6 0 -10.5 4.5t-4.5 10.5v87q0 6 4.5 10.5t10.5 4.5h300q6 0 10.5 -4.5t4.5 -10.5v-87q0 -6 -4.5 -10.5t-10.5 -4.5h-300z" />
<glyph unicode="&#xb0;" horiz-adv-x="408" d="M204 424q-71 0 -112.5 35t-41.5 108q0 67 43.5 105t110.5 38q70 0 112 -36.5t42 -106.5q0 -67 -43.5 -105t-110.5 -38zM204 515q22 0 35.5 13t13.5 39q0 52 -49 52q-22 0 -35.5 -13t-13.5 -39q0 -52 49 -52z" />
<glyph unicode="&#xb4;" horiz-adv-x="352" d="M57 770l61 123q12 22 34 22h128q11 0 15 -10.5t-3 -19.5l-98 -126q-11 -14 -27 -14h-95q-10 0 -15.5 7t0.5 18z" />
<glyph unicode="&#xb6;" horiz-adv-x="684" d="M128 175q-42 45 -61 101q-17 53 -17 103q0 37 6.5 61.5t21 48.5t16.5 28q9 16 22 30t21.5 20.5t24 16t17.5 11.5q84 43 182 43q24 0 52 -4q15 -2 100 -34q38 -13 72 -66q25 -38 37 -76t12 -60q0 -56 -20 -131q-6 -23 -12 -39.5t-15 -30.5t-11.5 -18.5t-16.5 -19 t-16 -16.5q-1 -1 -6 -7t-7 -8t-7 -7.5t-8 -8l-9 -7.5t-11 -7.5t-11.5 -6.5t-14.5 -7t-16 -5q-69 -21 -111 -21q-49 0 -110 35.5t-104 81.5z" />
<glyph unicode="&#xb7;" horiz-adv-x="286" d="M143 257q-38 0 -65.5 27.5t-27.5 65.5t28 65.5t65 27.5q38 0 65.5 -27.5t27.5 -65.5t-27 -65.5t-66 -27.5z" />
<glyph unicode="&#xb8;" horiz-adv-x="301" d="M158 -27q103 -22 103 -107q0 -60 -54.5 -89.5t-128.5 -19.5q-12 2 -14 12l-13 54q-4 17 13 17q69 0 69 26q0 28 -80 28q-16 0 -13 16l7 30l19 79h103z" />
<glyph unicode="&#xbb;" horiz-adv-x="744" d="M680 333q14 0 14 -33q0 -31 -16 -74.5t-40 -77.5q-48 -66 -137.5 -112t-128.5 -46t-128.5 46t-137.5 112q-24 34 -40 77.5t-16 74.5q0 33 14 33q10 0 36 -16q59 -39 79 -56t20 -31q0 -11 -11.5 -18.5t-11.5 -13.5q0 -9 9.5 -20t33.5 -20.5t58 -9.5q17 0 27.5 11.5 t11.5 29.5l6 195l-95 12q-58 7 -58 82q0 11 11 11h144l1 28q-27 12 -43 36.5t-16 54.5q0 41 31.5 71.5t74.5 30.5t74.5 -30.5t31.5 -71.5q0 -30 -16 -54.5t-43 -36.5l1 -28h144q11 0 11 -11q0 -75 -58 -82l-95 -12l6 -195q1 -18 11.5 -29.5t27.5 -11.5q34 0 58 9.5 t33.5 20.5t9.5 20q0 6 -11.5 13.5t-11.5 18.5q0 14 20 31t79 56q26 16 36 16zM372 644q-14 0 -24.5 -10.5t-10.5 -25.5t10.5 -25.5t24.5 -10.5t24.5 10.5t10.5 25.5t-10.5 25.5t-24.5 10.5z" />
<glyph unicode="&#xbf;" horiz-adv-x="459" d="M277 520q38 0 65.5 -27.5t27.5 -65.5q0 -37 -28 -65t-65 -28q-38 0 -65.5 27.5t-27.5 65.5t27 65.5t66 27.5zM393 -185q-2 -15 -17 -15q-326 14 -326 194q0 40 18 75.5t43 60.5t49 48t38.5 49t9.5 54q-2 11 0 15t13 8q49 18 91 -6t40 -79q-3 -34 -25.5 -68t-47.5 -56.5 t-46 -46.5t-21 -41q0 -61 183 -69q16 0 14 -16z" />
<glyph unicode="&#xc0;" horiz-adv-x="827" d="M468 770q4 -11 -0.5 -18t-14.5 -7h-91q-16 0 -27 14l-80 126q-6 10 -2.5 20t14.5 10h122q26 0 36 -27zM180 700q42 0 121 2.5t120 2.5q70 0 98.5 -21.5t46.5 -70.5l180 -505q20 -56 44 -89q6 -8 -1 -13q-27 -21 -79 -21q-102 0 -130 84l-22 66q-4 13 -18 13h-263 q-12 0 -16 -13l-41 -121q-5 -14 -20 -14h-133q-9 0 -14 7t-2 16l193 545q-40 6 -59.5 33t-23.5 82q-1 9 4.5 13t14.5 4zM506 287q11 0 8 12l-79 251q-7 23 -25 23h-13l-88 -275q-3 -11 9 -11h188z" />
<glyph unicode="&#xc1;" horiz-adv-x="827" d="M345 770l61 123q12 22 34 22h128q11 0 15 -10.5t-3 -19.5l-98 -126q-10 -14 -27 -14h-95q-10 0 -15.5 7t0.5 18zM180 700q42 0 121 2.5t120 2.5q70 0 98.5 -21.5t46.5 -70.5l180 -505q20 -56 44 -89q6 -8 -1 -13q-27 -21 -79 -21q-102 0 -130 84l-22 66q-4 13 -18 13 h-263q-12 0 -16 -13l-41 -121q-5 -14 -20 -14h-133q-9 0 -14 7t-2 16l193 545q-40 6 -59.5 33t-23.5 82q-1 9 4.5 13t14.5 4zM506 287q11 0 8 12l-79 251q-7 23 -25 23h-13l-88 -275q-3 -11 9 -11h188z" />
<glyph unicode="&#xc2;" horiz-adv-x="827" d="M360 905h80q13 0 21.5 -4t13.5 -9.5t16 -20.5l81 -110q7 -9 4 -17.5t-14 -8.5h-100q-16 0 -23 12l-39 60l-39 -60q-7 -12 -23 -12h-100q-11 0 -14 8.5t4 17.5l81 110q11 15 16 20.5t13.5 9.5t21.5 4zM180 700q42 0 121 2.5t120 2.5q70 0 98.5 -21.5t46.5 -70.5l180 -505 q20 -56 44 -89q6 -8 -1 -13q-27 -21 -79 -21q-102 0 -130 84l-22 66q-4 13 -18 13h-263q-12 0 -16 -13l-41 -121q-5 -14 -20 -14h-133q-9 0 -14 7t-2 16l193 545q-40 6 -59.5 33t-23.5 82q-1 9 4.5 13t14.5 4zM506 287q11 0 8 12l-79 251q-7 23 -25 23h-13l-88 -275 q-3 -11 9 -11h188z" />
<glyph unicode="&#xc3;" horiz-adv-x="827" d="M376 886q134 76 213 -41q8 -13 -5 -28l-57 -59q-6 -6 -14 -5.5t-13 6.5q-35 40 -75 16q-64 -38 -118.5 -28t-94.5 68q-9 14 4 28l56 59q16 17 29 2q12 -12 20.5 -17.5t24 -8.5t30.5 8zM180 700q42 0 121 2.5t120 2.5q70 0 98.5 -21.5t46.5 -70.5l180 -505q20 -56 44 -89 q6 -8 -1 -13q-27 -21 -79 -21q-102 0 -130 84l-22 66q-4 13 -18 13h-263q-12 0 -16 -13l-41 -121q-5 -14 -20 -14h-133q-9 0 -14 7t-2 16l193 545q-40 6 -59.5 33t-23.5 82q-1 9 4.5 13t14.5 4zM506 287q11 0 8 12l-79 251q-7 23 -25 23h-13l-88 -275q-3 -11 9 -11h188z" />
<glyph unicode="&#xc4;" horiz-adv-x="827" d="M293 745q-36 0 -61 25t-25 60t25 60t61 25q35 0 59.5 -25t24.5 -60t-24.5 -60t-59.5 -25zM506 745q-35 0 -59.5 25t-24.5 60t24.5 60t59.5 25q36 0 61 -25t25 -60t-25 -60t-61 -25zM180 700q42 0 121 2.5t120 2.5q70 0 98.5 -21.5t46.5 -70.5l180 -505q20 -56 44 -89 q6 -8 -1 -13q-27 -21 -79 -21q-102 0 -130 84l-22 66q-4 13 -18 13h-263q-12 0 -16 -13l-41 -121q-5 -14 -20 -14h-133q-9 0 -14 7t-2 16l193 545q-40 6 -59.5 33t-23.5 82q-1 9 4.5 13t14.5 4zM506 287q11 0 8 12l-79 251q-7 23 -25 23h-13l-88 -275q-3 -11 9 -11h188z" />
<glyph unicode="&#xc5;" horiz-adv-x="827" d="M400 726q-66 0 -105 29.5t-39 84.5q0 49 41 81.5t103 32.5q64 0 104 -32.5t40 -81.5q0 -54 -40 -84t-104 -30zM400 806q16 0 27 10t11 24t-11 24t-27 10t-27 -10t-11 -24t11 -24t27 -10zM180 700q42 0 121 2.5t120 2.5q70 0 98.5 -21.5t46.5 -70.5l180 -505 q20 -56 44 -89q6 -8 -1 -13q-27 -21 -79 -21q-102 0 -130 84l-22 66q-4 13 -18 13h-263q-12 0 -16 -13l-41 -121q-5 -14 -20 -14h-133q-9 0 -14 7t-2 16l193 545q-40 6 -59.5 33t-23.5 82q-1 9 4.5 13t14.5 4zM506 287q11 0 8 12l-79 251q-7 23 -25 23h-13l-88 -275 q-3 -11 9 -11h188z" />
<glyph unicode="&#xc6;" horiz-adv-x="895" d="M434 138q0 10 -10 10h-147q-12 0 -16 -13l-41 -121q-5 -14 -20 -14h-133q-9 0 -14 7t-2 16l193 545q-40 6 -59.5 33t-23.5 82q-1 9 4.5 13t14.5 4h241h7h378q6 0 10.5 -4.5t4.5 -10.5v-102q0 -6 -4.5 -10.5t-10.5 -4.5h-215v-142q0 -10 10 -10h185q6 0 10.5 -4.5 t4.5 -10.5v-102q0 -6 -4.5 -10.5t-10.5 -4.5h-185q-10 0 -10 -10v-132q0 -10 10 -10h133q69 0 107 11q14 4 14 -10q1 -69 -27 -101t-78 -32h-301q-6 0 -10.5 4.5t-4.5 10.5v123zM424 287q10 0 10 10v271h-39l-86 -270q-3 -11 9 -11h106z" />
<glyph unicode="&#xc7;" horiz-adv-x="639" d="M579 123q0 -53 -44 -91.5t-142 -41.5l-4 -17q103 -22 103 -107q0 -60 -54.5 -89.5t-128.5 -19.5q-12 2 -14 12l-13 54q-4 17 13 17q69 0 69 26q0 28 -80 28q-16 0 -13 16l7 30l14 58q-116 23 -179 109t-63 223q0 179 93 279.5t259 100.5q73 0 144 -19q14 -3 12 -17 l-17 -113q-3 -16 -19 -11q-67 22 -126 22q-87 0 -135.5 -57.5t-48.5 -161.5q0 -225 192 -225q73 0 147 40q19 9 24 -8q4 -16 4 -37z" />
<glyph unicode="&#xc8;" horiz-adv-x="562" d="M353 770q4 -11 -0.5 -18t-14.5 -7h-91q-17 0 -27 14l-80 126q-6 10 -2.5 20t14.5 10h122q26 0 36 -27zM101 568q-40 6 -59.5 33t-23.5 82q-1 9 4.5 13t14.5 4h436q6 0 10.5 -4.5t4.5 -10.5v-102q0 -6 -4.5 -10.5t-10.5 -4.5h-215v-142q0 -10 10 -10h185q6 0 10.5 -4.5 t4.5 -10.5v-102q0 -6 -4.5 -10.5t-10.5 -4.5h-185q-10 0 -10 -10v-132q0 -10 10 -10h133q69 0 107 11q14 4 14 -10q1 -69 -27 -101t-78 -32h-301q-6 0 -10.5 4.5t-4.5 10.5v553z" />
<glyph unicode="&#xc9;" horiz-adv-x="562" d="M230 770l61 123q12 22 34 22h128q11 0 15 -10.5t-3 -19.5l-98 -126q-11 -14 -27 -14h-95q-10 0 -15.5 7t0.5 18zM101 568q-40 6 -59.5 33t-23.5 82q-1 9 4.5 13t14.5 4h436q6 0 10.5 -4.5t4.5 -10.5v-102q0 -6 -4.5 -10.5t-10.5 -4.5h-215v-142q0 -10 10 -10h185 q6 0 10.5 -4.5t4.5 -10.5v-102q0 -6 -4.5 -10.5t-10.5 -4.5h-185q-10 0 -10 -10v-132q0 -10 10 -10h133q69 0 107 11q14 4 14 -10q1 -69 -27 -101t-78 -32h-301q-6 0 -10.5 4.5t-4.5 10.5v553z" />
<glyph unicode="&#xca;" horiz-adv-x="562" d="M245 905h80q13 0 21.5 -4t13.5 -9.5t16 -20.5l81 -110q7 -9 4 -17.5t-14 -8.5h-100q-16 0 -23 12l-39 60l-39 -60q-7 -12 -23 -12h-100q-11 0 -14 8.5t4 17.5l81 110q11 15 16 20.5t13.5 9.5t21.5 4zM101 568q-40 6 -59.5 33t-23.5 82q-1 9 4.5 13t14.5 4h436 q6 0 10.5 -4.5t4.5 -10.5v-102q0 -6 -4.5 -10.5t-10.5 -4.5h-215v-142q0 -10 10 -10h185q6 0 10.5 -4.5t4.5 -10.5v-102q0 -6 -4.5 -10.5t-10.5 -4.5h-185q-10 0 -10 -10v-132q0 -10 10 -10h133q69 0 107 11q14 4 14 -10q1 -69 -27 -101t-78 -32h-301q-6 0 -10.5 4.5 t-4.5 10.5v553z" />
<glyph unicode="&#xcb;" horiz-adv-x="562" d="M178 745q-36 0 -61 25t-25 60t25 60t61 25q35 0 59.5 -25t24.5 -60t-24.5 -60t-59.5 -25zM391 745q-35 0 -59.5 25t-24.5 60t24.5 60t59.5 25q36 0 61 -25t25 -60t-25 -60t-61 -25zM101 568q-40 6 -59.5 33t-23.5 82q-1 9 4.5 13t14.5 4h436q6 0 10.5 -4.5t4.5 -10.5 v-102q0 -6 -4.5 -10.5t-10.5 -4.5h-215v-142q0 -10 10 -10h185q6 0 10.5 -4.5t4.5 -10.5v-102q0 -6 -4.5 -10.5t-10.5 -4.5h-185q-10 0 -10 -10v-132q0 -10 10 -10h133q69 0 107 11q14 4 14 -10q1 -69 -27 -101t-78 -32h-301q-6 0 -10.5 4.5t-4.5 10.5v553z" />
<glyph unicode="&#xcc;" horiz-adv-x="340" d="M226 770q4 -11 -0.5 -18t-14.5 -7h-91q-16 0 -27 14l-80 126q-6 10 -2.5 20t14.5 10h122q26 0 36 -27zM37 700q24 0 69.5 2.5t69.5 2.5q35 0 58.5 -23.5t23.5 -58.5v-608q0 -6 -4.5 -10.5t-10.5 -4.5h-127q-6 0 -10.5 4.5t-4.5 10.5v553q-40 6 -59.5 33t-23.5 82 q-1 9 4.5 13t14.5 4z" />
<glyph unicode="&#xcd;" horiz-adv-x="340" d="M103 770l61 123q12 22 34 22h128q11 0 15 -10.5t-3 -19.5l-98 -126q-10 -14 -27 -14h-95q-10 0 -15.5 7t0.5 18zM37 700q24 0 69.5 2.5t69.5 2.5q35 0 58.5 -23.5t23.5 -58.5v-608q0 -6 -4.5 -10.5t-10.5 -4.5h-127q-6 0 -10.5 4.5t-4.5 10.5v553q-40 6 -59.5 33 t-23.5 82q-1 9 4.5 13t14.5 4z" />
<glyph unicode="&#xce;" horiz-adv-x="340" d="M118 905h80q13 0 21.5 -4t13.5 -9.5t16 -20.5l81 -110q7 -9 4 -17.5t-14 -8.5h-100q-16 0 -23 12l-39 60l-39 -60q-7 -12 -23 -12h-100q-11 0 -14 8.5t4 17.5l81 110q11 15 16 20.5t13.5 9.5t21.5 4zM37 700q24 0 69.5 2.5t69.5 2.5q35 0 58.5 -23.5t23.5 -58.5v-608 q0 -6 -4.5 -10.5t-10.5 -4.5h-127q-6 0 -10.5 4.5t-4.5 10.5v553q-40 6 -59.5 33t-23.5 82q-1 9 4.5 13t14.5 4z" />
<glyph unicode="&#xcf;" horiz-adv-x="340" d="M51 745q-36 0 -61 25t-25 60t25 60t61 25q35 0 59.5 -25t24.5 -60t-24.5 -60t-59.5 -25zM264 745q-35 0 -59.5 25t-24.5 60t24.5 60t59.5 25q36 0 61 -25t25 -60t-25 -60t-61 -25zM37 700q24 0 69.5 2.5t69.5 2.5q35 0 58.5 -23.5t23.5 -58.5v-608q0 -6 -4.5 -10.5 t-10.5 -4.5h-127q-6 0 -10.5 4.5t-4.5 10.5v553q-40 6 -59.5 33t-23.5 82q-1 9 4.5 13t14.5 4z" />
<glyph unicode="&#xd0;" horiz-adv-x="729" d="M335 705q177 0 265.5 -88.5t88.5 -257.5t-102.5 -266.5t-279.5 -97.5l-191 5q-6 0 -10.5 4.5t-4.5 10.5v284h-68q-6 0 -10.5 4.5t-4.5 10.5v92q0 6 4.5 10.5t10.5 4.5h68v147q-40 6 -59.5 33t-23.5 82q-1 9 4.5 13t14.5 4q51 0 149 2.5t149 2.5zM318 128 q100 0 154.5 57.5t54.5 163.5q0 114 -49.5 169t-151.5 55q-18 0 -68 -2v-150h145q6 0 10.5 -4.5t4.5 -10.5v-92q0 -6 -4.5 -10.5t-10.5 -4.5h-145v-158q0 -9 10 -10q21 -3 50 -3z" />
<glyph unicode="&#xd1;" horiz-adv-x="752" d="M394 775q-64 -38 -118.5 -28t-94.5 68q-9 14 4 28l56 59q16 17 29 2q12 -12 20.5 -17.5t24 -8.5t30.5 8q134 76 213 -41q8 -13 -5 -28l-57 -59q-6 -6 -14 -5.5t-13 6.5q-35 40 -75 16zM687 32q6 -16 -8 -25q-33 -22 -78 -22q-86 0 -137 90l-211 377v-437q0 -6 -4.5 -10.5 t-10.5 -4.5h-122q-6 0 -10.5 4.5t-4.5 10.5v553q-40 6 -59.5 33t-23.5 82q-1 9 4.5 13t14.5 4q35 0 90.5 2.5t90.5 2.5q47 0 69 -40l232 -415v435q0 6 4.5 10.5t10.5 4.5h122q6 0 10.5 -4.5t4.5 -10.5v-517q0 -91 16 -136z" />
<glyph unicode="&#xd2;" horiz-adv-x="764" d="M450 770q4 -11 -0.5 -18t-14.5 -7h-91q-16 0 -27 14l-80 126q-6 10 -2.5 20t14.5 10h122q26 0 36 -27zM382 -10q-159 0 -245 93.5t-87 266.5q-1 170 87 265t245 95q159 0 245 -93.5t87 -266.5q2 -170 -86 -265t-246 -95zM382 128q81 0 126 58.5t44 163.5q-1 104 -46 163 t-124 59q-80 0 -125 -59t-45 -163q1 -105 46 -163.5t124 -58.5z" />
<glyph unicode="&#xd3;" horiz-adv-x="764" d="M327 770l61 123q12 22 34 22h128q11 0 15 -10.5t-3 -19.5l-98 -126q-10 -14 -27 -14h-95q-10 0 -15.5 7t0.5 18zM382 -10q-159 0 -245 93.5t-87 266.5q-1 170 87 265t245 95q159 0 245 -93.5t87 -266.5q2 -170 -86 -265t-246 -95zM382 128q81 0 126 58.5t44 163.5 q-1 104 -46 163t-124 59q-80 0 -125 -59t-45 -163q1 -105 46 -163.5t124 -58.5z" />
<glyph unicode="&#xd4;" horiz-adv-x="764" d="M342 905h80q13 0 21.5 -4t13.5 -9.5t16 -20.5l81 -110q7 -9 4 -17.5t-14 -8.5h-100q-16 0 -23 12l-39 60l-39 -60q-7 -12 -23 -12h-100q-11 0 -14 8.5t4 17.5l81 110q11 15 16 20.5t13.5 9.5t21.5 4zM382 -10q-159 0 -245 93.5t-87 266.5q-1 170 87 265t245 95 q159 0 245 -93.5t87 -266.5q2 -170 -86 -265t-246 -95zM382 128q81 0 126 58.5t44 163.5q-1 104 -46 163t-124 59q-80 0 -125 -59t-45 -163q1 -105 46 -163.5t124 -58.5z" />
<glyph unicode="&#xd5;" horiz-adv-x="764" d="M358 886q134 76 213 -41q8 -13 -5 -28l-57 -59q-6 -6 -14 -5.5t-13 6.5q-35 40 -75 16q-64 -38 -118.5 -28t-94.5 68q-9 14 4 28l56 59q16 17 29 2q12 -12 20.5 -17.5t24 -8.5t30.5 8zM382 -10q-159 0 -245 93.5t-87 266.5q-1 170 87 265t245 95q159 0 245 -93.5 t87 -266.5q2 -170 -86 -265t-246 -95zM382 128q81 0 126 58.5t44 163.5q-1 104 -46 163t-124 59q-80 0 -125 -59t-45 -163q1 -105 46 -163.5t124 -58.5z" />
<glyph unicode="&#xd6;" horiz-adv-x="764" d="M275 745q-36 0 -61 25t-25 60t25 60t61 25q35 0 59.5 -25t24.5 -60t-24.5 -60t-59.5 -25zM488 745q-35 0 -59.5 25t-24.5 60t24.5 60t59.5 25q36 0 61 -25t25 -60t-25 -60t-61 -25zM382 -10q-159 0 -245 93.5t-87 266.5q-1 170 87 265t245 95q159 0 245 -93.5t87 -266.5 q2 -170 -86 -265t-246 -95zM382 128q81 0 126 58.5t44 163.5q-1 104 -46 163t-124 59q-80 0 -125 -59t-45 -163q1 -105 46 -163.5t124 -58.5z" />
<glyph unicode="&#xd7;" horiz-adv-x="544" d="M56 473q-11 11 0 22l71 71q11 11 22 0l123 -123l123 124q11 11 22 0l72 -72q11 -11 0 -22l-124 -123l123 -123q11 -11 0 -22l-71 -71q-11 -11 -22 0l-123 123l-123 -124q-11 -11 -22 0l-72 72q-11 11 0 22l124 123z" />
<glyph unicode="&#xd8;" horiz-adv-x="773" d="M741 661q0 -8 -8 -16l-63 -75q53 -88 53 -225q0 -167 -87.5 -261t-244.5 -94q-102 0 -174 39l-20 -24q-21 -25 -55 -25q-47 0 -105 46q-7 6 -7 12q0 8 8 16l69 83q-48 85 -48 216q0 168 87.5 262.5t244.5 94.5q97 0 167 -35l16 19q21 25 55 25q47 0 105 -46q7 -6 7 -12z M221 350q0 -32 7 -69l232 277q-31 14 -69 14q-80 0 -125 -59t-45 -163zM561 347q0 44 -8 82l-238 -283q33 -18 76 -18q80 0 125 58t45 161z" />
<glyph unicode="&#xd9;" d="M458 770q4 -11 -0.5 -18t-14.5 -7h-91q-16 0 -27 14l-80 126q-6 10 -2.5 20t14.5 10h122q26 0 36 -27zM101 568q-40 6 -59.5 33t-23.5 82q-1 9 4.5 13t14.5 4q25 0 71 2.5t67 2.5q38 0 60.5 -21t22.5 -62v-350q0 -70 34.5 -106.5t98.5 -36.5t98.5 36.5t34.5 106.5v413 q0 6 4.5 10.5t10.5 4.5h127q6 0 10.5 -4.5t4.5 -10.5v-446q0 -119 -76 -183.5t-214 -64.5q-290 0 -290 248v329z" />
<glyph unicode="&#xda;" d="M335 770l61 123q12 22 34 22h128q11 0 15 -10.5t-3 -19.5l-98 -126q-11 -14 -27 -14h-95q-10 0 -15.5 7t0.5 18zM101 568q-40 6 -59.5 33t-23.5 82q-1 9 4.5 13t14.5 4q25 0 71 2.5t67 2.5q38 0 60.5 -21t22.5 -62v-350q0 -70 34.5 -106.5t98.5 -36.5t98.5 36.5 t34.5 106.5v413q0 6 4.5 10.5t10.5 4.5h127q6 0 10.5 -4.5t4.5 -10.5v-446q0 -119 -76 -183.5t-214 -64.5q-290 0 -290 248v329z" />
<glyph unicode="&#xdb;" d="M350 905h80q13 0 21.5 -4t13.5 -9.5t16 -20.5l81 -110q7 -9 4 -17.5t-14 -8.5h-100q-16 0 -23 12l-39 60l-39 -60q-7 -12 -23 -12h-100q-11 0 -14 8.5t4 17.5l81 110q11 15 16 20.5t13.5 9.5t21.5 4zM101 568q-40 6 -59.5 33t-23.5 82q-1 9 4.5 13t14.5 4q25 0 71 2.5 t67 2.5q38 0 60.5 -21t22.5 -62v-350q0 -70 34.5 -106.5t98.5 -36.5t98.5 36.5t34.5 106.5v413q0 6 4.5 10.5t10.5 4.5h127q6 0 10.5 -4.5t4.5 -10.5v-446q0 -119 -76 -183.5t-214 -64.5q-290 0 -290 248v329z" />
<glyph unicode="&#xdc;" d="M283 745q-36 0 -61 25t-25 60t25 60t61 25q35 0 59.5 -25t24.5 -60t-24.5 -60t-59.5 -25zM496 745q-35 0 -59.5 25t-24.5 60t24.5 60t59.5 25q36 0 61 -25t25 -60t-25 -60t-61 -25zM101 568q-40 6 -59.5 33t-23.5 82q-1 9 4.5 13t14.5 4q25 0 71 2.5t67 2.5 q38 0 60.5 -21t22.5 -62v-350q0 -70 34.5 -106.5t98.5 -36.5t98.5 36.5t34.5 106.5v413q0 6 4.5 10.5t10.5 4.5h127q6 0 10.5 -4.5t4.5 -10.5v-446q0 -119 -76 -183.5t-214 -64.5q-290 0 -290 248v329z" />
<glyph unicode="&#xdd;" horiz-adv-x="639" d="M250 770l61 123q12 22 34 22h128q11 0 15 -10.5t-3 -19.5l-98 -126q-11 -14 -27 -14h-95q-10 0 -15.5 7t0.5 18zM386 597q26 61 57.5 89.5t85.5 28.5q40 0 66 -15q17 -10 6 -22q-18 -21 -55.5 -93.5t-99 -199t-73.5 -150.5v-220q0 -6 -4.5 -10.5t-10.5 -4.5h-127 q-6 0 -10.5 4.5t-4.5 10.5v220l-209 439q-4 10 1 18t16 8h89q46 0 66 -43l117 -260z" />
<glyph unicode="&#xde;" horiz-adv-x="611" d="M289 584q129 0 200.5 -55.5t71.5 -159.5q0 -110 -79.5 -185t-199.5 -70l-23 1h-1v-100q0 -6 -4.5 -10.5t-10.5 -4.5h-127q-6 0 -10.5 4.5t-4.5 10.5v553q-40 6 -59.5 33t-23.5 82q-1 9 4.5 13t14.5 4q24 0 69.5 2.5t69.5 2.5q35 0 58.5 -23.5t23.5 -58.5v-39h31zM276 246 q57 0 90 31.5t33 81.5q0 49 -28 71t-87 22q-4 0 -13 -0.5t-13 -0.5v-204q7 -1 18 -1z" />
<glyph unicode="&#xdf;" horiz-adv-x="635" d="M247 93q0 21 3 33q5 17 24 8q33 -16 79 -16q80 0 80 43q0 22 -19.5 39.5t-46.5 32.5t-54.5 34t-47 52.5t-19.5 78.5q0 42 19 73.5t41 47t41 36.5t19 44q0 25 -21.5 39t-50.5 14q-46 0 -74 -31t-28 -94v-512q0 -6 -4.5 -10.5t-10.5 -4.5h-112q-6 0 -10.5 4.5t-4.5 10.5 v505q0 123 66.5 191.5t182.5 68.5q99 0 159 -46.5t60 -115.5q0 -46 -19 -78.5t-41 -47t-41 -35t-19 -44.5q0 -20 19.5 -37.5t47 -33.5t54.5 -35.5t46.5 -54t19.5 -78.5q0 -83 -60 -133.5t-163 -50.5q-115 0 -115 103z" />
<glyph unicode="&#xe0;" horiz-adv-x="827" d="M468 770q4 -11 -0.5 -18t-14.5 -7h-91q-16 0 -27 14l-80 126q-6 10 -2.5 20t14.5 10h122q26 0 36 -27zM180 700q42 0 121 2.5t120 2.5q70 0 98.5 -21.5t46.5 -70.5l180 -505q20 -56 44 -89q6 -8 -1 -13q-27 -21 -79 -21q-102 0 -130 84l-22 66q-4 13 -18 13h-263 q-12 0 -16 -13l-41 -121q-5 -14 -20 -14h-133q-9 0 -14 7t-2 16l193 545q-40 6 -59.5 33t-23.5 82q-1 9 4.5 13t14.5 4zM506 287q11 0 8 12l-79 251q-7 23 -25 23h-13l-88 -275q-3 -11 9 -11h188z" />
<glyph unicode="&#xe1;" horiz-adv-x="827" d="M345 770l61 123q12 22 34 22h128q11 0 15 -10.5t-3 -19.5l-98 -126q-10 -14 -27 -14h-95q-10 0 -15.5 7t0.5 18zM180 700q42 0 121 2.5t120 2.5q70 0 98.5 -21.5t46.5 -70.5l180 -505q20 -56 44 -89q6 -8 -1 -13q-27 -21 -79 -21q-102 0 -130 84l-22 66q-4 13 -18 13 h-263q-12 0 -16 -13l-41 -121q-5 -14 -20 -14h-133q-9 0 -14 7t-2 16l193 545q-40 6 -59.5 33t-23.5 82q-1 9 4.5 13t14.5 4zM506 287q11 0 8 12l-79 251q-7 23 -25 23h-13l-88 -275q-3 -11 9 -11h188z" />
<glyph unicode="&#xe2;" horiz-adv-x="827" d="M360 905h80q13 0 21.5 -4t13.5 -9.5t16 -20.5l81 -110q7 -9 4 -17.5t-14 -8.5h-100q-16 0 -23 12l-39 60l-39 -60q-7 -12 -23 -12h-100q-11 0 -14 8.5t4 17.5l81 110q11 15 16 20.5t13.5 9.5t21.5 4zM180 700q42 0 121 2.5t120 2.5q70 0 98.5 -21.5t46.5 -70.5l180 -505 q20 -56 44 -89q6 -8 -1 -13q-27 -21 -79 -21q-102 0 -130 84l-22 66q-4 13 -18 13h-263q-12 0 -16 -13l-41 -121q-5 -14 -20 -14h-133q-9 0 -14 7t-2 16l193 545q-40 6 -59.5 33t-23.5 82q-1 9 4.5 13t14.5 4zM506 287q11 0 8 12l-79 251q-7 23 -25 23h-13l-88 -275 q-3 -11 9 -11h188z" />
<glyph unicode="&#xe3;" horiz-adv-x="827" d="M376 886q134 76 213 -41q8 -13 -5 -28l-57 -59q-6 -6 -14 -5.5t-13 6.5q-35 40 -75 16q-64 -38 -118.5 -28t-94.5 68q-9 14 4 28l56 59q16 17 29 2q12 -12 20.5 -17.5t24 -8.5t30.5 8zM180 700q42 0 121 2.5t120 2.5q70 0 98.5 -21.5t46.5 -70.5l180 -505q20 -56 44 -89 q6 -8 -1 -13q-27 -21 -79 -21q-102 0 -130 84l-22 66q-4 13 -18 13h-263q-12 0 -16 -13l-41 -121q-5 -14 -20 -14h-133q-9 0 -14 7t-2 16l193 545q-40 6 -59.5 33t-23.5 82q-1 9 4.5 13t14.5 4zM506 287q11 0 8 12l-79 251q-7 23 -25 23h-13l-88 -275q-3 -11 9 -11h188z" />
<glyph unicode="&#xe4;" horiz-adv-x="827" d="M293 745q-36 0 -61 25t-25 60t25 60t61 25q35 0 59.5 -25t24.5 -60t-24.5 -60t-59.5 -25zM506 745q-35 0 -59.5 25t-24.5 60t24.5 60t59.5 25q36 0 61 -25t25 -60t-25 -60t-61 -25zM180 700q42 0 121 2.5t120 2.5q70 0 98.5 -21.5t46.5 -70.5l180 -505q20 -56 44 -89 q6 -8 -1 -13q-27 -21 -79 -21q-102 0 -130 84l-22 66q-4 13 -18 13h-263q-12 0 -16 -13l-41 -121q-5 -14 -20 -14h-133q-9 0 -14 7t-2 16l193 545q-40 6 -59.5 33t-23.5 82q-1 9 4.5 13t14.5 4zM506 287q11 0 8 12l-79 251q-7 23 -25 23h-13l-88 -275q-3 -11 9 -11h188z" />
<glyph unicode="&#xe5;" horiz-adv-x="827" d="M400 726q-66 0 -105 29.5t-39 84.5q0 49 41 81.5t103 32.5q64 0 104 -32.5t40 -81.5q0 -54 -40 -84t-104 -30zM400 806q16 0 27 10t11 24t-11 24t-27 10t-27 -10t-11 -24t11 -24t27 -10zM180 700q42 0 121 2.5t120 2.5q70 0 98.5 -21.5t46.5 -70.5l180 -505 q20 -56 44 -89q6 -8 -1 -13q-27 -21 -79 -21q-102 0 -130 84l-22 66q-4 13 -18 13h-263q-12 0 -16 -13l-41 -121q-5 -14 -20 -14h-133q-9 0 -14 7t-2 16l193 545q-40 6 -59.5 33t-23.5 82q-1 9 4.5 13t14.5 4zM506 287q11 0 8 12l-79 251q-7 23 -25 23h-13l-88 -275 q-3 -11 9 -11h188z" />
<glyph unicode="&#xe6;" horiz-adv-x="895" d="M434 138q0 10 -10 10h-147q-12 0 -16 -13l-41 -121q-5 -14 -20 -14h-133q-9 0 -14 7t-2 16l193 545q-40 6 -59.5 33t-23.5 82q-1 9 4.5 13t14.5 4h241h7h378q6 0 10.5 -4.5t4.5 -10.5v-102q0 -6 -4.5 -10.5t-10.5 -4.5h-215v-142q0 -10 10 -10h185q6 0 10.5 -4.5 t4.5 -10.5v-102q0 -6 -4.5 -10.5t-10.5 -4.5h-185q-10 0 -10 -10v-132q0 -10 10 -10h133q69 0 107 11q14 4 14 -10q1 -69 -27 -101t-78 -32h-301q-6 0 -10.5 4.5t-4.5 10.5v123zM424 287q10 0 10 10v271h-39l-86 -270q-3 -11 9 -11h106z" />
<glyph unicode="&#xe7;" horiz-adv-x="639" d="M579 123q0 -53 -44 -91.5t-142 -41.5l-4 -17q103 -22 103 -107q0 -60 -54.5 -89.5t-128.5 -19.5q-12 2 -14 12l-13 54q-4 17 13 17q69 0 69 26q0 28 -80 28q-16 0 -13 16l7 30l14 58q-116 23 -179 109t-63 223q0 179 93 279.5t259 100.5q73 0 144 -19q14 -3 12 -17 l-17 -113q-3 -16 -19 -11q-67 22 -126 22q-87 0 -135.5 -57.5t-48.5 -161.5q0 -225 192 -225q73 0 147 40q19 9 24 -8q4 -16 4 -37z" />
<glyph unicode="&#xe8;" horiz-adv-x="562" d="M353 770q4 -11 -0.5 -18t-14.5 -7h-91q-17 0 -27 14l-80 126q-6 10 -2.5 20t14.5 10h122q26 0 36 -27zM101 568q-40 6 -59.5 33t-23.5 82q-1 9 4.5 13t14.5 4h436q6 0 10.5 -4.5t4.5 -10.5v-102q0 -6 -4.5 -10.5t-10.5 -4.5h-215v-142q0 -10 10 -10h185q6 0 10.5 -4.5 t4.5 -10.5v-102q0 -6 -4.5 -10.5t-10.5 -4.5h-185q-10 0 -10 -10v-132q0 -10 10 -10h133q69 0 107 11q14 4 14 -10q1 -69 -27 -101t-78 -32h-301q-6 0 -10.5 4.5t-4.5 10.5v553z" />
<glyph unicode="&#xe9;" horiz-adv-x="562" d="M230 770l61 123q12 22 34 22h128q11 0 15 -10.5t-3 -19.5l-98 -126q-11 -14 -27 -14h-95q-10 0 -15.5 7t0.5 18zM101 568q-40 6 -59.5 33t-23.5 82q-1 9 4.5 13t14.5 4h436q6 0 10.5 -4.5t4.5 -10.5v-102q0 -6 -4.5 -10.5t-10.5 -4.5h-215v-142q0 -10 10 -10h185 q6 0 10.5 -4.5t4.5 -10.5v-102q0 -6 -4.5 -10.5t-10.5 -4.5h-185q-10 0 -10 -10v-132q0 -10 10 -10h133q69 0 107 11q14 4 14 -10q1 -69 -27 -101t-78 -32h-301q-6 0 -10.5 4.5t-4.5 10.5v553z" />
<glyph unicode="&#xea;" horiz-adv-x="562" d="M245 905h80q13 0 21.5 -4t13.5 -9.5t16 -20.5l81 -110q7 -9 4 -17.5t-14 -8.5h-100q-16 0 -23 12l-39 60l-39 -60q-7 -12 -23 -12h-100q-11 0 -14 8.5t4 17.5l81 110q11 15 16 20.5t13.5 9.5t21.5 4zM101 568q-40 6 -59.5 33t-23.5 82q-1 9 4.5 13t14.5 4h436 q6 0 10.5 -4.5t4.5 -10.5v-102q0 -6 -4.5 -10.5t-10.5 -4.5h-215v-142q0 -10 10 -10h185q6 0 10.5 -4.5t4.5 -10.5v-102q0 -6 -4.5 -10.5t-10.5 -4.5h-185q-10 0 -10 -10v-132q0 -10 10 -10h133q69 0 107 11q14 4 14 -10q1 -69 -27 -101t-78 -32h-301q-6 0 -10.5 4.5 t-4.5 10.5v553z" />
<glyph unicode="&#xeb;" horiz-adv-x="562" d="M178 745q-36 0 -61 25t-25 60t25 60t61 25q35 0 59.5 -25t24.5 -60t-24.5 -60t-59.5 -25zM391 745q-35 0 -59.5 25t-24.5 60t24.5 60t59.5 25q36 0 61 -25t25 -60t-25 -60t-61 -25zM101 568q-40 6 -59.5 33t-23.5 82q-1 9 4.5 13t14.5 4h436q6 0 10.5 -4.5t4.5 -10.5 v-102q0 -6 -4.5 -10.5t-10.5 -4.5h-215v-142q0 -10 10 -10h185q6 0 10.5 -4.5t4.5 -10.5v-102q0 -6 -4.5 -10.5t-10.5 -4.5h-185q-10 0 -10 -10v-132q0 -10 10 -10h133q69 0 107 11q14 4 14 -10q1 -69 -27 -101t-78 -32h-301q-6 0 -10.5 4.5t-4.5 10.5v553z" />
<glyph unicode="&#xec;" horiz-adv-x="340" d="M226 770q4 -11 -0.5 -18t-14.5 -7h-91q-16 0 -27 14l-80 126q-6 10 -2.5 20t14.5 10h122q26 0 36 -27zM37 700q24 0 69.5 2.5t69.5 2.5q35 0 58.5 -23.5t23.5 -58.5v-608q0 -6 -4.5 -10.5t-10.5 -4.5h-127q-6 0 -10.5 4.5t-4.5 10.5v553q-40 6 -59.5 33t-23.5 82 q-1 9 4.5 13t14.5 4z" />
<glyph unicode="&#xed;" horiz-adv-x="340" d="M103 770l61 123q12 22 34 22h128q11 0 15 -10.5t-3 -19.5l-98 -126q-10 -14 -27 -14h-95q-10 0 -15.5 7t0.5 18zM37 700q24 0 69.5 2.5t69.5 2.5q35 0 58.5 -23.5t23.5 -58.5v-608q0 -6 -4.5 -10.5t-10.5 -4.5h-127q-6 0 -10.5 4.5t-4.5 10.5v553q-40 6 -59.5 33 t-23.5 82q-1 9 4.5 13t14.5 4z" />
<glyph unicode="&#xee;" horiz-adv-x="340" d="M118 905h80q13 0 21.5 -4t13.5 -9.5t16 -20.5l81 -110q7 -9 4 -17.5t-14 -8.5h-100q-16 0 -23 12l-39 60l-39 -60q-7 -12 -23 -12h-100q-11 0 -14 8.5t4 17.5l81 110q11 15 16 20.5t13.5 9.5t21.5 4zM37 700q24 0 69.5 2.5t69.5 2.5q35 0 58.5 -23.5t23.5 -58.5v-608 q0 -6 -4.5 -10.5t-10.5 -4.5h-127q-6 0 -10.5 4.5t-4.5 10.5v553q-40 6 -59.5 33t-23.5 82q-1 9 4.5 13t14.5 4z" />
<glyph unicode="&#xef;" horiz-adv-x="340" d="M51 745q-36 0 -61 25t-25 60t25 60t61 25q35 0 59.5 -25t24.5 -60t-24.5 -60t-59.5 -25zM264 745q-35 0 -59.5 25t-24.5 60t24.5 60t59.5 25q36 0 61 -25t25 -60t-25 -60t-61 -25zM37 700q24 0 69.5 2.5t69.5 2.5q35 0 58.5 -23.5t23.5 -58.5v-608q0 -6 -4.5 -10.5 t-10.5 -4.5h-127q-6 0 -10.5 4.5t-4.5 10.5v553q-40 6 -59.5 33t-23.5 82q-1 9 4.5 13t14.5 4z" />
<glyph unicode="&#xf0;" horiz-adv-x="729" d="M335 705q177 0 265.5 -88.5t88.5 -257.5t-102.5 -266.5t-279.5 -97.5l-191 5q-6 0 -10.5 4.5t-4.5 10.5v284h-68q-6 0 -10.5 4.5t-4.5 10.5v92q0 6 4.5 10.5t10.5 4.5h68v147q-40 6 -59.5 33t-23.5 82q-1 9 4.5 13t14.5 4q51 0 149 2.5t149 2.5zM318 128 q100 0 154.5 57.5t54.5 163.5q0 114 -49.5 169t-151.5 55q-18 0 -68 -2v-150h145q6 0 10.5 -4.5t4.5 -10.5v-92q0 -6 -4.5 -10.5t-10.5 -4.5h-145v-158q0 -9 10 -10q21 -3 50 -3z" />
<glyph unicode="&#xf1;" horiz-adv-x="752" d="M394 775q-64 -38 -118.5 -28t-94.5 68q-9 14 4 28l56 59q16 17 29 2q12 -12 20.5 -17.5t24 -8.5t30.5 8q134 76 213 -41q8 -13 -5 -28l-57 -59q-6 -6 -14 -5.5t-13 6.5q-35 40 -75 16zM687 32q6 -16 -8 -25q-33 -22 -78 -22q-86 0 -137 90l-211 377v-437q0 -6 -4.5 -10.5 t-10.5 -4.5h-122q-6 0 -10.5 4.5t-4.5 10.5v553q-40 6 -59.5 33t-23.5 82q-1 9 4.5 13t14.5 4q35 0 90.5 2.5t90.5 2.5q47 0 69 -40l232 -415v435q0 6 4.5 10.5t10.5 4.5h122q6 0 10.5 -4.5t4.5 -10.5v-517q0 -91 16 -136z" />
<glyph unicode="&#xf2;" horiz-adv-x="764" d="M450 770q4 -11 -0.5 -18t-14.5 -7h-91q-16 0 -27 14l-80 126q-6 10 -2.5 20t14.5 10h122q26 0 36 -27zM382 -10q-159 0 -245 93.5t-87 266.5q-1 170 87 265t245 95q159 0 245 -93.5t87 -266.5q2 -170 -86 -265t-246 -95zM382 128q81 0 126 58.5t44 163.5q-1 104 -46 163 t-124 59q-80 0 -125 -59t-45 -163q1 -105 46 -163.5t124 -58.5z" />
<glyph unicode="&#xf3;" horiz-adv-x="764" d="M327 770l61 123q12 22 34 22h128q11 0 15 -10.5t-3 -19.5l-98 -126q-10 -14 -27 -14h-95q-10 0 -15.5 7t0.5 18zM382 -10q-159 0 -245 93.5t-87 266.5q-1 170 87 265t245 95q159 0 245 -93.5t87 -266.5q2 -170 -86 -265t-246 -95zM382 128q81 0 126 58.5t44 163.5 q-1 104 -46 163t-124 59q-80 0 -125 -59t-45 -163q1 -105 46 -163.5t124 -58.5z" />
<glyph unicode="&#xf4;" horiz-adv-x="764" d="M342 905h80q13 0 21.5 -4t13.5 -9.5t16 -20.5l81 -110q7 -9 4 -17.5t-14 -8.5h-100q-16 0 -23 12l-39 60l-39 -60q-7 -12 -23 -12h-100q-11 0 -14 8.5t4 17.5l81 110q11 15 16 20.5t13.5 9.5t21.5 4zM382 -10q-159 0 -245 93.5t-87 266.5q-1 170 87 265t245 95 q159 0 245 -93.5t87 -266.5q2 -170 -86 -265t-246 -95zM382 128q81 0 126 58.5t44 163.5q-1 104 -46 163t-124 59q-80 0 -125 -59t-45 -163q1 -105 46 -163.5t124 -58.5z" />
<glyph unicode="&#xf5;" horiz-adv-x="764" d="M358 886q134 76 213 -41q8 -13 -5 -28l-57 -59q-6 -6 -14 -5.5t-13 6.5q-35 40 -75 16q-64 -38 -118.5 -28t-94.5 68q-9 14 4 28l56 59q16 17 29 2q12 -12 20.5 -17.5t24 -8.5t30.5 8zM382 -10q-159 0 -245 93.5t-87 266.5q-1 170 87 265t245 95q159 0 245 -93.5 t87 -266.5q2 -170 -86 -265t-246 -95zM382 128q81 0 126 58.5t44 163.5q-1 104 -46 163t-124 59q-80 0 -125 -59t-45 -163q1 -105 46 -163.5t124 -58.5z" />
<glyph unicode="&#xf6;" horiz-adv-x="764" d="M275 745q-36 0 -61 25t-25 60t25 60t61 25q35 0 59.5 -25t24.5 -60t-24.5 -60t-59.5 -25zM488 745q-35 0 -59.5 25t-24.5 60t24.5 60t59.5 25q36 0 61 -25t25 -60t-25 -60t-61 -25zM382 -10q-159 0 -245 93.5t-87 266.5q-1 170 87 265t245 95q159 0 245 -93.5t87 -266.5 q2 -170 -86 -265t-246 -95zM382 128q81 0 126 58.5t44 163.5q-1 104 -46 163t-124 59q-80 0 -125 -59t-45 -163q1 -105 46 -163.5t124 -58.5z" />
<glyph unicode="&#xf7;" horiz-adv-x="376" d="M180 213q-55 0 -92.5 46t-37.5 103q0 38 47 83q47 43 91 43q63 0 108 -65q30 -42 30 -72q0 -64 -39.5 -101t-106.5 -37z" />
<glyph unicode="&#xf8;" horiz-adv-x="773" d="M741 661q0 -8 -8 -16l-63 -75q53 -88 53 -225q0 -167 -87.5 -261t-244.5 -94q-102 0 -174 39l-20 -24q-21 -25 -55 -25q-47 0 -105 46q-7 6 -7 12q0 8 8 16l69 83q-48 85 -48 216q0 168 87.5 262.5t244.5 94.5q97 0 167 -35l16 19q21 25 55 25q47 0 105 -46q7 -6 7 -12z M221 350q0 -32 7 -69l232 277q-31 14 -69 14q-80 0 -125 -59t-45 -163zM561 347q0 44 -8 82l-238 -283q33 -18 76 -18q80 0 125 58t45 161z" />
<glyph unicode="&#xf9;" d="M458 770q4 -11 -0.5 -18t-14.5 -7h-91q-16 0 -27 14l-80 126q-6 10 -2.5 20t14.5 10h122q26 0 36 -27zM101 568q-40 6 -59.5 33t-23.5 82q-1 9 4.5 13t14.5 4q25 0 71 2.5t67 2.5q38 0 60.5 -21t22.5 -62v-350q0 -70 34.5 -106.5t98.5 -36.5t98.5 36.5t34.5 106.5v413 q0 6 4.5 10.5t10.5 4.5h127q6 0 10.5 -4.5t4.5 -10.5v-446q0 -119 -76 -183.5t-214 -64.5q-290 0 -290 248v329z" />
<glyph unicode="&#xfa;" d="M335 770l61 123q12 22 34 22h128q11 0 15 -10.5t-3 -19.5l-98 -126q-11 -14 -27 -14h-95q-10 0 -15.5 7t0.5 18zM101 568q-40 6 -59.5 33t-23.5 82q-1 9 4.5 13t14.5 4q25 0 71 2.5t67 2.5q38 0 60.5 -21t22.5 -62v-350q0 -70 34.5 -106.5t98.5 -36.5t98.5 36.5 t34.5 106.5v413q0 6 4.5 10.5t10.5 4.5h127q6 0 10.5 -4.5t4.5 -10.5v-446q0 -119 -76 -183.5t-214 -64.5q-290 0 -290 248v329z" />
<glyph unicode="&#xfb;" d="M350 905h80q13 0 21.5 -4t13.5 -9.5t16 -20.5l81 -110q7 -9 4 -17.5t-14 -8.5h-100q-16 0 -23 12l-39 60l-39 -60q-7 -12 -23 -12h-100q-11 0 -14 8.5t4 17.5l81 110q11 15 16 20.5t13.5 9.5t21.5 4zM101 568q-40 6 -59.5 33t-23.5 82q-1 9 4.5 13t14.5 4q25 0 71 2.5 t67 2.5q38 0 60.5 -21t22.5 -62v-350q0 -70 34.5 -106.5t98.5 -36.5t98.5 36.5t34.5 106.5v413q0 6 4.5 10.5t10.5 4.5h127q6 0 10.5 -4.5t4.5 -10.5v-446q0 -119 -76 -183.5t-214 -64.5q-290 0 -290 248v329z" />
<glyph unicode="&#xfc;" d="M283 745q-36 0 -61 25t-25 60t25 60t61 25q35 0 59.5 -25t24.5 -60t-24.5 -60t-59.5 -25zM496 745q-35 0 -59.5 25t-24.5 60t24.5 60t59.5 25q36 0 61 -25t25 -60t-25 -60t-61 -25zM101 568q-40 6 -59.5 33t-23.5 82q-1 9 4.5 13t14.5 4q25 0 71 2.5t67 2.5 q38 0 60.5 -21t22.5 -62v-350q0 -70 34.5 -106.5t98.5 -36.5t98.5 36.5t34.5 106.5v413q0 6 4.5 10.5t10.5 4.5h127q6 0 10.5 -4.5t4.5 -10.5v-446q0 -119 -76 -183.5t-214 -64.5q-290 0 -290 248v329z" />
<glyph unicode="&#xfd;" horiz-adv-x="639" d="M250 770l61 123q12 22 34 22h128q11 0 15 -10.5t-3 -19.5l-98 -126q-11 -14 -27 -14h-95q-10 0 -15.5 7t0.5 18zM386 597q26 61 57.5 89.5t85.5 28.5q40 0 66 -15q17 -10 6 -22q-18 -21 -55.5 -93.5t-99 -199t-73.5 -150.5v-220q0 -6 -4.5 -10.5t-10.5 -4.5h-127 q-6 0 -10.5 4.5t-4.5 10.5v220l-209 439q-4 10 1 18t16 8h89q46 0 66 -43l117 -260z" />
<glyph unicode="&#xfe;" horiz-adv-x="611" d="M289 584q129 0 200.5 -55.5t71.5 -159.5q0 -110 -79.5 -185t-199.5 -70l-23 1h-1v-100q0 -6 -4.5 -10.5t-10.5 -4.5h-127q-6 0 -10.5 4.5t-4.5 10.5v553q-40 6 -59.5 33t-23.5 82q-1 9 4.5 13t14.5 4q24 0 69.5 2.5t69.5 2.5q35 0 58.5 -23.5t23.5 -58.5v-39h31zM276 246 q57 0 90 31.5t33 81.5q0 49 -28 71t-87 22q-4 0 -13 -0.5t-13 -0.5v-204q7 -1 18 -1z" />
<glyph unicode="&#xff;" horiz-adv-x="639" d="M198 745q-36 0 -61 25t-25 60t25 60t61 25q35 0 59.5 -25t24.5 -60t-24.5 -60t-59.5 -25zM411 745q-35 0 -59.5 25t-24.5 60t24.5 60t59.5 25q36 0 61 -25t25 -60t-25 -60t-61 -25zM386 597q26 61 57.5 89.5t85.5 28.5q40 0 66 -15q17 -10 6 -22q-18 -21 -55.5 -93.5 t-99 -199t-73.5 -150.5v-220q0 -6 -4.5 -10.5t-10.5 -4.5h-127q-6 0 -10.5 4.5t-4.5 10.5v220l-209 439q-4 10 1 18t16 8h89q46 0 66 -43l117 -260z" />
<glyph unicode="&#x100;" horiz-adv-x="827" d="M250 752q-6 0 -10.5 4.5t-4.5 10.5v87q0 6 4.5 10.5t10.5 4.5h300q6 0 10.5 -4.5t4.5 -10.5v-87q0 -6 -4.5 -10.5t-10.5 -4.5h-300zM180 700q42 0 121 2.5t120 2.5q70 0 98.5 -21.5t46.5 -70.5l180 -505q20 -56 44 -89q6 -8 -1 -13q-27 -21 -79 -21q-102 0 -130 84 l-22 66q-4 13 -18 13h-263q-12 0 -16 -13l-41 -121q-5 -14 -20 -14h-133q-9 0 -14 7t-2 16l193 545q-40 6 -59.5 33t-23.5 82q-1 9 4.5 13t14.5 4zM506 287q11 0 8 12l-79 251q-7 23 -25 23h-13l-88 -275q-3 -11 9 -11h188z" />
<glyph unicode="&#x101;" horiz-adv-x="827" d="M250 752q-6 0 -10.5 4.5t-4.5 10.5v87q0 6 4.5 10.5t10.5 4.5h300q6 0 10.5 -4.5t4.5 -10.5v-87q0 -6 -4.5 -10.5t-10.5 -4.5h-300zM180 700q42 0 121 2.5t120 2.5q70 0 98.5 -21.5t46.5 -70.5l180 -505q20 -56 44 -89q6 -8 -1 -13q-27 -21 -79 -21q-102 0 -130 84 l-22 66q-4 13 -18 13h-263q-12 0 -16 -13l-41 -121q-5 -14 -20 -14h-133q-9 0 -14 7t-2 16l193 545q-40 6 -59.5 33t-23.5 82q-1 9 4.5 13t14.5 4zM506 287q11 0 8 12l-79 251q-7 23 -25 23h-13l-88 -275q-3 -11 9 -11h188z" />
<glyph unicode="&#x102;" horiz-adv-x="827" d="M449 897q0 -16 -13 -30t-36 -14t-36 14t-13 30q0 18 -15 18h-95q-15 0 -15 -16q0 -65 44 -112t130 -47t130 47t44 112q0 16 -15 16h-95q-15 0 -15 -18zM180 700q42 0 121 2.5t120 2.5q70 0 98.5 -21.5t46.5 -70.5l180 -505q20 -56 44 -89q6 -8 -1 -13q-27 -21 -79 -21 q-102 0 -130 84l-22 66q-4 13 -18 13h-263q-12 0 -16 -13l-41 -121q-5 -14 -20 -14h-133q-9 0 -14 7t-2 16l193 545q-40 6 -59.5 33t-23.5 82q-1 9 4.5 13t14.5 4zM506 287q11 0 8 12l-79 251q-7 23 -25 23h-13l-88 -275q-3 -11 9 -11h188z" />
<glyph unicode="&#x103;" horiz-adv-x="827" d="M449 897q0 -16 -13 -30t-36 -14t-36 14t-13 30q0 18 -15 18h-95q-15 0 -15 -16q0 -65 44 -112t130 -47t130 47t44 112q0 16 -15 16h-95q-15 0 -15 -18zM180 700q42 0 121 2.5t120 2.5q70 0 98.5 -21.5t46.5 -70.5l180 -505q20 -56 44 -89q6 -8 -1 -13q-27 -21 -79 -21 q-102 0 -130 84l-22 66q-4 13 -18 13h-263q-12 0 -16 -13l-41 -121q-5 -14 -20 -14h-133q-9 0 -14 7t-2 16l193 545q-40 6 -59.5 33t-23.5 82q-1 9 4.5 13t14.5 4zM506 287q11 0 8 12l-79 251q-7 23 -25 23h-13l-88 -275q-3 -11 9 -11h188z" />
<glyph unicode="&#x104;" horiz-adv-x="827" d="M790 19q6 -8 -1 -13q-27 -21 -79 -21h-2q-4 -4 -11 -11.5t-11 -12t-9.5 -10.5t-8.5 -10t-6 -9t-4.5 -9t-1.5 -8q0 -10 3.5 -16t19.5 -10.5t46 -4.5q7 0 13 -4.5t4 -14.5l-8 -58q-4 -25 -14 -34.5t-30 -9.5q-108 6 -150 44t-42 83q0 27 19 54t36.5 40.5t52.5 37.5 q-17 19 -26 47l-22 66q-4 13 -18 13h-263q-12 0 -16 -13l-41 -121q-5 -14 -20 -14h-133q-9 0 -14 7t-2 16l193 545q-40 6 -59.5 33t-23.5 82q-1 9 4.5 13t14.5 4q42 0 121 2.5t120 2.5q70 0 98.5 -21.5t46.5 -70.5l180 -505q20 -56 44 -89zM506 287q11 0 8 12l-79 251 q-7 23 -25 23h-13l-88 -275q-3 -11 9 -11h188z" />
<glyph unicode="&#x105;" horiz-adv-x="827" d="M790 19q6 -8 -1 -13q-27 -21 -79 -21h-2q-4 -4 -11 -11.5t-11 -12t-9.5 -10.5t-8.5 -10t-6 -9t-4.5 -9t-1.5 -8q0 -10 3.5 -16t19.5 -10.5t46 -4.5q7 0 13 -4.5t4 -14.5l-8 -58q-4 -25 -14 -34.5t-30 -9.5q-108 6 -150 44t-42 83q0 27 19 54t36.5 40.5t52.5 37.5 q-17 19 -26 47l-22 66q-4 13 -18 13h-263q-12 0 -16 -13l-41 -121q-5 -14 -20 -14h-133q-9 0 -14 7t-2 16l193 545q-40 6 -59.5 33t-23.5 82q-1 9 4.5 13t14.5 4q42 0 121 2.5t120 2.5q70 0 98.5 -21.5t46.5 -70.5l180 -505q20 -56 44 -89zM506 287q11 0 8 12l-79 251 q-7 23 -25 23h-13l-88 -275q-3 -11 9 -11h188z" />
<glyph unicode="&#x106;" horiz-adv-x="639" d="M312 780l61 123q12 22 34 22h128q11 0 15 -10.5t-3 -19.5l-98 -126q-11 -14 -27 -14h-95q-10 0 -15.5 7t0.5 18zM404 128q73 0 147 40q19 9 24 -8q4 -16 4 -37q0 -55 -47.5 -94t-155.5 -39q-155 0 -240.5 89.5t-85.5 250.5q0 179 93 279.5t259 100.5q73 0 144 -19 q14 -3 12 -17l-17 -113q-3 -16 -19 -11q-67 22 -126 22q-87 0 -135.5 -57.5t-48.5 -161.5q0 -225 192 -225z" />
<glyph unicode="&#x107;" horiz-adv-x="639" d="M312 780l61 123q12 22 34 22h128q11 0 15 -10.5t-3 -19.5l-98 -126q-11 -14 -27 -14h-95q-10 0 -15.5 7t0.5 18zM404 128q73 0 147 40q19 9 24 -8q4 -16 4 -37q0 -55 -47.5 -94t-155.5 -39q-155 0 -240.5 89.5t-85.5 250.5q0 179 93 279.5t259 100.5q73 0 144 -19 q14 -3 12 -17l-17 -113q-3 -16 -19 -11q-67 22 -126 22q-87 0 -135.5 -57.5t-48.5 -161.5q0 -225 192 -225z" />
<glyph unicode="&#x108;" horiz-adv-x="639" d="M327 915h80q13 0 21.5 -4t13.5 -9.5t16 -20.5l81 -110q7 -9 4 -17.5t-14 -8.5h-100q-16 0 -23 12l-39 60l-39 -60q-7 -12 -23 -12h-100q-11 0 -14 8.5t4 17.5l81 110q11 15 16 20.5t13.5 9.5t21.5 4zM404 128q73 0 147 40q19 9 24 -8q4 -16 4 -37q0 -55 -47.5 -94 t-155.5 -39q-155 0 -240.5 89.5t-85.5 250.5q0 179 93 279.5t259 100.5q73 0 144 -19q14 -3 12 -17l-17 -113q-3 -16 -19 -11q-67 22 -126 22q-87 0 -135.5 -57.5t-48.5 -161.5q0 -225 192 -225z" />
<glyph unicode="&#x109;" horiz-adv-x="639" d="M327 915h80q13 0 21.5 -4t13.5 -9.5t16 -20.5l81 -110q7 -9 4 -17.5t-14 -8.5h-100q-16 0 -23 12l-39 60l-39 -60q-7 -12 -23 -12h-100q-11 0 -14 8.5t4 17.5l81 110q11 15 16 20.5t13.5 9.5t21.5 4zM404 128q73 0 147 40q19 9 24 -8q4 -16 4 -37q0 -55 -47.5 -94 t-155.5 -39q-155 0 -240.5 89.5t-85.5 250.5q0 179 93 279.5t259 100.5q73 0 144 -19q14 -3 12 -17l-17 -113q-3 -16 -19 -11q-67 22 -126 22q-87 0 -135.5 -57.5t-48.5 -161.5q0 -225 192 -225z" />
<glyph unicode="&#x10a;" horiz-adv-x="639" d="M366 755q-35 0 -59.5 25t-24.5 60t24.5 60t59.5 25q36 0 61 -25t25 -60t-25 -60t-61 -25zM404 128q73 0 147 40q19 9 24 -8q4 -16 4 -37q0 -55 -47.5 -94t-155.5 -39q-155 0 -240.5 89.5t-85.5 250.5q0 179 93 279.5t259 100.5q73 0 144 -19q14 -3 12 -17l-17 -113 q-3 -16 -19 -11q-67 22 -126 22q-87 0 -135.5 -57.5t-48.5 -161.5q0 -225 192 -225z" />
<glyph unicode="&#x10b;" horiz-adv-x="639" d="M366 755q-35 0 -59.5 25t-24.5 60t24.5 60t59.5 25q36 0 61 -25t25 -60t-25 -60t-61 -25zM404 128q73 0 147 40q19 9 24 -8q4 -16 4 -37q0 -55 -47.5 -94t-155.5 -39q-155 0 -240.5 89.5t-85.5 250.5q0 179 93 279.5t259 100.5q73 0 144 -19q14 -3 12 -17l-17 -113 q-3 -16 -19 -11q-67 22 -126 22q-87 0 -135.5 -57.5t-48.5 -161.5q0 -225 192 -225z" />
<glyph unicode="&#x10c;" horiz-adv-x="639" d="M327 755q-13 0 -21.5 4t-13.5 9.5t-16 20.5l-81 110q-7 9 -4 17.5t14 8.5h100q16 0 23 -12l39 -60l39 60q7 12 23 12h100q11 0 14 -8.5t-4 -17.5l-81 -110q-11 -15 -16 -20.5t-13.5 -9.5t-21.5 -4h-80zM404 128q73 0 147 40q19 9 24 -8q4 -16 4 -37q0 -55 -47.5 -94 t-155.5 -39q-155 0 -240.5 89.5t-85.5 250.5q0 179 93 279.5t259 100.5q73 0 144 -19q14 -3 12 -17l-17 -113q-3 -16 -19 -11q-67 22 -126 22q-87 0 -135.5 -57.5t-48.5 -161.5q0 -225 192 -225z" />
<glyph unicode="&#x10d;" horiz-adv-x="639" d="M327 755q-13 0 -21.5 4t-13.5 9.5t-16 20.5l-81 110q-7 9 -4 17.5t14 8.5h100q16 0 23 -12l39 -60l39 60q7 12 23 12h100q11 0 14 -8.5t-4 -17.5l-81 -110q-11 -15 -16 -20.5t-13.5 -9.5t-21.5 -4h-80zM404 128q73 0 147 40q19 9 24 -8q4 -16 4 -37q0 -55 -47.5 -94 t-155.5 -39q-155 0 -240.5 89.5t-85.5 250.5q0 179 93 279.5t259 100.5q73 0 144 -19q14 -3 12 -17l-17 -113q-3 -16 -19 -11q-67 22 -126 22q-87 0 -135.5 -57.5t-48.5 -161.5q0 -225 192 -225z" />
<glyph unicode="&#x10e;" horiz-adv-x="739" d="M304 745q-13 0 -21.5 4t-13.5 9.5t-16 20.5l-81 110q-7 9 -4 17.5t14 8.5h100q16 0 23 -12l39 -60l39 60q7 12 23 12h100q11 0 14 -8.5t-4 -17.5l-81 -110q-11 -15 -16 -20.5t-13.5 -9.5t-21.5 -4h-80zM101 568q-40 6 -59.5 33t-23.5 82q-1 9 4.5 13t14.5 4q51 0 149 2.5 t149 2.5q177 0 265.5 -88.5t88.5 -257.5t-102.5 -266.5t-279.5 -97.5l-191 5q-6 0 -10.5 4.5t-4.5 10.5v553zM318 128q100 0 154.5 57.5t54.5 163.5q0 114 -49.5 169t-151.5 55q-18 0 -68 -2v-430q0 -9 10 -10q21 -3 50 -3z" />
<glyph unicode="&#x10f;" horiz-adv-x="739" d="M304 745q-13 0 -21.5 4t-13.5 9.5t-16 20.5l-81 110q-7 9 -4 17.5t14 8.5h100q16 0 23 -12l39 -60l39 60q7 12 23 12h100q11 0 14 -8.5t-4 -17.5l-81 -110q-11 -15 -16 -20.5t-13.5 -9.5t-21.5 -4h-80zM101 568q-40 6 -59.5 33t-23.5 82q-1 9 4.5 13t14.5 4q51 0 149 2.5 t149 2.5q177 0 265.5 -88.5t88.5 -257.5t-102.5 -266.5t-279.5 -97.5l-191 5q-6 0 -10.5 4.5t-4.5 10.5v553zM318 128q100 0 154.5 57.5t54.5 163.5q0 114 -49.5 169t-151.5 55q-18 0 -68 -2v-430q0 -9 10 -10q21 -3 50 -3z" />
<glyph unicode="&#x110;" horiz-adv-x="729" d="M335 705q177 0 265.5 -88.5t88.5 -257.5t-102.5 -266.5t-279.5 -97.5l-191 5q-6 0 -10.5 4.5t-4.5 10.5v284h-68q-6 0 -10.5 4.5t-4.5 10.5v92q0 6 4.5 10.5t10.5 4.5h68v147q-40 6 -59.5 33t-23.5 82q-1 9 4.5 13t14.5 4q51 0 149 2.5t149 2.5zM318 128 q100 0 154.5 57.5t54.5 163.5q0 114 -49.5 169t-151.5 55q-18 0 -68 -2v-150h145q6 0 10.5 -4.5t4.5 -10.5v-92q0 -6 -4.5 -10.5t-10.5 -4.5h-145v-158q0 -9 10 -10q21 -3 50 -3z" />
<glyph unicode="&#x111;" horiz-adv-x="729" d="M335 705q177 0 265.5 -88.5t88.5 -257.5t-102.5 -266.5t-279.5 -97.5l-191 5q-6 0 -10.5 4.5t-4.5 10.5v284h-68q-6 0 -10.5 4.5t-4.5 10.5v92q0 6 4.5 10.5t10.5 4.5h68v147q-40 6 -59.5 33t-23.5 82q-1 9 4.5 13t14.5 4q51 0 149 2.5t149 2.5zM318 128 q100 0 154.5 57.5t54.5 163.5q0 114 -49.5 169t-151.5 55q-18 0 -68 -2v-150h145q6 0 10.5 -4.5t4.5 -10.5v-92q0 -6 -4.5 -10.5t-10.5 -4.5h-145v-158q0 -9 10 -10q21 -3 50 -3z" />
<glyph unicode="&#x112;" horiz-adv-x="562" d="M135 752q-6 0 -10.5 4.5t-4.5 10.5v87q0 6 4.5 10.5t10.5 4.5h300q6 0 10.5 -4.5t4.5 -10.5v-87q0 -6 -4.5 -10.5t-10.5 -4.5h-300zM101 568q-40 6 -59.5 33t-23.5 82q-1 9 4.5 13t14.5 4h436q6 0 10.5 -4.5t4.5 -10.5v-102q0 -6 -4.5 -10.5t-10.5 -4.5h-215v-142 q0 -10 10 -10h185q6 0 10.5 -4.5t4.5 -10.5v-102q0 -6 -4.5 -10.5t-10.5 -4.5h-185q-10 0 -10 -10v-132q0 -10 10 -10h133q69 0 107 11q14 4 14 -10q1 -69 -27 -101t-78 -32h-301q-6 0 -10.5 4.5t-4.5 10.5v553z" />
<glyph unicode="&#x113;" horiz-adv-x="562" d="M135 752q-6 0 -10.5 4.5t-4.5 10.5v87q0 6 4.5 10.5t10.5 4.5h300q6 0 10.5 -4.5t4.5 -10.5v-87q0 -6 -4.5 -10.5t-10.5 -4.5h-300zM101 568q-40 6 -59.5 33t-23.5 82q-1 9 4.5 13t14.5 4h436q6 0 10.5 -4.5t4.5 -10.5v-102q0 -6 -4.5 -10.5t-10.5 -4.5h-215v-142 q0 -10 10 -10h185q6 0 10.5 -4.5t4.5 -10.5v-102q0 -6 -4.5 -10.5t-10.5 -4.5h-185q-10 0 -10 -10v-132q0 -10 10 -10h133q69 0 107 11q14 4 14 -10q1 -69 -27 -101t-78 -32h-301q-6 0 -10.5 4.5t-4.5 10.5v553z" />
<glyph unicode="&#x114;" horiz-adv-x="562" d="M334 897q0 -16 -13 -30t-36 -14t-36 14t-13 30q0 18 -15 18h-95q-15 0 -15 -16q0 -65 44 -112t130 -47t130 47t44 112q0 16 -15 16h-95q-15 0 -15 -18zM101 568q-40 6 -59.5 33t-23.5 82q-1 9 4.5 13t14.5 4h436q6 0 10.5 -4.5t4.5 -10.5v-102q0 -6 -4.5 -10.5 t-10.5 -4.5h-215v-142q0 -10 10 -10h185q6 0 10.5 -4.5t4.5 -10.5v-102q0 -6 -4.5 -10.5t-10.5 -4.5h-185q-10 0 -10 -10v-132q0 -10 10 -10h133q69 0 107 11q14 4 14 -10q1 -69 -27 -101t-78 -32h-301q-6 0 -10.5 4.5t-4.5 10.5v553z" />
<glyph unicode="&#x115;" horiz-adv-x="562" d="M334 897q0 -16 -13 -30t-36 -14t-36 14t-13 30q0 18 -15 18h-95q-15 0 -15 -16q0 -65 44 -112t130 -47t130 47t44 112q0 16 -15 16h-95q-15 0 -15 -18zM101 568q-40 6 -59.5 33t-23.5 82q-1 9 4.5 13t14.5 4h436q6 0 10.5 -4.5t4.5 -10.5v-102q0 -6 -4.5 -10.5 t-10.5 -4.5h-215v-142q0 -10 10 -10h185q6 0 10.5 -4.5t4.5 -10.5v-102q0 -6 -4.5 -10.5t-10.5 -4.5h-185q-10 0 -10 -10v-132q0 -10 10 -10h133q69 0 107 11q14 4 14 -10q1 -69 -27 -101t-78 -32h-301q-6 0 -10.5 4.5t-4.5 10.5v553z" />
<glyph unicode="&#x116;" horiz-adv-x="562" d="M284 745q-35 0 -59.5 25t-24.5 60t24.5 60t59.5 25q36 0 61 -25t25 -60t-25 -60t-61 -25zM101 568q-40 6 -59.5 33t-23.5 82q-1 9 4.5 13t14.5 4h436q6 0 10.5 -4.5t4.5 -10.5v-102q0 -6 -4.5 -10.5t-10.5 -4.5h-215v-142q0 -10 10 -10h185q6 0 10.5 -4.5t4.5 -10.5v-102 q0 -6 -4.5 -10.5t-10.5 -4.5h-185q-10 0 -10 -10v-132q0 -10 10 -10h133q69 0 107 11q14 4 14 -10q1 -69 -27 -101t-78 -32h-301q-6 0 -10.5 4.5t-4.5 10.5v553z" />
<glyph unicode="&#x117;" horiz-adv-x="562" d="M284 745q-35 0 -59.5 25t-24.5 60t24.5 60t59.5 25q36 0 61 -25t25 -60t-25 -60t-61 -25zM101 568q-40 6 -59.5 33t-23.5 82q-1 9 4.5 13t14.5 4h436q6 0 10.5 -4.5t4.5 -10.5v-102q0 -6 -4.5 -10.5t-10.5 -4.5h-215v-142q0 -10 10 -10h185q6 0 10.5 -4.5t4.5 -10.5v-102 q0 -6 -4.5 -10.5t-10.5 -4.5h-185q-10 0 -10 -10v-132q0 -10 10 -10h133q69 0 107 11q14 4 14 -10q1 -69 -27 -101t-78 -32h-301q-6 0 -10.5 4.5t-4.5 10.5v553z" />
<glyph unicode="&#x118;" horiz-adv-x="552" d="M522 133q1 -90 -49 -119q-12 -16 -33 -38t-32 -36.5t-11 -24.5t3.5 -16t19.5 -10.5t46 -4.5q7 0 13 -4.5t4 -14.5l-8 -58q-4 -25 -14 -34.5t-30 -9.5q-108 6 -150 44t-42 83q0 54 77 110h-200q-6 0 -10.5 4.5t-4.5 10.5v553q-40 6 -59.5 33t-23.5 82q-1 9 4.5 13t14.5 4 h436q6 0 10.5 -4.5t4.5 -10.5v-102q0 -6 -4.5 -10.5t-10.5 -4.5h-215v-142q0 -10 10 -10h185q6 0 10.5 -4.5t4.5 -10.5v-102q0 -6 -4.5 -10.5t-10.5 -4.5h-185q-10 0 -10 -10v-132q0 -10 10 -10h133q69 0 107 11q14 4 14 -10z" />
<glyph unicode="&#x119;" horiz-adv-x="552" d="M522 133q1 -90 -49 -119q-12 -16 -33 -38t-32 -36.5t-11 -24.5t3.5 -16t19.5 -10.5t46 -4.5q7 0 13 -4.5t4 -14.5l-8 -58q-4 -25 -14 -34.5t-30 -9.5q-108 6 -150 44t-42 83q0 54 77 110h-200q-6 0 -10.5 4.5t-4.5 10.5v553q-40 6 -59.5 33t-23.5 82q-1 9 4.5 13t14.5 4 h436q6 0 10.5 -4.5t4.5 -10.5v-102q0 -6 -4.5 -10.5t-10.5 -4.5h-215v-142q0 -10 10 -10h185q6 0 10.5 -4.5t4.5 -10.5v-102q0 -6 -4.5 -10.5t-10.5 -4.5h-185q-10 0 -10 -10v-132q0 -10 10 -10h133q69 0 107 11q14 4 14 -10z" />
<glyph unicode="&#x11a;" horiz-adv-x="562" d="M245 745q-13 0 -21.5 4t-13.5 9.5t-16 20.5l-81 110q-7 9 -4 17.5t14 8.5h100q16 0 23 -12l39 -60l39 60q7 12 23 12h100q11 0 14 -8.5t-4 -17.5l-81 -110q-11 -15 -16 -20.5t-13.5 -9.5t-21.5 -4h-80zM101 568q-40 6 -59.5 33t-23.5 82q-1 9 4.5 13t14.5 4h436 q6 0 10.5 -4.5t4.5 -10.5v-102q0 -6 -4.5 -10.5t-10.5 -4.5h-215v-142q0 -10 10 -10h185q6 0 10.5 -4.5t4.5 -10.5v-102q0 -6 -4.5 -10.5t-10.5 -4.5h-185q-10 0 -10 -10v-132q0 -10 10 -10h133q69 0 107 11q14 4 14 -10q1 -69 -27 -101t-78 -32h-301q-6 0 -10.5 4.5 t-4.5 10.5v553z" />
<glyph unicode="&#x11b;" horiz-adv-x="562" d="M245 745q-13 0 -21.5 4t-13.5 9.5t-16 20.5l-81 110q-7 9 -4 17.5t14 8.5h100q16 0 23 -12l39 -60l39 60q7 12 23 12h100q11 0 14 -8.5t-4 -17.5l-81 -110q-11 -15 -16 -20.5t-13.5 -9.5t-21.5 -4h-80zM101 568q-40 6 -59.5 33t-23.5 82q-1 9 4.5 13t14.5 4h436 q6 0 10.5 -4.5t4.5 -10.5v-102q0 -6 -4.5 -10.5t-10.5 -4.5h-215v-142q0 -10 10 -10h185q6 0 10.5 -4.5t4.5 -10.5v-102q0 -6 -4.5 -10.5t-10.5 -4.5h-185q-10 0 -10 -10v-132q0 -10 10 -10h133q69 0 107 11q14 4 14 -10q1 -69 -27 -101t-78 -32h-301q-6 0 -10.5 4.5 t-4.5 10.5v553z" />
<glyph unicode="&#x11c;" horiz-adv-x="715" d="M345 905h80q13 0 21.5 -4t13.5 -9.5t16 -20.5l81 -110q7 -9 4 -17.5t-14 -8.5h-100q-16 0 -23 12l-39 60l-39 -60q-7 -12 -23 -12h-100q-11 0 -14 8.5t4 17.5l81 110q11 15 16 20.5t13.5 9.5t21.5 4zM472 259q-43 0 -67 33q-19 26 -24 82q-1 9 4.5 13t14.5 4q28 0 82 2.5 t81 2.5q35 0 58.5 -23.5t23.5 -58.5v-260q0 -15 -14 -21q-114 -43 -228 -43q-165 0 -259 92t-94 254q0 168 107 271t280 103q105 0 187 -27q14 -5 12 -20l-17 -111q-3 -16 -19 -11q-83 31 -171 31q-101 0 -159 -60t-58 -164q0 -105 53.5 -162.5t151.5 -57.5q37 0 65 9 q6 1 6 9v113h-16z" />
<glyph unicode="&#x11d;" horiz-adv-x="715" d="M345 905h80q13 0 21.5 -4t13.5 -9.5t16 -20.5l81 -110q7 -9 4 -17.5t-14 -8.5h-100q-16 0 -23 12l-39 60l-39 -60q-7 -12 -23 -12h-100q-11 0 -14 8.5t4 17.5l81 110q11 15 16 20.5t13.5 9.5t21.5 4zM472 259q-43 0 -67 33q-19 26 -24 82q-1 9 4.5 13t14.5 4q28 0 82 2.5 t81 2.5q35 0 58.5 -23.5t23.5 -58.5v-260q0 -15 -14 -21q-114 -43 -228 -43q-165 0 -259 92t-94 254q0 168 107 271t280 103q105 0 187 -27q14 -5 12 -20l-17 -111q-3 -16 -19 -11q-83 31 -171 31q-101 0 -159 -60t-58 -164q0 -105 53.5 -162.5t151.5 -57.5q37 0 65 9 q6 1 6 9v113h-16z" />
<glyph unicode="&#x11e;" horiz-adv-x="715" d="M434 897q0 -16 -13 -30t-36 -14t-36 14t-13 30q0 18 -15 18h-95q-15 0 -15 -16q0 -65 44 -112t130 -47t130 47t44 112q0 16 -15 16h-95q-15 0 -15 -18zM472 259q-43 0 -67 33q-19 26 -24 82q-1 9 4.5 13t14.5 4q28 0 82 2.5t81 2.5q35 0 58.5 -23.5t23.5 -58.5v-260 q0 -15 -14 -21q-114 -43 -228 -43q-165 0 -259 92t-94 254q0 168 107 271t280 103q105 0 187 -27q14 -5 12 -20l-17 -111q-3 -16 -19 -11q-83 31 -171 31q-101 0 -159 -60t-58 -164q0 -105 53.5 -162.5t151.5 -57.5q37 0 65 9q6 1 6 9v113h-16z" />
<glyph unicode="&#x11f;" horiz-adv-x="715" d="M434 897q0 -16 -13 -30t-36 -14t-36 14t-13 30q0 18 -15 18h-95q-15 0 -15 -16q0 -65 44 -112t130 -47t130 47t44 112q0 16 -15 16h-95q-15 0 -15 -18zM472 259q-43 0 -67 33q-19 26 -24 82q-1 9 4.5 13t14.5 4q28 0 82 2.5t81 2.5q35 0 58.5 -23.5t23.5 -58.5v-260 q0 -15 -14 -21q-114 -43 -228 -43q-165 0 -259 92t-94 254q0 168 107 271t280 103q105 0 187 -27q14 -5 12 -20l-17 -111q-3 -16 -19 -11q-83 31 -171 31q-101 0 -159 -60t-58 -164q0 -105 53.5 -162.5t151.5 -57.5q37 0 65 9q6 1 6 9v113h-16z" />
<glyph unicode="&#x120;" horiz-adv-x="715" d="M384 745q-35 0 -59.5 25t-24.5 60t24.5 60t59.5 25q36 0 61 -25t25 -60t-25 -60t-61 -25zM472 259q-43 0 -67 33q-19 26 -24 82q-1 9 4.5 13t14.5 4q28 0 82 2.5t81 2.5q35 0 58.5 -23.5t23.5 -58.5v-260q0 -15 -14 -21q-114 -43 -228 -43q-165 0 -259 92t-94 254 q0 168 107 271t280 103q105 0 187 -27q14 -5 12 -20l-17 -111q-3 -16 -19 -11q-83 31 -171 31q-101 0 -159 -60t-58 -164q0 -105 53.5 -162.5t151.5 -57.5q37 0 65 9q6 1 6 9v113h-16z" />
<glyph unicode="&#x121;" horiz-adv-x="715" d="M384 745q-35 0 -59.5 25t-24.5 60t24.5 60t59.5 25q36 0 61 -25t25 -60t-25 -60t-61 -25zM472 259q-43 0 -67 33q-19 26 -24 82q-1 9 4.5 13t14.5 4q28 0 82 2.5t81 2.5q35 0 58.5 -23.5t23.5 -58.5v-260q0 -15 -14 -21q-114 -43 -228 -43q-165 0 -259 92t-94 254 q0 168 107 271t280 103q105 0 187 -27q14 -5 12 -20l-17 -111q-3 -16 -19 -11q-83 31 -171 31q-101 0 -159 -60t-58 -164q0 -105 53.5 -162.5t151.5 -57.5q37 0 65 9q6 1 6 9v113h-16z" />
<glyph unicode="&#x122;" horiz-adv-x="715" d="M472 259q-43 0 -67 33q-19 26 -24 82q-1 9 4.5 13t14.5 4q28 0 82 2.5t81 2.5q35 0 58.5 -23.5t23.5 -58.5v-260q0 -15 -14 -21q-114 -43 -228 -43q-165 0 -259 92t-94 254q0 168 107 271t280 103q105 0 187 -27q14 -5 12 -20l-17 -111q-3 -16 -19 -11q-83 31 -171 31 q-101 0 -159 -60t-58 -164q0 -105 53.5 -162.5t151.5 -57.5q37 0 65 9q6 1 6 9v113h-16zM303 -224q0 5 5 10q25 22 25 38q0 15 -14.5 35t-14.5 41q0 31 21 50.5t53 19.5q38 0 63.5 -28t25.5 -68q0 -49 -35 -82t-86 -33q-43 0 -43 17z" />
<glyph unicode="&#x123;" horiz-adv-x="715" d="M472 259q-43 0 -67 33q-19 26 -24 82q-1 9 4.5 13t14.5 4q28 0 82 2.5t81 2.5q35 0 58.5 -23.5t23.5 -58.5v-260q0 -15 -14 -21q-114 -43 -228 -43q-165 0 -259 92t-94 254q0 168 107 271t280 103q105 0 187 -27q14 -5 12 -20l-17 -111q-3 -16 -19 -11q-83 31 -171 31 q-101 0 -159 -60t-58 -164q0 -105 53.5 -162.5t151.5 -57.5q37 0 65 9q6 1 6 9v113h-16zM303 -224q0 5 5 10q25 22 25 38q0 15 -14.5 35t-14.5 41q0 31 21 50.5t53 19.5q38 0 63.5 -28t25.5 -68q0 -49 -35 -82t-86 -33q-43 0 -43 17z" />
<glyph unicode="&#x124;" d="M340 905h80q13 0 21.5 -4t13.5 -9.5t16 -20.5l81 -110q7 -9 4 -17.5t-14 -8.5h-100q-16 0 -23 12l-39 60l-39 -60q-7 -12 -23 -12h-100q-11 0 -14 8.5t4 17.5l81 110q11 15 16 20.5t13.5 9.5t21.5 4zM37 700q23 0 68.5 2.5t70.5 2.5q35 0 58.5 -23.5t23.5 -58.5v-185 q0 -10 10 -10h246q10 0 10 10v247q0 6 4.5 10.5t10.5 4.5h127q6 0 10.5 -4.5t4.5 -10.5v-670q0 -6 -4.5 -10.5t-10.5 -4.5h-127q-6 0 -10.5 4.5t-4.5 10.5v271q0 10 -10 10h-246q-10 0 -10 -10v-271q0 -6 -4.5 -10.5t-10.5 -4.5h-127q-6 0 -10.5 4.5t-4.5 10.5v553 q-40 6 -59.5 33t-23.5 82q-1 9 4.5 13t14.5 4z" />
<glyph unicode="&#x125;" d="M340 905h80q13 0 21.5 -4t13.5 -9.5t16 -20.5l81 -110q7 -9 4 -17.5t-14 -8.5h-100q-16 0 -23 12l-39 60l-39 -60q-7 -12 -23 -12h-100q-11 0 -14 8.5t4 17.5l81 110q11 15 16 20.5t13.5 9.5t21.5 4zM37 700q23 0 68.5 2.5t70.5 2.5q35 0 58.5 -23.5t23.5 -58.5v-185 q0 -10 10 -10h246q10 0 10 10v247q0 6 4.5 10.5t10.5 4.5h127q6 0 10.5 -4.5t4.5 -10.5v-670q0 -6 -4.5 -10.5t-10.5 -4.5h-127q-6 0 -10.5 4.5t-4.5 10.5v271q0 10 -10 10h-246q-10 0 -10 -10v-271q0 -6 -4.5 -10.5t-10.5 -4.5h-127q-6 0 -10.5 4.5t-4.5 10.5v553 q-40 6 -59.5 33t-23.5 82q-1 9 4.5 13t14.5 4z" />
<glyph unicode="&#x126;" d="M749 557q6 0 10.5 -4.5t4.5 -10.5v-92q0 -6 -4.5 -10.5t-10.5 -4.5h-68v-410q0 -6 -4.5 -10.5t-10.5 -4.5h-127q-6 0 -10.5 4.5t-4.5 10.5v221q0 10 -10 10h-246q-10 0 -10 -10v-221q0 -6 -4.5 -10.5t-10.5 -4.5h-127q-6 0 -10.5 4.5t-4.5 10.5v410h-68q-6 0 -10.5 4.5 t-4.5 10.5v92q0 6 4.5 10.5t10.5 4.5h68v21q-40 6 -59.5 33t-23.5 82q-1 9 4.5 13t14.5 4q23 0 68.5 2.5t70.5 2.5q35 0 58.5 -23.5t23.5 -58.5v-76h266v138q0 6 4.5 10.5t10.5 4.5h127q6 0 10.5 -4.5t4.5 -10.5v-138h68zM524 398v37h-266v-37q0 -10 10 -10h246q10 0 10 10z " />
<glyph unicode="&#x127;" d="M749 557q6 0 10.5 -4.5t4.5 -10.5v-92q0 -6 -4.5 -10.5t-10.5 -4.5h-68v-410q0 -6 -4.5 -10.5t-10.5 -4.5h-127q-6 0 -10.5 4.5t-4.5 10.5v221q0 10 -10 10h-246q-10 0 -10 -10v-221q0 -6 -4.5 -10.5t-10.5 -4.5h-127q-6 0 -10.5 4.5t-4.5 10.5v410h-68q-6 0 -10.5 4.5 t-4.5 10.5v92q0 6 4.5 10.5t10.5 4.5h68v21q-40 6 -59.5 33t-23.5 82q-1 9 4.5 13t14.5 4q23 0 68.5 2.5t70.5 2.5q35 0 58.5 -23.5t23.5 -58.5v-76h266v138q0 6 4.5 10.5t10.5 4.5h127q6 0 10.5 -4.5t4.5 -10.5v-138h68zM524 398v37h-266v-37q0 -10 10 -10h246q10 0 10 10z " />
<glyph unicode="&#x128;" horiz-adv-x="340" d="M134 886q134 76 213 -41q8 -13 -5 -28l-57 -59q-6 -6 -14 -5.5t-13 6.5q-35 40 -75 16q-64 -38 -118.5 -28t-94.5 68q-9 14 4 28l56 59q16 17 29 2q12 -12 20.5 -17.5t24 -8.5t30.5 8zM37 700q24 0 69.5 2.5t69.5 2.5q35 0 58.5 -23.5t23.5 -58.5v-608q0 -6 -4.5 -10.5 t-10.5 -4.5h-127q-6 0 -10.5 4.5t-4.5 10.5v553q-40 6 -59.5 33t-23.5 82q-1 9 4.5 13t14.5 4z" />
<glyph unicode="&#x129;" horiz-adv-x="340" d="M134 886q134 76 213 -41q8 -13 -5 -28l-57 -59q-6 -6 -14 -5.5t-13 6.5q-35 40 -75 16q-64 -38 -118.5 -28t-94.5 68q-9 14 4 28l56 59q16 17 29 2q12 -12 20.5 -17.5t24 -8.5t30.5 8zM37 700q24 0 69.5 2.5t69.5 2.5q35 0 58.5 -23.5t23.5 -58.5v-608q0 -6 -4.5 -10.5 t-10.5 -4.5h-127q-6 0 -10.5 4.5t-4.5 10.5v553q-40 6 -59.5 33t-23.5 82q-1 9 4.5 13t14.5 4z" />
<glyph unicode="&#x12a;" horiz-adv-x="340" d="M8 752q-6 0 -10.5 4.5t-4.5 10.5v87q0 6 4.5 10.5t10.5 4.5h300q6 0 10.5 -4.5t4.5 -10.5v-87q0 -6 -4.5 -10.5t-10.5 -4.5h-300zM37 700q24 0 69.5 2.5t69.5 2.5q35 0 58.5 -23.5t23.5 -58.5v-608q0 -6 -4.5 -10.5t-10.5 -4.5h-127q-6 0 -10.5 4.5t-4.5 10.5v553 q-40 6 -59.5 33t-23.5 82q-1 9 4.5 13t14.5 4z" />
<glyph unicode="&#x12b;" horiz-adv-x="340" d="M8 752q-6 0 -10.5 4.5t-4.5 10.5v87q0 6 4.5 10.5t10.5 4.5h300q6 0 10.5 -4.5t4.5 -10.5v-87q0 -6 -4.5 -10.5t-10.5 -4.5h-300zM37 700q24 0 69.5 2.5t69.5 2.5q35 0 58.5 -23.5t23.5 -58.5v-608q0 -6 -4.5 -10.5t-10.5 -4.5h-127q-6 0 -10.5 4.5t-4.5 10.5v553 q-40 6 -59.5 33t-23.5 82q-1 9 4.5 13t14.5 4z" />
<glyph unicode="&#x12c;" horiz-adv-x="340" d="M207 897q0 -16 -13 -30t-36 -14t-36 14t-13 30q0 18 -15 18h-95q-15 0 -15 -16q0 -65 44 -112t130 -47t130 47t44 112q0 16 -15 16h-95q-15 0 -15 -18zM37 700q24 0 69.5 2.5t69.5 2.5q35 0 58.5 -23.5t23.5 -58.5v-608q0 -6 -4.5 -10.5t-10.5 -4.5h-127q-6 0 -10.5 4.5 t-4.5 10.5v553q-40 6 -59.5 33t-23.5 82q-1 9 4.5 13t14.5 4z" />
<glyph unicode="&#x12d;" horiz-adv-x="340" d="M207 897q0 -16 -13 -30t-36 -14t-36 14t-13 30q0 18 -15 18h-95q-15 0 -15 -16q0 -65 44 -112t130 -47t130 47t44 112q0 16 -15 16h-95q-15 0 -15 -18zM37 700q24 0 69.5 2.5t69.5 2.5q35 0 58.5 -23.5t23.5 -58.5v-608q0 -6 -4.5 -10.5t-10.5 -4.5h-127q-6 0 -10.5 4.5 t-4.5 10.5v553q-40 6 -59.5 33t-23.5 82q-1 9 4.5 13t14.5 4z" />
<glyph unicode="&#x12e;" horiz-adv-x="330" d="M243 -116q7 0 13 -4.5t4 -14.5l-8 -58q-4 -25 -14 -34.5t-30 -9.5q-108 6 -150 44t-42 83q0 58 85 133v545q-40 6 -59.5 33t-23.5 82q-1 9 4.5 13t14.5 4q24 0 69.5 2.5t69.5 2.5q35 0 58.5 -23.5t23.5 -58.5v-608q0 -6 -4.5 -10.5t-10.5 -4.5h-2q-6 -8 -24 -26 t-30.5 -33.5t-12.5 -25.5t3.5 -16t19.5 -10.5t46 -4.5z" />
<glyph unicode="&#x12f;" horiz-adv-x="330" d="M243 -116q7 0 13 -4.5t4 -14.5l-8 -58q-4 -25 -14 -34.5t-30 -9.5q-108 6 -150 44t-42 83q0 58 85 133v545q-40 6 -59.5 33t-23.5 82q-1 9 4.5 13t14.5 4q24 0 69.5 2.5t69.5 2.5q35 0 58.5 -23.5t23.5 -58.5v-608q0 -6 -4.5 -10.5t-10.5 -4.5h-2q-6 -8 -24 -26 t-30.5 -33.5t-12.5 -25.5t3.5 -16t19.5 -10.5t46 -4.5z" />
<glyph unicode="&#x130;" horiz-adv-x="340" d="M157 745q-35 0 -59.5 25t-24.5 60t24.5 60t59.5 25q36 0 61 -25t25 -60t-25 -60t-61 -25zM37 700q24 0 69.5 2.5t69.5 2.5q35 0 58.5 -23.5t23.5 -58.5v-608q0 -6 -4.5 -10.5t-10.5 -4.5h-127q-6 0 -10.5 4.5t-4.5 10.5v553q-40 6 -59.5 33t-23.5 82q-1 9 4.5 13t14.5 4z " />
<glyph unicode="&#x134;" horiz-adv-x="470" d="M234 905h80q13 0 21.5 -4t13.5 -9.5t16 -20.5l81 -110q7 -9 4 -17.5t-14 -8.5h-100q-16 0 -23 12l-39 60l-39 -60q-7 -12 -23 -12h-100q-11 0 -14 8.5t4 17.5l81 110q11 15 16 20.5t13.5 9.5t21.5 4zM167 700q24 0 69.5 2.5t69.5 2.5q35 0 58.5 -23.5t23.5 -58.5v-422 q0 -102 -53.5 -156.5t-149.5 -54.5q-78 0 -121.5 35.5t-43.5 98.5q0 19 3 35q1 7 7.5 9.5t11.5 -1.5q58 -39 116 -39q34 0 53.5 17.5t19.5 65.5v357q-40 6 -59.5 33t-23.5 82q-1 9 4.5 13t14.5 4z" />
<glyph unicode="&#x135;" horiz-adv-x="470" d="M234 905h80q13 0 21.5 -4t13.5 -9.5t16 -20.5l81 -110q7 -9 4 -17.5t-14 -8.5h-100q-16 0 -23 12l-39 60l-39 -60q-7 -12 -23 -12h-100q-11 0 -14 8.5t4 17.5l81 110q11 15 16 20.5t13.5 9.5t21.5 4zM167 700q24 0 69.5 2.5t69.5 2.5q35 0 58.5 -23.5t23.5 -58.5v-422 q0 -102 -53.5 -156.5t-149.5 -54.5q-78 0 -121.5 35.5t-43.5 98.5q0 19 3 35q1 7 7.5 9.5t11.5 -1.5q58 -39 116 -39q34 0 53.5 17.5t19.5 65.5v357q-40 6 -59.5 33t-23.5 82q-1 9 4.5 13t14.5 4z" />
<glyph unicode="&#x136;" horiz-adv-x="726" d="M37 700q24 0 69.5 2.5t69.5 2.5q35 0 58.5 -23.5t23.5 -58.5v-239l219 296q14 20 42 20h123q14 0 19 -8.5t-3 -19.5l-225 -297q-5 -6 0 -12q30 -38 91.5 -121t103 -136t62.5 -73q12 -10 0 -20q-35 -28 -81 -28q-54 0 -89 21.5t-68 69.5l-194 276v-337q0 -6 -4.5 -10.5 t-10.5 -4.5h-127q-6 0 -10.5 4.5t-4.5 10.5v553q-40 6 -59.5 33t-23.5 82q-1 9 4.5 13t14.5 4zM292 -224q0 5 5 10q25 22 25 38q0 15 -14.5 35t-14.5 41q0 31 21 50.5t53 19.5q38 0 63.5 -28t25.5 -68q0 -49 -35 -82t-86 -33q-43 0 -43 17z" />
<glyph unicode="&#x137;" horiz-adv-x="726" d="M37 700q24 0 69.5 2.5t69.5 2.5q35 0 58.5 -23.5t23.5 -58.5v-239l219 296q14 20 42 20h123q14 0 19 -8.5t-3 -19.5l-225 -297q-5 -6 0 -12q30 -38 91.5 -121t103 -136t62.5 -73q12 -10 0 -20q-35 -28 -81 -28q-54 0 -89 21.5t-68 69.5l-194 276v-337q0 -6 -4.5 -10.5 t-10.5 -4.5h-127q-6 0 -10.5 4.5t-4.5 10.5v553q-40 6 -59.5 33t-23.5 82q-1 9 4.5 13t14.5 4zM292 -224q0 5 5 10q25 22 25 38q0 15 -14.5 35t-14.5 41q0 31 21 50.5t53 19.5q38 0 63.5 -28t25.5 -68q0 -49 -35 -82t-86 -33q-43 0 -43 17z" />
<glyph unicode="&#x139;" horiz-adv-x="530" d="M139 770l61 123q12 22 34 22h128q11 0 15 -10.5t-3 -19.5l-98 -126q-10 -14 -27 -14h-95q-10 0 -15.5 7t0.5 18zM37 700q24 0 69.5 2.5t69.5 2.5q35 0 58.5 -23.5t23.5 -58.5v-481q0 -10 10 -10h121q69 2 107 11q14 4 14 -10q3 -130 -105 -133h-289q-6 0 -10.5 4.5 t-4.5 10.5v553q-40 6 -59.5 33t-23.5 82q-1 9 4.5 13t14.5 4z" />
<glyph unicode="&#x13a;" horiz-adv-x="530" d="M139 770l61 123q12 22 34 22h128q11 0 15 -10.5t-3 -19.5l-98 -126q-10 -14 -27 -14h-95q-10 0 -15.5 7t0.5 18zM37 700q24 0 69.5 2.5t69.5 2.5q35 0 58.5 -23.5t23.5 -58.5v-481q0 -10 10 -10h121q69 2 107 11q14 4 14 -10q3 -130 -105 -133h-289q-6 0 -10.5 4.5 t-4.5 10.5v553q-40 6 -59.5 33t-23.5 82q-1 9 4.5 13t14.5 4z" />
<glyph unicode="&#x13b;" horiz-adv-x="530" d="M37 700q24 0 69.5 2.5t69.5 2.5q35 0 58.5 -23.5t23.5 -58.5v-481q0 -10 10 -10h121q69 2 107 11q14 4 14 -10q3 -130 -105 -133h-289q-6 0 -10.5 4.5t-4.5 10.5v553q-40 6 -59.5 33t-23.5 82q-1 9 4.5 13t14.5 4zM219 -224q0 5 5 10q25 22 25 38q0 15 -14.5 35t-14.5 41 q0 31 21 50.5t53 19.5q38 0 63.5 -28t25.5 -68q0 -49 -35 -82t-86 -33q-43 0 -43 17z" />
<glyph unicode="&#x13c;" horiz-adv-x="530" d="M37 700q24 0 69.5 2.5t69.5 2.5q35 0 58.5 -23.5t23.5 -58.5v-481q0 -10 10 -10h121q69 2 107 11q14 4 14 -10q3 -130 -105 -133h-289q-6 0 -10.5 4.5t-4.5 10.5v553q-40 6 -59.5 33t-23.5 82q-1 9 4.5 13t14.5 4zM219 -224q0 5 5 10q25 22 25 38q0 15 -14.5 35t-14.5 41 q0 31 21 50.5t53 19.5q38 0 63.5 -28t25.5 -68q0 -49 -35 -82t-86 -33q-43 0 -43 17z" />
<glyph unicode="&#x13d;" horiz-adv-x="520" d="M306 538q-10 7 1 18q25 22 25 48q0 15 -14.5 35t-14.5 41q0 31 21 50.5t53 19.5q38 0 63.5 -28t25.5 -68q0 -50 -35.5 -87.5t-85.5 -37.5q-26 0 -39 9zM37 700q24 0 69.5 2.5t69.5 2.5q35 0 58.5 -23.5t23.5 -58.5v-481q0 -10 10 -10h121q69 2 107 11q14 4 14 -10 q3 -130 -105 -133h-289q-6 0 -10.5 4.5t-4.5 10.5v553q-40 6 -59.5 33t-23.5 82q-1 9 4.5 13t14.5 4z" />
<glyph unicode="&#x13e;" horiz-adv-x="520" d="M306 538q-10 7 1 18q25 22 25 48q0 15 -14.5 35t-14.5 41q0 31 21 50.5t53 19.5q38 0 63.5 -28t25.5 -68q0 -50 -35.5 -87.5t-85.5 -37.5q-26 0 -39 9zM37 700q24 0 69.5 2.5t69.5 2.5q35 0 58.5 -23.5t23.5 -58.5v-481q0 -10 10 -10h121q69 2 107 11q14 4 14 -10 q3 -130 -105 -133h-289q-6 0 -10.5 4.5t-4.5 10.5v553q-40 6 -59.5 33t-23.5 82q-1 9 4.5 13t14.5 4z" />
<glyph unicode="&#x13f;" horiz-adv-x="520" d="M37 700q24 0 69.5 2.5t69.5 2.5q35 0 58.5 -23.5t23.5 -58.5v-481q0 -10 10 -10h121q69 2 107 11q14 4 14 -10q3 -130 -105 -133h-289q-6 0 -10.5 4.5t-4.5 10.5v553q-40 6 -59.5 33t-23.5 82q-1 9 4.5 13t14.5 4zM406 257q-38 0 -65.5 27.5t-27.5 65.5t27.5 65.5 t65.5 27.5t65.5 -27.5t27.5 -65.5t-27 -65.5t-66 -27.5z" />
<glyph unicode="&#x140;" horiz-adv-x="520" d="M37 700q24 0 69.5 2.5t69.5 2.5q35 0 58.5 -23.5t23.5 -58.5v-481q0 -10 10 -10h121q69 2 107 11q14 4 14 -10q3 -130 -105 -133h-289q-6 0 -10.5 4.5t-4.5 10.5v553q-40 6 -59.5 33t-23.5 82q-1 9 4.5 13t14.5 4zM406 257q-38 0 -65.5 27.5t-27.5 65.5t27.5 65.5 t65.5 27.5t65.5 -27.5t27.5 -65.5t-27 -65.5t-66 -27.5z" />
<glyph unicode="&#x141;" horiz-adv-x="577" d="M510 133q3 -130 -105 -133h-289q-6 0 -10.5 4.5t-4.5 10.5v188l-49 -29q-8 -4 -12 -4q-11 0 -11 9v111q0 16 8 21l64 37v220q-40 6 -59.5 33t-23.5 82q-1 9 4.5 13t14.5 4q24 0 69.5 2.5t69.5 2.5q35 0 58.5 -23.5t23.5 -58.5v-185l106 61q4 3 9 3q12 0 12 -16v-95 q0 -18 -11 -25l-116 -69v-155q0 -10 10 -10h121q69 2 107 11q14 4 14 -10z" />
<glyph unicode="&#x142;" horiz-adv-x="577" d="M510 133q3 -130 -105 -133h-289q-6 0 -10.5 4.5t-4.5 10.5v188l-49 -29q-8 -4 -12 -4q-11 0 -11 9v111q0 16 8 21l64 37v220q-40 6 -59.5 33t-23.5 82q-1 9 4.5 13t14.5 4q24 0 69.5 2.5t69.5 2.5q35 0 58.5 -23.5t23.5 -58.5v-185l106 61q4 3 9 3q12 0 12 -16v-95 q0 -18 -11 -25l-116 -69v-155q0 -10 10 -10h121q69 2 107 11q14 4 14 -10z" />
<glyph unicode="&#x143;" horiz-adv-x="752" d="M329 745q-10 0 -15.5 7t0.5 18l61 123q12 22 34 22h128q11 0 15 -10.5t-3 -19.5l-98 -126q-11 -14 -27 -14h-95zM687 32q6 -16 -8 -25q-33 -22 -78 -22q-86 0 -137 90l-211 377v-437q0 -6 -4.5 -10.5t-10.5 -4.5h-122q-6 0 -10.5 4.5t-4.5 10.5v553q-40 6 -59.5 33 t-23.5 82q-1 9 4.5 13t14.5 4q35 0 90.5 2.5t90.5 2.5q47 0 69 -40l232 -415v435q0 6 4.5 10.5t10.5 4.5h122q6 0 10.5 -4.5t4.5 -10.5v-517q0 -91 16 -136z" />
<glyph unicode="&#x144;" horiz-adv-x="752" d="M329 745q-10 0 -15.5 7t0.5 18l61 123q12 22 34 22h128q11 0 15 -10.5t-3 -19.5l-98 -126q-11 -14 -27 -14h-95zM687 32q6 -16 -8 -25q-33 -22 -78 -22q-86 0 -137 90l-211 377v-437q0 -6 -4.5 -10.5t-10.5 -4.5h-122q-6 0 -10.5 4.5t-4.5 10.5v553q-40 6 -59.5 33 t-23.5 82q-1 9 4.5 13t14.5 4q35 0 90.5 2.5t90.5 2.5q47 0 69 -40l232 -415v435q0 6 4.5 10.5t10.5 4.5h122q6 0 10.5 -4.5t4.5 -10.5v-517q0 -91 16 -136z" />
<glyph unicode="&#x145;" horiz-adv-x="752" d="M687 32q6 -16 -8 -25q-33 -22 -78 -22q-86 0 -137 90l-211 377v-437q0 -6 -4.5 -10.5t-10.5 -4.5h-122q-6 0 -10.5 4.5t-4.5 10.5v553q-40 6 -59.5 33t-23.5 82q-1 9 4.5 13t14.5 4q35 0 90.5 2.5t90.5 2.5q47 0 69 -40l232 -415v435q0 6 4.5 10.5t10.5 4.5h122 q6 0 10.5 -4.5t4.5 -10.5v-517q0 -91 16 -136zM389 -30q38 0 63.5 -28t25.5 -68q0 -49 -35 -82t-86 -33q-43 0 -43 17q0 5 5 10q25 22 25 38q0 15 -14.5 35t-14.5 41q0 31 21 50.5t53 19.5z" />
<glyph unicode="&#x146;" horiz-adv-x="752" d="M687 32q6 -16 -8 -25q-33 -22 -78 -22q-86 0 -137 90l-211 377v-437q0 -6 -4.5 -10.5t-10.5 -4.5h-122q-6 0 -10.5 4.5t-4.5 10.5v553q-40 6 -59.5 33t-23.5 82q-1 9 4.5 13t14.5 4q35 0 90.5 2.5t90.5 2.5q47 0 69 -40l232 -415v435q0 6 4.5 10.5t10.5 4.5h122 q6 0 10.5 -4.5t4.5 -10.5v-517q0 -91 16 -136zM389 -30q38 0 63.5 -28t25.5 -68q0 -49 -35 -82t-86 -33q-43 0 -43 17q0 5 5 10q25 22 25 38q0 15 -14.5 35t-14.5 41q0 31 21 50.5t53 19.5z" />
<glyph unicode="&#x147;" horiz-adv-x="752" d="M278 779l-81 110q-7 9 -4 17.5t14 8.5h100q16 0 23 -12l39 -60l39 60q7 12 23 12h100q11 0 14 -8.5t-4 -17.5l-81 -110q-11 -15 -16 -20.5t-13.5 -9.5t-21.5 -4h-80q-13 0 -21.5 4t-13.5 9.5t-16 20.5zM687 32q6 -16 -8 -25q-33 -22 -78 -22q-86 0 -137 90l-211 377v-437 q0 -6 -4.5 -10.5t-10.5 -4.5h-122q-6 0 -10.5 4.5t-4.5 10.5v553q-40 6 -59.5 33t-23.5 82q-1 9 4.5 13t14.5 4q35 0 90.5 2.5t90.5 2.5q47 0 69 -40l232 -415v435q0 6 4.5 10.5t10.5 4.5h122q6 0 10.5 -4.5t4.5 -10.5v-517q0 -91 16 -136z" />
<glyph unicode="&#x148;" horiz-adv-x="752" d="M278 779l-81 110q-7 9 -4 17.5t14 8.5h100q16 0 23 -12l39 -60l39 60q7 12 23 12h100q11 0 14 -8.5t-4 -17.5l-81 -110q-11 -15 -16 -20.5t-13.5 -9.5t-21.5 -4h-80q-13 0 -21.5 4t-13.5 9.5t-16 20.5zM687 32q6 -16 -8 -25q-33 -22 -78 -22q-86 0 -137 90l-211 377v-437 q0 -6 -4.5 -10.5t-10.5 -4.5h-122q-6 0 -10.5 4.5t-4.5 10.5v553q-40 6 -59.5 33t-23.5 82q-1 9 4.5 13t14.5 4q35 0 90.5 2.5t90.5 2.5q47 0 69 -40l232 -415v435q0 6 4.5 10.5t10.5 4.5h122q6 0 10.5 -4.5t4.5 -10.5v-517q0 -91 16 -136z" />
<glyph unicode="&#x14a;" horiz-adv-x="743" d="M646 700q6 0 10.5 -4.5t4.5 -10.5v-684q0 -102 -53.5 -156.5t-149.5 -54.5q-70 0 -107.5 35.5t-37.5 98.5q0 19 3 35q1 7 7.5 9.5t11.5 -1.5q1 0 13 -8.5t17 -11.5t17 -9t24 -8t25 -2q34 0 53.5 17.5t19.5 65.5v3q-29 23 -50 61l-211 377v-437q0 -6 -4.5 -10.5 t-10.5 -4.5h-122q-6 0 -10.5 4.5t-4.5 10.5v553q-40 6 -59.5 33t-23.5 82q-1 9 4.5 13t14.5 4q34 0 95.5 2.5t95.5 2.5q47 0 69 -40l222 -399v419q0 6 4.5 10.5t10.5 4.5h122z" />
<glyph unicode="&#x14b;" horiz-adv-x="743" d="M646 700q6 0 10.5 -4.5t4.5 -10.5v-684q0 -102 -53.5 -156.5t-149.5 -54.5q-70 0 -107.5 35.5t-37.5 98.5q0 19 3 35q1 7 7.5 9.5t11.5 -1.5q1 0 13 -8.5t17 -11.5t17 -9t24 -8t25 -2q34 0 53.5 17.5t19.5 65.5v3q-29 23 -50 61l-211 377v-437q0 -6 -4.5 -10.5 t-10.5 -4.5h-122q-6 0 -10.5 4.5t-4.5 10.5v553q-40 6 -59.5 33t-23.5 82q-1 9 4.5 13t14.5 4q34 0 95.5 2.5t95.5 2.5q47 0 69 -40l222 -399v419q0 6 4.5 10.5t10.5 4.5h122z" />
<glyph unicode="&#x14c;" horiz-adv-x="764" d="M232 752q-6 0 -10.5 4.5t-4.5 10.5v87q0 6 4.5 10.5t10.5 4.5h300q6 0 10.5 -4.5t4.5 -10.5v-87q0 -6 -4.5 -10.5t-10.5 -4.5h-300zM382 -10q-159 0 -245 93.5t-87 266.5q-1 170 87 265t245 95q159 0 245 -93.5t87 -266.5q2 -170 -86 -265t-246 -95zM382 128 q81 0 126 58.5t44 163.5q-1 104 -46 163t-124 59q-80 0 -125 -59t-45 -163q1 -105 46 -163.5t124 -58.5z" />
<glyph unicode="&#x14d;" horiz-adv-x="764" d="M232 752q-6 0 -10.5 4.5t-4.5 10.5v87q0 6 4.5 10.5t10.5 4.5h300q6 0 10.5 -4.5t4.5 -10.5v-87q0 -6 -4.5 -10.5t-10.5 -4.5h-300zM382 -10q-159 0 -245 93.5t-87 266.5q-1 170 87 265t245 95q159 0 245 -93.5t87 -266.5q2 -170 -86 -265t-246 -95zM382 128 q81 0 126 58.5t44 163.5q-1 104 -46 163t-124 59q-80 0 -125 -59t-45 -163q1 -105 46 -163.5t124 -58.5z" />
<glyph unicode="&#x14e;" horiz-adv-x="764" d="M431 897q0 -16 -13 -30t-36 -14t-36 14t-13 30q0 18 -15 18h-95q-15 0 -15 -16q0 -65 44 -112t130 -47t130 47t44 112q0 16 -15 16h-95q-15 0 -15 -18zM382 -10q-159 0 -245 93.5t-87 266.5q-1 170 87 265t245 95q159 0 245 -93.5t87 -266.5q2 -170 -86 -265t-246 -95z M382 128q81 0 126 58.5t44 163.5q-1 104 -46 163t-124 59q-80 0 -125 -59t-45 -163q1 -105 46 -163.5t124 -58.5z" />
<glyph unicode="&#x14f;" horiz-adv-x="764" d="M431 897q0 -16 -13 -30t-36 -14t-36 14t-13 30q0 18 -15 18h-95q-15 0 -15 -16q0 -65 44 -112t130 -47t130 47t44 112q0 16 -15 16h-95q-15 0 -15 -18zM382 -10q-159 0 -245 93.5t-87 266.5q-1 170 87 265t245 95q159 0 245 -93.5t87 -266.5q2 -170 -86 -265t-246 -95z M382 128q81 0 126 58.5t44 163.5q-1 104 -46 163t-124 59q-80 0 -125 -59t-45 -163q1 -105 46 -163.5t124 -58.5z" />
<glyph unicode="&#x150;" horiz-adv-x="764" d="M217 770l45 124q7 21 26 21h127q11 0 14.5 -10t-2.5 -20l-78 -126q-11 -14 -27 -14h-90q-10 0 -14.5 7t-0.5 18zM407 770l60 124q11 21 26 21h136q11 0 15.5 -10.5t-3.5 -19.5l-102 -126q-11 -14 -27 -14h-90q-10 0 -15.5 7t0.5 18zM382 -10q-159 0 -245 93.5t-87 266.5 q-1 170 87 265t245 95q159 0 245 -93.5t87 -266.5q2 -170 -86 -265t-246 -95zM382 128q81 0 126 58.5t44 163.5q-1 104 -46 163t-124 59q-80 0 -125 -59t-45 -163q1 -105 46 -163.5t124 -58.5z" />
<glyph unicode="&#x151;" horiz-adv-x="764" d="M217 770l45 124q7 21 26 21h127q11 0 14.5 -10t-2.5 -20l-78 -126q-11 -14 -27 -14h-90q-10 0 -14.5 7t-0.5 18zM407 770l60 124q11 21 26 21h136q11 0 15.5 -10.5t-3.5 -19.5l-102 -126q-11 -14 -27 -14h-90q-10 0 -15.5 7t0.5 18zM382 -10q-159 0 -245 93.5t-87 266.5 q-1 170 87 265t245 95q159 0 245 -93.5t87 -266.5q2 -170 -86 -265t-246 -95zM382 128q81 0 126 58.5t44 163.5q-1 104 -46 163t-124 59q-80 0 -125 -59t-45 -163q1 -105 46 -163.5t124 -58.5z" />
<glyph unicode="&#x152;" horiz-adv-x="1013" d="M973 133q1 -69 -27 -101t-78 -32h-301q-6 0 -10.5 4.5t-4.5 10.5v13q-71 -38 -170 -38q-159 0 -245 93.5t-87 266.5q-1 170 87 265t245 95q100 0 170 -37v12q0 6 4.5 10.5t10.5 4.5h357q6 0 10.5 -4.5t4.5 -10.5v-102q0 -6 -4.5 -10.5t-10.5 -4.5h-215v-142v-3 q2 -7 10 -7h185q6 0 10.5 -4.5t4.5 -10.5v-102q0 -6 -4.5 -10.5t-10.5 -4.5h-185q-6 0 -9 -5q0 -1 -0.5 -4t-0.5 -5v-128q0 -10 10 -10h133q69 0 107 11q14 4 14 -10zM382 128q80 0 124.5 56.5t45.5 158.5v7q-1 104 -46 163t-124 59q-80 0 -125 -59t-45 -163 q1 -105 46 -163.5t124 -58.5z" />
<glyph unicode="&#x153;" horiz-adv-x="1013" d="M973 133q1 -69 -27 -101t-78 -32h-301q-6 0 -10.5 4.5t-4.5 10.5v13q-71 -38 -170 -38q-159 0 -245 93.5t-87 266.5q-1 170 87 265t245 95q100 0 170 -37v12q0 6 4.5 10.5t10.5 4.5h357q6 0 10.5 -4.5t4.5 -10.5v-102q0 -6 -4.5 -10.5t-10.5 -4.5h-215v-142v-3 q2 -7 10 -7h185q6 0 10.5 -4.5t4.5 -10.5v-102q0 -6 -4.5 -10.5t-10.5 -4.5h-185q-6 0 -9 -5q0 -1 -0.5 -4t-0.5 -5v-128q0 -10 10 -10h133q69 0 107 11q14 4 14 -10zM382 128q80 0 124.5 56.5t45.5 158.5v7q-1 104 -46 163t-124 59q-80 0 -125 -59t-45 -163 q1 -105 46 -163.5t124 -58.5z" />
<glyph unicode="&#x154;" horiz-adv-x="675" d="M237 770l61 123q12 22 34 22h128q11 0 15 -10.5t-3 -19.5l-98 -126q-10 -14 -27 -14h-95q-10 0 -15.5 7t0.5 18zM101 568q-40 6 -59.5 33t-23.5 82q-1 9 4.5 13t14.5 4q45 0 131 2.5t131 2.5q135 0 210 -53.5t75 -152.5q0 -130 -136 -196q31 -40 80 -106.5t79.5 -105 t51.5 -58.5q12 -10 0 -20q-35 -28 -81 -28q-54 0 -89.5 21.5t-67.5 69.5l-114 170q-8 11 -20 11h-19q-10 0 -10 -10v-232q0 -6 -4.5 -10.5t-10.5 -4.5h-127q-6 0 -10.5 4.5t-4.5 10.5v553zM311 573q-29 0 -53 -2v-172q0 -10 10 -10h39q53 0 84 25t31 68q0 91 -111 91z" />
<glyph unicode="&#x155;" horiz-adv-x="675" d="M237 770l61 123q12 22 34 22h128q11 0 15 -10.5t-3 -19.5l-98 -126q-10 -14 -27 -14h-95q-10 0 -15.5 7t0.5 18zM101 568q-40 6 -59.5 33t-23.5 82q-1 9 4.5 13t14.5 4q45 0 131 2.5t131 2.5q135 0 210 -53.5t75 -152.5q0 -130 -136 -196q31 -40 80 -106.5t79.5 -105 t51.5 -58.5q12 -10 0 -20q-35 -28 -81 -28q-54 0 -89.5 21.5t-67.5 69.5l-114 170q-8 11 -20 11h-19q-10 0 -10 -10v-232q0 -6 -4.5 -10.5t-10.5 -4.5h-127q-6 0 -10.5 4.5t-4.5 10.5v553zM311 573q-29 0 -53 -2v-172q0 -10 10 -10h39q53 0 84 25t31 68q0 91 -111 91z" />
<glyph unicode="&#x156;" horiz-adv-x="675" d="M101 568q-40 6 -59.5 33t-23.5 82q-1 9 4.5 13t14.5 4q45 0 131 2.5t131 2.5q135 0 210 -53.5t75 -152.5q0 -130 -136 -196q31 -40 80 -106.5t79.5 -105t51.5 -58.5q12 -10 0 -20q-35 -28 -81 -28q-54 0 -89.5 21.5t-67.5 69.5l-114 170q-8 11 -20 11h-19q-10 0 -10 -10 v-232q0 -6 -4.5 -10.5t-10.5 -4.5h-127q-6 0 -10.5 4.5t-4.5 10.5v553zM311 573q-29 0 -53 -2v-172q0 -10 10 -10h39q53 0 84 25t31 68q0 91 -111 91zM277 -224q0 5 5 10q25 22 25 38q0 15 -14.5 35t-14.5 41q0 31 21 50.5t53 19.5q38 0 63.5 -28t25.5 -68q0 -49 -35 -82 t-86 -33q-43 0 -43 17z" />
<glyph unicode="&#x157;" horiz-adv-x="675" d="M101 568q-40 6 -59.5 33t-23.5 82q-1 9 4.5 13t14.5 4q45 0 131 2.5t131 2.5q135 0 210 -53.5t75 -152.5q0 -130 -136 -196q31 -40 80 -106.5t79.5 -105t51.5 -58.5q12 -10 0 -20q-35 -28 -81 -28q-54 0 -89.5 21.5t-67.5 69.5l-114 170q-8 11 -20 11h-19q-10 0 -10 -10 v-232q0 -6 -4.5 -10.5t-10.5 -4.5h-127q-6 0 -10.5 4.5t-4.5 10.5v553zM311 573q-29 0 -53 -2v-172q0 -10 10 -10h39q53 0 84 25t31 68q0 91 -111 91zM277 -224q0 5 5 10q25 22 25 38q0 15 -14.5 35t-14.5 41q0 31 21 50.5t53 19.5q38 0 63.5 -28t25.5 -68q0 -49 -35 -82 t-86 -33q-43 0 -43 17z" />
<glyph unicode="&#x158;" horiz-adv-x="675" d="M252 745q-13 0 -21.5 4t-13.5 9.5t-16 20.5l-81 110q-7 9 -4 17.5t14 8.5h100q16 0 23 -12l39 -60l39 60q7 12 23 12h100q11 0 14 -8.5t-4 -17.5l-81 -110q-11 -15 -16 -20.5t-13.5 -9.5t-21.5 -4h-80zM101 568q-40 6 -59.5 33t-23.5 82q-1 9 4.5 13t14.5 4q45 0 131 2.5 t131 2.5q135 0 210 -53.5t75 -152.5q0 -130 -136 -196q31 -40 80 -106.5t79.5 -105t51.5 -58.5q12 -10 0 -20q-35 -28 -81 -28q-54 0 -89.5 21.5t-67.5 69.5l-114 170q-8 11 -20 11h-19q-10 0 -10 -10v-232q0 -6 -4.5 -10.5t-10.5 -4.5h-127q-6 0 -10.5 4.5t-4.5 10.5v553z M311 573q-29 0 -53 -2v-172q0 -10 10 -10h39q53 0 84 25t31 68q0 91 -111 91z" />
<glyph unicode="&#x159;" horiz-adv-x="675" d="M252 745q-13 0 -21.5 4t-13.5 9.5t-16 20.5l-81 110q-7 9 -4 17.5t14 8.5h100q16 0 23 -12l39 -60l39 60q7 12 23 12h100q11 0 14 -8.5t-4 -17.5l-81 -110q-11 -15 -16 -20.5t-13.5 -9.5t-21.5 -4h-80zM101 568q-40 6 -59.5 33t-23.5 82q-1 9 4.5 13t14.5 4q45 0 131 2.5 t131 2.5q135 0 210 -53.5t75 -152.5q0 -130 -136 -196q31 -40 80 -106.5t79.5 -105t51.5 -58.5q12 -10 0 -20q-35 -28 -81 -28q-54 0 -89.5 21.5t-67.5 69.5l-114 170q-8 11 -20 11h-19q-10 0 -10 -10v-232q0 -6 -4.5 -10.5t-10.5 -4.5h-127q-6 0 -10.5 4.5t-4.5 10.5v553z M311 573q-29 0 -53 -2v-172q0 -10 10 -10h39q53 0 84 25t31 68q0 91 -111 91z" />
<glyph unicode="&#x15a;" horiz-adv-x="556" d="M223 770l61 123q12 22 34 22h128q11 0 15 -10.5t-3 -19.5l-98 -126q-10 -14 -27 -14h-95q-10 0 -15.5 7t0.5 18zM439 562q-50 10 -104 10q-67 0 -92 -19.5t-25 -44.5q0 -31 30 -53.5t73 -40t86.5 -39.5t73.5 -65t30 -104q0 -105 -80 -160.5t-208 -55.5q-97 0 -137.5 38 t-40.5 94q0 21 3 33q5 17 24 8q73 -35 145 -35q59 0 95.5 18t36.5 54q0 31 -30 55t-73.5 42.5t-86.5 41.5t-73 65.5t-30 102.5q0 203 288 203q67 0 118 -13q14 -3 12 -17l-16 -107q-2 -14 -19 -11z" />
<glyph unicode="&#x15b;" horiz-adv-x="556" d="M223 770l61 123q12 22 34 22h128q11 0 15 -10.5t-3 -19.5l-98 -126q-10 -14 -27 -14h-95q-10 0 -15.5 7t0.5 18zM439 562q-50 10 -104 10q-67 0 -92 -19.5t-25 -44.5q0 -31 30 -53.5t73 -40t86.5 -39.5t73.5 -65t30 -104q0 -105 -80 -160.5t-208 -55.5q-97 0 -137.5 38 t-40.5 94q0 21 3 33q5 17 24 8q73 -35 145 -35q59 0 95.5 18t36.5 54q0 31 -30 55t-73.5 42.5t-86.5 41.5t-73 65.5t-30 102.5q0 203 288 203q67 0 118 -13q14 -3 12 -17l-16 -107q-2 -14 -19 -11z" />
<glyph unicode="&#x15c;" horiz-adv-x="556" d="M238 905h80q13 0 21.5 -4t13.5 -9.5t16 -20.5l81 -110q7 -9 4 -17.5t-14 -8.5h-100q-16 0 -23 12l-39 60l-39 -60q-7 -12 -23 -12h-100q-11 0 -14 8.5t4 17.5l81 110q11 15 16 20.5t13.5 9.5t21.5 4zM439 562q-50 10 -104 10q-67 0 -92 -19.5t-25 -44.5q0 -31 30 -53.5 t73 -40t86.5 -39.5t73.5 -65t30 -104q0 -105 -80 -160.5t-208 -55.5q-97 0 -137.5 38t-40.5 94q0 21 3 33q5 17 24 8q73 -35 145 -35q59 0 95.5 18t36.5 54q0 31 -30 55t-73.5 42.5t-86.5 41.5t-73 65.5t-30 102.5q0 203 288 203q67 0 118 -13q14 -3 12 -17l-16 -107 q-2 -14 -19 -11z" />
<glyph unicode="&#x15d;" horiz-adv-x="556" d="M238 905h80q13 0 21.5 -4t13.5 -9.5t16 -20.5l81 -110q7 -9 4 -17.5t-14 -8.5h-100q-16 0 -23 12l-39 60l-39 -60q-7 -12 -23 -12h-100q-11 0 -14 8.5t4 17.5l81 110q11 15 16 20.5t13.5 9.5t21.5 4zM439 562q-50 10 -104 10q-67 0 -92 -19.5t-25 -44.5q0 -31 30 -53.5 t73 -40t86.5 -39.5t73.5 -65t30 -104q0 -105 -80 -160.5t-208 -55.5q-97 0 -137.5 38t-40.5 94q0 21 3 33q5 17 24 8q73 -35 145 -35q59 0 95.5 18t36.5 54q0 31 -30 55t-73.5 42.5t-86.5 41.5t-73 65.5t-30 102.5q0 203 288 203q67 0 118 -13q14 -3 12 -17l-16 -107 q-2 -14 -19 -11z" />
<glyph unicode="&#x15e;" horiz-adv-x="556" d="M511 206q0 -81 -48.5 -132.5t-132.5 -71.5l-7 -29q103 -22 103 -107q0 -60 -54.5 -89.5t-128.5 -19.5q-12 2 -14 12l-13 54q-4 17 13 17q69 0 69 26q0 28 -80 28q-16 0 -13 16l7 30l12 50h-1q-97 0 -137.5 38t-40.5 94q0 21 3 33q5 17 24 8q73 -35 145 -35q59 0 95.5 18 t36.5 54q0 31 -30 55t-73.5 42.5t-86.5 41.5t-73 65.5t-30 102.5q0 203 288 203q67 0 118 -13q14 -3 12 -17l-16 -107q-2 -14 -19 -11q-50 10 -104 10q-67 0 -92 -19.5t-25 -44.5q0 -31 30 -53.5t73 -40t86.5 -39.5t73.5 -65t30 -104z" />
<glyph unicode="&#x15f;" horiz-adv-x="556" d="M511 206q0 -81 -48.5 -132.5t-132.5 -71.5l-7 -29q103 -22 103 -107q0 -60 -54.5 -89.5t-128.5 -19.5q-12 2 -14 12l-13 54q-4 17 13 17q69 0 69 26q0 28 -80 28q-16 0 -13 16l7 30l12 50h-1q-97 0 -137.5 38t-40.5 94q0 21 3 33q5 17 24 8q73 -35 145 -35q59 0 95.5 18 t36.5 54q0 31 -30 55t-73.5 42.5t-86.5 41.5t-73 65.5t-30 102.5q0 203 288 203q67 0 118 -13q14 -3 12 -17l-16 -107q-2 -14 -19 -11q-50 10 -104 10q-67 0 -92 -19.5t-25 -44.5q0 -31 30 -53.5t73 -40t86.5 -39.5t73.5 -65t30 -104z" />
<glyph unicode="&#x160;" horiz-adv-x="556" d="M238 745q-13 0 -21.5 4t-13.5 9.5t-16 20.5l-81 110q-7 9 -4 17.5t14 8.5h100q16 0 23 -12l39 -60l39 60q7 12 23 12h100q11 0 14 -8.5t-4 -17.5l-81 -110q-11 -15 -16 -20.5t-13.5 -9.5t-21.5 -4h-80zM439 562q-50 10 -104 10q-67 0 -92 -19.5t-25 -44.5q0 -31 30 -53.5 t73 -40t86.5 -39.5t73.5 -65t30 -104q0 -105 -80 -160.5t-208 -55.5q-97 0 -137.5 38t-40.5 94q0 21 3 33q5 17 24 8q73 -35 145 -35q59 0 95.5 18t36.5 54q0 31 -30 55t-73.5 42.5t-86.5 41.5t-73 65.5t-30 102.5q0 203 288 203q67 0 118 -13q14 -3 12 -17l-16 -107 q-2 -14 -19 -11z" />
<glyph unicode="&#x161;" horiz-adv-x="556" d="M238 745q-13 0 -21.5 4t-13.5 9.5t-16 20.5l-81 110q-7 9 -4 17.5t14 8.5h100q16 0 23 -12l39 -60l39 60q7 12 23 12h100q11 0 14 -8.5t-4 -17.5l-81 -110q-11 -15 -16 -20.5t-13.5 -9.5t-21.5 -4h-80zM439 562q-50 10 -104 10q-67 0 -92 -19.5t-25 -44.5q0 -31 30 -53.5 t73 -40t86.5 -39.5t73.5 -65t30 -104q0 -105 -80 -160.5t-208 -55.5q-97 0 -137.5 38t-40.5 94q0 21 3 33q5 17 24 8q73 -35 145 -35q59 0 95.5 18t36.5 54q0 31 -30 55t-73.5 42.5t-86.5 41.5t-73 65.5t-30 102.5q0 203 288 203q67 0 118 -13q14 -3 12 -17l-16 -107 q-2 -14 -19 -11z" />
<glyph unicode="&#x162;" horiz-adv-x="607" d="M552 700q6 0 10.5 -4.5t4.5 -10.5v-109q0 -6 -4.5 -10.5t-10.5 -4.5h-160q-10 0 -10 -10v-331q0 -54 12.5 -73.5t45.5 -24.5q17 -3 41 -1q22 3 17 -25q-5 -32 -29.5 -60.5t-62.5 -39.5l-6 -23q103 -22 103 -107q0 -60 -54.5 -89.5t-128.5 -19.5q-12 2 -14 12l-13 54 q-4 17 13 17q69 0 69 26q0 28 -80 28q-16 0 -13 16l7 30l14 58q-41 15 -59.5 56.5t-18.5 117.5v379q0 10 -10 10h-160q-6 0 -10.5 4.5t-4.5 10.5v109q0 6 4.5 10.5t10.5 4.5h497z" />
<glyph unicode="&#x163;" horiz-adv-x="607" d="M552 700q6 0 10.5 -4.5t4.5 -10.5v-109q0 -6 -4.5 -10.5t-10.5 -4.5h-160q-10 0 -10 -10v-331q0 -54 12.5 -73.5t45.5 -24.5q17 -3 41 -1q22 3 17 -25q-5 -32 -29.5 -60.5t-62.5 -39.5l-6 -23q103 -22 103 -107q0 -60 -54.5 -89.5t-128.5 -19.5q-12 2 -14 12l-13 54 q-4 17 13 17q69 0 69 26q0 28 -80 28q-16 0 -13 16l7 30l14 58q-41 15 -59.5 56.5t-18.5 117.5v379q0 10 -10 10h-160q-6 0 -10.5 4.5t-4.5 10.5v109q0 6 4.5 10.5t10.5 4.5h497z" />
<glyph unicode="&#x164;" horiz-adv-x="607" d="M264 745q-13 0 -21.5 4t-13.5 9.5t-16 20.5l-81 110q-7 9 -4 17.5t14 8.5h100q16 0 23 -12l39 -60l39 60q7 12 23 12h100q11 0 14 -8.5t-4 -17.5l-81 -110q-11 -15 -16 -20.5t-13.5 -9.5t-21.5 -4h-80zM392 561q-10 0 -10 -10v-331q0 -54 12.5 -73.5t45.5 -24.5 q17 -3 41 -1q22 3 17 -25q-7 -41 -43.5 -73.5t-93.5 -32.5q-73 0 -104.5 42t-31.5 140v379q0 10 -10 10h-160q-6 0 -10.5 4.5t-4.5 10.5v109q0 6 4.5 10.5t10.5 4.5h497q6 0 10.5 -4.5t4.5 -10.5v-109q0 -6 -4.5 -10.5t-10.5 -4.5h-160z" />
<glyph unicode="&#x165;" horiz-adv-x="607" d="M264 745q-13 0 -21.5 4t-13.5 9.5t-16 20.5l-81 110q-7 9 -4 17.5t14 8.5h100q16 0 23 -12l39 -60l39 60q7 12 23 12h100q11 0 14 -8.5t-4 -17.5l-81 -110q-11 -15 -16 -20.5t-13.5 -9.5t-21.5 -4h-80zM392 561q-10 0 -10 -10v-331q0 -54 12.5 -73.5t45.5 -24.5 q17 -3 41 -1q22 3 17 -25q-7 -41 -43.5 -73.5t-93.5 -32.5q-73 0 -104.5 42t-31.5 140v379q0 10 -10 10h-160q-6 0 -10.5 4.5t-4.5 10.5v109q0 6 4.5 10.5t10.5 4.5h497q6 0 10.5 -4.5t4.5 -10.5v-109q0 -6 -4.5 -10.5t-10.5 -4.5h-160z" />
<glyph unicode="&#x166;" horiz-adv-x="597" d="M552 700q6 0 10.5 -4.5t4.5 -10.5v-109q0 -6 -4.5 -10.5t-10.5 -4.5h-160q-10 0 -10 -10v-125h109q6 0 10.5 -4.5t4.5 -10.5v-92q0 -6 -4.5 -10.5t-10.5 -4.5h-109v-84q0 -54 12.5 -73.5t45.5 -24.5q17 -3 41 -1q22 3 17 -25q-7 -41 -43.5 -73.5t-93.5 -32.5 q-73 0 -104.5 42t-31.5 140v132h-104q-6 0 -10.5 4.5t-4.5 10.5v92q0 6 4.5 10.5t10.5 4.5h104v125q0 10 -10 10h-160q-6 0 -10.5 4.5t-4.5 10.5v109q0 6 4.5 10.5t10.5 4.5h497z" />
<glyph unicode="&#x167;" horiz-adv-x="597" d="M552 700q6 0 10.5 -4.5t4.5 -10.5v-109q0 -6 -4.5 -10.5t-10.5 -4.5h-160q-10 0 -10 -10v-125h109q6 0 10.5 -4.5t4.5 -10.5v-92q0 -6 -4.5 -10.5t-10.5 -4.5h-109v-84q0 -54 12.5 -73.5t45.5 -24.5q17 -3 41 -1q22 3 17 -25q-7 -41 -43.5 -73.5t-93.5 -32.5 q-73 0 -104.5 42t-31.5 140v132h-104q-6 0 -10.5 4.5t-4.5 10.5v92q0 6 4.5 10.5t10.5 4.5h104v125q0 10 -10 10h-160q-6 0 -10.5 4.5t-4.5 10.5v109q0 6 4.5 10.5t10.5 4.5h497z" />
<glyph unicode="&#x168;" d="M366 886q134 76 213 -41q8 -13 -5 -28l-57 -59q-6 -6 -14 -5.5t-13 6.5q-35 40 -75 16q-64 -38 -118.5 -28t-94.5 68q-9 14 4 28l56 59q16 17 29 2q12 -12 20.5 -17.5t24 -8.5t30.5 8zM101 568q-40 6 -59.5 33t-23.5 82q-1 9 4.5 13t14.5 4q25 0 71 2.5t67 2.5 q38 0 60.5 -21t22.5 -62v-350q0 -70 34.5 -106.5t98.5 -36.5t98.5 36.5t34.5 106.5v413q0 6 4.5 10.5t10.5 4.5h127q6 0 10.5 -4.5t4.5 -10.5v-446q0 -119 -76 -183.5t-214 -64.5q-290 0 -290 248v329z" />
<glyph unicode="&#x169;" d="M366 886q134 76 213 -41q8 -13 -5 -28l-57 -59q-6 -6 -14 -5.5t-13 6.5q-35 40 -75 16q-64 -38 -118.5 -28t-94.5 68q-9 14 4 28l56 59q16 17 29 2q12 -12 20.5 -17.5t24 -8.5t30.5 8zM101 568q-40 6 -59.5 33t-23.5 82q-1 9 4.5 13t14.5 4q25 0 71 2.5t67 2.5 q38 0 60.5 -21t22.5 -62v-350q0 -70 34.5 -106.5t98.5 -36.5t98.5 36.5t34.5 106.5v413q0 6 4.5 10.5t10.5 4.5h127q6 0 10.5 -4.5t4.5 -10.5v-446q0 -119 -76 -183.5t-214 -64.5q-290 0 -290 248v329z" />
<glyph unicode="&#x16a;" d="M240 752q-6 0 -10.5 4.5t-4.5 10.5v87q0 6 4.5 10.5t10.5 4.5h300q6 0 10.5 -4.5t4.5 -10.5v-87q0 -6 -4.5 -10.5t-10.5 -4.5h-300zM101 568q-40 6 -59.5 33t-23.5 82q-1 9 4.5 13t14.5 4q25 0 71 2.5t67 2.5q38 0 60.5 -21t22.5 -62v-350q0 -70 34.5 -106.5t98.5 -36.5 t98.5 36.5t34.5 106.5v413q0 6 4.5 10.5t10.5 4.5h127q6 0 10.5 -4.5t4.5 -10.5v-446q0 -119 -76 -183.5t-214 -64.5q-290 0 -290 248v329z" />
<glyph unicode="&#x16b;" d="M240 752q-6 0 -10.5 4.5t-4.5 10.5v87q0 6 4.5 10.5t10.5 4.5h300q6 0 10.5 -4.5t4.5 -10.5v-87q0 -6 -4.5 -10.5t-10.5 -4.5h-300zM101 568q-40 6 -59.5 33t-23.5 82q-1 9 4.5 13t14.5 4q25 0 71 2.5t67 2.5q38 0 60.5 -21t22.5 -62v-350q0 -70 34.5 -106.5t98.5 -36.5 t98.5 36.5t34.5 106.5v413q0 6 4.5 10.5t10.5 4.5h127q6 0 10.5 -4.5t4.5 -10.5v-446q0 -119 -76 -183.5t-214 -64.5q-290 0 -290 248v329z" />
<glyph unicode="&#x16c;" d="M439 897q0 -16 -13 -30t-36 -14t-36 14t-13 30q0 18 -15 18h-95q-15 0 -15 -16q0 -65 44 -112t130 -47t130 47t44 112q0 16 -15 16h-95q-15 0 -15 -18zM101 568q-40 6 -59.5 33t-23.5 82q-1 9 4.5 13t14.5 4q25 0 71 2.5t67 2.5q38 0 60.5 -21t22.5 -62v-350 q0 -70 34.5 -106.5t98.5 -36.5t98.5 36.5t34.5 106.5v413q0 6 4.5 10.5t10.5 4.5h127q6 0 10.5 -4.5t4.5 -10.5v-446q0 -119 -76 -183.5t-214 -64.5q-290 0 -290 248v329z" />
<glyph unicode="&#x16d;" d="M439 897q0 -16 -13 -30t-36 -14t-36 14t-13 30q0 18 -15 18h-95q-15 0 -15 -16q0 -65 44 -112t130 -47t130 47t44 112q0 16 -15 16h-95q-15 0 -15 -18zM101 568q-40 6 -59.5 33t-23.5 82q-1 9 4.5 13t14.5 4q25 0 71 2.5t67 2.5q38 0 60.5 -21t22.5 -62v-350 q0 -70 34.5 -106.5t98.5 -36.5t98.5 36.5t34.5 106.5v413q0 6 4.5 10.5t10.5 4.5h127q6 0 10.5 -4.5t4.5 -10.5v-446q0 -119 -76 -183.5t-214 -64.5q-290 0 -290 248v329z" />
<glyph unicode="&#x16e;" d="M390 726q-66 0 -105 29.5t-39 84.5q0 49 41 81.5t103 32.5q64 0 104 -32.5t40 -81.5q0 -54 -40 -84t-104 -30zM390 806q16 0 27 10t11 24t-11 24t-27 10t-27 -10t-11 -24t11 -24t27 -10zM101 568q-40 6 -59.5 33t-23.5 82q-1 9 4.5 13t14.5 4q25 0 71 2.5t67 2.5 q38 0 60.5 -21t22.5 -62v-350q0 -70 34.5 -106.5t98.5 -36.5t98.5 36.5t34.5 106.5v413q0 6 4.5 10.5t10.5 4.5h127q6 0 10.5 -4.5t4.5 -10.5v-446q0 -119 -76 -183.5t-214 -64.5q-290 0 -290 248v329z" />
<glyph unicode="&#x16f;" d="M390 726q-66 0 -105 29.5t-39 84.5q0 49 41 81.5t103 32.5q64 0 104 -32.5t40 -81.5q0 -54 -40 -84t-104 -30zM390 806q16 0 27 10t11 24t-11 24t-27 10t-27 -10t-11 -24t11 -24t27 -10zM101 568q-40 6 -59.5 33t-23.5 82q-1 9 4.5 13t14.5 4q25 0 71 2.5t67 2.5 q38 0 60.5 -21t22.5 -62v-350q0 -70 34.5 -106.5t98.5 -36.5t98.5 36.5t34.5 106.5v413q0 6 4.5 10.5t10.5 4.5h127q6 0 10.5 -4.5t4.5 -10.5v-446q0 -119 -76 -183.5t-214 -64.5q-290 0 -290 248v329z" />
<glyph unicode="&#x170;" d="M225 770l45 124q7 21 26 21h127q11 0 14.5 -10t-2.5 -20l-78 -126q-11 -14 -27 -14h-90q-10 0 -14.5 7t-0.5 18zM415 770l60 124q11 21 26 21h136q11 0 15.5 -10.5t-3.5 -19.5l-102 -126q-11 -14 -27 -14h-90q-10 0 -15.5 7t0.5 18zM101 568q-40 6 -59.5 33t-23.5 82 q-1 9 4.5 13t14.5 4q25 0 71 2.5t67 2.5q38 0 60.5 -21t22.5 -62v-350q0 -70 34.5 -106.5t98.5 -36.5t98.5 36.5t34.5 106.5v413q0 6 4.5 10.5t10.5 4.5h127q6 0 10.5 -4.5t4.5 -10.5v-446q0 -119 -76 -183.5t-214 -64.5q-290 0 -290 248v329z" />
<glyph unicode="&#x171;" d="M225 770l45 124q7 21 26 21h127q11 0 14.5 -10t-2.5 -20l-78 -126q-11 -14 -27 -14h-90q-10 0 -14.5 7t-0.5 18zM415 770l60 124q11 21 26 21h136q11 0 15.5 -10.5t-3.5 -19.5l-102 -126q-11 -14 -27 -14h-90q-10 0 -15.5 7t0.5 18zM101 568q-40 6 -59.5 33t-23.5 82 q-1 9 4.5 13t14.5 4q25 0 71 2.5t67 2.5q38 0 60.5 -21t22.5 -62v-350q0 -70 34.5 -106.5t98.5 -36.5t98.5 36.5t34.5 106.5v413q0 6 4.5 10.5t10.5 4.5h127q6 0 10.5 -4.5t4.5 -10.5v-446q0 -119 -76 -183.5t-214 -64.5q-290 0 -290 248v329z" />
<glyph unicode="&#x172;" d="M666 700q6 0 10.5 -4.5t4.5 -10.5v-446q0 -130 -91 -195q-108 -85 -108 -129q0 -10 3.5 -16t19.5 -10.5t46 -4.5q7 0 13 -4.5t4 -14.5l-8 -58q-4 -25 -14 -34.5t-30 -9.5q-108 6 -150 44t-42 83q0 51 65 101q-288 2 -288 248v329q-40 6 -59.5 33t-23.5 82q-1 9 4.5 13 t14.5 4q25 0 71 2.5t67 2.5q38 0 60.5 -21t22.5 -62v-350q0 -70 34.5 -106.5t98.5 -36.5t98.5 36.5t34.5 106.5v413q0 6 4.5 10.5t10.5 4.5h127z" />
<glyph unicode="&#x173;" d="M666 700q6 0 10.5 -4.5t4.5 -10.5v-446q0 -130 -91 -195q-108 -85 -108 -129q0 -10 3.5 -16t19.5 -10.5t46 -4.5q7 0 13 -4.5t4 -14.5l-8 -58q-4 -25 -14 -34.5t-30 -9.5q-108 6 -150 44t-42 83q0 51 65 101q-288 2 -288 248v329q-40 6 -59.5 33t-23.5 82q-1 9 4.5 13 t14.5 4q25 0 71 2.5t67 2.5q38 0 60.5 -21t22.5 -62v-350q0 -70 34.5 -106.5t98.5 -36.5t98.5 36.5t34.5 106.5v413q0 6 4.5 10.5t10.5 4.5h127z" />
<glyph unicode="&#x174;" horiz-adv-x="1004" d="M432 905h80q13 0 21.5 -4t13.5 -9.5t16 -20.5l81 -110q7 -9 4 -17.5t-14 -8.5h-100q-16 0 -23 12l-39 60l-39 -60q-7 -12 -23 -12h-100q-11 0 -14 8.5t4 17.5l81 110q11 15 16 20.5t13.5 9.5t21.5 4zM960 678q-29 -44 -46 -103l-146 -557q-5 -18 -23 -18h-112 q-29 0 -36 29l-115 436l-115 -447q-5 -18 -23 -18h-119q-29 0 -36 28l-168 651q-2 9 3 15t14 6h79q27 0 47.5 -16t26.5 -42l97 -401l118 442q5 17 23 17h66q58 0 73 -56l110 -402l83 365q14 59 42.5 83.5t84.5 24.5q40 0 66 -15q16 -9 6 -22z" />
<glyph unicode="&#x175;" horiz-adv-x="1004" d="M432 905h80q13 0 21.5 -4t13.5 -9.5t16 -20.5l81 -110q7 -9 4 -17.5t-14 -8.5h-100q-16 0 -23 12l-39 60l-39 -60q-7 -12 -23 -12h-100q-11 0 -14 8.5t4 17.5l81 110q11 15 16 20.5t13.5 9.5t21.5 4zM960 678q-29 -44 -46 -103l-146 -557q-5 -18 -23 -18h-112 q-29 0 -36 29l-115 436l-115 -447q-5 -18 -23 -18h-119q-29 0 -36 28l-168 651q-2 9 3 15t14 6h79q27 0 47.5 -16t26.5 -42l97 -401l118 442q5 17 23 17h66q58 0 73 -56l110 -402l83 365q14 59 42.5 83.5t84.5 24.5q40 0 66 -15q16 -9 6 -22z" />
<glyph unicode="&#x176;" horiz-adv-x="639" d="M265 905h80q13 0 21.5 -4t13.5 -9.5t16 -20.5l81 -110q7 -9 4 -17.5t-14 -8.5h-100q-16 0 -23 12l-39 60l-39 -60q-7 -12 -23 -12h-100q-11 0 -14 8.5t4 17.5l81 110q11 15 16 20.5t13.5 9.5t21.5 4zM386 597q26 61 57.5 89.5t85.5 28.5q40 0 66 -15q17 -10 6 -22 q-18 -21 -55.5 -93.5t-99 -199t-73.5 -150.5v-220q0 -6 -4.5 -10.5t-10.5 -4.5h-127q-6 0 -10.5 4.5t-4.5 10.5v220l-209 439q-4 10 1 18t16 8h89q46 0 66 -43l117 -260z" />
<glyph unicode="&#x177;" horiz-adv-x="639" d="M265 905h80q13 0 21.5 -4t13.5 -9.5t16 -20.5l81 -110q7 -9 4 -17.5t-14 -8.5h-100q-16 0 -23 12l-39 60l-39 -60q-7 -12 -23 -12h-100q-11 0 -14 8.5t4 17.5l81 110q11 15 16 20.5t13.5 9.5t21.5 4zM386 597q26 61 57.5 89.5t85.5 28.5q40 0 66 -15q17 -10 6 -22 q-18 -21 -55.5 -93.5t-99 -199t-73.5 -150.5v-220q0 -6 -4.5 -10.5t-10.5 -4.5h-127q-6 0 -10.5 4.5t-4.5 10.5v220l-209 439q-4 10 1 18t16 8h89q46 0 66 -43l117 -260z" />
<glyph unicode="&#x178;" horiz-adv-x="639" d="M198 745q-36 0 -61 25t-25 60t25 60t61 25q35 0 59.5 -25t24.5 -60t-24.5 -60t-59.5 -25zM411 745q-35 0 -59.5 25t-24.5 60t24.5 60t59.5 25q36 0 61 -25t25 -60t-25 -60t-61 -25zM386 597q26 61 57.5 89.5t85.5 28.5q40 0 66 -15q17 -10 6 -22q-18 -21 -55.5 -93.5 t-99 -199t-73.5 -150.5v-220q0 -6 -4.5 -10.5t-10.5 -4.5h-127q-6 0 -10.5 4.5t-4.5 10.5v220l-209 439q-4 10 1 18t16 8h89q46 0 66 -43l117 -260z" />
<glyph unicode="&#x179;" horiz-adv-x="614" d="M245 770l61 123q12 22 34 22h128q11 0 15 -10.5t-3 -19.5l-98 -126q-10 -14 -27 -14h-95q-10 0 -15.5 7t0.5 18zM448 132q69 2 107 11q14 4 14 -10q3 -130 -105 -133h-399q-6 0 -10.5 4.5t-4.5 10.5v61q0 38 20 69l273 423h-265q-6 0 -10.5 4.5t-4.5 10.5v102 q0 6 4.5 10.5t10.5 4.5h428q6 0 10.5 -4.5t4.5 -10.5v-66q0 -25 -3 -36.5t-16 -31.5l-264 -419h210z" />
<glyph unicode="&#x17a;" horiz-adv-x="614" d="M245 770l61 123q12 22 34 22h128q11 0 15 -10.5t-3 -19.5l-98 -126q-10 -14 -27 -14h-95q-10 0 -15.5 7t0.5 18zM448 132q69 2 107 11q14 4 14 -10q3 -130 -105 -133h-399q-6 0 -10.5 4.5t-4.5 10.5v61q0 38 20 69l273 423h-265q-6 0 -10.5 4.5t-4.5 10.5v102 q0 6 4.5 10.5t10.5 4.5h428q6 0 10.5 -4.5t4.5 -10.5v-66q0 -25 -3 -36.5t-16 -31.5l-264 -419h210z" />
<glyph unicode="&#x17b;" horiz-adv-x="614" d="M299 745q-35 0 -59.5 25t-24.5 60t24.5 60t59.5 25q36 0 61 -25t25 -60t-25 -60t-61 -25zM448 132q69 2 107 11q14 4 14 -10q3 -130 -105 -133h-399q-6 0 -10.5 4.5t-4.5 10.5v61q0 38 20 69l273 423h-265q-6 0 -10.5 4.5t-4.5 10.5v102q0 6 4.5 10.5t10.5 4.5h428 q6 0 10.5 -4.5t4.5 -10.5v-66q0 -25 -3 -36.5t-16 -31.5l-264 -419h210z" />
<glyph unicode="&#x17c;" horiz-adv-x="614" d="M299 745q-35 0 -59.5 25t-24.5 60t24.5 60t59.5 25q36 0 61 -25t25 -60t-25 -60t-61 -25zM448 132q69 2 107 11q14 4 14 -10q3 -130 -105 -133h-399q-6 0 -10.5 4.5t-4.5 10.5v61q0 38 20 69l273 423h-265q-6 0 -10.5 4.5t-4.5 10.5v102q0 6 4.5 10.5t10.5 4.5h428 q6 0 10.5 -4.5t4.5 -10.5v-66q0 -25 -3 -36.5t-16 -31.5l-264 -419h210z" />
<glyph unicode="&#x17d;" horiz-adv-x="614" d="M260 745q-13 0 -21.5 4t-13.5 9.5t-16 20.5l-81 110q-7 9 -4 17.5t14 8.5h100q16 0 23 -12l39 -60l39 60q7 12 23 12h100q11 0 14 -8.5t-4 -17.5l-81 -110q-11 -15 -16 -20.5t-13.5 -9.5t-21.5 -4h-80zM448 132q69 2 107 11q14 4 14 -10q3 -130 -105 -133h-399 q-6 0 -10.5 4.5t-4.5 10.5v61q0 38 20 69l273 423h-265q-6 0 -10.5 4.5t-4.5 10.5v102q0 6 4.5 10.5t10.5 4.5h428q6 0 10.5 -4.5t4.5 -10.5v-66q0 -25 -3 -36.5t-16 -31.5l-264 -419h210z" />
<glyph unicode="&#x17e;" horiz-adv-x="614" d="M260 745q-13 0 -21.5 4t-13.5 9.5t-16 20.5l-81 110q-7 9 -4 17.5t14 8.5h100q16 0 23 -12l39 -60l39 60q7 12 23 12h100q11 0 14 -8.5t-4 -17.5l-81 -110q-11 -15 -16 -20.5t-13.5 -9.5t-21.5 -4h-80zM448 132q69 2 107 11q14 4 14 -10q3 -130 -105 -133h-399 q-6 0 -10.5 4.5t-4.5 10.5v61q0 38 20 69l273 423h-265q-6 0 -10.5 4.5t-4.5 10.5v102q0 6 4.5 10.5t10.5 4.5h428q6 0 10.5 -4.5t4.5 -10.5v-66q0 -25 -3 -36.5t-16 -31.5l-264 -419h210z" />
<glyph unicode="&#x218;" horiz-adv-x="556" d="M439 562q-50 10 -104 10q-67 0 -92 -19.5t-25 -44.5q0 -31 30 -53.5t73 -40t86.5 -39.5t73.5 -65t30 -104q0 -105 -80 -160.5t-208 -55.5q-97 0 -137.5 38t-40.5 94q0 21 3 33q5 17 24 8q73 -35 145 -35q59 0 95.5 18t36.5 54q0 31 -30 55t-73.5 42.5t-86.5 41.5 t-73 65.5t-30 102.5q0 203 288 203q67 0 118 -13q14 -3 12 -17l-16 -107q-2 -14 -19 -11zM193 -224q0 5 5 10q25 22 25 38q0 15 -14.5 35t-14.5 41q0 31 21 50.5t53 19.5q38 0 63.5 -28t25.5 -68q0 -49 -35 -82t-86 -33q-43 0 -43 17z" />
<glyph unicode="&#x219;" horiz-adv-x="556" d="M439 562q-50 10 -104 10q-67 0 -92 -19.5t-25 -44.5q0 -31 30 -53.5t73 -40t86.5 -39.5t73.5 -65t30 -104q0 -105 -80 -160.5t-208 -55.5q-97 0 -137.5 38t-40.5 94q0 21 3 33q5 17 24 8q73 -35 145 -35q59 0 95.5 18t36.5 54q0 31 -30 55t-73.5 42.5t-86.5 41.5 t-73 65.5t-30 102.5q0 203 288 203q67 0 118 -13q14 -3 12 -17l-16 -107q-2 -14 -19 -11zM193 -224q0 5 5 10q25 22 25 38q0 15 -14.5 35t-14.5 41q0 31 21 50.5t53 19.5q38 0 63.5 -28t25.5 -68q0 -49 -35 -82t-86 -33q-43 0 -43 17z" />
<glyph unicode="&#x21a;" horiz-adv-x="607" d="M392 561q-10 0 -10 -10v-331q0 -54 12.5 -73.5t45.5 -24.5q17 -3 41 -1q22 3 17 -25q-7 -41 -43.5 -73.5t-93.5 -32.5q-73 0 -104.5 42t-31.5 140v379q0 10 -10 10h-160q-6 0 -10.5 4.5t-4.5 10.5v109q0 6 4.5 10.5t10.5 4.5h497q6 0 10.5 -4.5t4.5 -10.5v-109 q0 -6 -4.5 -10.5t-10.5 -4.5h-160zM270 -224q0 5 5 10q25 22 25 38q0 15 -14.5 35t-14.5 41q0 31 21 50.5t53 19.5q38 0 63.5 -28t25.5 -68q0 -49 -35 -82t-86 -33q-43 0 -43 17z" />
<glyph unicode="&#x21b;" horiz-adv-x="607" d="M392 561q-10 0 -10 -10v-331q0 -54 12.5 -73.5t45.5 -24.5q17 -3 41 -1q22 3 17 -25q-7 -41 -43.5 -73.5t-93.5 -32.5q-73 0 -104.5 42t-31.5 140v379q0 10 -10 10h-160q-6 0 -10.5 4.5t-4.5 10.5v109q0 6 4.5 10.5t10.5 4.5h497q6 0 10.5 -4.5t4.5 -10.5v-109 q0 -6 -4.5 -10.5t-10.5 -4.5h-160zM270 -224q0 5 5 10q25 22 25 38q0 15 -14.5 35t-14.5 41q0 31 21 50.5t53 19.5q38 0 63.5 -28t25.5 -68q0 -49 -35 -82t-86 -33q-43 0 -43 17z" />
<glyph unicode="&#x2c6;" horiz-adv-x="446" d="M183 915h80q13 0 21.5 -4t13.5 -9.5t16 -20.5l81 -110q7 -9 4 -17.5t-14 -8.5h-100q-16 0 -23 12l-39 60l-39 -60q-7 -12 -23 -12h-100q-11 0 -14 8.5t4 17.5l81 110q11 15 16 20.5t13.5 9.5t21.5 4z" />
<glyph unicode="&#x2c7;" horiz-adv-x="446" d="M183 745q-13 0 -21.5 4t-13.5 9.5t-16 20.5l-81 110q-7 9 -4 17.5t14 8.5h100q16 0 23 -12l39 -60l39 60q7 12 23 12h100q11 0 14 -8.5t-4 -17.5l-81 -110q-11 -15 -16 -20.5t-13.5 -9.5t-21.5 -4h-80z" />
<glyph unicode="&#x2d8;" horiz-adv-x="426" d="M262 897q0 -16 -13 -30t-36 -14t-36 14t-13 30q0 18 -15 18h-95q-15 0 -15 -16q0 -65 44 -112t130 -47t130 47t44 112q0 16 -15 16h-95q-15 0 -15 -18z" />
<glyph unicode="&#x2d9;" horiz-adv-x="270" d="M134 745q-35 0 -59.5 25t-24.5 60t24.5 60t59.5 25q36 0 61 -25t25 -60t-25 -60t-61 -25z" />
<glyph unicode="&#x2da;" horiz-adv-x="362" d="M181 726q-66 0 -105 29.5t-39 84.5q0 49 41 81.5t103 32.5q64 0 104 -32.5t40 -81.5q0 -54 -40 -84t-104 -30zM181 806q16 0 27 10t11 24t-11 24t-27 10t-27 -10t-11 -24t11 -24t27 -10z" />
<glyph unicode="&#x2db;" horiz-adv-x="360" d="M305 64q6 -4 4 -10q-15 -33 -58 -78.5t-43 -60.5q0 -10 3.5 -16t19.5 -10.5t46 -4.5q7 0 13 -4.5t4 -14.5l-8 -58q-4 -25 -14 -34.5t-30 -9.5q-108 6 -150 44t-42 83q0 34 26 65t58 50.5t61 42.5t34 42q5 20 20 10z" />
<glyph unicode="&#x2dc;" horiz-adv-x="466" d="M209 886q134 76 213 -41q8 -13 -5 -28l-57 -59q-6 -6 -14 -5.5t-13 6.5q-35 40 -75 16q-64 -38 -118.5 -28t-94.5 68q-9 14 4 28l56 59q16 17 29 2q12 -12 20.5 -17.5t24 -8.5t30.5 8z" />
<glyph unicode="&#x2dd;" horiz-adv-x="526" d="M42 770l45 124q7 21 26 21h127q11 0 14.5 -10t-2.5 -20l-78 -126q-10 -14 -27 -14h-90q-10 0 -14.5 7t-0.5 18zM232 770l60 124q10 21 26 21h136q11 0 15.5 -10.5t-3.5 -19.5l-102 -126q-10 -14 -27 -14h-90q-10 0 -15.5 7t0.5 18z" />
<glyph unicode="&#x300;" horiz-adv-x="0" d="M-58 770q4 -11 -0.5 -18t-14.5 -7h-91q-16 0 -27 14l-80 126q-6 10 -2.5 20t14.5 10h122q26 0 36 -27z" />
<glyph unicode="&#x301;" horiz-adv-x="0" d="M-295 770l61 123q12 22 34 22h128q11 0 15 -10.5t-3 -19.5l-98 -126q-10 -14 -27 -14h-95q-10 0 -15.5 7t0.5 18z" />
<glyph unicode="&#x302;" horiz-adv-x="0" d="M-263 915h80q13 0 21.5 -4t13.5 -9.5t16 -20.5l81 -110q7 -9 4 -17.5t-14 -8.5h-100q-16 0 -23 12l-39 60l-39 -60q-7 -12 -23 -12h-100q-11 0 -14 8.5t4 17.5l81 110q11 15 16 20.5t13.5 9.5t21.5 4z" />
<glyph unicode="&#x303;" horiz-adv-x="0" d="M-257 886q134 76 213 -41q8 -13 -5 -28l-57 -59q-6 -6 -14 -5.5t-13 6.5q-35 40 -75 16q-64 -38 -118.5 -28t-94.5 68q-9 14 4 28l56 59q16 17 29 2q12 -12 20.5 -17.5t24 -8.5t30.5 8z" />
<glyph unicode="&#x304;" horiz-adv-x="0" d="M-365 752q-6 0 -10.5 4.5t-4.5 10.5v87q0 6 4.5 10.5t10.5 4.5h300q6 0 10.5 -4.5t4.5 -10.5v-87q0 -6 -4.5 -10.5t-10.5 -4.5h-300z" />
<glyph unicode="&#x306;" horiz-adv-x="0" d="M-164 897q0 -16 -13 -30t-36 -14t-36 14t-13 30q0 18 -15 18h-95q-15 0 -15 -16q0 -65 44 -112t130 -47t130 47t44 112q0 16 -15 16h-95q-15 0 -15 -18z" />
<glyph unicode="&#x307;" horiz-adv-x="0" d="M-136 745q-35 0 -59.5 25t-24.5 60t24.5 60t59.5 25q36 0 61 -25t25 -60t-25 -60t-61 -25z" />
<glyph unicode="&#x308;" horiz-adv-x="0" d="M-349 745q-36 0 -61 25t-25 60t25 60t61 25q35 0 59.5 -25t24.5 -60t-24.5 -60t-59.5 -25zM-136 745q-35 0 -59.5 25t-24.5 60t24.5 60t59.5 25q36 0 61 -25t25 -60t-25 -60t-61 -25z" />
<glyph unicode="&#x30a;" horiz-adv-x="0" d="M-181 726q-66 0 -105 29.5t-39 84.5q0 49 41 81.5t103 32.5q64 0 104 -32.5t40 -81.5q0 -54 -40 -84t-104 -30zM-181 806q16 0 27 10t11 24t-11 24t-27 10t-27 -10t-11 -24t11 -24t27 -10z" />
<glyph unicode="&#x30b;" horiz-adv-x="0" d="M-484 770l45 124q7 21 26 21h127q11 0 14.5 -10t-2.5 -20l-78 -126q-10 -14 -27 -14h-90q-10 0 -14.5 7t-0.5 18zM-294 770l60 124q10 21 26 21h136q11 0 15.5 -10.5t-3.5 -19.5l-102 -126q-10 -14 -27 -14h-90q-10 0 -15.5 7t0.5 18z" />
<glyph unicode="&#x30c;" horiz-adv-x="0" d="M-263 745q-13 0 -21.5 4t-13.5 9.5t-16 20.5l-81 110q-7 9 -4 17.5t14 8.5h100q16 0 23 -12l39 -60l39 60q7 12 23 12h100q11 0 14 -8.5t-4 -17.5l-81 -110q-11 -15 -16 -20.5t-13.5 -9.5t-21.5 -4h-80z" />
<glyph unicode="&#x326;" horiz-adv-x="0" d="M-214 -224q0 5 5 10q25 22 25 38q0 15 -14.5 35t-14.5 41q0 31 21 50.5t53 19.5q38 0 63.5 -28t25.5 -68q0 -49 -35 -82t-86 -33q-43 0 -43 17z" />
<glyph unicode="&#x327;" horiz-adv-x="0" d="M-143 -27q103 -22 103 -107q0 -60 -54.5 -89.5t-128.5 -19.5q-12 2 -14 12l-13 54q-4 17 13 17q69 0 69 26q0 28 -80 28q-16 0 -13 16l7 30l19 79h103z" />
<glyph unicode="&#x328;" horiz-adv-x="0" d="M-55 64q6 -4 4 -10q-15 -33 -58 -78.5t-43 -60.5q0 -10 3.5 -16t19.5 -10.5t46 -4.5q7 0 13 -4.5t4 -14.5l-8 -58q-4 -25 -14 -34.5t-30 -9.5q-108 6 -150 44t-42 83q0 34 26 65t58 50.5t61 42.5t34 42q5 20 20 10z" />
<glyph unicode="&#x1e80;" horiz-adv-x="1004" d="M540 770q4 -11 -0.5 -18t-14.5 -7h-91q-16 0 -27 14l-80 126q-6 10 -2.5 20t14.5 10h122q26 0 36 -27zM960 678q-29 -44 -46 -103l-146 -557q-5 -18 -23 -18h-112q-29 0 -36 29l-115 436l-115 -447q-5 -18 -23 -18h-119q-29 0 -36 28l-168 651q-2 9 3 15t14 6h79 q27 0 47.5 -16t26.5 -42l97 -401l118 442q5 17 23 17h66q58 0 73 -56l110 -402l83 365q14 59 42.5 83.5t84.5 24.5q40 0 66 -15q16 -9 6 -22z" />
<glyph unicode="&#x1e81;" horiz-adv-x="1004" d="M540 770q4 -11 -0.5 -18t-14.5 -7h-91q-16 0 -27 14l-80 126q-6 10 -2.5 20t14.5 10h122q26 0 36 -27zM960 678q-29 -44 -46 -103l-146 -557q-5 -18 -23 -18h-112q-29 0 -36 29l-115 436l-115 -447q-5 -18 -23 -18h-119q-29 0 -36 28l-168 651q-2 9 3 15t14 6h79 q27 0 47.5 -16t26.5 -42l97 -401l118 442q5 17 23 17h66q58 0 73 -56l110 -402l83 365q14 59 42.5 83.5t84.5 24.5q40 0 66 -15q16 -9 6 -22z" />
<glyph unicode="&#x1e82;" horiz-adv-x="1004" d="M417 770l61 123q12 22 34 22h128q11 0 15 -10.5t-3 -19.5l-98 -126q-10 -14 -27 -14h-95q-10 0 -15.5 7t0.5 18zM960 678q-29 -44 -46 -103l-146 -557q-5 -18 -23 -18h-112q-29 0 -36 29l-115 436l-115 -447q-5 -18 -23 -18h-119q-29 0 -36 28l-168 651q-2 9 3 15t14 6 h79q27 0 47.5 -16t26.5 -42l97 -401l118 442q5 17 23 17h66q58 0 73 -56l110 -402l83 365q14 59 42.5 83.5t84.5 24.5q40 0 66 -15q16 -9 6 -22z" />
<glyph unicode="&#x1e83;" horiz-adv-x="1004" d="M417 770l61 123q12 22 34 22h128q11 0 15 -10.5t-3 -19.5l-98 -126q-10 -14 -27 -14h-95q-10 0 -15.5 7t0.5 18zM960 678q-29 -44 -46 -103l-146 -557q-5 -18 -23 -18h-112q-29 0 -36 29l-115 436l-115 -447q-5 -18 -23 -18h-119q-29 0 -36 28l-168 651q-2 9 3 15t14 6 h79q27 0 47.5 -16t26.5 -42l97 -401l118 442q5 17 23 17h66q58 0 73 -56l110 -402l83 365q14 59 42.5 83.5t84.5 24.5q40 0 66 -15q16 -9 6 -22z" />
<glyph unicode="&#x1e84;" horiz-adv-x="1004" d="M365 745q-36 0 -61 25t-25 60t25 60t61 25q35 0 59.5 -25t24.5 -60t-24.5 -60t-59.5 -25zM578 745q-35 0 -59.5 25t-24.5 60t24.5 60t59.5 25q36 0 61 -25t25 -60t-25 -60t-61 -25zM960 678q-29 -44 -46 -103l-146 -557q-5 -18 -23 -18h-112q-29 0 -36 29l-115 436 l-115 -447q-5 -18 -23 -18h-119q-29 0 -36 28l-168 651q-2 9 3 15t14 6h79q27 0 47.5 -16t26.5 -42l97 -401l118 442q5 17 23 17h66q58 0 73 -56l110 -402l83 365q14 59 42.5 83.5t84.5 24.5q40 0 66 -15q16 -9 6 -22z" />
<glyph unicode="&#x1e85;" horiz-adv-x="1004" d="M365 745q-36 0 -61 25t-25 60t25 60t61 25q35 0 59.5 -25t24.5 -60t-24.5 -60t-59.5 -25zM578 745q-35 0 -59.5 25t-24.5 60t24.5 60t59.5 25q36 0 61 -25t25 -60t-25 -60t-61 -25zM960 678q-29 -44 -46 -103l-146 -557q-5 -18 -23 -18h-112q-29 0 -36 29l-115 436 l-115 -447q-5 -18 -23 -18h-119q-29 0 -36 28l-168 651q-2 9 3 15t14 6h79q27 0 47.5 -16t26.5 -42l97 -401l118 442q5 17 23 17h66q58 0 73 -56l110 -402l83 365q14 59 42.5 83.5t84.5 24.5q40 0 66 -15q16 -9 6 -22z" />
<glyph unicode="&#x1ef2;" horiz-adv-x="639" d="M373 770q4 -11 -0.5 -18t-14.5 -7h-91q-17 0 -27 14l-80 126q-6 10 -2.5 20t14.5 10h122q26 0 36 -27zM386 597q26 61 57.5 89.5t85.5 28.5q40 0 66 -15q17 -10 6 -22q-18 -21 -55.5 -93.5t-99 -199t-73.5 -150.5v-220q0 -6 -4.5 -10.5t-10.5 -4.5h-127q-6 0 -10.5 4.5 t-4.5 10.5v220l-209 439q-4 10 1 18t16 8h89q46 0 66 -43l117 -260z" />
<glyph unicode="&#x1ef3;" horiz-adv-x="639" d="M373 770q4 -11 -0.5 -18t-14.5 -7h-91q-17 0 -27 14l-80 126q-6 10 -2.5 20t14.5 10h122q26 0 36 -27zM386 597q26 61 57.5 89.5t85.5 28.5q40 0 66 -15q17 -10 6 -22q-18 -21 -55.5 -93.5t-99 -199t-73.5 -150.5v-220q0 -6 -4.5 -10.5t-10.5 -4.5h-127q-6 0 -10.5 4.5 t-4.5 10.5v220l-209 439q-4 10 1 18t16 8h89q46 0 66 -43l117 -260z" />
<glyph unicode="&#x2000;" horiz-adv-x="477" />
<glyph unicode="&#x2001;" horiz-adv-x="954" />
<glyph unicode="&#x2002;" horiz-adv-x="477" />
<glyph unicode="&#x2003;" horiz-adv-x="954" />
<glyph unicode="&#x2004;" horiz-adv-x="318" />
<glyph unicode="&#x2005;" horiz-adv-x="238" />
<glyph unicode="&#x2006;" horiz-adv-x="159" />
<glyph unicode="&#x2007;" horiz-adv-x="159" />
<glyph unicode="&#x2008;" horiz-adv-x="119" />
<glyph unicode="&#x2009;" horiz-adv-x="190" />
<glyph unicode="&#x200a;" horiz-adv-x="53" />
<glyph unicode="&#x2010;" horiz-adv-x="400" d="M65 284q-6 0 -10.5 4.5t-4.5 10.5v102q0 6 4.5 10.5t10.5 4.5h270q6 0 10.5 -4.5t4.5 -10.5v-102q0 -6 -4.5 -10.5t-10.5 -4.5h-270z" />
<glyph unicode="&#x2011;" horiz-adv-x="400" d="M65 284q-6 0 -10.5 4.5t-4.5 10.5v102q0 6 4.5 10.5t10.5 4.5h270q6 0 10.5 -4.5t4.5 -10.5v-102q0 -6 -4.5 -10.5t-10.5 -4.5h-270z" />
<glyph unicode="&#x2012;" horiz-adv-x="400" d="M65 284q-6 0 -10.5 4.5t-4.5 10.5v102q0 6 4.5 10.5t10.5 4.5h270q6 0 10.5 -4.5t4.5 -10.5v-102q0 -6 -4.5 -10.5t-10.5 -4.5h-270z" />
<glyph unicode="&#x2013;" horiz-adv-x="500" d="M65 284q-6 0 -10.5 4.5t-4.5 10.5v102q0 6 4.5 10.5t10.5 4.5h370q6 0 10.5 -4.5t4.5 -10.5v-102q0 -6 -4.5 -10.5t-10.5 -4.5h-370z" />
<glyph unicode="&#x2014;" horiz-adv-x="1000" d="M65 284q-6 0 -10.5 4.5t-4.5 10.5v102q0 6 4.5 10.5t10.5 4.5h870q6 0 10.5 -4.5t4.5 -10.5v-102q0 -6 -4.5 -10.5t-10.5 -4.5h-870z" />
<glyph unicode="&#x2018;" horiz-adv-x="308" d="M251 782q7 -3 7 -9.5t-6 -10.5q-48 -41 -48 -85q0 -23 16 -55t16 -58q0 -38 -28 -65.5t-65 -27.5q-36 0 -64.5 29t-28.5 84q0 81 70.5 151.5t130.5 46.5z" />
<glyph unicode="&#x2019;" horiz-adv-x="308" d="M57 489q-7 3 -7 9.5t6 10.5q48 41 48 85q0 22 -16 55t-16 58q0 37 28 65t65 28q36 0 64.5 -29t28.5 -84q0 -81 -70.5 -151.5t-130.5 -46.5z" />
<glyph unicode="&#x201a;" horiz-adv-x="308" d="M57 -135q-7 3 -7 9.5t6 10.5q48 41 48 85q0 23 -16 55t-16 58q0 37 28 65t65 28q36 0 64.5 -29t28.5 -84q0 -81 -70.5 -151.5t-130.5 -46.5z" />
<glyph unicode="&#x201c;" horiz-adv-x="548" d="M251 782q7 -3 7 -9.5t-6 -10.5q-48 -41 -48 -85q0 -23 16 -55t16 -58q0 -38 -28 -65.5t-65 -27.5q-36 0 -64.5 29t-28.5 84q0 81 70.5 151.5t130.5 46.5zM491 782q7 -3 7 -9.5t-6 -10.5q-48 -41 -48 -85q0 -23 16 -55t16 -58q0 -38 -28 -65.5t-65 -27.5q-36 0 -64.5 29 t-28.5 84q0 81 70.5 151.5t130.5 46.5z" />
<glyph unicode="&#x201d;" horiz-adv-x="548" d="M57 489q-7 3 -7 9.5t6 10.5q48 41 48 85q0 22 -16 55t-16 58q0 37 28 65t65 28q36 0 64.5 -29t28.5 -84q0 -81 -70.5 -151.5t-130.5 -46.5zM297 489q-7 3 -7 9.5t6 10.5q48 41 48 85q0 22 -16 55t-16 58q0 37 28 65t65 28q36 0 64.5 -29t28.5 -84q0 -81 -70.5 -151.5 t-130.5 -46.5z" />
<glyph unicode="&#x201e;" horiz-adv-x="548" d="M57 -135q-7 3 -7 9.5t6 10.5q48 41 48 85q0 23 -16 55t-16 58q0 37 28 65t65 28q36 0 64.5 -29t28.5 -84q0 -81 -70.5 -151.5t-130.5 -46.5zM297 -135q-7 3 -7 9.5t6 10.5q48 41 48 85q0 23 -16 55t-16 58q0 37 28 65t65 28q36 0 64.5 -29t28.5 -84q0 -81 -70.5 -151.5 t-130.5 -46.5z" />
<glyph unicode="&#x2020;" horiz-adv-x="490" d="M248 385l47 -11q8 -2 13 1t4 11q-10 128 -41 277q-4 22 -11 29.5t-23 7.5q-11 0 -20.5 -8.5t-9.5 -24.5q0 -87 27 -264q3 -14 14 -18zM349 356q41 -19 51 -22q11 -3 13 7q4 25 15.5 151.5t11.5 152.5q0 30 -23 30q-27 0 -34 -26q-21 -77 -48 -271q-1 -15 14 -22zM175 266 q-10 0 -16.5 3t-10.5 10t-6.5 14t-3.5 19.5t-1 21t0.5 25t0.5 25.5q1 26 9.5 36.5t32.5 10.5q23 0 28.5 -11.5t5.5 -44.5v-13q0 -34 -1 -50t-10 -31t-28 -15zM84 242q-31 2 -34 37q-1 26 -0.5 46t4 34t13.5 21.5t27 7.5q22 0 26.5 -9t4.5 -43v-5.5v-5.5q0 -32 -1 -45.5 t-10.5 -25.5t-29.5 -12zM240 0q-89 0 -140 59.5t-45 151.5q0 13 15 15q34 2 59 -7t37 -19t19.5 -31t8 -27.5t2.5 -24.5q0 -9 6 -9t8 10q5 28 36.5 53.5t62.5 37.5q11 5 11 10t-12 10q-41 14 -59 34t-18 62q0 20 3 27.5t12 7.5q32 0 101.5 -28t77.5 -52q5 -18 5 -50 q0 -104 -48 -167t-142 -63z" />
<glyph unicode="&#x2022;" horiz-adv-x="449" d="M225 176q-72 0 -123.5 51t-51.5 123q0 70 52 122t123 52t122.5 -51.5t51.5 -122.5q0 -72 -50.5 -123t-123.5 -51z" />
<glyph unicode="&#x2026;" horiz-adv-x="758" d="M143 176q38 0 65.5 -27.5t27.5 -65.5t-27 -65.5t-66 -27.5q-38 0 -65.5 27.5t-27.5 65.5q0 37 28 65t65 28zM379 176q38 0 65.5 -27.5t27.5 -65.5t-27 -65.5t-66 -27.5q-38 0 -65.5 27.5t-27.5 65.5q0 37 28 65t65 28zM615 176q38 0 65.5 -27.5t27.5 -65.5t-27 -65.5 t-66 -27.5q-38 0 -65.5 27.5t-27.5 65.5q0 37 28 65t65 28z" />
<glyph unicode="&#x202f;" horiz-adv-x="190" />
<glyph unicode="&#x2030;" horiz-adv-x="1193" d="M216 364q-79 0 -122.5 44t-43.5 125q0 76 48 126.5t123 50.5q78 0 121.5 -42.5t43.5 -121.5t-48 -130.5t-122 -51.5zM86 0q-11 0 -14 7.5t3 14.5l526 663q13 15 29 15h111q11 0 14 -7.5t-3 -14.5l-526 -663q-12 -15 -27 -15h-113zM220 465q22 0 35 20.5t13 52.5 q0 44 -13.5 58.5t-37.5 14.5q-22 0 -35 -20.5t-13 -52.5q0 -44 14 -58.5t37 -14.5zM608 -9q-79 0 -122.5 44t-43.5 125q0 76 48 126.5t123 50.5q78 0 121.5 -42.5t43.5 -121.5t-48 -130.5t-122 -51.5zM973 -9q-79 0 -122.5 44t-43.5 125q0 76 48 126.5t123 50.5 q78 0 121.5 -42.5t43.5 -121.5t-47.5 -130.5t-122.5 -51.5zM612 92q22 0 35 20.5t13 52.5q0 44 -13.5 58.5t-37.5 14.5q-22 0 -35 -20.5t-13 -52.5q0 -44 14 -58.5t37 -14.5zM977 92q22 0 35 20.5t13 52.5q0 44 -13.5 58.5t-37.5 14.5q-22 0 -35 -20.5t-13 -52.5 q0 -44 14 -58.5t37 -14.5z" />
<glyph unicode="&#x205f;" horiz-adv-x="238" />
<glyph unicode="&#x20ac;" horiz-adv-x="641" d="M573 143q6 -16 7.5 -35t-3 -41.5t-23.5 -41t-52 -26.5q-37 -9 -90 -9q-237 0 -280 231h-67q-6 0 -10.5 4.5t-4.5 10.5v70q0 6 4.5 10.5t10.5 4.5h56v28q0 20 1 30h-57q-6 0 -10.5 4.5t-4.5 10.5v70q0 6 4.5 10.5t10.5 4.5h71q27 105 101.5 168t198.5 63q61 0 127 -20 q13 -3 12 -16l-16 -109q-2 -12 -16 -9q-51 16 -107 16q-51 0 -85.5 -19.5t-51.5 -73.5h150q6 0 10.5 -4.5t4.5 -10.5v-70q0 -6 -4.5 -10.5t-10.5 -4.5h-165q-1 -10 -1 -30v-28h166q6 0 10.5 -4.5t4.5 -10.5v-70q0 -6 -4.5 -10.5t-10.5 -4.5h-152q16 -54 49.5 -73.5 t86.5 -19.5q68 0 119 22q16 7 21 -7z" />
<glyph unicode="&#x2190;" horiz-adv-x="802" d="M737 416q6 0 10.5 -4.5t4.5 -10.5v-102q0 -6 -4.5 -10.5t-10.5 -4.5h-426l162 -140q12 -10 1 -23l-79 -80q-11 -11 -21 -1l-317 295q-15 15 0 30l317 295q10 10 21 -1l79 -80q11 -13 -1 -23l-162 -140h426z" />
<glyph unicode="&#x2191;" horiz-adv-x="728" d="M674 378q9 -11 -1 -21l-80 -79q-13 -11 -23 1l-130 150v-414q0 -6 -4.5 -10.5t-10.5 -4.5h-122q-6 0 -10.5 4.5t-4.5 10.5v414l-130 -150q-11 -13 -23 -1l-80 79q-10 10 -1 21l295 317q6 7 15 7t15 -7z" />
<glyph unicode="&#x2192;" horiz-adv-x="802" d="M745 365q15 -15 0 -30l-317 -295q-10 -10 -21 1l-79 80q-11 13 1 23l162 140h-426q-6 0 -10.5 4.5t-4.5 10.5v102q0 6 4.5 10.5t10.5 4.5h426l-162 140q-13 11 -1 23l79 80q11 11 21 1z" />
<glyph unicode="&#x2193;" horiz-adv-x="728" d="M673 344q10 -10 1 -21l-295 -317q-6 -7 -15 -7t-15 7l-295 317q-9 11 1 21l80 79q13 11 23 -1l130 -150v414q0 6 4.5 10.5t10.5 4.5h122q6 0 10.5 -4.5t4.5 -10.5v-414l130 150q11 13 23 1z" />
<glyph unicode="&#x2212;" horiz-adv-x="400" d="M65 284q-6 0 -10.5 4.5t-4.5 10.5v102q0 6 4.5 10.5t10.5 4.5h270q6 0 10.5 -4.5t4.5 -10.5v-102q0 -6 -4.5 -10.5t-10.5 -4.5h-270z" />
<glyph unicode="&#x2260;" horiz-adv-x="468" d="M282 371l-62 13q-11 2 -11 15q1 27 2 131t3 136q0 32 32 34q29 0 30 -33q16 -231 17 -287q0 -11 -11 -9zM384 335l-51 18q-9 3 -11 13q-4 22 -10.5 92.5t-11.5 129.5l-4 60q-2 27 23 27q13 0 22.5 -9t11.5 -23q1 -8 19 -124.5t25 -174.5q0 -13 -13 -9zM118 369 q1 46 10.5 147t12.5 118q4 27 33 27q19 0 19 -19q-5 -178 -12 -275q-1 -20 -31 -20q-13 0 -23 5t-9 17zM233 0q-100 0 -141.5 62t-41.5 178q0 52 10 74.5t40 22.5q28 0 55.5 -15.5t38.5 -38.5q3 -9 3 -20q0 -35 -18 -35q-13 0 -31.5 10t-23.5 10q-7 0 -7 -5q0 -3 7 -8 q45 -30 64 -118q2 -7 7 -7t6 8q14 57 84 91q10 5 10 9t-12 9q-41 14 -59 38.5t-18 68.5q0 27 10 30q17 6 102.5 -24t94.5 -56q5 -12 5 -53q0 -104 -46.5 -167.5t-138.5 -63.5z" />
<glyph unicode="&#x25ca;" horiz-adv-x="481" d="M299 374l-55 12q-11 4 -11 17q0 124 10 264q3 33 31 33q15 0 23 -7.5t9 -29.5q1 -18 4 -128.5t4 -148.5q0 -14 -15 -12zM405 334q-16 0 -55 24q-10 7 -11 19q-9 231 -13 270q-1 18 7.5 24.5t17.5 6.5q24 0 31 -32q5 -23 16.5 -133t15.5 -169v-1q0 -9 -9 -9zM176 266 q-10 0 -16.5 3t-10.5 10t-6.5 14t-3.5 19.5t-1 21t0.5 25t0.5 25.5q1 26 9.5 36.5t32.5 10.5q23 0 28.5 -11.5t5.5 -44.5v-13q0 -34 -1 -50t-10 -31t-28 -15zM85 242q-31 2 -34 37q-1 26 -0.5 46t4 34t13.5 21.5t27 7.5q22 0 26.5 -9t4.5 -43v-5.5v-5.5q0 -32 -1 -45.5 t-10.5 -25.5t-29.5 -12zM241 0q-89 0 -140 59.5t-45 151.5q0 13 15 15q34 2 59 -7t37 -19t19.5 -31t8 -27.5t2.5 -24.5q0 -9 6 -9t8 10q5 28 36.5 53.5t62.5 37.5q11 5 11 10t-12 10q-41 14 -59 34t-18 62q0 20 3 27.5t12 7.5q32 0 101.5 -28t77.5 -52q5 -18 5 -50 q0 -104 -48 -167t-142 -63z" />
<glyph unicode="&#x25fc;" horiz-adv-x="700" d="M0 700h700v-700h-700v700z" />
<glyph horiz-adv-x="340" d="M157 745q-35 0 -59.5 25t-24.5 60t24.5 60t59.5 25q36 0 61 -25t25 -60t-25 -60t-61 -25zM37 700q24 0 69.5 2.5t69.5 2.5q35 0 58.5 -23.5t23.5 -58.5v-608q0 -6 -4.5 -10.5t-10.5 -4.5h-127q-6 0 -10.5 4.5t-4.5 10.5v553q-40 6 -59.5 33t-23.5 82q-1 9 4.5 13t14.5 4z " />
<glyph horiz-adv-x="559" d="M374 685v-543q0 -10 10 -10h110q6 0 10.5 -4.5t4.5 -10.5v-102q0 -6 -4.5 -10.5t-10.5 -4.5h-402q-6 0 -10.5 4.5t-4.5 10.5v102q0 6 4.5 10.5t10.5 4.5h120q10 0 10 10v353l-33 -19q-55 -28 -94 -1t-45 78q-1 15 10 18q22 7 96 49q12 7 47.5 28.5t57.5 33t38 15.5 q11 3 59 3q16 0 16 -15z" />
</font>
</defs>
</svg>
