<?xml version="1.0" standalone="no"?>
<!DOCTYPE svg PUBLIC "-//W3C//DTD SVG 1.1//EN" "http://www.w3.org/Graphics/SVG/1.1/DTD/svg11.dtd" >
<svg xmlns="http://www.w3.org/2000/svg">
<metadata>
Copyright   : Copyright 2014 Luc(as) de Groot. All rights reserved. Published by LucasFonts.com
Designer    : Luc(as) de Groot
Foundry     : LucasFonts
Foundry URL : http://lucasfonts.com
</metadata>
<defs>
<font id="TheMix_LT_400i" horiz-adv-x="1126" >
<font-face units-per-em="2048" ascent="1516" descent="-532" />
<missing-glyph horiz-adv-x="446" />
<glyph unicode=" "  horiz-adv-x="446" />
<glyph unicode="&#x09;" horiz-adv-x="446" />
<glyph unicode="&#xa0;" horiz-adv-x="446" />
<glyph unicode="!" horiz-adv-x="641" d="M373 94q0 -47 -32 -78.5t-77 -31.5q-47 0 -76.5 30.5t-29.5 73.5q0 47 31.5 79t78.5 32t76 -31t29 -74zM373 328h-125l184 1108h176z" />
<glyph unicode="&#x22;" horiz-adv-x="702" d="M340 979h-109l58 451h164zM657 979h-108l57 451h164z" />
<glyph unicode="#" horiz-adv-x="1153" d="M1178 893h-207l-115 -389h195l-21 -107h-207l-118 -397h-125l118 397h-329l-119 -397h-125l119 397h-197l21 107h206l115 389h-199l23 104h209l113 385h124l-112 -385h330l114 385h125l-115 -385h197zM514 893l-115 -389h332l115 389h-332z" />
<glyph unicode="$" horiz-adv-x="978" d="M854 451q0 -82 -34 -150t-91 -119t-132 -85t-157 -46l-53 -266h-115l52 260q-74 0 -132.5 7t-115.5 24l39 145q47 -23 121.5 -35t134.5 -12q55 0 112.5 13.5t103.5 43t74.5 76.5t28.5 113q0 59 -36 100t-88 73t-114.5 60.5t-114.5 66.5t-88 89t-36 127q0 80 30.5 144.5 t85 112.5t126 76.5t155.5 37.5l41 213h115l-41 -207q61 -2 113.5 -8.5t95.5 -16.5l-37 -137q-51 16 -108.5 25.5t-112.5 9.5q-66 0 -122 -13.5t-97 -40t-63.5 -67.5t-22.5 -96t35.5 -93t89 -70t117 -61.5t116.5 -68.5t89 -92t36 -133z" />
<glyph unicode="%" horiz-adv-x="1497" d="M1249 383q0 63 -26.5 95t-89.5 32q-43 0 -82 -21.5t-69 -59.5t-47 -92t-17 -120q0 -63 27.5 -96t90.5 -33q43 0 82 21.5t67.5 60.5t46 93t17.5 120zM659 1167q0 63 -27.5 95t-90.5 32q-43 0 -82 -21.5t-68 -59t-46 -92t-17 -120.5t27.5 -97.5t88.5 -31.5q43 0 82 21.5 t69 60.5t47 93t17 120zM1380 399q0 -98 -30.5 -176t-81.5 -131t-116 -81.5t-130 -28.5q-121 0 -178.5 58t-57.5 161q0 98 32 176t82 131t114.5 81.5t130.5 28.5q119 0 177 -57.5t58 -161.5zM197 -41l-86 76l1261 1384l88 -76zM791 1184q0 -98 -32 -176t-82 -131.5 t-114.5 -82t-132.5 -28.5q-119 0 -176 58.5t-57 160.5q0 98 31.5 175t81.5 131.5t114.5 82t130.5 27.5q119 0 177.5 -56.5t58.5 -160.5z" />
<glyph unicode="&#x26;" horiz-adv-x="1599" d="M944 274q-102 104 -208.5 223t-194.5 238q-57 -41 -109.5 -84t-92.5 -90t-64.5 -101t-24.5 -118q0 -43 14.5 -85t45 -73.5t78.5 -51t116 -19.5q104 0 216.5 37.5t223.5 123.5zM852 1251q0 59 -35 97t-106 38q-102 0 -158.5 -60t-56.5 -148q0 -53 25.5 -117t70.5 -139 q51 37 99 73.5t83 76.5t56.5 84t21.5 95zM1450 907q-25 -193 -101.5 -350.5t-191.5 -273.5q66 -61 128.5 -114.5t117.5 -100.5l-107 -105q-72 55 -131 107.5t-123 113.5q-131 -104 -279.5 -153t-293.5 -49q-100 0 -172 25.5t-118 69.5t-68.5 102.5t-22.5 121.5q0 94 33 170 t86 140.5t121.5 118.5t140.5 104q-59 92 -93 174t-34 149q0 70 27.5 133.5t78 111.5t121 76.5t156.5 28.5q150 0 215.5 -67.5t65.5 -165.5q0 -72 -29 -133.5t-76 -116.5t-108.5 -104.5t-128.5 -98.5q78 -111 182 -226.5t215 -223.5q66 68 125 175t88 242q-33 6 -78 11.5 t-86 9.5l16 84q68 10 158 14t166 0z" />
<glyph unicode="'" horiz-adv-x="385" d="M340 979h-109l58 451h164z" />
<glyph unicode="(" horiz-adv-x="606" d="M756 1538q-96 -119 -181.5 -267.5t-151 -313t-103 -339t-37.5 -342.5q0 -180 25.5 -337.5t86.5 -305.5l-121 -55q-74 174 -106.5 340t-32.5 346q0 174 36 349t103.5 345t164 331t216.5 308l101 -59v0z" />
<glyph unicode=")" horiz-adv-x="606" d="M516 909q0 -174 -36 -348t-103.5 -344t-163.5 -330.5t-217 -308.5l-100 57q94 119 180 267.5t151.5 313.5t103.5 338t38 343q0 180 -26 338t-87 305l121 57q74 -174 106.5 -340t32.5 -348z" />
<glyph unicode="*" horiz-adv-x="741" d="M575 1194l189 -107l-72 -98l-168 141l-28 -237l-117 16l63 219l-196 -127l-47 107l225 90l-188 109l71 94l166 -137l29 237l116 -18l-65 -219l203 127l47 -107z" />
<glyph unicode="+" d="M1044 545h-403l-80 -424h-145l80 424h-400l25 129h401l80 422h146l-80 -422h403z" />
<glyph unicode="," horiz-adv-x="436" d="M154 203q51 0 81.5 -42t20.5 -111.5t-72.5 -161t-197.5 -187.5l-58 68q57 49 92 90t50.5 76.5t14.5 66.5t-15.5 55.5t-13.5 50t12.5 47t34 35t51.5 13.5z" />
<glyph unicode="-" horiz-adv-x="657" d="M578 532h-474l25 127h473z" />
<glyph unicode="&#xad;" horiz-adv-x="657" d="M578 532h-474l25 127h473z" />
<glyph unicode="." horiz-adv-x="438" d="M250 98q0 -49 -33 -81.5t-80 -32.5q-43 0 -73.5 31.5t-30.5 74.5q0 49 32.5 82t79.5 33q45 0 75 -32t30 -75z" />
<glyph unicode="/" horiz-adv-x="858" d="M4 -330h-149l1063 1880h147z" />
<glyph unicode="0" d="M455 -18q-98 0 -165 29.5t-106 84t-55 128t-16 169.5q0 100 13 212t44 224.5t79 215t118.5 183.5t164 127t209.5 46q96 0 162 -31t105 -85t56 -129t17 -169q0 -98 -14 -208.5t-45 -223.5t-80 -215t-118.5 -183t-162.5 -128t-206 -47zM918 981q0 61 -7.5 110.5t-28 90.5 t-60.5 65.5t-101 24.5q-86 0 -153.5 -44t-117 -119t-83 -167t-53 -190.5t-29 -189.5t-9.5 -165q0 -57 9.5 -107t31 -90t61.5 -63.5t99 -23.5q82 0 148.5 44t116 118.5t83 167t54 190.5t30 187t9.5 161z" />
<glyph unicode="1" d="M913 0h-854l27 139h369l207 1084l-363 -119v139l420 139h131l-236 -1243h326z" />
<glyph unicode="2" d="M1030 1073q0 -80 -25.5 -154.5t-76.5 -149.5t-129 -154.5t-191 -178.5l-338 -293v-4q84 4 242 6t399 2l-28 -147h-846l24 125l388 344q111 98 184.5 171t125.5 140.5t78.5 132t26.5 131.5q0 45 -13 84t-42 71t-74 49.5t-106 17.5q-41 0 -87 -9.5t-90 -24.5t-83 -34.5 t-68 -40.5l-12 137q80 47 177 77t191 30q180 0 276.5 -89t96.5 -239z" />
<glyph unicode="3" d="M1034 1116q0 -55 -18.5 -110.5t-58 -105.5t-101 -89t-145.5 -63l-4 -3q106 -14 168.5 -92t62.5 -186q0 -100 -41 -187t-121 -155t-195.5 -104.5t-261.5 -36.5q-68 0 -130 8t-109 24l45 144q49 -20 108.5 -31.5t122.5 -11.5q94 0 172 25.5t132.5 71.5t83 106.5t28.5 128.5 q0 98 -77 156.5t-218 58.5q-57 0 -101 -2.5t-93 -8.5l24 129h39q129 0 228.5 23.5t165 66.5t98 99.5t32.5 120.5q0 86 -58 133t-161 47q-76 0 -150.5 -20.5t-152.5 -59.5v139q82 33 167 51.5t173 18.5q170 0 258 -75t88 -210z" />
<glyph unicode="4" d="M834 1221l-3 2l-620 -754q59 2 151.5 4t171 2h156.5zM1044 336h-231l-63 -336h-152l64 336h-627l8 121l760 925h211l-172 -907h229z" />
<glyph unicode="5" d="M1049 1235h-555l-78 -401q31 2 65.5 3t50.5 1q106 0 186.5 -23.5t131.5 -65.5t76.5 -100.5t25.5 -128.5q0 -111 -48 -210t-136 -173t-208 -114.5t-259 -40.5q-109 0 -215 26l29 146q53 -18 110.5 -28.5t108.5 -10.5q102 0 187 30.5t144.5 84t90 121t30.5 138.5 q0 106 -81.5 165t-227.5 59q-63 0 -125.5 -5.5t-103.5 -11.5l133 686h696z" />
<glyph unicode="6" d="M860 516q0 96 -60.5 158.5t-168.5 62.5q-70 0 -136.5 -32.5t-117.5 -87t-81 -121t-30 -129.5q0 -113 56.5 -184.5t160.5 -71.5q80 0 149.5 33.5t121 92t79 131t27.5 148.5zM1034 1257q-25 4 -52.5 6.5t-66.5 2.5q-209 0 -350 -122t-225 -356q-6 -18 -16.5 -44.5 t-26.5 -71.5h2q68 92 166 144t205 52q162 0 255 -90t93 -235q0 -104 -40 -204.5t-115 -181.5t-176 -128t-218 -47q-172 0 -266 101t-94 279q0 125 23.5 249t70.5 241t117.5 216t165 174t212 116t254.5 41q33 0 62.5 -2t46.5 -4z" />
<glyph unicode="7" d="M1147 1249q-219 -297 -421 -620.5t-357 -628.5h-185q178 326 376 640t405 597q-25 -2 -150 -3t-263 -1h-292l31 149h883z" />
<glyph unicode="8" d="M807 354q0 76 -51 141.5t-172 143.5q-170 -88 -254 -172t-84 -191q0 -74 64.5 -120.5t170.5 -46.5q63 0 123 18t106 53t71.5 79t25.5 95zM930 1110q0 78 -59.5 126t-155.5 48q-66 0 -121 -19.5t-95 -53t-61.5 -77.5t-21.5 -96q0 -37 15 -69.5t42 -61t59.5 -55.5t79.5 -59 q162 88 240 158.5t78 158.5zM1087 1126q0 -72 -30.5 -131t-80.5 -108t-108.5 -88t-136.5 -82q121 -86 179.5 -166t58.5 -180q0 -84 -41 -156t-113 -124t-164 -80.5t-192 -28.5q-178 0 -276.5 74.5t-98.5 205.5t94 237.5t291 215.5q-111 76 -161 149.5t-50 159.5 q0 84 37 155.5t103.5 122t153.5 78t183 27.5q84 0 149.5 -21.5t110.5 -59.5t68.5 -89.5t23.5 -110.5z" />
<glyph unicode="9" d="M920 1032q0 113 -55.5 176.5t-168.5 63.5q-74 0 -140.5 -33t-115.5 -91t-76.5 -133t-27.5 -155q0 -96 55 -155.5t162 -59.5q70 0 135.5 26.5t117.5 78t83 123t31 159.5zM1083 1012q0 -51 -12 -142.5t-43 -206t-90 -234.5t-153.5 -221.5t-231.5 -163.5t-315 -62 q-98 0 -168 14l28 143q35 -10 80 -15t84 -5q207 0 352.5 115.5t216.5 336.5q8 23 15.5 45.5t11.5 38.5h-2q-61 -68 -149.5 -106.5t-186.5 -38.5q-88 0 -153.5 24.5t-107.5 69.5t-62.5 104.5t-20.5 127.5q0 111 40 213t113.5 182t173 126t216.5 46q98 0 168.5 -30t113.5 -84 t62.5 -123.5t19.5 -153.5z" />
<glyph unicode=":" horiz-adv-x="565" d="M348 96q0 -47 -31.5 -79.5t-78.5 -32.5t-79 31.5t-32 76.5q0 47 33 80t80 33q45 0 76.5 -32t31.5 -77zM465 705q0 -49 -33 -82t-80 -33q-45 0 -76.5 31.5t-31.5 78.5t32.5 80t79.5 33q45 0 77 -31.5t32 -76.5z" />
<glyph unicode=";" horiz-adv-x="565" d="M240 203q53 0 83.5 -42t19.5 -111.5t-73.5 -161t-195.5 -187.5l-60 68q57 49 92 90t50.5 76.5t14.5 66.5t-15 55q-12 25 -13 49q0 27 12.5 48.5t34 35t50.5 13.5zM465 705q0 -49 -32 -82t-79 -33t-78.5 31.5t-31.5 78.5t32.5 80t79.5 33t78 -31.5t31 -76.5z" />
<glyph unicode="&#x3c;" d="M375 621l463 -474l-111 -98l-551 584l739 559l89 -105z" />
<glyph unicode="=" d="M987 379h-895l25 127h895zM1051 711h-895l24 129h893z" />
<glyph unicode="&#x3e;" d="M256 49l-88 107l631 465l-463 473l108 98l551 -582z" />
<glyph unicode="?" horiz-adv-x="888" d="M414 94q0 -47 -31 -78.5t-78 -31.5q-45 0 -75.5 30.5t-30.5 73.5q0 47 31.5 79t78.5 32q45 0 75 -31t30 -74zM866 1087q0 -80 -32.5 -140t-74.5 -101t-124 -108.5t-128 -120t-69.5 -124t-11.5 -165.5h-152q-14 102 9.5 182t68.5 138.5t105.5 110.5t119 103t90 100.5 t31.5 108.5q0 47 -23.5 86t-69.5 69.5t-113.5 51t-155.5 29.5l45 141q123 -10 215 -43t152.5 -81t89 -108.5t28.5 -128.5z" />
<glyph unicode="@" horiz-adv-x="2056" d="M1268 893q-31 6 -66 10t-67 4q-86 0 -154 -48t-113 -124t-67.5 -162t-22.5 -161q0 -141 96 -142q43 0 91.5 33t95.5 98.5t91 158.5t81 212zM1919 836q0 -145 -39 -272.5t-110.5 -222.5t-168 -147.5t-208.5 -52.5q-70 0 -118 22.5t-72.5 60.5t-31 84t4.5 93h-5 q-20 -47 -54 -93t-78 -84t-96 -60.5t-105 -22.5q-104 0 -156.5 67.5t-52.5 178.5q0 102 29.5 214t93 210t168 159.5t243.5 61.5q74 0 146.5 -7t142.5 -21l-133 -463q-41 -133 -16.5 -202t110.5 -69q78 0 145.5 44t116.5 121t77 177.5t28 208.5q0 106 -33 199.5t-102.5 166.5 t-181 114.5t-265.5 41.5q-180 0 -341 -75.5t-282.5 -208.5t-189.5 -305t-68 -361q0 -135 38 -244.5t115 -187.5t194.5 -120t273.5 -42q86 0 178 14.5t189 39.5l10 -119q-94 -29 -198.5 -43.5t-201.5 -14.5q-174 0 -312 48.5t-233.5 140.5t-144.5 221t-49 291q0 215 80 412.5 t222.5 350t331.5 238.5t400 86q176 0 311.5 -49t223.5 -136t131 -200.5t43 -242.5z" />
<glyph unicode="A" horiz-adv-x="1226" d="M774 1024q-8 47 -14 93t-10 95h-2q-23 -47 -46.5 -94t-46.5 -90l-307 -563h520zM940 0l-53 340h-604l-185 -340h-168l766 1382h170l240 -1382h-166z" />
<glyph unicode="B" horiz-adv-x="1136" d="M852 455q0 98 -78 149t-246 51h-88t-73 -2l-99 -520q29 -4 73 -8t108 -4q98 0 173.5 26.5t126 72.5t77 106.5t26.5 128.5zM932 1094q0 37 -11.5 67.5t-40 53t-77.5 35t-125 12.5q-53 0 -101.5 -1t-95.5 -4l-92 -481q33 -2 62 -2h65q90 0 167 20.5t132 61.5t86 100.5 t31 137.5zM1094 1126q0 -80 -25 -145.5t-66.5 -114.5t-95 -83.5t-110.5 -53.5v-2q104 -20 160.5 -93t56.5 -165q0 -96 -39 -182t-114 -150.5t-186.5 -103.5t-256.5 -39q-63 0 -152.5 2t-175.5 4l262 1382q68 2 158 4.5t211 2.5q199 0 286 -74t87 -189z" />
<glyph unicode="C" horiz-adv-x="1183" d="M1171 1212q-147 51 -297 52q-158 0 -269 -70t-183 -180.5t-105.5 -250.5t-33.5 -282q0 -78 17 -144.5t59 -113.5t113 -73.5t177 -26.5q88 0 173 19.5t157 52.5l10 -136q-86 -35 -186.5 -54t-198.5 -19q-145 0 -239.5 38.5t-150.5 103.5t-78.5 149.5t-22.5 179.5 q0 184 50 354t150.5 300t247 208t340.5 78q90 0 167 -11.5t146 -31.5z" />
<glyph unicode="D" horiz-adv-x="1370" d="M1167 868q0 84 -21.5 157t-74.5 125t-141 82t-219 30q-61 0 -125 -2.5t-105 -4.5l-213 -1118q41 -6 93.5 -10t87.5 -4q193 0 328.5 66.5t222.5 173t127 239.5t40 266zM1331 887q0 -170 -54 -331t-165 -286t-282 -200.5t-404 -75.5q-111 0 -188.5 3t-147.5 3l262 1382 q78 0 181.5 3.5t201.5 3.5q166 0 279.5 -38t184.5 -104.5t101.5 -158.5t30.5 -201z" />
<glyph unicode="E" horiz-adv-x="1032" d="M1008 1255h-527l-92 -479h504l-25 -127h-501l-99 -518h527l-25 -131h-526h-154l262 1382h154h526z" />
<glyph unicode="F" horiz-adv-x="948" d="M1004 1253h-523l-92 -483h496l-25 -127h-495l-121 -643h-154l262 1382h676z" />
<glyph unicode="G" horiz-adv-x="1374" d="M1294 1192q-82 37 -171 56.5t-171 19.5q-147 0 -271 -58.5t-215 -159t-141.5 -236.5t-50.5 -290q0 -74 22.5 -147.5t73 -131t130.5 -93t196 -35.5q86 0 155 12t134 33l102 534h154l-123 -639q-111 -39 -228.5 -57t-219.5 -18q-141 0 -247 38.5t-174.5 109.5t-103 168 t-34.5 212q0 197 67.5 360.5t184 281.5t273.5 183.5t335 65.5q205 0 370 -58z" />
<glyph unicode="H" horiz-adv-x="1411" d="M1135 0h-154l125 651h-737l-125 -651h-154l262 1382h154l-113 -600h737l113 600h154z" />
<glyph unicode="I" horiz-adv-x="520" d="M244 0h-154l262 1382h154z" />
<glyph unicode="J" horiz-adv-x="653" d="M444 344q-33 -172 -123 -265t-268 -93q-43 0 -81 5t-66 11l28 141q27 -10 62 -17t70 -7q86 0 144 49t83 184l196 1030h154z" />
<glyph unicode="K" horiz-adv-x="1163" d="M539 698l430 -698h-197l-397 694l-131 -694h-154l262 1382h154l-127 -661l641 661h203z" />
<glyph unicode="L" horiz-adv-x="854" d="M745 0h-655l262 1382h154l-238 -1249h504z" />
<glyph unicode="M" horiz-adv-x="1792" d="M1581 0h-160l41 842q4 111 10.5 197.5t12.5 158.5h-2q-18 -43 -46 -101.5t-65 -129.5l-500 -967h-172l-127 905q-10 78 -17 154t-9 139h-2q-23 -78 -48.5 -167t-58.5 -195l-258 -836h-164l455 1382h191l129 -933q10 -74 16 -142.5t8 -126.5h2q25 57 56.5 122t66.5 132 l494 948h208z" />
<glyph unicode="N" horiz-adv-x="1380" d="M1114 0h-153h-27l-375 907q-31 76 -57.5 149.5t-46.5 141.5q-18 -131 -44 -278.5t-51 -284.5l-118 -635h-152l262 1382h154h29l372 -897q29 -74 55.5 -147.5t51.5 -144.5q18 117 42.5 256t47.5 272l121 661h153z" />
<glyph unicode="O" horiz-adv-x="1421" d="M1223 872q0 182 -91.5 288t-273.5 106q-125 0 -232.5 -58.5t-186.5 -163t-122 -241.5t-43 -293q0 -182 90.5 -287.5t274.5 -105.5q123 0 230.5 58t187.5 162.5t123 241.5t43 293zM1386 899q0 -182 -55 -348t-158.5 -295t-248 -201.5t-316.5 -72.5q-246 0 -371.5 136 t-125.5 365q0 182 55 348t158.5 295t248 202t316.5 73q244 0 370.5 -137.5t126.5 -364.5z" />
<glyph unicode="P" horiz-adv-x="1044" d="M913 1040q0 100 -61 161t-213 61q-53 0 -88 -1t-70 -4l-108 -575q57 -10 123 -10q82 0 157.5 27.5t133 76.5t92 116.5t34.5 147.5zM1075 1065q0 -117 -51 -213t-135 -166t-193.5 -107.5t-228.5 -37.5q-27 0 -59.5 1t-61.5 5l-102 -547h-154l262 1382q147 6 320 7 q205 0 304 -88.5t99 -235.5z" />
<glyph unicode="Q" horiz-adv-x="1421" d="M1217 883q0 176 -86.5 279.5t-264.5 103.5q-129 0 -237.5 -60.5t-187.5 -165t-123 -243t-44 -293.5q0 -178 87.5 -281.5t252.5 -103.5q123 0 232.5 58.5t191.5 161.5t130.5 242.5t48.5 301.5zM897 72q49 -2 93 -16.5t92 -29t105.5 -23.5t135.5 -1l-27 -139 q-76 -10 -134 -5t-106 18t-91 31.5t-91.5 35t-105.5 28t-133 11.5h-41q-248 0 -368 131t-120 370q0 188 59.5 355.5t165 292t249 197.5t311.5 73q240 0 366.5 -130t126.5 -370q0 -152 -37.5 -286t-103 -242.5t-155 -185t-191.5 -115.5z" />
<glyph unicode="R" horiz-adv-x="1099" d="M895 1073q0 98 -60.5 144.5t-205.5 46.5q-86 0 -148 -7l-94 -497q16 -2 47 -3t72 -1q82 0 152.5 20.5t123 60.5t83 99t30.5 137zM1059 1092q0 -102 -43 -181.5t-114 -136.5t-160 -89t-185 -38q23 -37 42 -71.5t42 -73.5l293 -502h-189l-354 639h-29l-118 -639h-154 l262 1382q66 4 137.5 5.5t172.5 1.5q207 0 302 -78t95 -219z" />
<glyph unicode="S" horiz-adv-x="1011" d="M938 1233q-53 16 -117.5 26.5t-124.5 10.5q-84 0 -145.5 -20.5t-101 -55.5t-58 -79t-18.5 -89q0 -68 38 -113t93 -81.5t121.5 -72.5t122 -82t93.5 -109.5t38 -157.5q0 -82 -34 -159t-101.5 -137.5t-168 -96t-231.5 -35.5q-92 0 -173 11t-142 30l45 149q59 -25 134 -39 t163 -14q86 0 151.5 21.5t108.5 59.5t65.5 88t22.5 105q0 70 -37 117t-93.5 86t-122 74t-121.5 81t-93 107.5t-37 151.5q0 76 33 146.5t96.5 124.5t158.5 87t218 33q63 0 130 -7.5t126 -19.5z" />
<glyph unicode="T" horiz-adv-x="1042" d="M1147 1251h-406l-239 -1251h-154l240 1251h-408l25 131h407h154h403z" />
<glyph unicode="U" horiz-adv-x="1398" d="M1217 506q-53 -270 -209 -397t-416 -127q-150 0 -241 37.5t-137 104t-52 156t12 191.5l174 911h154l-174 -913q-16 -88 -11 -154.5t37.5 -111.5t96 -68.5t163.5 -23.5q92 0 167 21.5t131.5 70.5t94 128t60.5 193l164 858h151z" />
<glyph unicode="V" horiz-adv-x="1230" d="M600 0h-172l-231 1382h163l146 -919q10 -63 20.5 -143t16.5 -152h2q35 76 74.5 153.5t80.5 153.5l502 907h168z" />
<glyph unicode="W" horiz-adv-x="1914" d="M1384 0h-194l-90 995q-4 59 -7 113.5t-1 108.5h-2q-41 -109 -93 -222l-462 -995h-191l-98 1382h157l64 -958q4 -70 5 -132.5t-1 -125.5h2q25 63 51.5 126.5t55.5 125.5l450 964h184l95 -976q6 -59 9 -119t1 -119h2q18 53 37.5 103.5t44.5 107.5l444 1003h162z" />
<glyph unicode="X" horiz-adv-x="1179" d="M713 715l325 -715h-182l-254 594l-475 -594h-186l594 721l-299 661h172l237 -542l434 542h183z" />
<glyph unicode="Y" horiz-adv-x="1058" d="M600 502l-94 -502h-154l94 500l-253 882h159l135 -493q18 -61 33 -122.5t27 -121.5h4q35 63 79 131t89 137l307 469h174z" />
<glyph unicode="Z" horiz-adv-x="1083" d="M1108 1266l-791 -996q-27 -35 -53 -66.5t-57 -66.5q35 4 128 5t228 1h340l-29 -143h-876l20 115l750 952q41 49 78 91t78 89q-53 -2 -125 -3t-181 -1h-362l27 139h847z" />
<glyph unicode="[" horiz-adv-x="641" d="M745 1458h-237l-332 -1741h240l-25 -118h-237h-140l377 1976h139h240z" />
<glyph unicode="\" horiz-adv-x="856" d="M573 -330l-344 1880h138l344 -1880h-138z" />
<glyph unicode="]" horiz-adv-x="641" d="M287 -401h-142h-237l22 118h238l332 1741h-240l25 117h237h142z" />
<glyph unicode="^" d="M879 707l-193 557l-393 -557l-100 57l452 618h125l227 -614z" />
<glyph unicode="_" d="M1012 -512h-1127l23 121h1126z" />
<glyph unicode="`" horiz-adv-x="702" d="M559 1178l-252 243l103 95l231 -263z" />
<glyph unicode="a" horiz-adv-x="1128" d="M842 891q-33 8 -72 14t-86 6q-123 0 -209 -55t-140 -142t-79 -193.5t-25 -207.5q0 -111 31 -156.5t84 -45.5q80 0 158 71.5t143.5 178t112.5 226.5t65 216l17 88v0zM846 123q35 -6 81 -11.5t89 -9.5l-17 -88q-35 -4 -75.5 -8t-83.5 -5t-87 -2t-83 1q14 70 46 179.5 t81 269.5l-4 2q-27 -59 -70 -140.5t-104.5 -155t-141.5 -124.5t-178 -51q-109 0 -166 73.5t-57 233.5q0 139 37 273t113.5 238.5t197.5 169t287 64.5q86 0 160.5 -8t142.5 -20z" />
<glyph unicode="b" horiz-adv-x="1116" d="M872 705q0 111 -30.5 156.5t-81.5 45.5q-53 0 -105.5 -33.5t-101.5 -89t-93 -127t-80 -148.5t-61.5 -151.5t-37.5 -138.5l-19 -92q37 -10 74 -15.5t84 -5.5q123 0 210 55.5t140 142.5t77.5 194t24.5 207zM1028 731q0 -139 -37 -273t-113.5 -238.5t-196.5 -169t-286 -64.5 q-88 0 -162.5 8t-140.5 22l260 1356q-35 6 -82 11.5t-90 9.5l17 88q68 10 158.5 14t168.5 0l-98 -520q-6 -25 -13 -55.5t-20.5 -75.5t-33 -110.5t-48.5 -160.5h4q39 96 90.5 181.5t113 148t133 99t153.5 36.5q111 0 167 -73.5t56 -233.5z" />
<glyph unicode="c" horiz-adv-x="849" d="M842 866q-43 20 -91.5 31.5t-107.5 11.5q-102 0 -178 -52t-126 -134t-74.5 -181.5t-24.5 -191.5q0 -43 8 -84t31.5 -73.5t67.5 -53t116 -20.5q66 0 128 14t111 37l7 -127q-55 -23 -130 -40t-155 -17q-98 0 -164.5 25.5t-107.5 69.5t-58.5 104.5t-17.5 129.5 q0 145 39 275.5t113.5 229t182 155.5t244.5 57q66 0 119 -8t103 -25z" />
<glyph unicode="d" horiz-adv-x="1146" d="M842 891q-33 8 -72 14t-86 6q-123 0 -209 -55t-140 -142t-79 -193.5t-25 -207.5q0 -111 31 -156.5t84 -45.5q80 0 158 71.5t143.5 178t112.5 226.5t65 216l17 88v0zM846 123q35 -6 81 -11.5t89 -9.5l-17 -88q-70 -10 -159.5 -14t-167.5 0q12 70 44 180.5t81 268.5l-4 2 q-27 -59 -70 -140.5t-104.5 -155t-141.5 -124.5t-178 -51q-109 0 -166 73.5t-57 233.5q0 139 37 273t113.5 238.5t197.5 169t287 64.5q41 0 77.5 -3t77.5 -9l68 352q-35 6 -81 11.5t-91 9.5l18 88q68 10 159 14t169 0z" />
<glyph unicode="e" horiz-adv-x="960" d="M764 793q0 61 -41 93t-109 32q-66 0 -120 -27t-97 -72t-73.5 -106.5t-49.5 -130.5q258 10 374 62.5t116 148.5zM920 811q0 -158 -164 -247t-504 -103q-4 -25 -8 -64t-4 -69q0 -66 12 -108t39.5 -66.5t72 -34.5t109.5 -10q72 0 144.5 15t134.5 44l10 -123 q-152 -63 -344 -63q-168 0 -252 74.5t-84 250.5q0 143 38 275.5t108.5 232.5t173 160.5t231.5 60.5q76 0 130 -18.5t89 -49t51.5 -71.5t16.5 -86z" />
<glyph unicode="f" horiz-adv-x="694" d="M922 1360q-37 10 -77 15t-75 5q-121 0 -189.5 -69.5t-97.5 -223.5l-12 -69h295l-25 -121h-292l-183 -954q-47 -252 -162.5 -360.5t-298.5 -108.5q-94 0 -176 18l39 133q39 -12 79 -17t75 -5q117 0 186.5 73.5t106.5 262.5l184 958h-219l24 121h218l12 69 q39 213 150.5 315.5t303.5 102.5q45 0 86 -4t87 -14z" />
<glyph unicode="g" horiz-adv-x="1097" d="M842 891q-33 8 -72 14t-86 6q-123 0 -209 -55t-140 -142t-79 -193.5t-25 -207.5q0 -111 31 -156.5t84 -45.5q80 0 158 71.5t143.5 178t112.5 226.5t65 216zM819 -10q-18 -100 -30.5 -149.5t-46 -118t-101.5 -126t-170 -90t-246 -32.5q-84 0 -148.5 10t-117.5 27l35 153 q59 -27 129 -41t141 -14q82 0 147.5 17.5t114.5 56t84 103t64 220.5q10 47 16 76t20.5 83t34 118.5t48.5 154.5l-5 2q-25 -55 -66.5 -134t-103 -151.5t-141.5 -123.5t-178 -51q-109 0 -166 73.5t-57 233.5q0 139 37 273t113.5 238.5t197.5 169t287 64.5q41 0 78.5 -2 t76.5 -6q29 -4 72 -9t76 -11z" />
<glyph unicode="h" horiz-adv-x="1173" d="M897 0h-149l124 655q25 131 1.5 191.5t-101.5 60.5q-51 0 -104.5 -32.5t-101.5 -88t-92 -127t-80 -148.5t-61.5 -153.5t-37.5 -140.5l-39 -217h-152l263 1372q-35 6 -82 11.5t-90 9.5l16 88q70 10 161 14t169 0l-97 -496q-6 -29 -13 -63.5t-20.5 -82.5t-33 -113.5 t-47.5 -155.5l4 -2q37 86 86 167.5t110.5 146.5t133 103.5t155.5 38.5q139 0 190.5 -92t20.5 -256z" />
<glyph unicode="i" horiz-adv-x="563" d="M287 0h-152l172 895q-35 6 -81 11t-91 9l17 89q70 8 160.5 12t168.5 2zM565 1356q0 -51 -33.5 -83t-78.5 -32q-43 0 -70 28.5t-27 63.5q0 53 34 85t77 32t70.5 -28.5t27.5 -65.5z" />
<glyph unicode="j" horiz-adv-x="563" d="M258 -143q-37 -193 -126 -288t-271 -95q-37 0 -71 5t-60 11l30 135q29 -10 61 -15t58 -5q55 0 92 14t63.5 49t45 90.5t35.5 139.5l192 997q-35 6 -81 11t-91 9l17 89q70 8 160.5 12t168.5 2zM565 1356q0 -51 -33.5 -83t-78.5 -32q-43 0 -70 28.5t-27 63.5q0 53 34 85 t77 32t70.5 -28.5t27.5 -65.5z" />
<glyph unicode="k" horiz-adv-x="966" d="M518 559l320 -559h-187l-291 549l-104 -549h-152l263 1372q-35 6 -82 11.5t-90 9.5l16 88q70 10 161 14t169 0l-174 -917l489 487l107 -92z" />
<glyph unicode="l" horiz-adv-x="532" d="M256 0h-152l263 1372q-35 6 -82 11.5t-90 9.5l16 88q70 10 161 14t169 0z" />
<glyph unicode="m" horiz-adv-x="1818" d="M1542 0h-149l125 655q25 133 1 192.5t-96 59.5q-66 0 -139.5 -62.5t-139 -161.5t-116.5 -222t-74 -244l-41 -217h-149l125 655q27 133 3 192.5t-95 59.5q-68 0 -140.5 -62.5t-139 -161.5t-118 -222t-73.5 -244l-39 -217h-152l172 895q-35 6 -81 11t-91 9l17 89 q70 10 160.5 14t168.5 0q-23 -111 -54.5 -218.5t-68.5 -215.5l4 -2q35 86 84.5 167.5t109.5 146.5t132 103.5t154 38.5q100 0 151 -53t51 -145q0 -55 -14 -112.5t-43 -145.5l4 -2q35 86 84 168.5t109.5 147.5t132.5 103.5t153 38.5q135 0 185.5 -92t19.5 -256z" />
<glyph unicode="n" horiz-adv-x="1204" d="M928 0h-150l125 655q25 131 1.5 191.5t-101.5 60.5q-53 0 -105.5 -32.5t-100.5 -88t-92 -127t-80 -148.5t-61.5 -153.5t-37.5 -140.5l-39 -217h-152l172 895q-35 6 -81 11t-91 9l17 89q70 10 160.5 14t168.5 0q-10 -53 -36.5 -153.5t-86.5 -280.5l4 -2q37 86 86.5 167.5 t111 146.5t134 103.5t156.5 38.5q139 0 190.5 -92t20.5 -256z" />
<glyph unicode="o" horiz-adv-x="1087" d="M870 655q0 123 -56 187.5t-175 64.5q-90 0 -164 -45t-127 -119.5t-81.5 -171t-28.5 -200.5q0 -127 54 -192.5t179 -65.5q78 0 150.5 38.5t128 110.5t88 172t32.5 221zM1032 670q0 -158 -49 -285t-131 -217t-188.5 -138t-219.5 -48q-186 0 -275 92t-89 268q0 150 44 276.5 t122 220t184.5 145.5t231.5 52q193 0 281.5 -102t88.5 -264z" />
<glyph unicode="p" horiz-adv-x="1146" d="M922 705q0 111 -32 156.5t-83 45.5q-53 0 -105.5 -33.5t-101.5 -89t-93 -127t-80 -148.5t-61.5 -151.5t-37.5 -138.5l-17 -84q35 -12 80 -19t80 -7q121 0 207 55t140 142t79 193t25 206zM1077 731q0 -139 -36.5 -272t-113.5 -237.5t-198 -169t-287 -64.5q-45 0 -81.5 3 t-75.5 9l-97 -510h-149l268 1405q-35 6 -81 11t-91 9l17 89q70 10 160.5 14t168.5 0q-6 -35 -16 -74t-23.5 -90t-34 -118.5t-49.5 -160.5l4 -2q39 96 90.5 181.5t113 148t133 99t153.5 36.5q111 0 168 -73.5t57 -233.5z" />
<glyph unicode="q" horiz-adv-x="1097" d="M842 891q-33 8 -72 14t-86 6q-123 0 -209 -55t-140 -142t-79 -193.5t-25 -207.5q0 -111 32 -156.5t85 -45.5q78 0 156 71.5t143.5 178t112.5 226.5t65 216l17 88v0zM748 -387q35 -6 82 -11t90 -10l-17 -88q-68 -8 -159 -13t-169 -1l93 487q8 49 19 95.5t25.5 99.5 t35 119.5t49.5 157.5l-4 2q-27 -59 -70 -140.5t-104.5 -155t-141.5 -124.5t-178 -51q-109 0 -166 73.5t-57 233.5q0 139 37 273t113.5 238.5t197.5 169t287 64.5q86 0 160.5 -8t142.5 -23z" />
<glyph unicode="r" horiz-adv-x="776" d="M805 883q-53 20 -106.5 -2.5t-102.5 -73.5t-92 -123t-78 -150.5t-59.5 -157.5t-36.5 -143l-43 -233h-152l172 895q-35 6 -81 11t-91 9l17 89q70 10 160.5 14t164.5 0q-12 -70 -37.5 -163t-74.5 -241h4q45 98 91 182.5t101 142.5t122 86t151 9z" />
<glyph unicode="s" horiz-adv-x="804" d="M705 891q-39 14 -80 19t-82 5q-117 0 -172.5 -46t-55.5 -117q0 -45 32 -79t68 -63.5t78 -59.5t77.5 -64.5t60 -77.5t24.5 -101q0 -63 -27.5 -121.5t-81.5 -103.5t-141.5 -72.5t-191.5 -27.5q-63 0 -103 4t-79 10l26 143q41 -12 88.5 -20t94.5 -8q123 0 190.5 44t67.5 134 q0 43 -24.5 75.5t-62.5 61.5t-82 57.5t-80 64.5t-63.5 81t-27.5 106q0 63 25.5 117.5t74.5 95.5t126 64.5t173 23.5q53 0 94 -4t80 -12z" />
<glyph unicode="t" horiz-adv-x="743" d="M739 897h-290l-107 -561q-25 -127 -4.5 -172t102.5 -45q45 0 80 4t66 12l-6 -131q-43 -10 -91.5 -15t-93.5 -5q-152 0 -197.5 76.5t-13.5 246.5l113 590h-219l24 121h220l63 338l160 37l-74 -375h293z" />
<glyph unicode="u" horiz-adv-x="1234" d="M950 123q35 -6 82 -11.5t90 -9.5l-18 -88q-70 -10 -159 -14t-167 0q10 53 36 153.5t85 280.5l-4 2q-37 -86 -87 -168t-111.5 -146.5t-134.5 -103t-154 -38.5q-139 0 -190.5 92t-18.5 256l108 567q-35 6 -81 11t-91 9l17 89q70 8 162 12t165 2l-125 -656q-25 -131 0 -191 t101 -60q51 0 104 32.5t101.5 88t92.5 127t79.5 148.5t61.5 152.5t38 141.5l41 217h149z" />
<glyph unicode="v" horiz-adv-x="958" d="M469 0h-170l-178 1018h164l106 -674q6 -41 10.5 -89t8.5 -99h2l477 905l141 -53z" />
<glyph unicode="w" horiz-adv-x="1589" d="M1135 0h-177l-88 659q-6 47 -11 96.5t-7 98.5h-2l-418 -854h-176l-113 1018h160l57 -606q6 -68 11.5 -131.5t5.5 -104.5h2l422 842h172l82 -604q10 -74 15 -136.5t7 -103.5h2l424 885l148 -49z" />
<glyph unicode="x" horiz-adv-x="1032" d="M616 512l273 -512h-191l-198 414l-418 -463l-117 88l465 477l-264 502h182l197 -402l407 449l109 -84z" />
<glyph unicode="y" horiz-adv-x="946" d="M1001 1014q-98 -229 -195 -433t-195.5 -378t-196 -312.5t-195.5 -234.5q-90 -88 -179 -134t-177 -46q-39 0 -75 3t-64 11l26 141q29 -10 61.5 -15t67.5 -5q55 0 118.5 35t119.5 96q66 72 95.5 151.5t29.5 198.5q0 197 -39 437.5t-107 488.5h170q27 -104 49.5 -217 t38 -221.5t24.5 -208t9 -181.5q0 -31 -5 -68.5t-13 -72.5h4q63 111 123.5 224.5t120 236.5t119 258t124.5 291z" />
<glyph unicode="z" horiz-adv-x="878" d="M840 911l-625 -774q23 0 55.5 1t69.5 2t76 1h76h213l-29 -141h-674l21 109l626 776q-47 -2 -113.5 -3t-152.5 -1h-203l27 137h655z" />
<glyph unicode="{" horiz-adv-x="669" d="M791 1458q-53 0 -92.5 -12t-67 -42t-46 -78t-32.5 -120l-49 -262q-29 -141 -88.5 -211.5t-157.5 -83.5v-4q88 -12 122 -86t9 -203l-74 -387q-29 -143 1 -197.5t137 -54.5l-23 -118h-35q-82 0 -132 26.5t-75.5 75.5t-26.5 118.5t15 155.5l76 392q23 121 -17 168t-157 55 l24 123q63 4 107.5 16t75 37t48 65.5t29.5 102.5l50 266q14 78 41.5 146.5t70.5 119t104.5 80t145.5 29.5h39z" />
<glyph unicode="|" horiz-adv-x="569" d="M154 -510h-119l389 2048h119z" />
<glyph unicode="}" horiz-adv-x="669" d="M639 590q-63 -4 -107.5 -16.5t-74 -38t-48 -66.5t-30.5 -102l-72 -390q-37 -193 -120 -285.5t-242 -92.5h-39l24 120q53 0 92 12.5t66 42t45.5 77t32.5 118.5l72 387q51 272 245 297v4q-88 12 -121.5 85t-9.5 202l51 264q29 141 -0.5 196.5t-136.5 55.5l23 117h28 q84 0 135.5 -28.5t77 -79t27.5 -120t-14 -149.5l-54 -266q-25 -121 16.5 -167t158.5 -54z" />
<glyph unicode="~" d="M1126 1169q-8 -141 -83.5 -223t-196.5 -82q-84 0 -131 36t-81 80t-68 80t-91 36q-70 0 -107.5 -55.5t-43.5 -133.5h-115q6 139 82 221t196 82q55 0 94.5 -17t68 -43t50 -55.5t45 -55t50 -43t65.5 -17.5q70 0 107 55.5t45 134.5h114v0z" />
<glyph unicode="&#xa1;" horiz-adv-x="641" d="M215 -418h-178l237 1108h125zM489 930q0 -47 -31.5 -79t-78.5 -32t-76 31t-29 74q0 47 31 78.5t78 31.5t76.5 -30.5t29.5 -73.5z" />
<glyph unicode="&#xa2;" horiz-adv-x="915" d="M793 283q-47 -23 -111 -39.5t-129 -20.5l-55 -274h-119l53 274q-156 12 -236.5 105.5t-80.5 234.5q0 117 33.5 220.5t98 184.5t158 136t211.5 74l46 239h118l-43 -231q53 -2 108.5 -12.5t106.5 -32.5l-37 -133q-45 27 -103 41t-124 14q-100 0 -177 -39t-129 -101.5 t-80 -143.5t-28 -163q0 -117 61.5 -191.5t209.5 -74.5q66 0 135.5 17.5t122.5 48.5z" />
<glyph unicode="&#xa3;" horiz-adv-x="942" d="M791 795l-23 -121h-299q-6 -100 -21.5 -178t-46 -142.5t-79 -119t-121.5 -109.5q39 4 86 8t100 4h424l-25 -137h-794l20 109q82 59 137.5 111t89 113.5t52 142.5t26.5 198h-223l23 121h211q2 66 6 132t17.5 129.5t41 122t76.5 107.5q53 53 130 83t179 30q49 0 100.5 -5 t96.5 -20l-37 -135q-41 16 -90 25.5t-90 9.5q-63 0 -106.5 -17.5t-73.5 -48.5q-35 -35 -53.5 -83t-28 -103t-12.5 -113.5t-7 -113.5h314z" />
<glyph unicode="&#xa4;" d="M825 760q0 72 -40 121t-138 49q-68 0 -119 -30t-86.5 -78t-53 -107.5t-17.5 -118.5q0 -76 39 -126t135 -50q63 0 114.5 30.5t88 79t57 109t20.5 121.5zM934 924q33 -49 33 -140q0 -90 -32 -182t-110 -170l136 -217l-121 -82l-127 225q-96 -55 -197 -55q-96 0 -145 31 l-187 -201l-102 88l190 187q-45 61 -45 165q0 96 35 192.5t119 170.5l-123 201l123 80l113 -211q45 23 90 32t92 9q45 0 89 -8.5t79 -30.5l198 209l93 -89z" />
<glyph unicode="&#xa5;" horiz-adv-x="1179" d="M719 582h301l-21 -109h-337l-29 -151h338l-21 -111h-338l-39 -211h-153l39 211h-338l22 111h336l31 151h-340l23 109h301l-236 800h164l137 -487q18 -68 32.5 -129t24.5 -123h2q76 139 170 275l314 464h168z" />
<glyph unicode="&#xa6;" horiz-adv-x="569" d="M154 -510h-119l145 774h119zM399 784h-118l143 754h119z" />
<glyph unicode="&#xa7;" horiz-adv-x="1036" d="M705 502q0 51 -20.5 99t-53.5 96t-73 98.5t-79 105.5q-76 -47 -107.5 -106.5t-31.5 -122.5q0 -49 20.5 -97.5t52 -97.5t71.5 -98t79 -103q76 47 109 108t33 118zM877 1358q-37 12 -68 17t-59 5q-68 0 -111 -22.5t-68.5 -55t-36 -69.5t-10.5 -66q0 -45 24.5 -90t60.5 -92 t78 -97t78 -107.5t60.5 -121t24.5 -135.5q0 -96 -53.5 -184t-163.5 -160q20 -35 31.5 -72.5t11.5 -82.5q0 -68 -27.5 -133.5t-79 -115.5t-125 -81t-165.5 -31q-86 0 -164 23l30 131q41 -12 75 -19.5t71 -7.5q61 0 105 21.5t71 53.5t39 69.5t12 70.5q0 72 -50 141.5 t-111.5 146.5t-111.5 163t-50 190q0 98 52 185.5t165 164.5q-25 47 -36 84t-11 78q0 47 20.5 107.5t66.5 114t120.5 89t185.5 35.5q37 0 76.5 -4t72.5 -12z" />
<glyph unicode="&#xa8;" horiz-adv-x="929" d="M514 1350q0 -45 -29.5 -74t-70.5 -29t-69 28t-28 66q0 43 31 72t72 29t67.5 -27.5t26.5 -64.5zM899 1350q0 -45 -29.5 -74t-70.5 -29t-69 28t-28 66q0 43 31 72t72 29t67.5 -27.5t26.5 -64.5z" />
<glyph unicode="&#xa9;" horiz-adv-x="1511" d="M1012 913q-61 31 -148 31q-76 0 -126 -35t-80.5 -87t-44 -112.5t-13.5 -113.5q0 -76 37 -118t117 -42q90 0 174 31l2 -109q-47 -16 -101.5 -25t-97.5 -9q-143 0 -205.5 67.5t-62.5 181.5q0 98 28.5 185.5t83 152t130 102.5t172.5 38q57 0 97 -7.5t70 -17.5zM1346 715 q0 109 -42 205t-114 168.5t-170 115.5t-211 43q-117 0 -221.5 -44t-183 -121.5t-126 -185.5t-47.5 -234q0 -111 42 -209.5t114 -171t170 -115.5t211 -43q115 0 219.5 45t184 124t127 187.5t47.5 235.5zM1470 719q0 -154 -57 -284t-155.5 -225t-226.5 -149.5t-269 -54.5 q-143 0 -264 50t-208 138.5t-136.5 207t-49.5 253.5q0 152 57.5 282t156 225t227.5 149.5t270 54.5q137 0 257 -50t209 -137t139 -206t50 -254z" />
<glyph unicode="&#xaa;" horiz-adv-x="790" d="M807 729q-51 -8 -116.5 -11t-125.5 1q16 74 64 213h-2q-51 -106 -125 -165.5t-166 -59.5q-168 0 -168 202q0 94 27.5 181.5t81 155t134.5 107.5t185 40q55 0 109.5 -3.5t111.5 -13.5q-10 -53 -25.5 -130t-31 -156.5t-28.5 -151.5t-21 -115q23 -4 53.5 -7t58.5 -7z M711 461h-580l23 123h579zM672 1276q-29 8 -54.5 10t-48.5 2q-66 0 -114.5 -30.5t-83.5 -81t-52.5 -113t-17.5 -125.5q0 -66 18.5 -92.5t55.5 -26.5q47 0 92 34t84 89t67.5 127t43.5 150l10 57v0z" />
<glyph unicode="&#xab;" horiz-adv-x="1001" d="M293 600l135 -293l-119 -61l-172 362l297 355l105 -68zM659 600l152 -291l-119 -61l-186 360l311 350l103 -67z" />
<glyph unicode="&#xac;" d="M928 217h-133l61 328h-760l25 129h893z" />
<glyph unicode="&#xae;" horiz-adv-x="1128" d="M768 1206q0 43 -61 43h-52l-26 -135h30q53 0 81 27.5t28 64.5zM862 1221q0 -66 -43 -107t-104 -53q6 -10 15 -27.5t18 -36.5l63 -147h-102l-80 201h-13l-38 -201h-86l88 471h143q74 0 106.5 -26.5t32.5 -73.5zM999 1098q0 63 -23.5 121.5t-64.5 103.5t-97 70.5t-120 25.5 q-68 0 -129 -26.5t-109 -73.5t-76 -111.5t-28 -138.5q0 -66 23.5 -125t64.5 -104t97.5 -71t121.5 -26q68 0 129.5 27t108.5 75t74.5 112.5t27.5 140.5zM1110 1104q0 -98 -38 -182t-101.5 -146.5t-146.5 -97.5t-171 -35t-163.5 32t-131 87t-86 131t-30.5 162q0 100 37.5 185 t101 147.5t145.5 97.5t172 35q88 0 163 -32t130.5 -87t87 -131t31.5 -166z" />
<glyph unicode="&#xaf;" horiz-adv-x="851" d="M793 1276h-492l21 117h491z" />
<glyph unicode="&#xb0;" horiz-adv-x="745" d="M645 1278q0 29 -8 52.5t-23.5 39.5t-37 24.5t-50.5 8.5q-61 0 -103 -46t-42 -122q0 -59 31.5 -93t87.5 -34q61 0 103 47t42 123zM770 1288q0 -63 -22.5 -116.5t-63.5 -90.5t-91 -56t-106 -19q-111 0 -171 59t-60 158q0 66 23.5 119t63.5 89.5t91 56t107 19.5 q109 0 169 -59.5t60 -159.5z" />
<glyph unicode="&#xb1;" d="M940 0h-944l22 129h945zM1069 678h-401l-78 -412h-146l78 412h-401l24 129h402l80 410h145l-80 -410h404z" />
<glyph unicode="&#xb2;" horiz-adv-x="704" d="M758 1403q0 -96 -56.5 -187.5t-171.5 -187.5l-186 -158q72 4 162 5.5t192 -1.5l-24 -122h-545l23 110l243 207q111 90 160 165t49 142q0 57 -28.5 88t-92.5 31q-47 0 -94 -13.5t-92 -37.5l-8 110q49 25 109.5 40.5t119.5 15.5q119 0 179.5 -52.5t60.5 -154.5z" />
<glyph unicode="&#xb3;" horiz-adv-x="684" d="M729 1436q0 -78 -48 -142.5t-140 -93.5q61 -12 102 -55t41 -103q0 -59 -29.5 -117.5t-76 -95t-119 -65.5t-160.5 -29q-45 0 -87 4t-79 13l29 116q61 -23 147 -22q100 0 160.5 50t67.5 130q0 59 -62.5 88t-218.5 14l18 107q150 0 229 48t79 120q-2 96 -117 98 q-45 0 -86 -9t-86 -26l2 111q55 16 111.5 24.5t93.5 8.5q123 0 176 -47t53 -127z" />
<glyph unicode="&#xb4;" horiz-adv-x="702" d="M354 1178l-63 84l295 254l80 -107z" />
<glyph unicode="&#xb6;" horiz-adv-x="1142" d="M582 520q-94 0 -163 24.5t-113 69.5t-65.5 107.5t-21.5 136.5q0 92 35 186.5t101.5 169t164.5 121.5t225 47zM1161 1266h-147l-279 -1463h-289l21 117h149l279 1462h285z" />
<glyph unicode="&#xb7;" horiz-adv-x="442" d="M356 612q0 -49 -34.5 -84.5t-83.5 -35.5q-45 0 -77 32.5t-32 79.5q0 51 35 86t84 35q45 0 76.5 -33t31.5 -80z" />
<glyph unicode="&#xb8;" horiz-adv-x="593" d="M406 -84q61 -100 32.5 -196.5t-125.5 -200.5h-139q96 102 123 179t-29 165l138 53v0z" />
<glyph unicode="&#xb9;" horiz-adv-x="538" d="M432 752h-143l137 708l-199 -74v123l250 86h117z" />
<glyph unicode="&#xba;" horiz-adv-x="837" d="M698 1139q0 55 -27.5 99t-103.5 44q-63 0 -107 -31.5t-71 -79t-39 -102.5t-12 -100q0 -68 29.5 -106t95.5 -38q51 0 95 24.5t75 66.5t48 99.5t17 123.5zM680 461h-547l25 123h547zM842 1157q0 -113 -35 -198t-91.5 -141t-128 -84.5t-145.5 -28.5q-121 0 -184 57t-63 180 q0 90 26.5 173t76.5 145.5t122 100.5t162 38q139 0 199.5 -66.5t60.5 -175.5z" />
<glyph unicode="&#xbb;" horiz-adv-x="1001" d="M223 248l-102 69l264 291l-152 289l121 61l185 -358zM606 246l-104 67l250 295l-136 293l121 62l166 -363z" />
<glyph unicode="&#xbc;" horiz-adv-x="1624" d="M432 752h-143l137 708l-199 -74v123l250 86h117zM37 -281l-88 72l1624 1851l88 -71zM1446 -17h-137l-39 -192h-134l37 192h-389l10 100l437 551h202l-102 -534h137zM934 96q16 0 38.5 1t47 2t49 1h48.5h41h38l82 430z" />
<glyph unicode="&#xbd;" horiz-adv-x="1679" d="M37 -281l-88 72l1624 1851l88 -71zM432 752h-143l137 708l-199 -74v123l250 86h117zM1524 442q0 -96 -56.5 -187.5t-171.5 -187.5l-186 -158q72 4 162 5.5t192 -1.5l-24 -122h-545l23 110l243 207q111 90 160 165t49 142q0 57 -28.5 88t-92.5 31q-47 0 -94 -13.5 t-92 -37.5l-8 110q49 25 109.5 40.5t119.5 15.5q119 0 179.5 -52.5t60.5 -154.5z" />
<glyph unicode="&#xbe;" horiz-adv-x="1669" d="M80 -281l-88 72l1624 1851l88 -71zM729 1436q0 -78 -48 -142.5t-140 -93.5q61 -12 102 -55t41 -103q0 -59 -29.5 -117.5t-76 -95t-119 -65.5t-160.5 -29q-45 0 -87 4t-79 13l29 116q61 -23 147 -22q100 0 160.5 50t67.5 130q0 59 -62.5 88t-218.5 14l18 107q150 0 229 48 t79 120q-2 96 -117 98q-45 0 -86 -9t-86 -26l2 111q55 16 111.5 24.5t93.5 8.5q123 0 176 -47t53 -127zM1489 -17h-137l-39 -192h-134l37 192h-389l10 100l437 551h202l-102 -534h137zM977 96q16 0 38.5 1t47 2t49 1h48.5h41h38l82 430z" />
<glyph unicode="&#xbf;" horiz-adv-x="888" d="M621 690q14 -109 -10.5 -187.5t-69.5 -140t-101.5 -108.5t-106.5 -92t-85 -95.5t-35 -113.5q0 -47 25.5 -87t71.5 -72t109.5 -53.5t139.5 -29.5l-45 -141q-115 12 -202 45t-146.5 82t-90 110.5t-30.5 129.5q0 84 35 145t87 111.5t111.5 97.5t106.5 102.5t72.5 126 t13.5 170.5h150v0zM696 930q0 -47 -30.5 -79t-77.5 -32t-77 31t-30 74q0 47 32 78.5t79 31.5t75.5 -30.5t28.5 -73.5z" />
<glyph unicode="&#xc0;" horiz-adv-x="1226" d="M774 1024q-8 47 -14 93t-10 95h-2q-23 -47 -46.5 -94t-46.5 -90l-307 -563h520zM940 0l-53 340h-604l-185 -340h-168l766 1382h170l240 -1382h-166zM848 1493l-373 117l59 125l352 -152z" />
<glyph unicode="&#xc1;" horiz-adv-x="1226" d="M774 1024q-8 47 -14 93t-10 95h-2q-23 -47 -46.5 -94t-46.5 -90l-307 -563h520zM940 0l-53 340h-604l-185 -340h-168l766 1382h170l240 -1382h-166zM684 1493l-27 90l371 152l35 -125z" />
<glyph unicode="&#xc2;" horiz-adv-x="1226" d="M774 1024q-8 47 -14 93t-10 95h-2q-23 -47 -46.5 -94t-46.5 -90l-307 -563h520zM940 0l-53 340h-604l-185 -340h-168l766 1382h170l240 -1382h-166zM1049 1489l-246 131l-286 -131l-39 88l338 172l288 -166z" />
<glyph unicode="&#xc3;" horiz-adv-x="1226" d="M774 1024q-8 47 -14 93t-10 95h-2q-23 -47 -46.5 -94t-46.5 -90l-307 -563h520zM940 0l-53 340h-604l-185 -340h-168l766 1382h170l240 -1382h-166zM1149 1655q-41 -70 -98.5 -107t-123.5 -37q-51 0 -85.5 17.5t-63.5 38t-55.5 38t-59.5 17.5q-72 0 -135 -94l-76 59 q82 143 219 144q51 0 86 -17.5t64 -38t54.5 -38t60.5 -17.5q70 0 135 94l78 -59v0z" />
<glyph unicode="&#xc4;" horiz-adv-x="1226" d="M774 1024q-8 47 -14 93t-10 95h-2q-23 -47 -46.5 -94t-46.5 -90l-307 -563h520zM940 0l-53 340h-604l-185 -340h-168l766 1382h170l240 -1382h-166zM1110 1597q0 -41 -29 -69.5t-70 -28.5t-66.5 25.5t-25.5 66.5t28.5 70t69.5 29t67 -27t26 -66zM686 1597 q0 -41 -30 -69.5t-71 -28.5t-66.5 25.5t-25.5 66.5t28.5 70t69.5 29t68 -27t27 -66z" />
<glyph unicode="&#xc5;" horiz-adv-x="1226" d="M774 1024q-8 47 -14 93t-10 95h-2q-23 -47 -46.5 -94t-46.5 -90l-307 -563h520zM940 0l-53 340h-604l-185 -340h-168l766 1382h170l240 -1382h-166zM1067 1714q0 -55 -19.5 -101t-54.5 -81t-83 -54.5t-107 -19.5q-86 0 -138.5 44t-52.5 122q0 53 20.5 100.5t55.5 82 t84 54t107 19.5q86 0 137 -44t51 -122zM819 1552q59 0 94 42t35 104q0 41 -22.5 65.5t-63.5 24.5q-59 0 -95 -44t-36 -104q0 -41 23.5 -64.5t64.5 -23.5z" />
<glyph unicode="&#xc6;" horiz-adv-x="1562" d="M868 1251q-35 -53 -75.5 -117.5t-112.5 -162.5l-363 -502h408l149 782h-6zM1542 1255h-516l-92 -479h498l-25 -127h-498l-100 -518h539l-25 -131h-688l65 344h-467l-245 -344h-174l995 1382h756z" />
<glyph unicode="&#xc7;" horiz-adv-x="1183" d="M1171 1212q-147 51 -297 52q-158 0 -269 -70t-183 -180.5t-105.5 -250.5t-33.5 -282q0 -78 17 -144.5t59 -113.5t113 -73.5t177 -26.5q88 0 173 19.5t157 52.5l10 -136q-86 -35 -186.5 -54t-198.5 -19q-145 0 -239.5 38.5t-150.5 103.5t-78.5 149.5t-22.5 179.5 q0 184 50 354t150.5 300t247 208t340.5 78q90 0 167 -11.5t146 -31.5zM605 -84q61 -100 32.5 -196.5t-125.5 -200.5h-139q96 102 123 179t-29 165l138 53v0z" />
<glyph unicode="&#xc8;" horiz-adv-x="1032" d="M1008 1255h-527l-92 -479h504l-25 -127h-501l-99 -518h527l-25 -131h-526h-154l262 1382h154h526zM787 1493l-373 117l59 125l352 -152z" />
<glyph unicode="&#xc9;" horiz-adv-x="1032" d="M1008 1255h-527l-92 -479h504l-25 -127h-501l-99 -518h527l-25 -131h-526h-154l262 1382h154h526zM598 1493l-27 90l371 152l35 -125z" />
<glyph unicode="&#xca;" horiz-adv-x="1032" d="M1008 1255h-527l-92 -479h504l-25 -127h-501l-99 -518h527l-25 -131h-526h-154l262 1382h154h526zM971 1489l-246 131l-286 -131l-39 88l338 172l288 -166z" />
<glyph unicode="&#xcb;" horiz-adv-x="1032" d="M1008 1255h-527l-92 -479h504l-25 -127h-501l-99 -518h527l-25 -131h-526h-154l262 1382h154h526zM1022 1597q0 -41 -29 -69.5t-70 -28.5t-66.5 25.5t-25.5 66.5t28.5 70t69.5 29t67 -27t26 -66zM598 1597q0 -41 -30 -69.5t-71 -28.5t-66.5 25.5t-25.5 66.5t28.5 70 t69.5 29t68 -27t27 -66z" />
<glyph unicode="&#xcc;" horiz-adv-x="520" d="M244 0h-154l262 1382h154zM508 1493l-373 117l59 125l352 -152z" />
<glyph unicode="&#xcd;" horiz-adv-x="520" d="M244 0h-154l262 1382h154zM348 1493l-27 90l371 152l35 -125z" />
<glyph unicode="&#xce;" horiz-adv-x="520" d="M244 0h-154l262 1382h154zM717 1489l-246 131l-286 -131l-39 88l338 172l288 -166z" />
<glyph unicode="&#xcf;" horiz-adv-x="520" d="M244 0h-154l262 1382h154zM762 1597q0 -41 -29 -69.5t-70 -28.5t-66.5 25.5t-25.5 66.5t28.5 70t69.5 29t67 -27t26 -66zM338 1597q0 -41 -30 -69.5t-71 -28.5t-66.5 25.5t-25.5 66.5t28.5 70t69.5 29t68 -27t27 -66z" />
<glyph unicode="&#xd0;" horiz-adv-x="1386" d="M1182 868q0 84 -22.5 157t-75 125t-140.5 82t-219 30q-63 0 -125.5 -2.5t-103.5 -4.5l-93 -483h308l-23 -119h-307l-98 -516q41 -6 93 -10t87 -4q193 0 329 65.5t223 173t127 240.5t40 266zM1348 887q0 -176 -55.5 -334t-167 -284t-281.5 -200.5t-404 -74.5 q-111 0 -188.5 3t-147.5 3l123 653h-192l22 119h193l117 610q78 0 180 3.5t201 3.5q166 0 279.5 -38t184 -104.5t103.5 -158.5t33 -201z" />
<glyph unicode="&#xd1;" horiz-adv-x="1380" d="M1114 0h-153h-27l-375 907q-31 76 -57.5 149.5t-46.5 141.5q-18 -131 -44 -278.5t-51 -284.5l-118 -635h-152l262 1382h154h29l372 -897q29 -74 55.5 -147.5t51.5 -144.5q18 117 42.5 256t47.5 272l121 661h153zM1262 1655q-41 -70 -98.5 -107t-123.5 -37 q-51 0 -85.5 17.5t-63.5 38t-55.5 38t-59.5 17.5q-72 0 -135 -94l-76 59q82 143 219 144q51 0 86 -17.5t64 -38t54.5 -38t60.5 -17.5q70 0 135 94l78 -59v0z" />
<glyph unicode="&#xd2;" horiz-adv-x="1421" d="M1223 872q0 182 -91.5 288t-273.5 106q-125 0 -232.5 -58.5t-186.5 -163t-122 -241.5t-43 -293q0 -182 90.5 -287.5t274.5 -105.5q123 0 230.5 58t187.5 162.5t123 241.5t43 293zM1386 899q0 -182 -55 -348t-158.5 -295t-248 -201.5t-316.5 -72.5q-246 0 -371.5 136 t-125.5 365q0 182 55 348t158.5 295t248 202t316.5 73q244 0 370.5 -137.5t126.5 -364.5zM977 1493l-373 117l59 125l352 -152z" />
<glyph unicode="&#xd3;" horiz-adv-x="1421" d="M1223 872q0 182 -91.5 288t-273.5 106q-125 0 -232.5 -58.5t-186.5 -163t-122 -241.5t-43 -293q0 -182 90.5 -287.5t274.5 -105.5q123 0 230.5 58t187.5 162.5t123 241.5t43 293zM1386 899q0 -182 -55 -348t-158.5 -295t-248 -201.5t-316.5 -72.5q-246 0 -371.5 136 t-125.5 365q0 182 55 348t158.5 295t248 202t316.5 73q244 0 370.5 -137.5t126.5 -364.5zM813 1493l-27 90l371 152l35 -125z" />
<glyph unicode="&#xd4;" horiz-adv-x="1421" d="M1223 872q0 182 -91.5 288t-273.5 106q-125 0 -232.5 -58.5t-186.5 -163t-122 -241.5t-43 -293q0 -182 90.5 -287.5t274.5 -105.5q123 0 230.5 58t187.5 162.5t123 241.5t43 293zM1386 899q0 -182 -55 -348t-158.5 -295t-248 -201.5t-316.5 -72.5q-246 0 -371.5 136 t-125.5 365q0 182 55 348t158.5 295t248 202t316.5 73q244 0 370.5 -137.5t126.5 -364.5zM1163 1489l-246 131l-286 -131l-39 88l338 172l288 -166z" />
<glyph unicode="&#xd5;" horiz-adv-x="1421" d="M1223 872q0 182 -91.5 288t-273.5 106q-125 0 -232.5 -58.5t-186.5 -163t-122 -241.5t-43 -293q0 -182 90.5 -287.5t274.5 -105.5q123 0 230.5 58t187.5 162.5t123 241.5t43 293zM1386 899q0 -182 -55 -348t-158.5 -295t-248 -201.5t-316.5 -72.5q-246 0 -371.5 136 t-125.5 365q0 182 55 348t158.5 295t248 202t316.5 73q244 0 370.5 -137.5t126.5 -364.5zM1276 1655q-41 -70 -98.5 -107t-123.5 -37q-51 0 -85.5 17.5t-63.5 38t-55.5 38t-59.5 17.5q-72 0 -135 -94l-76 59q82 143 219 144q51 0 86 -17.5t64 -38t54.5 -38t60.5 -17.5 q70 0 135 94l78 -59v0z" />
<glyph unicode="&#xd6;" horiz-adv-x="1421" d="M1223 872q0 182 -91.5 288t-273.5 106q-125 0 -232.5 -58.5t-186.5 -163t-122 -241.5t-43 -293q0 -182 90.5 -287.5t274.5 -105.5q123 0 230.5 58t187.5 162.5t123 241.5t43 293zM1386 899q0 -182 -55 -348t-158.5 -295t-248 -201.5t-316.5 -72.5q-246 0 -371.5 136 t-125.5 365q0 182 55 348t158.5 295t248 202t316.5 73q244 0 370.5 -137.5t126.5 -364.5zM1239 1597q0 -41 -29 -69.5t-70 -28.5t-66.5 25.5t-25.5 66.5t28.5 70t69.5 29t67 -27t26 -66zM815 1597q0 -41 -30 -69.5t-71 -28.5t-66.5 25.5t-25.5 66.5t28.5 70t69.5 29t68 -27 t27 -66z" />
<glyph unicode="&#xd7;" d="M674 604l287 -356l-103 -84l-287 356l-421 -356l-78 94l424 356l-289 355l102 84l289 -355l420 355l78 -95z" />
<glyph unicode="&#xd8;" horiz-adv-x="1421" d="M975 1253q-55 12 -127 13q-125 -4 -230.5 -66.5t-182.5 -166t-120 -240t-43 -289.5q0 -102 28 -180t91 -125zM1219 885q0 109 -33 188.5t-101 126.5l-589 -1063q41 -12 71.5 -15t69.5 -1q119 6 224.5 65.5t185 162t126 239.5t46.5 297zM1384 901q0 -197 -61 -365.5 t-168.5 -291.5t-252 -192.5t-308.5 -69.5q-92 0 -172 22l-113 -207l-110 49l110 203q-49 31 -81.5 64.5t-63.5 91t-44.5 127t-13.5 151.5q0 188 59.5 355.5t165 292t249 197.5t311.5 73q84 0 156 -19l106 193l111 -49l-103 -187q76 -43 120 -96t68.5 -122.5t29.5 -124 t5 -95.5z" />
<glyph unicode="&#xd9;" horiz-adv-x="1398" d="M1217 506q-53 -270 -209 -397t-416 -127q-150 0 -241 37.5t-137 104t-52 156t12 191.5l174 911h154l-174 -913q-16 -88 -11 -154.5t37.5 -111.5t96 -68.5t163.5 -23.5q92 0 167 21.5t131.5 70.5t94 128t60.5 193l164 858h151zM963 1493l-373 117l59 125l352 -152z" />
<glyph unicode="&#xda;" horiz-adv-x="1398" d="M1217 506q-53 -270 -209 -397t-416 -127q-150 0 -241 37.5t-137 104t-52 156t12 191.5l174 911h154l-174 -913q-16 -88 -11 -154.5t37.5 -111.5t96 -68.5t163.5 -23.5q92 0 167 21.5t131.5 70.5t94 128t60.5 193l164 858h151zM797 1493l-27 90l371 152l35 -125z" />
<glyph unicode="&#xdb;" horiz-adv-x="1398" d="M1217 506q-53 -270 -209 -397t-416 -127q-150 0 -241 37.5t-137 104t-52 156t12 191.5l174 911h154l-174 -913q-16 -88 -11 -154.5t37.5 -111.5t96 -68.5t163.5 -23.5q92 0 167 21.5t131.5 70.5t94 128t60.5 193l164 858h151zM1135 1489l-246 131l-286 -131l-39 88 l338 172l288 -166z" />
<glyph unicode="&#xdc;" horiz-adv-x="1398" d="M1217 506q-53 -270 -209 -397t-416 -127q-150 0 -241 37.5t-137 104t-52 156t12 191.5l174 911h154l-174 -913q-16 -88 -11 -154.5t37.5 -111.5t96 -68.5t163.5 -23.5q92 0 167 21.5t131.5 70.5t94 128t60.5 193l164 858h151zM1199 1597q0 -41 -29 -69.5t-70 -28.5 t-66.5 25.5t-25.5 66.5t28.5 70t69.5 29t67 -27t26 -66zM775 1597q0 -41 -30 -69.5t-71 -28.5t-66.5 25.5t-25.5 66.5t28.5 70t69.5 29t68 -27t27 -66z" />
<glyph unicode="&#xdd;" horiz-adv-x="1058" d="M600 502l-94 -502h-154l94 500l-253 882h159l135 -493q18 -61 33 -122.5t27 -121.5h4q35 63 79 131t89 137l307 469h174zM629 1493l-27 90l371 152l35 -125z" />
<glyph unicode="&#xde;" horiz-adv-x="1050" d="M907 809q0 113 -73.5 173t-229.5 60q-31 0 -81 -2t-87 -8l-114 -610q33 -4 66.5 -6t74.5 -2q109 0 191.5 32.5t139 87t85 126t28.5 149.5zM1071 836q0 -106 -43 -206t-124 -176.5t-200.5 -122.5t-273.5 -46q-76 0 -133 6l-55 -291h-154l262 1382h154l-39 -215q43 2 90 3 t96 1q109 0 189 -25.5t131 -69.5t75.5 -105t24.5 -135z" />
<glyph unicode="&#xdf;" horiz-adv-x="1144" d="M1085 1276q0 -78 -25.5 -130t-64.5 -89t-85 -64.5t-85 -57.5t-64.5 -67t-25.5 -92q0 -68 41 -118t89 -99t89 -106.5t41 -143.5q0 -68 -29.5 -128t-83 -104t-130 -69.5t-170.5 -25.5q-55 0 -92 4t-76 10l28 141q41 -12 77 -19t81 -7q113 0 174.5 48t61.5 132q0 68 -40 117 t-88.5 97t-88 105.5t-39.5 143.5q0 72 25.5 122t64.5 86.5t84 65.5t84 59.5t64.5 69.5t25.5 96t-41 93t-123 36q-123 0 -207 -78.5t-119 -265.5l-209 -1099q-25 -133 -65.5 -223.5t-98 -143.5t-130 -75.5t-164.5 -22.5q-35 0 -73 4t-73 12l35 131q63 -18 137 -18 q57 0 101.5 14t78 52t58 102.5t43.5 165.5l207 1091q47 252 174 364.5t327 112.5q143 0 221 -64.5t78 -164.5z" />
<glyph unicode="&#xe0;" horiz-adv-x="1128" d="M842 891q-33 8 -72 14t-86 6q-123 0 -209 -55t-140 -142t-79 -193.5t-25 -207.5q0 -111 31 -156.5t84 -45.5q80 0 158 71.5t143.5 178t112.5 226.5t65 216l17 88v0zM846 123q35 -6 81 -11.5t89 -9.5l-17 -88q-35 -4 -75.5 -8t-83.5 -5t-87 -2t-83 1q14 70 46 179.5 t81 269.5l-4 2q-27 -59 -70 -140.5t-104.5 -155t-141.5 -124.5t-178 -51q-109 0 -166 73.5t-57 233.5q0 139 37 273t113.5 238.5t197.5 169t287 64.5q86 0 160.5 -8t142.5 -20zM772 1178l-252 243l103 95l231 -263z" />
<glyph unicode="&#xe1;" horiz-adv-x="1128" d="M842 891q-33 8 -72 14t-86 6q-123 0 -209 -55t-140 -142t-79 -193.5t-25 -207.5q0 -111 31 -156.5t84 -45.5q80 0 158 71.5t143.5 178t112.5 226.5t65 216l17 88v0zM846 123q35 -6 81 -11.5t89 -9.5l-17 -88q-35 -4 -75.5 -8t-83.5 -5t-87 -2t-83 1q14 70 46 179.5 t81 269.5l-4 2q-27 -59 -70 -140.5t-104.5 -155t-141.5 -124.5t-178 -51q-109 0 -166 73.5t-57 233.5q0 139 37 273t113.5 238.5t197.5 169t287 64.5q86 0 160.5 -8t142.5 -20zM719 1178l-63 84l295 254l80 -107z" />
<glyph unicode="&#xe2;" horiz-adv-x="1128" d="M842 891q-33 8 -72 14t-86 6q-123 0 -209 -55t-140 -142t-79 -193.5t-25 -207.5q0 -111 31 -156.5t84 -45.5q80 0 158 71.5t143.5 178t112.5 226.5t65 216l17 88v0zM846 123q35 -6 81 -11.5t89 -9.5l-17 -88q-35 -4 -75.5 -8t-83.5 -5t-87 -2t-83 1q14 70 46 179.5 t81 269.5l-4 2q-27 -59 -70 -140.5t-104.5 -155t-141.5 -124.5t-178 -51q-109 0 -166 73.5t-57 233.5q0 139 37 273t113.5 238.5t197.5 169t287 64.5q86 0 160.5 -8t142.5 -20zM934 1178l-168 176l-228 -176l-61 71l311 267l224 -263z" />
<glyph unicode="&#xe3;" horiz-adv-x="1128" d="M842 891q-33 8 -72 14t-86 6q-123 0 -209 -55t-140 -142t-79 -193.5t-25 -207.5q0 -111 31 -156.5t84 -45.5q80 0 158 71.5t143.5 178t112.5 226.5t65 216l17 88v0zM846 123q35 -6 81 -11.5t89 -9.5l-17 -88q-35 -4 -75.5 -8t-83.5 -5t-87 -2t-83 1q14 70 46 179.5 t81 269.5l-4 2q-27 -59 -70 -140.5t-104.5 -155t-141.5 -124.5t-178 -51q-109 0 -166 73.5t-57 233.5q0 139 37 273t113.5 238.5t197.5 169t287 64.5q86 0 160.5 -8t142.5 -20zM1090 1378q-41 -72 -97.5 -110.5t-121.5 -38.5q-49 0 -82 17.5t-59.5 39t-51 39.5t-57.5 18 q-68 0 -129 -96l-78 64q41 72 95.5 110.5t119.5 38.5q49 0 82 -18.5t60.5 -40t54 -38.5t59.5 -17q66 0 127 96l78 -64v0z" />
<glyph unicode="&#xe4;" horiz-adv-x="1128" d="M842 891q-33 8 -72 14t-86 6q-123 0 -209 -55t-140 -142t-79 -193.5t-25 -207.5q0 -111 31 -156.5t84 -45.5q80 0 158 71.5t143.5 178t112.5 226.5t65 216l17 88v0zM846 123q35 -6 81 -11.5t89 -9.5l-17 -88q-35 -4 -75.5 -8t-83.5 -5t-87 -2t-83 1q14 70 46 179.5 t81 269.5l-4 2q-27 -59 -70 -140.5t-104.5 -155t-141.5 -124.5t-178 -51q-109 0 -166 73.5t-57 233.5q0 139 37 273t113.5 238.5t197.5 169t287 64.5q86 0 160.5 -8t142.5 -20zM629 1350q0 -45 -29.5 -74t-70.5 -29t-69 28t-28 66q0 43 31 72t72 29t67.5 -27.5t26.5 -64.5z M1014 1350q0 -45 -29.5 -74t-70.5 -29t-69 28t-28 66q0 43 31 72t72 29t67.5 -27.5t26.5 -64.5z" />
<glyph unicode="&#xe5;" horiz-adv-x="1128" d="M842 891q-33 8 -72 14t-86 6q-123 0 -209 -55t-140 -142t-79 -193.5t-25 -207.5q0 -111 31 -156.5t84 -45.5q80 0 158 71.5t143.5 178t112.5 226.5t65 216zM1014 1004q-43 -227 -73 -380t-50.5 -262.5t-35.5 -191.5t-32 -170h-153q14 70 46 180.5t81 268.5l-4 2 q-27 -59 -70 -140.5t-104.5 -155t-141.5 -124.5t-178 -51q-109 0 -166 73.5t-57 233.5q0 139 37 273t113.5 238.5t197.5 169t287 64.5q43 0 83 -2t70 -6q35 -4 69 -8t81 -12zM956 1391q0 -55 -19 -102.5t-55 -82.5t-86.5 -55.5t-109.5 -20.5q-86 0 -135 46.5t-49 123.5 q0 55 19.5 102.5t55 82.5t86 54.5t109.5 19.5q86 0 135 -45t49 -123zM707 1225q59 0 95 43t36 102q0 41 -21.5 67.5t-64.5 26.5q-59 0 -95 -42t-36 -101q0 -41 21.5 -68.5t64.5 -27.5z" />
<glyph unicode="&#xe6;" horiz-adv-x="1568" d="M692 461q-109 -6 -199 -19.5t-156.5 -40t-103 -68.5t-36.5 -108q0 -53 36.5 -86t94.5 -33q68 0 128 29t108 78t81 112.5t47 135.5zM1360 793q0 61 -42 94t-110 33q-66 0 -119 -27t-96 -72t-73.5 -106.5t-49.5 -130.5q109 6 199 18t154.5 34.5t100.5 61t36 95.5zM1516 811 q0 -70 -30 -128t-105.5 -103t-206 -75t-330.5 -42q-4 -25 -7 -64t-3 -71q0 -66 12 -108t39.5 -66.5t71.5 -34.5t110 -10q72 0 145.5 16t139.5 45v-127q-70 -29 -155 -45t-185 -16q-82 0 -138.5 18t-92.5 50t-55 76t-30 95q-25 -45 -65.5 -88t-93 -76.5t-116 -54 t-130.5 -20.5q-129 0 -189.5 58t-60.5 150q0 109 53 179.5t144.5 113.5t214 63.5t262.5 31.5l14 71q27 129 -10 196.5t-168 67.5q-70 0 -156 -23.5t-155 -64.5v138q78 33 165 53t173 20q76 0 128 -14t84.5 -36.5t50 -54.5t27.5 -65q27 31 64 61.5t83 55.5t99 39t113 14 q76 0 130 -18.5t90 -49t52.5 -71.5t16.5 -86z" />
<glyph unicode="&#xe7;" horiz-adv-x="849" d="M842 866q-43 20 -91.5 31.5t-107.5 11.5q-102 0 -178 -52t-126 -134t-74.5 -181.5t-24.5 -191.5q0 -43 8 -84t31.5 -73.5t67.5 -53t116 -20.5q66 0 128 14t111 37l7 -127q-55 -23 -130 -40t-155 -17q-98 0 -164.5 25.5t-107.5 69.5t-58.5 104.5t-17.5 129.5 q0 145 39 275.5t113.5 229t182 155.5t244.5 57q66 0 119 -8t103 -25zM406 -84q61 -100 32.5 -196.5t-125.5 -200.5h-139q96 102 123 179t-29 165l138 53v0z" />
<glyph unicode="&#xe8;" horiz-adv-x="960" d="M764 793q0 61 -41 93t-109 32q-66 0 -120 -27t-97 -72t-73.5 -106.5t-49.5 -130.5q258 10 374 62.5t116 148.5zM920 811q0 -158 -164 -247t-504 -103q-4 -25 -8 -64t-4 -69q0 -66 12 -108t39.5 -66.5t72 -34.5t109.5 -10q72 0 144.5 15t134.5 44l10 -123 q-152 -63 -344 -63q-168 0 -252 74.5t-84 250.5q0 143 38 275.5t108.5 232.5t173 160.5t231.5 60.5q76 0 130 -18.5t89 -49t51.5 -71.5t16.5 -86zM706 1178l-252 243l103 95l231 -263z" />
<glyph unicode="&#xe9;" horiz-adv-x="960" d="M764 793q0 61 -41 93t-109 32q-66 0 -120 -27t-97 -72t-73.5 -106.5t-49.5 -130.5q258 10 374 62.5t116 148.5zM920 811q0 -158 -164 -247t-504 -103q-4 -25 -8 -64t-4 -69q0 -66 12 -108t39.5 -66.5t72 -34.5t109.5 -10q72 0 144.5 15t134.5 44l10 -123 q-152 -63 -344 -63q-168 0 -252 74.5t-84 250.5q0 143 38 275.5t108.5 232.5t173 160.5t231.5 60.5q76 0 130 -18.5t89 -49t51.5 -71.5t16.5 -86zM620 1178l-63 84l295 254l80 -107z" />
<glyph unicode="&#xea;" horiz-adv-x="960" d="M764 793q0 61 -41 93t-109 32q-66 0 -120 -27t-97 -72t-73.5 -106.5t-49.5 -130.5q258 10 374 62.5t116 148.5zM920 811q0 -158 -164 -247t-504 -103q-4 -25 -8 -64t-4 -69q0 -66 12 -108t39.5 -66.5t72 -34.5t109.5 -10q72 0 144.5 15t134.5 44l10 -123 q-152 -63 -344 -63q-168 0 -252 74.5t-84 250.5q0 143 38 275.5t108.5 232.5t173 160.5t231.5 60.5q76 0 130 -18.5t89 -49t51.5 -71.5t16.5 -86zM846 1178l-168 176l-228 -176l-61 71l311 267l224 -263z" />
<glyph unicode="&#xeb;" horiz-adv-x="960" d="M764 793q0 61 -41 93t-109 32q-66 0 -120 -27t-97 -72t-73.5 -106.5t-49.5 -130.5q258 10 374 62.5t116 148.5zM920 811q0 -158 -164 -247t-504 -103q-4 -25 -8 -64t-4 -69q0 -66 12 -108t39.5 -66.5t72 -34.5t109.5 -10q72 0 144.5 15t134.5 44l10 -123 q-152 -63 -344 -63q-168 0 -252 74.5t-84 250.5q0 143 38 275.5t108.5 232.5t173 160.5t231.5 60.5q76 0 130 -18.5t89 -49t51.5 -71.5t16.5 -86zM596 1350q0 -45 -29.5 -74t-70.5 -29t-69 28t-28 66q0 43 31 72t72 29t67.5 -27.5t26.5 -64.5zM981 1350q0 -45 -29.5 -74 t-70.5 -29t-69 28t-28 66q0 43 31 72t72 29t67.5 -27.5t26.5 -64.5z" />
<glyph unicode="&#xec;" horiz-adv-x="563" d="M287 0h-152l172 895q-35 6 -81 11t-91 9l17 89q70 8 160.5 12t168.5 2zM430 1163l-203 285l119 78l176 -301z" />
<glyph unicode="&#xed;" horiz-adv-x="563" d="M287 0h-152l172 895q-35 6 -81 11t-91 9l17 89q70 8 160.5 12t168.5 2zM368 1163l-78 76l246 287l99 -94z" />
<glyph unicode="&#xee;" horiz-adv-x="563" d="M287 0h-152l172 895q-35 6 -81 11t-91 9l17 89q70 8 160.5 12t168.5 2zM592 1178l-144 176l-201 -176l-63 71l287 267l200 -265z" />
<glyph unicode="&#xef;" horiz-adv-x="563" d="M287 0h-152l172 895q-35 6 -81 11t-91 9l17 89q70 8 160.5 12t168.5 2zM713 1350q0 -45 -29.5 -74t-70.5 -29t-67.5 28t-26.5 66q0 43 29.5 72t70.5 29t67.5 -27.5t26.5 -64.5zM371 1350q0 -45 -29.5 -74t-70.5 -29t-67.5 28t-26.5 66q0 43 29.5 72t70.5 29t67.5 -27.5 t26.5 -64.5z" />
<glyph unicode="&#xf0;" horiz-adv-x="1089" d="M864 664q0 111 -57 178t-174 67q-94 0 -169 -46t-126 -120.5t-79 -169t-28 -188.5q0 -131 61.5 -201.5t174.5 -70.5q115 0 190.5 61.5t121.5 148.5t65.5 181t19.5 160zM870 1290q80 -127 119 -265t39 -280q0 -152 -39 -290t-113.5 -243.5t-182 -167.5t-244.5 -62 q-178 0 -276.5 90t-98.5 276q0 131 40 255t113.5 220.5t180 153.5t239.5 57q76 0 137.5 -24.5t85.5 -79.5q-10 35 -22 65.5t-19 46.5q-25 55 -49 101.5t-53 87.5l-235 -98l-50 92l217 90q-29 35 -61.5 67.5t-71.5 67.5l152 70q72 -70 131 -144l231 97l50 -93z" />
<glyph unicode="&#xf1;" horiz-adv-x="1204" d="M928 0h-150l125 655q25 131 1.5 191.5t-101.5 60.5q-53 0 -105.5 -32.5t-100.5 -88t-92 -127t-80 -148.5t-61.5 -153.5t-37.5 -140.5l-39 -217h-152l172 895q-35 6 -81 11t-91 9l17 89q70 10 160.5 14t168.5 0q-10 -53 -36.5 -153.5t-86.5 -280.5l4 -2q37 86 86.5 167.5 t111 146.5t134 103.5t156.5 38.5q139 0 190.5 -92t20.5 -256zM1092 1378q-41 -72 -97.5 -110.5t-121.5 -38.5q-49 0 -82 17.5t-59.5 39t-51 39.5t-57.5 18q-68 0 -129 -96l-78 64q41 72 95.5 110.5t119.5 38.5q49 0 82 -18.5t60.5 -40t54 -38.5t59.5 -17q66 0 127 96l78 -64 v0z" />
<glyph unicode="&#xf2;" horiz-adv-x="1087" d="M870 655q0 123 -56 187.5t-175 64.5q-90 0 -164 -45t-127 -119.5t-81.5 -171t-28.5 -200.5q0 -127 54 -192.5t179 -65.5q78 0 150.5 38.5t128 110.5t88 172t32.5 221zM1032 670q0 -158 -49 -285t-131 -217t-188.5 -138t-219.5 -48q-186 0 -275 92t-89 268q0 150 44 276.5 t122 220t184.5 145.5t231.5 52q193 0 281.5 -102t88.5 -264zM747 1178l-252 243l103 95l231 -263z" />
<glyph unicode="&#xf3;" horiz-adv-x="1087" d="M870 655q0 123 -56 187.5t-175 64.5q-90 0 -164 -45t-127 -119.5t-81.5 -171t-28.5 -200.5q0 -127 54 -192.5t179 -65.5q78 0 150.5 38.5t128 110.5t88 172t32.5 221zM1032 670q0 -158 -49 -285t-131 -217t-188.5 -138t-219.5 -48q-186 0 -275 92t-89 268q0 150 44 276.5 t122 220t184.5 145.5t231.5 52q193 0 281.5 -102t88.5 -264zM663 1178l-63 84l295 254l80 -107z" />
<glyph unicode="&#xf4;" horiz-adv-x="1087" d="M870 655q0 123 -56 187.5t-175 64.5q-90 0 -164 -45t-127 -119.5t-81.5 -171t-28.5 -200.5q0 -127 54 -192.5t179 -65.5q78 0 150.5 38.5t128 110.5t88 172t32.5 221zM1032 670q0 -158 -49 -285t-131 -217t-188.5 -138t-219.5 -48q-186 0 -275 92t-89 268q0 150 44 276.5 t122 220t184.5 145.5t231.5 52q193 0 281.5 -102t88.5 -264zM903 1178l-168 176l-228 -176l-61 71l311 267l224 -263z" />
<glyph unicode="&#xf5;" horiz-adv-x="1087" d="M870 655q0 123 -56 187.5t-175 64.5q-90 0 -164 -45t-127 -119.5t-81.5 -171t-28.5 -200.5q0 -127 54 -192.5t179 -65.5q78 0 150.5 38.5t128 110.5t88 172t32.5 221zM1032 670q0 -158 -49 -285t-131 -217t-188.5 -138t-219.5 -48q-186 0 -275 92t-89 268q0 150 44 276.5 t122 220t184.5 145.5t231.5 52q193 0 281.5 -102t88.5 -264zM1047 1378q-41 -72 -97.5 -110.5t-121.5 -38.5q-49 0 -82 17.5t-59.5 39t-51 39.5t-57.5 18q-68 0 -129 -96l-78 64q41 72 95.5 110.5t119.5 38.5q49 0 82 -18.5t60.5 -40t54 -38.5t59.5 -17q66 0 127 96l78 -64 v0z" />
<glyph unicode="&#xf6;" horiz-adv-x="1087" d="M870 655q0 123 -56 187.5t-175 64.5q-90 0 -164 -45t-127 -119.5t-81.5 -171t-28.5 -200.5q0 -127 54 -192.5t179 -65.5q78 0 150.5 38.5t128 110.5t88 172t32.5 221zM1032 670q0 -158 -49 -285t-131 -217t-188.5 -138t-219.5 -48q-186 0 -275 92t-89 268q0 150 44 276.5 t122 220t184.5 145.5t231.5 52q193 0 281.5 -102t88.5 -264zM625 1350q0 -45 -29.5 -74t-70.5 -29t-69 28t-28 66q0 43 31 72t72 29t67.5 -27.5t26.5 -64.5zM1010 1350q0 -45 -29.5 -74t-70.5 -29t-69 28t-28 66q0 43 31 72t72 29t67.5 -27.5t26.5 -64.5z" />
<glyph unicode="&#xf7;" d="M606 197q0 -47 -31.5 -79t-76.5 -32q-47 0 -77 32t-30 77q0 47 31 78.5t78 31.5q45 0 75.5 -31.5t30.5 -76.5zM1044 545h-948l25 129h950zM766 1024q0 -47 -30.5 -79t-78.5 -32q-47 0 -76.5 31t-29.5 76q0 47 31.5 78.5t76.5 31.5q47 0 77 -31.5t30 -74.5z" />
<glyph unicode="&#xf8;" horiz-adv-x="1087" d="M698 907q-18 6 -71 6q-88 -2 -160 -47t-124 -116.5t-83 -171t-31 -205.5q0 -125 58 -195l411 729v0zM879 655q0 147 -84 209l-418 -743q47 -16 104 -15q78 2 149.5 44.5t126 115t88.5 171.5t34 218zM1032 670q0 -158 -49 -285t-131 -217t-188.5 -138t-219.5 -48 q-76 0 -133 18l-118 -209l-97 51l113 201q-129 88 -129 299q0 147 42 272t118.5 220.5t184 148.5t237.5 53q55 0 104 -12l113 203l96 -49l-107 -189q86 -47 125 -127.5t39 -191.5z" />
<glyph unicode="&#xf9;" horiz-adv-x="1234" d="M950 123q35 -6 82 -11.5t90 -9.5l-18 -88q-70 -10 -159 -14t-167 0q10 53 36 153.5t85 280.5l-4 2q-37 -86 -87 -168t-111.5 -146.5t-134.5 -103t-154 -38.5q-139 0 -190.5 92t-18.5 256l108 567q-35 6 -81 11t-91 9l17 89q70 8 162 12t165 2l-125 -656q-25 -131 0 -191 t101 -60q51 0 104 32.5t101.5 88t92.5 127t79.5 148.5t61.5 152.5t38 141.5l41 217h149zM768 1178l-252 243l103 95l231 -263z" />
<glyph unicode="&#xfa;" horiz-adv-x="1234" d="M950 123q35 -6 82 -11.5t90 -9.5l-18 -88q-70 -10 -159 -14t-167 0q10 53 36 153.5t85 280.5l-4 2q-37 -86 -87 -168t-111.5 -146.5t-134.5 -103t-154 -38.5q-139 0 -190.5 92t-18.5 256l108 567q-35 6 -81 11t-91 9l17 89q70 8 162 12t165 2l-125 -656q-25 -131 0 -191 t101 -60q51 0 104 32.5t101.5 88t92.5 127t79.5 148.5t61.5 152.5t38 141.5l41 217h149zM727 1178l-63 84l295 254l80 -107z" />
<glyph unicode="&#xfb;" horiz-adv-x="1234" d="M950 123q35 -6 82 -11.5t90 -9.5l-18 -88q-70 -10 -159 -14t-167 0q10 53 36 153.5t85 280.5l-4 2q-37 -86 -87 -168t-111.5 -146.5t-134.5 -103t-154 -38.5q-139 0 -190.5 92t-18.5 256l108 567q-35 6 -81 11t-91 9l17 89q70 8 162 12t165 2l-125 -656q-25 -131 0 -191 t101 -60q51 0 104 32.5t101.5 88t92.5 127t79.5 148.5t61.5 152.5t38 141.5l41 217h149zM930 1178l-168 176l-228 -176l-61 71l311 267l224 -263z" />
<glyph unicode="&#xfc;" horiz-adv-x="1234" d="M950 123q35 -6 82 -11.5t90 -9.5l-18 -88q-70 -10 -159 -14t-167 0q10 53 36 153.5t85 280.5l-4 2q-37 -86 -87 -168t-111.5 -146.5t-134.5 -103t-154 -38.5q-139 0 -190.5 92t-18.5 256l108 567q-35 6 -81 11t-91 9l17 89q70 8 162 12t165 2l-125 -656q-25 -131 0 -191 t101 -60q51 0 104 32.5t101.5 88t92.5 127t79.5 148.5t61.5 152.5t38 141.5l41 217h149zM664 1350q0 -45 -29.5 -74t-70.5 -29t-69 28t-28 66q0 43 31 72t72 29t67.5 -27.5t26.5 -64.5zM1049 1350q0 -45 -29.5 -74t-70.5 -29t-69 28t-28 66q0 43 31 72t72 29t67.5 -27.5 t26.5 -64.5z" />
<glyph unicode="&#xfd;" horiz-adv-x="946" d="M1001 1014q-98 -229 -195 -433t-195.5 -378t-196 -312.5t-195.5 -234.5q-90 -88 -179 -134t-177 -46q-39 0 -75 3t-64 11l26 141q29 -10 61.5 -15t67.5 -5q55 0 118.5 35t119.5 96q66 72 95.5 151.5t29.5 198.5q0 197 -39 437.5t-107 488.5h170q27 -104 49.5 -217 t38 -221.5t24.5 -208t9 -181.5q0 -31 -5 -68.5t-13 -72.5h4q63 111 123.5 224.5t120 236.5t119 258t124.5 291zM557 1178l-63 84l295 254l80 -107z" />
<glyph unicode="&#xfe;" horiz-adv-x="1116" d="M891 705q0 111 -32 156.5t-83 45.5q-53 0 -105.5 -33.5t-101.5 -89t-93 -127t-79 -148.5t-60.5 -151.5t-37.5 -138.5l-18 -84q35 -12 80 -19t79 -7q121 0 207 55t140.5 142t79 193t24.5 206zM1047 731q0 -139 -37 -272t-114 -237.5t-197.5 -169t-286.5 -64.5q-45 0 -82 3 t-76 9l-96 -510h-150l361 1882q-35 6 -82 11.5t-90 9.5l16 88q70 8 161 12t169 2l-86 -436q-8 -43 -17.5 -88t-24 -100.5t-35 -127t-50.5 -165.5l4 -3q39 94 90 179.5t112.5 148t133 99t153.5 36.5q109 0 166.5 -73.5t57.5 -233.5z" />
<glyph unicode="&#xff;" horiz-adv-x="946" d="M1001 1014q-98 -229 -195 -433t-195.5 -378t-196 -312.5t-195.5 -234.5q-90 -88 -179 -134t-177 -46q-39 0 -75 3t-64 11l26 141q29 -10 61.5 -15t67.5 -5q55 0 118.5 35t119.5 96q66 72 95.5 151.5t29.5 198.5q0 197 -39 437.5t-107 488.5h170q27 -104 49.5 -217 t38 -221.5t24.5 -208t9 -181.5q0 -31 -5 -68.5t-13 -72.5h4q63 111 123.5 224.5t120 236.5t119 258t124.5 291zM516 1350q0 -45 -29.5 -74t-70.5 -29t-69 28t-28 66q0 43 31 72t72 29t67.5 -27.5t26.5 -64.5zM901 1350q0 -45 -29.5 -74t-70.5 -29t-69 28t-28 66q0 43 31 72 t72 29t67.5 -27.5t26.5 -64.5z" />
<glyph unicode="&#x100;" horiz-adv-x="1226" d="M774 1024q-8 47 -14 93t-10 95h-2q-23 -47 -46.5 -94t-46.5 -90l-307 -563h520zM940 0l-53 340h-604l-185 -340h-168l766 1382h170l240 -1382h-166zM1061 1538h-541l21 109h540z" />
<glyph unicode="&#x101;" horiz-adv-x="1128" d="M842 891q-33 8 -72 14t-86 6q-123 0 -209 -55t-140 -142t-79 -193.5t-25 -207.5q0 -111 31 -156.5t84 -45.5q80 0 158 71.5t143.5 178t112.5 226.5t65 216l17 88v0zM846 123q35 -6 81 -11.5t89 -9.5l-17 -88q-35 -4 -75.5 -8t-83.5 -5t-87 -2t-83 1q14 70 46 179.5 t81 269.5l-4 2q-27 -59 -70 -140.5t-104.5 -155t-141.5 -124.5t-178 -51q-109 0 -166 73.5t-57 233.5q0 139 37 273t113.5 238.5t197.5 169t287 64.5q86 0 160.5 -8t142.5 -20zM959 1276h-492l21 117h491z" />
<glyph unicode="&#x102;" horiz-adv-x="1226" d="M774 1024q-8 47 -14 93t-10 95h-2q-23 -47 -46.5 -94t-46.5 -90l-307 -563h520zM940 0l-53 340h-604l-185 -340h-168l766 1382h170l240 -1382h-166zM1083 1739q-8 -47 -31.5 -90t-61.5 -76t-90 -52.5t-118 -19.5t-107.5 19.5t-66.5 52.5t-31 76t4 90h99q-10 -53 19.5 -91 t101.5 -38q70 0 114.5 33.5t57.5 95.5h110v0z" />
<glyph unicode="&#x103;" horiz-adv-x="1128" d="M842 891q-33 8 -72 14t-86 6q-123 0 -209 -55t-140 -142t-79 -193.5t-25 -207.5q0 -111 31 -156.5t84 -45.5q80 0 158 71.5t143.5 178t112.5 226.5t65 216l17 88v0zM846 123q35 -6 81 -11.5t89 -9.5l-17 -88q-35 -4 -75.5 -8t-83.5 -5t-87 -2t-83 1q14 70 46 179.5 t81 269.5l-4 2q-27 -59 -70 -140.5t-104.5 -155t-141.5 -124.5t-178 -51q-109 0 -166 73.5t-57 233.5q0 139 37 273t113.5 238.5t197.5 169t287 64.5q86 0 160.5 -8t142.5 -20zM997 1470q-8 -51 -30.5 -98t-58.5 -83t-86 -57.5t-114 -21.5q-63 0 -105 21.5t-64.5 57.5 t-29 83t4.5 98h102q-10 -57 17.5 -99t93.5 -42q61 0 103 37t54 104h113v0z" />
<glyph unicode="&#x104;" horiz-adv-x="1226" d="M887 340h-604l-185 -340h-168l766 1382h170l240 -1382q-109 -61 -159 -129t-50 -115q0 -23 13.5 -38t43.5 -15q27 0 54.5 14.5t52.5 44.5l67 -67q-43 -57 -103 -88t-126 -31q-80 0 -120 39t-40 100q0 37 15.5 77t43 78t64.5 71.5t78 58.5zM774 1024q-8 47 -14 96t-10 92 h-2q-20 -41 -43 -87t-50 -97l-307 -563h520z" />
<glyph unicode="&#x105;" horiz-adv-x="1128" d="M903 4q-63 -8 -115.5 -35.5t-89 -64.5t-57 -77t-20.5 -71q0 -23 13 -38t44 -15q57 0 108 59l66 -67q-43 -57 -102.5 -88t-126.5 -31q-80 0 -120 39t-40 100q0 66 51 144t158 147q14 70 46 179.5t79 263.5l-4 2q-27 -59 -70 -140.5t-104.5 -155t-141.5 -124.5t-178 -51 q-109 0 -166 73.5t-57 233.5q0 139 37 273t113.5 238.5t197.5 169t287 64.5q86 0 160.5 -8t142.5 -20q-37 -193 -62.5 -328t-45 -235.5t-34 -174t-26.5 -143.5q35 -6 81 -11.5t89 -9.5l-17 -88q-23 -2 -47 -4t-49 -6zM346 111q80 0 158 71.5t143.5 178t112.5 226.5t65 216 l17 88q-33 8 -72 14t-86 6q-123 0 -209 -55t-140 -142t-79 -193.5t-25 -207.5q0 -111 31 -156.5t84 -45.5z" />
<glyph unicode="&#x106;" horiz-adv-x="1183" d="M1171 1212q-147 51 -297 52q-158 0 -269 -70t-183 -180.5t-105.5 -250.5t-33.5 -282q0 -78 17 -144.5t59 -113.5t113 -73.5t177 -26.5q88 0 173 19.5t157 52.5l10 -136q-86 -35 -186.5 -54t-198.5 -19q-145 0 -239.5 38.5t-150.5 103.5t-78.5 149.5t-22.5 179.5 q0 184 50 354t150.5 300t247 208t340.5 78q90 0 167 -11.5t146 -31.5zM795 1493l-27 90l371 152l35 -125z" />
<glyph unicode="&#x107;" horiz-adv-x="849" d="M842 866q-43 20 -91.5 31.5t-107.5 11.5q-102 0 -178 -52t-126 -134t-74.5 -181.5t-24.5 -191.5q0 -43 8 -84t31.5 -73.5t67.5 -53t116 -20.5q66 0 128 14t111 37l7 -127q-55 -23 -130 -40t-155 -17q-98 0 -164.5 25.5t-107.5 69.5t-58.5 104.5t-17.5 129.5 q0 145 39 275.5t113.5 229t182 155.5t244.5 57q66 0 119 -8t103 -25zM608 1178l-63 84l295 254l80 -107z" />
<glyph unicode="&#x10c;" horiz-adv-x="1183" d="M1171 1212q-147 51 -297 52q-158 0 -269 -70t-183 -180.5t-105.5 -250.5t-33.5 -282q0 -78 17 -144.5t59 -113.5t113 -73.5t177 -26.5q88 0 173 19.5t157 52.5l10 -136q-86 -35 -186.5 -54t-198.5 -19q-145 0 -239.5 38.5t-150.5 103.5t-78.5 149.5t-22.5 179.5 q0 184 50 354t150.5 300t247 208t340.5 78q90 0 167 -11.5t146 -31.5zM891 1489l-289 168l55 92l246 -131l287 131l39 -88z" />
<glyph unicode="&#x10d;" horiz-adv-x="849" d="M842 866q-43 20 -91.5 31.5t-107.5 11.5q-102 0 -178 -52t-126 -134t-74.5 -181.5t-24.5 -191.5q0 -43 8 -84t31.5 -73.5t67.5 -53t116 -20.5q66 0 128 14t111 37l7 -127q-55 -23 -130 -40t-155 -17q-98 0 -164.5 25.5t-107.5 69.5t-58.5 104.5t-17.5 129.5 q0 145 39 275.5t113.5 229t182 155.5t244.5 57q66 0 119 -8t103 -25zM649 1178l-223 262l80 76l168 -177l225 177l64 -74z" />
<glyph unicode="&#x10e;" horiz-adv-x="1370" d="M1167 868q0 84 -21.5 157t-74.5 125t-141 82t-219 30q-61 0 -125 -2.5t-105 -4.5l-213 -1118q41 -6 93.5 -10t87.5 -4q193 0 328.5 66.5t222.5 173t127 239.5t40 266zM1331 887q0 -170 -54 -331t-165 -286t-282 -200.5t-404 -75.5q-111 0 -188.5 3t-147.5 3l262 1382 q78 0 181.5 3.5t201.5 3.5q166 0 279.5 -38t184.5 -104.5t101.5 -158.5t30.5 -201zM803 1489l-289 168l55 92l246 -131l287 131l39 -88z" />
<glyph unicode="&#x10f;" horiz-adv-x="1144" d="M842 891q-33 8 -72 14t-86 6q-123 0 -209 -55t-140 -142t-79 -193.5t-25 -207.5q0 -111 31 -156.5t84 -45.5q80 0 158 71.5t143.5 178t112.5 226.5t65 216l17 88v0zM846 123q35 -6 81 -11.5t89 -9.5l-17 -88q-70 -10 -159.5 -14t-167.5 0q12 70 44 180.5t81 268.5l-4 2 q-27 -59 -70 -140.5t-104.5 -155t-141.5 -124.5t-178 -51q-109 0 -166 73.5t-57 233.5q0 139 37 273t113.5 238.5t197.5 169t287 64.5q41 0 77.5 -3t77.5 -9l68 352q-35 6 -81 11.5t-91 9.5l18 88q68 10 159 14t169 0zM1442 1509l-160 -344l-102 33l135 350z" />
<glyph unicode="&#x110;" horiz-adv-x="1386" d="M1182 868q0 84 -22.5 157t-75 125t-140.5 82t-219 30q-63 0 -125.5 -2.5t-103.5 -4.5l-93 -483h308l-23 -119h-307l-98 -516q41 -6 93 -10t87 -4q193 0 329 65.5t223 173t127 240.5t40 266zM1348 887q0 -176 -55.5 -334t-167 -284t-281.5 -200.5t-404 -74.5 q-111 0 -188.5 3t-147.5 3l123 653h-192l22 119h193l117 610q78 0 180 3.5t201 3.5q166 0 279.5 -38t184 -104.5t103.5 -158.5t33 -201z" />
<glyph unicode="&#x111;" horiz-adv-x="1146" d="M846 123q35 -6 81 -11.5t89 -9.5l-17 -88q-70 -10 -159.5 -14t-167.5 0q12 70 44 180.5t81 268.5l-4 2q-27 -59 -70 -140.5t-104.5 -155t-141.5 -124.5t-178 -51q-109 0 -166 73.5t-57 233.5q0 139 37 273t113.5 238.5t197.5 169t287 64.5q41 0 78.5 -4t76.5 -8l25 125 h-277l21 110h276l27 136q-35 6 -83 11t-89 9l14 80q70 10 161 15t169 1l-49 -252h147l-20 -110h-148zM842 891q-33 8 -72 14t-86 6q-123 0 -209 -55t-140 -142t-79 -193.5t-25 -207.5q0 -111 31 -156.5t84 -45.5q80 0 158 71.5t143.5 178t112.5 226.5t65 216z" />
<glyph unicode="&#x112;" horiz-adv-x="1032" d="M1008 1255h-527l-92 -479h504l-25 -127h-501l-99 -518h527l-25 -131h-526h-154l262 1382h154h526zM983 1538h-541l21 109h540z" />
<glyph unicode="&#x113;" horiz-adv-x="960" d="M764 793q0 61 -41 93t-109 32q-66 0 -120 -27t-97 -72t-73.5 -106.5t-49.5 -130.5q258 10 374 62.5t116 148.5zM920 811q0 -158 -164 -247t-504 -103q-4 -25 -8 -64t-4 -69q0 -66 12 -108t39.5 -66.5t72 -34.5t109.5 -10q72 0 144.5 15t134.5 44l10 -123 q-152 -63 -344 -63q-168 0 -252 74.5t-84 250.5q0 143 38 275.5t108.5 232.5t173 160.5t231.5 60.5q76 0 130 -18.5t89 -49t51.5 -71.5t16.5 -86zM904 1276h-492l21 117h491z" />
<glyph unicode="&#x116;" horiz-adv-x="1032" d="M1008 1255h-527l-92 -479h504l-25 -127h-501l-99 -518h527l-25 -131h-526h-154l262 1382h154h526zM821 1604q0 -47 -31 -77t-71 -30q-41 0 -68 27.5t-27 66.5q0 45 31 75t72 30t67.5 -27.5t26.5 -64.5z" />
<glyph unicode="&#x117;" horiz-adv-x="960" d="M764 793q0 61 -41 93t-109 32q-66 0 -120 -27t-97 -72t-73.5 -106.5t-49.5 -130.5q258 10 374 62.5t116 148.5zM920 811q0 -158 -164 -247t-504 -103q-4 -25 -8 -64t-4 -69q0 -66 12 -108t39.5 -66.5t72 -34.5t109.5 -10q72 0 144.5 15t134.5 44l10 -123 q-152 -63 -344 -63q-168 0 -252 74.5t-84 250.5q0 143 38 275.5t108.5 232.5t173 160.5t231.5 60.5q76 0 130 -18.5t89 -49t51.5 -71.5t16.5 -86zM776 1352q0 -47 -31.5 -79t-76.5 -32q-43 0 -72 28.5t-29 69.5q0 47 33 79t76 32q45 0 72.5 -28.5t27.5 -69.5z" />
<glyph unicode="&#x118;" horiz-adv-x="1032" d="M793 -305q-43 -57 -103.5 -88t-126.5 -31q-80 0 -120 39t-40 100q0 70 53.5 150t147.5 135h-360h-154l262 1382h154h526l-24 -127h-527l-92 -479h504l-25 -127h-501l-99 -518h527l-25 -129q-113 -66 -161 -133.5t-48 -112.5q0 -23 13.5 -38t43.5 -15q27 0 54.5 14.5 t52.5 44.5l68 -67v0z" />
<glyph unicode="&#x119;" horiz-adv-x="960" d="M920 811q0 -152 -160 -243t-508 -107q-4 -25 -8 -64t-4 -69q0 -66 12 -108t39.5 -66.5t72 -34.5t109.5 -10q72 0 144.5 15t134.5 44l10 -123q-76 -27 -133.5 -64.5t-95 -78.5t-57 -80t-19.5 -66q0 -23 13 -38t44 -15q27 0 54.5 14.5t52.5 44.5l67 -67q-43 -57 -103.5 -88 t-125.5 -31q-80 0 -120 39t-40 100q0 66 47 140.5t131 130.5q-16 -2 -33 -2h-34q-162 0 -245 73.5t-83 249.5q0 143 38 275.5t108.5 232.5t173 160.5t231.5 60.5q76 0 130 -18.5t89 -49t51.5 -71.5t16.5 -86zM764 793q0 61 -41 93t-109 32q-66 0 -120 -27t-97 -72 t-73.5 -106.5t-49.5 -130.5q258 10 374 62.5t116 148.5z" />
<glyph unicode="&#x11a;" horiz-adv-x="1032" d="M1008 1255h-527l-92 -479h504l-25 -127h-501l-99 -518h527l-25 -131h-526h-154l262 1382h154h526zM705 1489l-289 168l55 92l246 -131l287 131l39 -88z" />
<glyph unicode="&#x11b;" horiz-adv-x="960" d="M764 793q0 61 -41 93t-109 32q-66 0 -120 -27t-97 -72t-73.5 -106.5t-49.5 -130.5q258 10 374 62.5t116 148.5zM920 811q0 -158 -164 -247t-504 -103q-4 -25 -8 -64t-4 -69q0 -66 12 -108t39.5 -66.5t72 -34.5t109.5 -10q72 0 144.5 15t134.5 44l10 -123 q-152 -63 -344 -63q-168 0 -252 74.5t-84 250.5q0 143 38 275.5t108.5 232.5t173 160.5t231.5 60.5q76 0 130 -18.5t89 -49t51.5 -71.5t16.5 -86zM649 1178l-223 262l80 76l168 -177l225 177l64 -74z" />
<glyph unicode="&#x11e;" horiz-adv-x="1374" d="M1294 1192q-82 37 -171 56.5t-171 19.5q-147 0 -271 -58.5t-215 -159t-141.5 -236.5t-50.5 -290q0 -74 22.5 -147.5t73 -131t130.5 -93t196 -35.5q86 0 155 12t134 33l102 534h154l-123 -639q-111 -39 -228.5 -57t-219.5 -18q-141 0 -247 38.5t-174.5 109.5t-103 168 t-34.5 212q0 197 67.5 360.5t184 281.5t273.5 183.5t335 65.5q205 0 370 -58zM1251 1739q-8 -47 -31.5 -90t-61.5 -76t-90 -52.5t-118 -19.5t-107.5 19.5t-66.5 52.5t-31 76t4 90h99q-10 -53 19.5 -91t101.5 -38q70 0 114.5 33.5t57.5 95.5h110v0z" />
<glyph unicode="&#x11f;" horiz-adv-x="1097" d="M842 891q-33 8 -72 14t-86 6q-123 0 -209 -55t-140 -142t-79 -193.5t-25 -207.5q0 -111 31 -156.5t84 -45.5q80 0 158 71.5t143.5 178t112.5 226.5t65 216zM819 -10q-18 -100 -30.5 -149.5t-46 -118t-101.5 -126t-170 -90t-246 -32.5q-84 0 -148.5 10t-117.5 27l35 153 q59 -27 129 -41t141 -14q82 0 147.5 17.5t114.5 56t84 103t64 220.5q10 47 16 76t20.5 83t34 118.5t48.5 154.5l-5 2q-25 -55 -66.5 -134t-103 -151.5t-141.5 -123.5t-178 -51q-109 0 -166 73.5t-57 233.5q0 139 37 273t113.5 238.5t197.5 169t287 64.5q41 0 78.5 -2 t76.5 -6q29 -4 72 -9t76 -11zM967 1470q-8 -51 -30.5 -98t-58.5 -83t-86 -57.5t-114 -21.5q-63 0 -105 21.5t-64.5 57.5t-29 83t4.5 98h102q-10 -57 17.5 -99t93.5 -42q61 0 103 37t54 104h113v0z" />
<glyph unicode="&#x122;" horiz-adv-x="1374" d="M1294 1192q-82 37 -171 56.5t-171 19.5q-147 0 -271 -58.5t-215 -159t-141.5 -236.5t-50.5 -290q0 -74 22.5 -147.5t73 -131t130.5 -93t196 -35.5q86 0 155 12t134 33l102 534h154l-123 -639q-111 -39 -228.5 -57t-219.5 -18q-141 0 -247 38.5t-174.5 109.5t-103 168 t-34.5 212q0 197 67.5 360.5t184 281.5t273.5 183.5t335 65.5q205 0 370 -58zM627 -102q43 0 70.5 -36t18.5 -92.5t-64.5 -125t-178.5 -133.5l-41 63q86 59 110 110.5t5 92.5q-20 45 4.5 83t75.5 38z" />
<glyph unicode="&#x123;" horiz-adv-x="1097" d="M842 891q-33 8 -72 14t-86 6q-123 0 -209 -55t-140 -142t-79 -193.5t-25 -207.5q0 -111 31 -156.5t84 -45.5q80 0 158 71.5t143.5 178t112.5 226.5t65 216zM819 -10q-18 -100 -30.5 -149.5t-46 -118t-101.5 -126t-170 -90t-246 -32.5q-84 0 -148.5 10t-117.5 27l35 153 q59 -27 129 -41t141 -14q82 0 147.5 17.5t114.5 56t84 103t64 220.5q10 47 16 76t20.5 83t34 118.5t48.5 154.5l-5 2q-25 -55 -66.5 -134t-103 -151.5t-141.5 -123.5t-178 -51q-109 0 -166 73.5t-57 233.5q0 139 37 273t113.5 238.5t197.5 169t287 64.5q41 0 78.5 -2 t76.5 -6q29 -4 72 -9t76 -11zM872 1485q-86 -57 -109.5 -108.5t-2.5 -92.5q18 -45 -5.5 -84t-76.5 -39q-43 0 -69.5 36t-17.5 92.5t63.5 125t176.5 133.5l41 -63v0z" />
<glyph unicode="&#x12a;" horiz-adv-x="520" d="M244 0h-154l262 1382h154zM723 1538h-541l21 109h540z" />
<glyph unicode="&#x12b;" horiz-adv-x="563" d="M287 0h-152l172 895q-35 6 -81 11t-91 9l17 89q70 8 160.5 12t168.5 2zM190 1276l23 117h460l-22 -117h-461z" />
<glyph unicode="&#x12e;" horiz-adv-x="520" d="M244 0q-111 -63 -158 -131t-47 -113q0 -23 13.5 -38t43.5 -15q27 0 54.5 14.5t52.5 44.5l67 -67q-43 -57 -103.5 -88t-125.5 -31q-80 0 -120 39t-40 100q0 45 19.5 88t50.5 81t67.5 69t71.5 51l262 1378h154z" />
<glyph unicode="&#x12f;" horiz-adv-x="563" d="M311 -303q-92 -121 -229 -121q-78 0 -118 38t-40 101q0 70 53.5 151t157.5 140l172 889q-35 6 -81 11t-91 9l17 89q70 8 160.5 12t168.5 2l-194 -1018q-113 -66 -159 -132.5t-46 -111.5q0 -23 13.5 -38t43.5 -15q23 0 53.5 14.5t55.5 42.5l63 -63v0zM565 1356 q0 -51 -33.5 -83t-78.5 -32q-43 0 -70 28.5t-27 63.5q0 53 34 85t77 32t70.5 -28.5t27.5 -65.5z" />
<glyph unicode="&#x130;" horiz-adv-x="520" d="M244 0h-154l262 1382h154zM563 1604q0 -47 -31 -77t-71 -30q-41 0 -68 27.5t-27 66.5q0 45 31 75t72 30t67.5 -27.5t26.5 -64.5z" />
<glyph unicode="&#x131;" horiz-adv-x="563" d="M287 0h-152l172 895q-35 6 -81 11t-91 9l17 89q70 8 160.5 12t168.5 2z" />
<glyph unicode="&#x136;" horiz-adv-x="1163" d="M539 698l430 -698h-197l-397 694l-131 -694h-154l262 1382h154l-127 -661l641 661h203zM475 -102q43 0 70.5 -36t18.5 -92.5t-64.5 -125t-178.5 -133.5l-41 63q86 59 110 110.5t5 92.5q-20 45 4.5 83t75.5 38z" />
<glyph unicode="&#x137;" horiz-adv-x="966" d="M518 559l320 -559h-187l-291 549l-104 -549h-152l263 1372q-35 6 -82 11.5t-90 9.5l16 88q70 10 161 14t169 0l-174 -917l489 487l107 -92zM438 -102q43 0 70.5 -36t18.5 -92.5t-64.5 -125t-178.5 -133.5l-41 63q86 59 110 110.5t5 92.5q-20 45 4.5 83t75.5 38z" />
<glyph unicode="&#x139;" horiz-adv-x="854" d="M745 0h-655l262 1382h154l-238 -1249h504zM479 1493l-27 90l371 152l35 -125z" />
<glyph unicode="&#x13a;" horiz-adv-x="532" d="M256 0h-152l263 1372q-35 6 -82 11.5t-90 9.5l16 88q70 10 161 14t169 0zM443 1606l-27 90l371 152l35 -125z" />
<glyph unicode="&#x13b;" horiz-adv-x="854" d="M745 0h-655l262 1382h154l-238 -1249h504zM401 -102q43 0 70.5 -36t18.5 -92.5t-64.5 -125t-178.5 -133.5l-41 63q86 59 110 110.5t5 92.5q-20 45 4.5 83t75.5 38z" />
<glyph unicode="&#x13c;" horiz-adv-x="532" d="M256 0h-152l263 1372q-35 6 -82 11.5t-90 9.5l16 88q70 10 161 14t169 0zM156 -102q43 0 70.5 -36t18.5 -92.5t-64.5 -125t-178.5 -133.5l-41 63q86 59 110 110.5t5 92.5q-20 45 4.5 83t75.5 38z" />
<glyph unicode="&#x13d;" horiz-adv-x="858" d="M745 0h-655l262 1382h154l-238 -1249h504zM997 1542l-250 -285l-84 60l226 299z" />
<glyph unicode="&#x13e;" horiz-adv-x="567" d="M256 0h-152l263 1372q-35 6 -82 11.5t-90 9.5l16 88q70 10 161 14t169 0zM858 1509l-160 -344l-102 33l135 350z" />
<glyph unicode="&#x141;" horiz-adv-x="870" d="M760 0h-656l140 727l-162 -59l-33 116l221 82l97 516h153l-86 -452l236 86l30 -119l-292 -106l-123 -658h501z" />
<glyph unicode="&#x142;" horiz-adv-x="581" d="M442 858l-161 -858h-150l145 774l-147 -80l-23 109l195 102l90 467q-35 6 -81 11.5t-89 9.5l15 88q70 10 160.5 14t166.5 0l-96 -504l164 86l20 -108z" />
<glyph unicode="&#x143;" horiz-adv-x="1380" d="M1114 0h-153h-27l-375 907q-31 76 -57.5 149.5t-46.5 141.5q-18 -131 -44 -278.5t-51 -284.5l-118 -635h-152l262 1382h154h29l372 -897q29 -74 55.5 -147.5t51.5 -144.5q18 117 42.5 256t47.5 272l121 661h153zM797 1493l-27 90l371 152l35 -125z" />
<glyph unicode="&#x144;" horiz-adv-x="1204" d="M928 0h-150l125 655q25 131 1.5 191.5t-101.5 60.5q-53 0 -105.5 -32.5t-100.5 -88t-92 -127t-80 -148.5t-61.5 -153.5t-37.5 -140.5l-39 -217h-152l172 895q-35 6 -81 11t-91 9l17 89q70 10 160.5 14t168.5 0q-10 -53 -36.5 -153.5t-86.5 -280.5l4 -2q37 86 86.5 167.5 t111 146.5t134 103.5t156.5 38.5q139 0 190.5 -92t20.5 -256zM649 1178l-63 84l295 254l80 -107z" />
<glyph unicode="&#x145;" horiz-adv-x="1380" d="M1114 0h-153h-27l-375 907q-31 76 -57.5 149.5t-46.5 141.5q-18 -131 -44 -278.5t-51 -284.5l-118 -635h-152l262 1382h154h29l372 -897q29 -74 55.5 -147.5t51.5 -144.5q18 117 42.5 256t47.5 272l121 661h153zM590 -102q43 0 70.5 -36t18.5 -92.5t-64.5 -125 t-178.5 -133.5l-41 63q86 59 110 110.5t5 92.5q-20 45 4.5 83t75.5 38z" />
<glyph unicode="&#x146;" horiz-adv-x="1204" d="M928 0h-150l125 655q25 131 1.5 191.5t-101.5 60.5q-53 0 -105.5 -32.5t-100.5 -88t-92 -127t-80 -148.5t-61.5 -153.5t-37.5 -140.5l-39 -217h-152l172 895q-35 6 -81 11t-91 9l17 89q70 10 160.5 14t168.5 0q-10 -53 -36.5 -153.5t-86.5 -280.5l4 -2q37 86 86.5 167.5 t111 146.5t134 103.5t156.5 38.5q139 0 190.5 -92t20.5 -256zM520 -102q43 0 70.5 -36t18.5 -92.5t-64.5 -125t-178.5 -133.5l-41 63q86 59 110 110.5t5 92.5q-20 45 4.5 83t75.5 38z" />
<glyph unicode="&#x147;" horiz-adv-x="1380" d="M1114 0h-153h-27l-375 907q-31 76 -57.5 149.5t-46.5 141.5q-18 -131 -44 -278.5t-51 -284.5l-118 -635h-152l262 1382h154h29l372 -897q29 -74 55.5 -147.5t51.5 -144.5q18 117 42.5 256t47.5 272l121 661h153zM881 1489l-289 168l55 92l246 -131l287 131l39 -88z" />
<glyph unicode="&#x148;" horiz-adv-x="1204" d="M928 0h-150l125 655q25 131 1.5 191.5t-101.5 60.5q-53 0 -105.5 -32.5t-100.5 -88t-92 -127t-80 -148.5t-61.5 -153.5t-37.5 -140.5l-39 -217h-152l172 895q-35 6 -81 11t-91 9l17 89q70 10 160.5 14t168.5 0q-10 -53 -36.5 -153.5t-86.5 -280.5l4 -2q37 86 86.5 167.5 t111 146.5t134 103.5t156.5 38.5q139 0 190.5 -92t20.5 -256zM702 1178l-223 262l80 76l168 -177l225 177l64 -74z" />
<glyph unicode="&#x14c;" horiz-adv-x="1421" d="M1223 872q0 182 -91.5 288t-273.5 106q-125 0 -232.5 -58.5t-186.5 -163t-122 -241.5t-43 -293q0 -182 90.5 -287.5t274.5 -105.5q123 0 230.5 58t187.5 162.5t123 241.5t43 293zM1386 899q0 -182 -55 -348t-158.5 -295t-248 -201.5t-316.5 -72.5q-246 0 -371.5 136 t-125.5 365q0 182 55 348t158.5 295t248 202t316.5 73q244 0 370.5 -137.5t126.5 -364.5zM1172 1538h-541l21 109h540z" />
<glyph unicode="&#x14d;" horiz-adv-x="1087" d="M870 655q0 123 -56 187.5t-175 64.5q-90 0 -164 -45t-127 -119.5t-81.5 -171t-28.5 -200.5q0 -127 54 -192.5t179 -65.5q78 0 150.5 38.5t128 110.5t88 172t32.5 221zM1032 670q0 -158 -49 -285t-131 -217t-188.5 -138t-219.5 -48q-186 0 -275 92t-89 268q0 150 44 276.5 t122 220t184.5 145.5t231.5 52q193 0 281.5 -102t88.5 -264zM951 1276h-492l21 117h491z" />
<glyph unicode="&#x150;" horiz-adv-x="1421" d="M1223 872q0 182 -91.5 288t-273.5 106q-125 0 -232.5 -58.5t-186.5 -163t-122 -241.5t-43 -293q0 -182 90.5 -287.5t274.5 -105.5q123 0 230.5 58t187.5 162.5t123 241.5t43 293zM1386 899q0 -182 -55 -348t-158.5 -295t-248 -201.5t-316.5 -72.5q-246 0 -371.5 136 t-125.5 365q0 182 55 348t158.5 295t248 202t316.5 73q244 0 370.5 -137.5t126.5 -364.5zM1151 1491l-43 84l311 182l55 -106zM778 1493l-47 82l299 203l64 -105z" />
<glyph unicode="&#x151;" horiz-adv-x="1087" d="M870 655q0 123 -56 187.5t-175 64.5q-90 0 -164 -45t-127 -119.5t-81.5 -171t-28.5 -200.5q0 -127 54 -192.5t179 -65.5q78 0 150.5 38.5t128 110.5t88 172t32.5 221zM1032 670q0 -158 -49 -285t-131 -217t-188.5 -138t-219.5 -48q-186 0 -275 92t-89 268q0 150 44 276.5 t122 220t184.5 145.5t231.5 52q193 0 281.5 -102t88.5 -264zM600 1178l-76 69l273 275l90 -88zM936 1178l-74 69l287 264l86 -92z" />
<glyph unicode="&#x152;" horiz-adv-x="1755" d="M1044 1237q-43 14 -86 21.5t-92 7.5q-129 0 -237.5 -60.5t-187.5 -165t-123 -243t-44 -293.5q0 -178 86 -281.5t254 -103.5q61 0 117.5 7t108.5 19l204 1092v0zM1731 1255h-529l-90 -479h502l-23 -127h-504l-98 -518h529l-27 -131h-526h-148q-111 -18 -223 -18 q-248 0 -368 131t-120 370q0 188 59.5 355.5t165 292t249 197.5t311.5 73q111 0 201 -19v0h135h528z" />
<glyph unicode="&#x153;" horiz-adv-x="1714" d="M870 655q0 123 -56 187.5t-175 64.5q-90 0 -164 -45t-127 -119.5t-81.5 -171t-28.5 -200.5q0 -127 54 -192.5t179 -65.5q78 0 150.5 38.5t128 110.5t88 172t32.5 221zM1518 793q0 61 -42 93t-108 32t-120 -27t-97 -72t-75 -106.5t-50 -130.5q258 10 375 62.5t117 148.5z M1673 811q0 -158 -165 -247t-504 -103q-4 -25 -8.5 -64t-4.5 -69q0 -66 12.5 -108t40 -66.5t71.5 -34.5t110 -10q72 0 144.5 15t135.5 44l8 -123q-74 -31 -158.5 -47t-185.5 -16q-133 0 -210.5 48t-100.5 163q-76 -98 -185.5 -154.5t-228.5 -56.5q-184 0 -274 92t-90 268 q0 150 44 276.5t122 220t184.5 145.5t231.5 52q135 0 217 -56t116 -155q70 96 166 153.5t225 57.5q76 0 130.5 -18.5t89 -49t51 -71.5t16.5 -86z" />
<glyph unicode="&#x154;" horiz-adv-x="1099" d="M895 1073q0 98 -60.5 144.5t-205.5 46.5q-86 0 -148 -7l-94 -497q16 -2 47 -3t72 -1q82 0 152.5 20.5t123 60.5t83 99t30.5 137zM1059 1092q0 -102 -43 -181.5t-114 -136.5t-160 -89t-185 -38q23 -37 42 -71.5t42 -73.5l293 -502h-189l-354 639h-29l-118 -639h-154 l262 1382q66 4 137.5 5.5t172.5 1.5q207 0 302 -78t95 -219zM568 1493l-27 90l371 152l35 -125z" />
<glyph unicode="&#x155;" horiz-adv-x="776" d="M805 883q-53 20 -106.5 -2.5t-102.5 -73.5t-92 -123t-78 -150.5t-59.5 -157.5t-36.5 -143l-43 -233h-152l172 895q-35 6 -81 11t-91 9l17 89q70 10 160.5 14t164.5 0q-12 -70 -37.5 -163t-74.5 -241h4q45 98 91 182.5t101 142.5t122 86t151 9zM510 1178l-63 84l295 254 l80 -107z" />
<glyph unicode="&#x156;" horiz-adv-x="1099" d="M895 1073q0 98 -60.5 144.5t-205.5 46.5q-86 0 -148 -7l-94 -497q16 -2 47 -3t72 -1q82 0 152.5 20.5t123 60.5t83 99t30.5 137zM1059 1092q0 -102 -43 -181.5t-114 -136.5t-160 -89t-185 -38q23 -37 42 -71.5t42 -73.5l293 -502h-189l-354 639h-29l-118 -639h-154 l262 1382q66 4 137.5 5.5t172.5 1.5q207 0 302 -78t95 -219zM465 -102q43 0 70.5 -36t18.5 -92.5t-64.5 -125t-178.5 -133.5l-41 63q86 59 110 110.5t5 92.5q-20 45 4.5 83t75.5 38z" />
<glyph unicode="&#x157;" horiz-adv-x="776" d="M805 883q-53 20 -106.5 -2.5t-102.5 -73.5t-92 -123t-78 -150.5t-59.5 -157.5t-36.5 -143l-43 -233h-152l172 895q-35 6 -81 11t-91 9l17 89q70 10 160.5 14t164.5 0q-12 -70 -37.5 -163t-74.5 -241h4q45 98 91 182.5t101 142.5t122 86t151 9zM188 -102q43 0 70.5 -36 t18.5 -92.5t-64.5 -125t-178.5 -133.5l-41 63q86 59 110 110.5t5 92.5q-20 45 4.5 83t75.5 38z" />
<glyph unicode="&#x158;" horiz-adv-x="1099" d="M895 1073q0 98 -60.5 144.5t-205.5 46.5q-86 0 -148 -7l-94 -497q16 -2 47 -3t72 -1q82 0 152.5 20.5t123 60.5t83 99t30.5 137zM1059 1092q0 -102 -43 -181.5t-114 -136.5t-160 -89t-185 -38q23 -37 42 -71.5t42 -73.5l293 -502h-189l-354 639h-29l-118 -639h-154 l262 1382q66 4 137.5 5.5t172.5 1.5q207 0 302 -78t95 -219zM684 1489l-289 168l55 92l246 -131l287 131l39 -88z" />
<glyph unicode="&#x159;" horiz-adv-x="776" d="M805 883q-53 20 -106.5 -2.5t-102.5 -73.5t-92 -123t-78 -150.5t-59.5 -157.5t-36.5 -143l-43 -233h-152l172 895q-35 6 -81 11t-91 9l17 89q70 10 160.5 14t164.5 0q-12 -70 -37.5 -163t-74.5 -241h4q45 98 91 182.5t101 142.5t122 86t151 9zM551 1178l-223 262l80 76 l168 -177l225 177l64 -74z" />
<glyph unicode="&#x15a;" horiz-adv-x="1011" d="M938 1233q-53 16 -117.5 26.5t-124.5 10.5q-84 0 -145.5 -20.5t-101 -55.5t-58 -79t-18.5 -89q0 -68 38 -113t93 -81.5t121.5 -72.5t122 -82t93.5 -109.5t38 -157.5q0 -82 -34 -159t-101.5 -137.5t-168 -96t-231.5 -35.5q-92 0 -173 11t-142 30l45 149q59 -25 134 -39 t163 -14q86 0 151.5 21.5t108.5 59.5t65.5 88t22.5 105q0 70 -37 117t-93.5 86t-122 74t-121.5 81t-93 107.5t-37 151.5q0 76 33 146.5t96.5 124.5t158.5 87t218 33q63 0 130 -7.5t126 -19.5zM555 1493l-27 90l371 152l35 -125z" />
<glyph unicode="&#x15b;" horiz-adv-x="804" d="M705 891q-39 14 -80 19t-82 5q-117 0 -172.5 -46t-55.5 -117q0 -45 32 -79t68 -63.5t78 -59.5t77.5 -64.5t60 -77.5t24.5 -101q0 -63 -27.5 -121.5t-81.5 -103.5t-141.5 -72.5t-191.5 -27.5q-63 0 -103 4t-79 10l26 143q41 -12 88.5 -20t94.5 -8q123 0 190.5 44t67.5 134 q0 43 -24.5 75.5t-62.5 61.5t-82 57.5t-80 64.5t-63.5 81t-27.5 106q0 63 25.5 117.5t74.5 95.5t126 64.5t173 23.5q53 0 94 -4t80 -12zM467 1163l-78 76l246 287l99 -94z" />
<glyph unicode="&#x15e;" horiz-adv-x="1011" d="M938 1233q-53 16 -117.5 26.5t-124.5 10.5q-84 0 -145.5 -20.5t-101 -55.5t-58 -79t-18.5 -89q0 -68 38 -113t93 -81.5t121.5 -72.5t122 -82t93.5 -109.5t38 -157.5q0 -82 -34 -159t-101.5 -137.5t-168 -96t-231.5 -35.5q-92 0 -173 11t-142 30l45 149q59 -25 134 -39 t163 -14q86 0 151.5 21.5t108.5 59.5t65.5 88t22.5 105q0 70 -37 117t-93.5 86t-122 74t-121.5 81t-93 107.5t-37 151.5q0 76 33 146.5t96.5 124.5t158.5 87t218 33q63 0 130 -7.5t126 -19.5zM410 -84q61 -100 32.5 -196.5t-125.5 -200.5h-139q96 102 123 179t-29 165 l138 53v0z" />
<glyph unicode="&#x15f;" horiz-adv-x="804" d="M705 891q-39 14 -80 19t-82 5q-117 0 -172.5 -46t-55.5 -117q0 -45 32 -79t68 -63.5t78 -59.5t77.5 -64.5t60 -77.5t24.5 -101q0 -63 -27.5 -121.5t-81.5 -103.5t-141.5 -72.5t-191.5 -27.5q-63 0 -103 4t-79 10l26 143q41 -12 88.5 -20t94.5 -8q123 0 190.5 44t67.5 134 q0 43 -24.5 75.5t-62.5 61.5t-82 57.5t-80 64.5t-63.5 81t-27.5 106q0 63 25.5 117.5t74.5 95.5t126 64.5t173 23.5q53 0 94 -4t80 -12zM316 -84q61 -100 32.5 -196.5t-125.5 -200.5h-139q96 102 123 179t-29 165l138 53v0z" />
<glyph unicode="&#x160;" horiz-adv-x="1011" d="M938 1233q-53 16 -117.5 26.5t-124.5 10.5q-84 0 -145.5 -20.5t-101 -55.5t-58 -79t-18.5 -89q0 -68 38 -113t93 -81.5t121.5 -72.5t122 -82t93.5 -109.5t38 -157.5q0 -82 -34 -159t-101.5 -137.5t-168 -96t-231.5 -35.5q-92 0 -173 11t-142 30l45 149q59 -25 134 -39 t163 -14q86 0 151.5 21.5t108.5 59.5t65.5 88t22.5 105q0 70 -37 117t-93.5 86t-122 74t-121.5 81t-93 107.5t-37 151.5q0 76 33 146.5t96.5 124.5t158.5 87t218 33q63 0 130 -7.5t126 -19.5zM660 1489l-289 168l55 92l246 -131l287 131l39 -88z" />
<glyph unicode="&#x161;" horiz-adv-x="804" d="M705 891q-39 14 -80 19t-82 5q-117 0 -172.5 -46t-55.5 -117q0 -45 32 -79t68 -63.5t78 -59.5t77.5 -64.5t60 -77.5t24.5 -101q0 -63 -27.5 -121.5t-81.5 -103.5t-141.5 -72.5t-191.5 -27.5q-63 0 -103 4t-79 10l26 143q41 -12 88.5 -20t94.5 -8q123 0 190.5 44t67.5 134 q0 43 -24.5 75.5t-62.5 61.5t-82 57.5t-80 64.5t-63.5 81t-27.5 106q0 63 25.5 117.5t74.5 95.5t126 64.5t173 23.5q53 0 94 -4t80 -12zM512 1178l-223 262l80 76l168 -177l225 177l64 -74z" />
<glyph unicode="&#x162;" horiz-adv-x="1042" d="M1147 1251h-406l-239 -1251h-154l240 1251h-408l25 131h407h154h403zM447 -84q61 -100 32.5 -196.5t-125.5 -200.5h-139q96 102 123 179t-29 165l138 53v0z" />
<glyph unicode="&#x163;" horiz-adv-x="743" d="M739 897h-290l-107 -561q-25 -127 -4.5 -172t102.5 -45q45 0 80 4t66 12l-6 -131q-43 -10 -91.5 -15t-93.5 -5q-152 0 -197.5 76.5t-13.5 246.5l113 590h-219l24 121h220l63 338l160 37l-74 -375h293zM377 -84q61 -100 32.5 -196.5t-125.5 -200.5h-139q96 102 123 179 t-29 165l138 53v0z" />
<glyph unicode="&#x164;" horiz-adv-x="1042" d="M1147 1251h-406l-239 -1251h-154l240 1251h-408l25 131h407h154h403zM705 1489l-289 168l55 92l246 -131l287 131l39 -88z" />
<glyph unicode="&#x165;" horiz-adv-x="749" d="M739 897h-290l-107 -561q-25 -127 -4.5 -172t102.5 -45q45 0 80 4t66 12l-6 -131q-43 -10 -91.5 -15t-93.5 -5q-152 0 -197.5 76.5t-13.5 246.5l113 590h-219l24 121h220l63 338l160 37l-74 -375h293zM916 1509l-160 -344l-102 33l135 350z" />
<glyph unicode="&#x16a;" horiz-adv-x="1398" d="M1217 506q-53 -270 -209 -397t-416 -127q-150 0 -241 37.5t-137 104t-52 156t12 191.5l174 911h154l-174 -913q-16 -88 -11 -154.5t37.5 -111.5t96 -68.5t163.5 -23.5q92 0 167 21.5t131.5 70.5t94 128t60.5 193l164 858h151zM1157 1538h-541l21 109h540z" />
<glyph unicode="&#x16b;" horiz-adv-x="1234" d="M950 123q35 -6 82 -11.5t90 -9.5l-18 -88q-70 -10 -159 -14t-167 0q10 53 36 153.5t85 280.5l-4 2q-37 -86 -87 -168t-111.5 -146.5t-134.5 -103t-154 -38.5q-139 0 -190.5 92t-18.5 256l108 567q-35 6 -81 11t-91 9l17 89q70 8 162 12t165 2l-125 -656q-25 -131 0 -191 t101 -60q51 0 104 32.5t101.5 88t92.5 127t79.5 148.5t61.5 152.5t38 141.5l41 217h149zM1002 1276h-492l21 117h491z" />
<glyph unicode="&#x16e;" horiz-adv-x="1398" d="M1217 506q-53 -270 -209 -397t-416 -127q-150 0 -241 37.5t-137 104t-52 156t12 191.5l174 911h154l-174 -913q-16 -88 -11 -154.5t37.5 -111.5t96 -68.5t163.5 -23.5q92 0 167 21.5t131.5 70.5t94 128t60.5 193l164 858h151zM1108 1620q0 -55 -19.5 -101t-54.5 -81 t-83 -54.5t-107 -19.5q-86 0 -138.5 44t-52.5 122q0 53 20.5 100.5t55.5 82t84 54t107 19.5q86 0 137 -44t51 -122zM860 1458q59 0 94 42t35 104q0 41 -22.5 65.5t-63.5 24.5q-59 0 -95 -44t-36 -104q0 -41 23.5 -64.5t64.5 -23.5z" />
<glyph unicode="&#x16f;" horiz-adv-x="1234" d="M950 123q35 -6 82 -11.5t90 -9.5l-18 -88q-70 -10 -159 -14t-167 0q10 53 36 153.5t85 280.5l-4 2q-37 -86 -87 -168t-111.5 -146.5t-134.5 -103t-154 -38.5q-139 0 -190.5 92t-18.5 256l108 567q-35 6 -81 11t-91 9l17 89q70 8 162 12t165 2l-125 -656q-25 -131 0 -191 t101 -60q51 0 104 32.5t101.5 88t92.5 127t79.5 148.5t61.5 152.5t38 141.5l41 217h149zM990 1399q0 -55 -19.5 -102.5t-55.5 -82.5t-86 -55.5t-110 -20.5q-86 0 -135 46.5t-49 123.5q0 55 19.5 102.5t55 82.5t86 54.5t109.5 19.5q86 0 135.5 -45t49.5 -123zM740 1233 q59 0 95 43t36 102q0 41 -21.5 67.5t-64.5 26.5q-59 0 -95 -42t-36 -101q0 -41 21.5 -68.5t64.5 -27.5z" />
<glyph unicode="&#x170;" horiz-adv-x="1398" d="M1217 506q-53 -270 -209 -397t-416 -127q-150 0 -241 37.5t-137 104t-52 156t12 191.5l174 911h154l-174 -913q-16 -88 -11 -154.5t37.5 -111.5t96 -68.5t163.5 -23.5q92 0 167 21.5t131.5 70.5t94 128t60.5 193l164 858h151zM1065 1491l-43 84l311 182l55 -106z M692 1493l-47 82l299 203l64 -105z" />
<glyph unicode="&#x171;" horiz-adv-x="1234" d="M950 123q35 -6 82 -11.5t90 -9.5l-18 -88q-70 -10 -159 -14t-167 0q10 53 36 153.5t85 280.5l-4 2q-37 -86 -87 -168t-111.5 -146.5t-134.5 -103t-154 -38.5q-139 0 -190.5 92t-18.5 256l108 567q-35 6 -81 11t-91 9l17 89q70 8 162 12t165 2l-125 -656q-25 -131 0 -191 t101 -60q51 0 104 32.5t101.5 88t92.5 127t79.5 148.5t61.5 152.5t38 141.5l41 217h149zM594 1178l-76 69l273 275l90 -88zM930 1178l-74 69l287 264l86 -92z" />
<glyph unicode="&#x172;" horiz-adv-x="1398" d="M1217 506q-41 -205 -139.5 -324t-246.5 -166q-29 -10 -58.5 -25.5t-57.5 -37.5q-53 -41 -92 -95.5t-39 -101.5q0 -23 13 -38t44 -15q27 0 54.5 14.5t52.5 44.5l67 -67q-43 -57 -103.5 -88t-125.5 -31q-80 0 -120 39t-40 100q0 63 46 138t130 131h-29q-143 2 -230 39.5 t-131 103.5t-50 154t12 190l174 911h154l-174 -913q-18 -88 -13.5 -154.5t38.5 -111.5t97.5 -68.5t163.5 -23.5q92 0 167 21.5t131.5 70.5t94 128t60.5 193l164 858h151z" />
<glyph unicode="&#x173;" horiz-adv-x="1234" d="M1104 14q-23 -2 -47.5 -4t-48.5 -6q-63 -8 -114.5 -35.5t-88.5 -64.5t-57.5 -77t-20.5 -71q0 -23 13.5 -38t43.5 -15q25 0 53.5 14.5t53.5 44.5l67 -67q-43 -57 -103 -88t-128 -31q-80 0 -119 39t-39 100q0 66 51.5 144t157.5 147q6 31 15.5 68t22.5 88t33.5 116.5 t49.5 155.5l-4 2q-37 -86 -87 -168t-111.5 -146.5t-134.5 -103t-154 -38.5q-139 0 -190.5 92t-18.5 256l108 567q-35 6 -81 11t-91 9l17 89q70 8 162 12t165 2l-125 -656q-25 -131 0 -191t101 -60q51 0 104 32.5t102.5 88t93.5 127t78.5 148.5t60.5 152.5t38 141.5l41 217 h149l-172 -895q35 -6 82 -11.5t90 -9.5l-18 -88v0z" />
<glyph unicode="&#x178;" horiz-adv-x="1058" d="M600 502l-94 -502h-154l94 500l-253 882h159l135 -493q18 -61 33 -122.5t27 -121.5h4q35 63 79 131t89 137l307 469h174zM1026 1597q0 -41 -29 -69.5t-70 -28.5t-66.5 25.5t-25.5 66.5t28.5 70t69.5 29t67 -27t26 -66zM602 1597q0 -41 -30 -69.5t-71 -28.5t-66.5 25.5 t-25.5 66.5t28.5 70t69.5 29t68 -27t27 -66z" />
<glyph unicode="&#x179;" horiz-adv-x="1083" d="M1108 1266l-791 -996q-27 -35 -53 -66.5t-57 -66.5q35 4 128 5t228 1h340l-29 -143h-876l20 115l750 952q41 49 78 91t78 89q-53 -2 -125 -3t-181 -1h-362l27 139h847zM627 1493l-27 90l371 152l35 -125z" />
<glyph unicode="&#x17a;" horiz-adv-x="878" d="M840 911l-625 -774q23 0 55.5 1t69.5 2t76 1h76h213l-29 -141h-674l21 109l626 776q-47 -2 -113.5 -3t-152.5 -1h-203l27 137h655zM495 1178l-63 84l295 254l80 -107z" />
<glyph unicode="&#x17b;" horiz-adv-x="1083" d="M1108 1266l-791 -996q-27 -35 -53 -66.5t-57 -66.5q35 4 128 5t228 1h340l-29 -143h-876l20 115l750 952q41 49 78 91t78 89q-53 -2 -125 -3t-181 -1h-362l27 139h847zM825 1604q0 -47 -31 -77t-71 -30q-41 0 -68 27.5t-27 66.5q0 45 31 75t72 30t67.5 -27.5t26.5 -64.5z " />
<glyph unicode="&#x17c;" horiz-adv-x="878" d="M840 911l-625 -774q23 0 55.5 1t69.5 2t76 1h76h213l-29 -141h-674l21 109l626 776q-47 -2 -113.5 -3t-152.5 -1h-203l27 137h655zM682 1352q0 -47 -31.5 -79t-76.5 -32q-43 0 -72 28.5t-29 69.5q0 47 33 79t76 32q45 0 72.5 -28.5t27.5 -69.5z" />
<glyph unicode="&#x17d;" horiz-adv-x="1083" d="M1108 1266l-791 -996q-27 -35 -53 -66.5t-57 -66.5q35 4 128 5t228 1h340l-29 -143h-876l20 115l750 952q41 49 78 91t78 89q-53 -2 -125 -3t-181 -1h-362l27 139h847zM735 1489l-289 168l55 92l246 -131l287 131l39 -88z" />
<glyph unicode="&#x17e;" horiz-adv-x="878" d="M840 911l-625 -774q23 0 55.5 1t69.5 2t76 1h76h213l-29 -141h-674l21 109l626 776q-47 -2 -113.5 -3t-152.5 -1h-203l27 137h655zM559 1178l-223 262l80 76l168 -177l225 177l64 -74z" />
<glyph unicode="&#x192;" horiz-adv-x="876" d="M324 184q-37 -137 -80 -233t-99.5 -157.5t-129 -90.5t-171.5 -29q-35 0 -70.5 4.5t-70.5 14.5l47 135q29 -10 63.5 -18.5t69.5 -8.5q53 0 93 15.5t72 54.5t59.5 105.5t56.5 170.5l153 564h-249l24 120h258l76 281q53 193 158.5 296t283.5 103q31 0 69 -3t73 -9l-39 -129 q-66 16 -135 16q-51 0 -91 -14t-71 -47t-53.5 -85t-42.5 -126l-76 -283h342l-25 -120h-350z" />
<glyph unicode="&#x218;" horiz-adv-x="1011" d="M938 1233q-53 16 -117.5 26.5t-124.5 10.5q-84 0 -145.5 -20.5t-101 -55.5t-58 -79t-18.5 -89q0 -68 38 -113t93 -81.5t121.5 -72.5t122 -82t93.5 -109.5t38 -157.5q0 -82 -34 -159t-101.5 -137.5t-168 -96t-231.5 -35.5q-92 0 -173 11t-142 30l45 149q59 -25 134 -39 t163 -14q86 0 151.5 21.5t108.5 59.5t65.5 88t22.5 105q0 70 -37 117t-93.5 86t-122 74t-121.5 81t-93 107.5t-37 151.5q0 76 33 146.5t96.5 124.5t158.5 87t218 33q63 0 130 -7.5t126 -19.5zM362 -102q43 0 70.5 -36t18.5 -92.5t-64.5 -125t-178.5 -133.5l-41 63 q86 59 110 110.5t5 92.5q-20 45 4.5 83t75.5 38z" />
<glyph unicode="&#x219;" horiz-adv-x="804" d="M705 891q-39 14 -80 19t-82 5q-117 0 -172.5 -46t-55.5 -117q0 -45 32 -79t68 -63.5t78 -59.5t77.5 -64.5t60 -77.5t24.5 -101q0 -63 -27.5 -121.5t-81.5 -103.5t-141.5 -72.5t-191.5 -27.5q-63 0 -103 4t-79 10l26 143q41 -12 88.5 -20t94.5 -8q123 0 190.5 44t67.5 134 q0 43 -24.5 75.5t-62.5 61.5t-82 57.5t-80 64.5t-63.5 81t-27.5 106q0 63 25.5 117.5t74.5 95.5t126 64.5t173 23.5q53 0 94 -4t80 -12zM295 -102q43 0 70.5 -36t18.5 -92.5t-64.5 -125t-178.5 -133.5l-41 63q86 59 110 110.5t5 92.5q-20 45 4.5 83t75.5 38z" />
<glyph unicode="&#x21a;" horiz-adv-x="1042" d="M1147 1251h-406l-239 -1251h-154l240 1251h-408l25 131h407h154h403zM403 -102q43 0 70.5 -36t18.5 -92.5t-64.5 -125t-178.5 -133.5l-41 63q86 59 110 110.5t5 92.5q-20 45 4.5 83t75.5 38z" />
<glyph unicode="&#x21b;" horiz-adv-x="743" d="M739 897h-290l-107 -561q-25 -127 -4.5 -172t102.5 -45q45 0 80 4t66 12l-6 -131q-43 -10 -91.5 -15t-93.5 -5q-152 0 -197.5 76.5t-13.5 246.5l113 590h-219l24 121h220l63 338l160 37l-74 -375h293zM346 -102q43 0 70.5 -36t18.5 -92.5t-64.5 -125t-178.5 -133.5 l-41 63q86 59 110 110.5t5 92.5q-20 45 4.5 83t75.5 38z" />
<glyph unicode="&#x2c6;" horiz-adv-x="894" d="M715 1178l-168 176l-228 -176l-61 71l311 267l224 -263z" />
<glyph unicode="&#x2c7;" horiz-adv-x="894" d="M485 1178l-223 262l80 76l168 -177l225 177l64 -74z" />
<glyph unicode="&#x2d8;" horiz-adv-x="841" d="M852 1470q-8 -51 -30.5 -98t-58.5 -83t-86 -57.5t-114 -21.5q-63 0 -105 21.5t-64.5 57.5t-29 83t4.5 98h102q-10 -57 17.5 -99t93.5 -42q61 0 103 37t54 104h113v0z" />
<glyph unicode="&#x2d9;" horiz-adv-x="563" d="M559 1352q0 -47 -31.5 -79t-76.5 -32q-43 0 -72 28.5t-29 69.5q0 47 33 79t76 32q45 0 72.5 -28.5t27.5 -69.5z" />
<glyph unicode="&#x2da;" horiz-adv-x="800" d="M791 1391q0 -55 -19.5 -102.5t-55.5 -82.5t-86 -55.5t-110 -20.5q-86 0 -135 46.5t-49 123.5q0 55 19.5 102.5t55 82.5t86 54.5t109.5 19.5q86 0 135.5 -45t49.5 -123zM541 1225q59 0 95 43t36 102q0 41 -21.5 67.5t-64.5 26.5q-59 0 -95 -42t-36 -101q0 -41 21.5 -68.5 t64.5 -27.5z" />
<glyph unicode="&#x2db;" horiz-adv-x="774" d="M238 0q-111 -66 -157 -132.5t-46 -111.5q0 -23 13 -38t44 -15q27 0 54.5 14.5t52.5 44.5l67 -67q-43 -57 -103.5 -88t-125.5 -31q-80 0 -120 39t-40 100q0 68 52.5 147t162.5 148z" />
<glyph unicode="&#x2dc;" horiz-adv-x="1030" d="M934 1378q-41 -72 -97.5 -110.5t-121.5 -38.5q-49 0 -82 17.5t-59.5 39t-51 39.5t-57.5 18q-68 0 -129 -96l-78 64q41 72 95.5 110.5t119.5 38.5q49 0 82 -18.5t60.5 -40t54 -38.5t59.5 -17q66 0 127 96l78 -64v0z" />
<glyph unicode="&#x2dd;" horiz-adv-x="1038" d="M385 1178l-76 69l273 275l90 -88zM721 1178l-74 69l287 264l86 -92z" />
<glyph unicode="&#x312;" horiz-adv-x="604" d="M829 1485q-86 -57 -109.5 -108.5t-2.5 -92.5q18 -45 -5.5 -84t-76.5 -39q-43 0 -69.5 36t-17.5 92.5t63.5 125t176.5 133.5l41 -63v0z" />
<glyph unicode="&#x315;" horiz-adv-x="604" d="M428 -102q43 0 70.5 -36t18.5 -92.5t-64.5 -125t-178.5 -133.5l-41 63q86 59 110 110.5t5 92.5q-20 45 4.5 83t75.5 38z" />
<glyph unicode="&#x326;" horiz-adv-x="681" d="M690 1542l-250 -285l-84 60l226 299z" />
<glyph unicode="&#x394;" horiz-adv-x="1214" d="M-37 0l23 113l698 1269h184l213 -1269l-18 -113h-1100zM758 1112q-4 37 -6 67.5t-2 63.5h-2q-45 -102 -64 -137l-520 -969h751z" />
<glyph unicode="&#x3a9;" horiz-adv-x="1447" d="M793 0l24 131q221 152 317.5 340t96.5 414q0 180 -85 280.5t-265 100.5q-139 0 -247 -69t-182.5 -174t-113.5 -232t-39 -244q0 -127 46 -223.5t149 -192.5l-23 -131h-473l27 133h307q-92 74 -145.5 179.5t-53.5 242.5q0 139 51.5 288.5t150.5 273.5t243.5 204t328.5 80 q233 0 363.5 -126t130.5 -368q0 -246 -109.5 -443.5t-304.5 -330.5h303l-26 -133h-471z" />
<glyph unicode="&#x3bc;" horiz-adv-x="1210" d="M993 397q-16 -76 -21 -128t-5 -81q0 -41 15 -56t44 -15h20.5t26.5 4l-6 -125q-25 -6 -47.5 -8t-38.5 -2q-74 0 -117 32.5t-43 122.5q0 49 13.5 121t52.5 174h-2q-35 -88 -83 -170t-106.5 -145.5t-126 -101t-141.5 -37.5q-156 0 -174 145q-2 -35 -4 -76t-6 -71 q-16 -104 -24.5 -221t-8.5 -269h-150q2 203 20.5 356.5t46.5 285.5t60.5 258t61.5 276l43 227q-35 6 -80 12t-88 10l16 89q68 10 160 14t168 0l-113 -584q-35 -180 -9 -251.5t104 -71.5q49 0 100 32.5t99 88t92 127t79 148.5t60.5 152.5t38.5 141.5l41 217h149z" />
<glyph unicode="&#x3c0;" horiz-adv-x="1271" d="M1014 891q-37 -209 -55.5 -354.5t-18.5 -237.5q0 -102 19.5 -143t64.5 -41q20 0 45 4t49 10l-4 -127q-59 -16 -135 -16q-104 0 -148.5 64.5t-44.5 221.5q0 100 19.5 251t60.5 368h-360q-41 -238 -118 -468t-195 -443l-150 40q125 225 202 436.5t113 434.5h-256l27 127 h1174l-27 -127h-262z" />
<glyph unicode="&#x2013;" d="M1133 543h-1127l27 135h1126z" />
<glyph unicode="&#x2014;" horiz-adv-x="2048" d="M1808 543h-1554l27 135h1552z" />
<glyph unicode="&#x2018;" horiz-adv-x="471" d="M569 1460q-109 -92 -139.5 -162.5t0.5 -123.5q14 -23 13 -49.5t-13 -49t-34.5 -36t-51.5 -13.5q-53 0 -83 43t-18.5 115.5t78 163t191.5 180.5z" />
<glyph unicode="&#x2019;" horiz-adv-x="471" d="M418 1516q51 0 81.5 -42t20.5 -112t-72.5 -161t-197.5 -187l-57 67q57 49 90.5 90t49 77t14.5 65.5t-15 54.5q-12 25 -13 49q0 27 12.5 48.5t35 36t51.5 14.5z" />
<glyph unicode="&#x201a;" horiz-adv-x="471" d="M156 203q51 0 81.5 -42t20.5 -111.5t-72.5 -161t-197.5 -187.5l-58 68q57 49 91 90t49.5 76.5t14.5 66.5t-15 55q-12 25 -13 49q0 27 12.5 48.5t35 35t51.5 13.5z" />
<glyph unicode="&#x201c;" horiz-adv-x="827" d="M569 1462q-57 -49 -91 -90t-49 -76.5t-14 -65.5t15 -54q12 -25 12 -52q0 -25 -12 -46t-34.5 -35.5t-51.5 -14.5q-53 0 -83 42t-19.5 111.5t73 161t197.5 187.5zM932 1462q-57 -49 -91 -90t-49.5 -76.5t-14.5 -65.5t16 -54q12 -25 12 -52q0 -25 -12.5 -46t-34 -35.5 t-49.5 -14.5q-53 0 -84 42t-20 111.5t73.5 161t195.5 187.5z" />
<glyph unicode="&#x201d;" horiz-adv-x="827" d="M418 1518q51 0 81.5 -42t20.5 -112t-72.5 -161t-197.5 -187l-57 67q57 49 90.5 90t49 77t14.5 66t-15 54q-12 25 -13 49q0 27 12.5 48.5t35 36t51.5 14.5zM778 1518q53 0 84 -42t19.5 -112t-74 -161t-197.5 -187l-57 67q57 49 92 90t50.5 77t14.5 66t-15.5 54.5t-13.5 50 t12.5 47t33.5 36t51 14.5z" />
<glyph unicode="&#x201e;" horiz-adv-x="827" d="M156 203q51 0 81.5 -42t20.5 -111.5t-72.5 -161t-197.5 -187.5l-58 68q57 49 91 90t49.5 76.5t14.5 66.5t-15 55q-12 25 -13 49q0 27 12.5 48.5t35 35t51.5 13.5zM518 203q53 0 84 -42t19.5 -111.5t-74 -161t-197.5 -187.5l-57 68q57 49 92 90t50.5 76.5t14.5 66.5 t-15.5 55.5t-13.5 50t12 47t33.5 35t51.5 13.5z" />
<glyph unicode="&#x2020;" horiz-adv-x="892" d="M918 1159h-285l-10 -207l-131 -510h-109l63 510l70 207h-285l21 121h287l22 281h178l-82 -281h285z" />
<glyph unicode="&#x2021;" horiz-adv-x="892" d="M920 1169h-283l-14 -219l-70 -217h283l-23 -121h-285l-22 -272h-176l80 272h-285l25 121h282l12 217l72 219h-283l21 119h285l22 273h178l-80 -273h283z" />
<glyph unicode="&#x2022;" horiz-adv-x="858" d="M676 618q0 -49 -18.5 -92t-50.5 -74.5t-73.5 -50t-89.5 -18.5q-47 0 -87 17.5t-69.5 47t-46 68.5t-16.5 82q0 49 18.5 92t50.5 75t74 50.5t89 18.5q45 0 86 -17.5t69.5 -47.5t46 -69t17.5 -82z" />
<glyph unicode="&#x2026;" horiz-adv-x="1288" d="M262 98q0 -49 -33.5 -81.5t-78.5 -32.5t-73 30.5t-28 71.5q0 51 33 83t80 32q45 0 72.5 -31t27.5 -72zM678 98q0 -49 -33 -81.5t-80 -32.5q-45 0 -72.5 30.5t-27.5 71.5q0 51 33.5 83t79.5 32q47 0 73.5 -31t26.5 -72zM1096 98q0 -49 -34 -81.5t-79 -32.5t-72.5 30.5 t-27.5 71.5q0 51 32.5 83t79.5 32q45 0 73 -31t28 -72z" />
<glyph unicode="&#x2030;" horiz-adv-x="2039" d="M1892 389q0 -78 -23.5 -151.5t-67.5 -131t-106.5 -91t-142.5 -33.5q-98 0 -156.5 48t-58.5 160q0 74 23.5 148t66.5 131t105.5 93t142.5 36q98 0 157.5 -47t59.5 -162zM762 1192q0 -80 -23.5 -152.5t-67.5 -130t-107.5 -91.5t-141.5 -34q-98 0 -157.5 48.5t-59.5 160.5 q0 74 23.5 147.5t66.5 131t106.5 93.5t143.5 36q98 0 157.5 -48t59.5 -161zM106 -31l-77 80l1325 1364l80 -82zM1260 389q0 -78 -24 -151.5t-68 -131t-107.5 -91t-140.5 -33.5q-98 0 -158 48t-60 160q0 74 24 148t67 131t106.5 93t142.5 36q98 0 158 -47t60 -162zM1767 377 q0 57 -24.5 86t-83.5 29q-53 0 -90 -30t-60.5 -73t-35 -93t-11.5 -93q0 -57 24.5 -86t82.5 -29q55 0 93 28.5t61.5 72.5t33.5 94.5t10 93.5zM635 1180q0 55 -24.5 84.5t-82.5 29.5q-53 0 -91 -29.5t-61.5 -72.5t-34.5 -93t-11 -93q0 -115 108 -115q53 0 91 28.5t61.5 72.5 t34 94.5t10.5 93.5zM1135 377q0 57 -25 86t-84 29q-53 0 -90 -30t-60.5 -73t-35 -93t-11.5 -93q0 -57 25 -86t82 -29q53 0 91 28.5t61.5 72.5t35 94.5t11.5 93.5z" />
<glyph unicode="&#x2039;" horiz-adv-x="628" d="M289 600l147 -287l-121 -65l-178 360l309 353l99 -70z" />
<glyph unicode="&#x203a;" horiz-adv-x="628" d="M225 248l-100 69l256 291l-143 287l118 66l176 -361z" />
<glyph unicode="&#x2044;" horiz-adv-x="421" d="M-498 -281l-88 72l1624 1851l88 -71z" />
<glyph unicode="&#x2074;" horiz-adv-x="761" d="M799 944h-137l-39 -192h-134l37 192h-389l10 100l437 551h202l-102 -534h137zM287 1057q16 0 38.5 1t47 2t49 1h48.5h41h38l82 430z" />
<glyph unicode="&#x20ac;" horiz-adv-x="1187" d="M424 782q-10 -47 -20.5 -96t-16.5 -100h479l-18 -107h-475q-10 -180 69.5 -274t243.5 -94q84 0 173 26.5t167 73.5l35 -115q-94 -55 -192.5 -84.5t-221.5 -29.5q-106 0 -187 27.5t-139.5 88t-86 154.5t-21.5 227h-188l20 107h178q6 49 16.5 99t22.5 97h-180l20 107h187 q39 115 99.5 209t141 161.5t185 104.5t231.5 37q92 0 179 -24.5t139 -59.5l-62 -121q-47 33 -122.5 56.5t-161.5 23.5q-166 0 -284 -106.5t-177 -280.5h469l-21 -107h-481v0z" />
<glyph unicode="&#x2122;" horiz-adv-x="1411" d="M676 1286h-152l-90 -479h-121l93 479h-156l18 96h426zM1352 807h-119l14 323l6 115l-43 -98l-166 -340h-124l-33 344l-6 94l-23 -76l-119 -362h-110l192 575h158l33 -340l6 -98l33 88l172 350h153z" />
<glyph unicode="&#x2202;" horiz-adv-x="1280" d="M911 524q0 45 -14 88t-46 77t-82 53.5t-120 19.5q-74 0 -139.5 -30t-112.5 -84t-74.5 -126.5t-27.5 -159.5q0 -115 61.5 -181t178.5 -66q74 0 141 30.5t119.5 86t84 130t31.5 162.5zM1180 967q0 -109 -18.5 -224.5t-55.5 -224t-92.5 -206t-131 -170t-170 -115.5 t-206.5 -43q-98 0 -168 27.5t-115 75.5t-65.5 112.5t-20.5 136.5q0 119 42 221t115 176t171 116t213 42t205 -55.5t116 -159.5q2 51 14.5 122.5t10.5 149.5q-4 203 -110.5 316.5t-303.5 113.5l43 127q129 -4 228.5 -46t165 -113.5t99.5 -167.5t34 -211z" />
<glyph unicode="&#x220f;" horiz-adv-x="1572" d="M1645 1362h-220l-354 -1872h-147l354 1872h-653l-355 -1872h-147l354 1872h-219l25 133h1386z" />
<glyph unicode="&#x2211;" horiz-adv-x="1224" d="M1243 1362h-790l436 -860l-789 -873h842l-29 -139h-1032l23 119l807 901l-432 866l24 119h963z" />
<glyph unicode="&#x2212;" d="M1044 543h-948l27 133h948z" />
<glyph unicode="&#x221a;" horiz-adv-x="1214" d="M578 0h-172l-140 899h-188l24 119h306l84 -617q8 -61 15 -122.5t11 -122.5h4q27 59 51.5 112.5t53.5 114.5l551 1169h165z" />
<glyph unicode="&#x221e;" horiz-adv-x="1949" d="M877 614q-43 39 -85 74t-84 61.5t-83 42t-84 15.5q-53 0 -98.5 -19.5t-78 -52.5t-51 -78t-18.5 -94q0 -63 40 -105t120 -42q41 0 89 16.5t102 44t112 63t119 74.5zM1700 662q0 61 -40 103t-124 42q-41 0 -88 -16.5t-100.5 -44t-110.5 -63.5t-119 -75q86 -78 168 -135 t166 -57q55 0 100 19.5t78 53t51.5 78t18.5 95.5zM1855 684q0 -70 -27.5 -141.5t-79.5 -129t-129 -94t-177 -36.5q-63 0 -122.5 19.5t-117 52t-112 75.5t-105.5 90q-70 -47 -140.5 -89t-139 -75.5t-135 -53t-128.5 -19.5q-158 0 -230.5 72.5t-72.5 185.5q0 86 34 158.5 t90 127t130 85t156 30.5q63 0 124.5 -20.5t119 -53t111.5 -76.5t108 -90q70 45 141.5 89.5t140 77t134 53t124.5 20.5q80 0 137.5 -20.5t94.5 -55.5t54 -82t17 -100z" />
<glyph unicode="&#x222b;" horiz-adv-x="673" d="M803 1358q-18 6 -45 11t-53 5q-39 0 -71 -15.5t-59.5 -56t-50 -110.5t-43.5 -180q-23 -119 -41 -229.5t-36.5 -229.5t-41 -254t-55.5 -301q-29 -150 -64.5 -250t-83.5 -161.5t-109.5 -87t-139.5 -25.5q-55 0 -100 12l26 137q20 -8 46 -13t52 -5q39 0 72 15t59.5 55 t48 109t42.5 173q23 115 40 226.5t36.5 232.5t42 259t55.5 304q29 152 64.5 253t83.5 161.5t110.5 86t142.5 25.5q25 0 50.5 -3t47.5 -9z" />
<glyph unicode="&#x2248;" d="M1012 422q-49 -43 -119 -77t-148 -34q-74 0 -122 19.5t-86.5 42t-80.5 42t-104 19.5q-63 0 -118.5 -29.5t-90.5 -56.5l-55 109q49 39 117.5 74.5t150.5 35.5q70 0 117 -19.5t88 -44t85 -44t106 -19.5q53 0 103 23.5t106 66.5l51 -108v0zM1077 762q-47 -45 -114.5 -79 t-149.5 -34q-74 0 -121 19.5t-86 42t-81 42t-105 19.5q-66 0 -121 -28.5t-90 -57.5l-53 111q51 41 120.5 74.5t149.5 33.5q70 0 118 -19.5t89 -44t83 -44t101 -19.5q53 0 103.5 25.5t103.5 66.5l53 -108v0z" />
<glyph unicode="&#x2260;" d="M1049 711h-340l-121 -205h422l-25 -127h-473l-176 -299h-137l176 299h-285l27 127h334l120 205h-417l24 129h467l182 305h138l-183 -305h291z" />
<glyph unicode="&#x2264;" d="M895 0h-854l25 129h854zM387 745l557 -391l-100 -110l-678 512l842 491l71 -110z" />
<glyph unicode="&#x2265;" d="M895 0h-854l25 129h854zM211 244l-76 112l694 392l-559 393l101 106l682 -510z" />
<glyph unicode="&#x25ca;" horiz-adv-x="1236" d="M756 1233l-477 -539l280 -540l473 528zM573 -16h-94l-364 714l624 701h90l365 -713z" />
<glyph unicode="&#x25fc;" horiz-adv-x="1064" d="M0 1065h1065v-1065h-1065v1065z" />
<glyph unicode="&#xf001;" horiz-adv-x="1171" d="M1077 1341q-53 18 -115.5 28.5t-113.5 10.5q-160 0 -247 -75.5t-116 -217.5l-12 -69h617l-195 -1018h-152l172 897h-464l-183 -954q-47 -252 -162.5 -360.5t-298.5 -108.5q-94 0 -176 18l39 133q39 -12 79 -17t75 -5q117 0 187.5 73.5t105.5 262.5l182 958h-217l24 121 h218l8 49q35 217 164 327.5t364 110.5q78 0 145.5 -10t127.5 -27z" />
<glyph unicode="&#xf002;" horiz-adv-x="1167" d="M895 0h-150l261 1366q-47 8 -92.5 12t-86.5 4q-147 0 -227 -60t-106 -196l-21 -108h291l-27 -121h-286l-183 -954q-47 -252 -162.5 -360.5t-298.5 -108.5q-94 0 -176 18l39 133q39 -12 79 -17t75 -5q117 0 187.5 73.5t105.5 262.5l182 958h-217l24 121h218l20 112 q35 186 157 280.5t339 94.5q92 0 177 -7t159 -19z" />
<glyph unicode="&#xf6c9;" horiz-adv-x="753" d="M418 1493l-27 90l371 152l35 -125z" />
<glyph unicode="&#xf6ca;" horiz-adv-x="987" d="M629 1489l-289 168l55 92l246 -131l287 131l39 -88z" />
<glyph unicode="&#xf6cb;" horiz-adv-x="978" d="M1049 1597q0 -41 -29 -69.5t-70 -28.5t-66.5 25.5t-25.5 66.5t28.5 70t69.5 29t67 -27t26 -66zM625 1597q0 -41 -30 -69.5t-71 -28.5t-66.5 25.5t-25.5 66.5t28.5 70t69.5 29t68 -27t27 -66z" />
<glyph unicode="&#xf6ce;" horiz-adv-x="753" d="M705 1493l-373 117l59 125l352 -152z" />
<glyph unicode="&#xf6cf;" horiz-adv-x="1046" d="M934 1491l-43 84l311 182l55 -106zM561 1493l-47 82l299 203l64 -105z" />
<glyph unicode="&#xf6d0;" horiz-adv-x="901" d="M1012 1538h-541l21 109h540z" />
<glyph unicode="&#xf8ff;" horiz-adv-x="2129" d="M293 731v-74l-242 -14q-4 53 0 102zM1083 727q4 0 7.5 10.5t-0.5 10.5q3 -11 -7 -21zM1079 731q10 0 5 4t1 4v2q-8 0 -4 -4t-2 -4v-2v0zM1075 739q-6 -12 -5 -4t5 4zM1073 731h2l2 10q-8 2 -9 -7t7 1zM1065 727q-4 10 6 21q-4 0 -7 -10.5t1 -10.5zM1059 733q-4 -2 -3 3 t5 3v2q-4 2 -7 -5t5 -5v2zM1051 741l-2 -6q-2 -4 -2 0l2 6h-2l-3 -6q-2 -4 0 -4q4 0 7 4l2 6h-2zM1042 733h-4l4 12h-2l-4 -12q0 -2 2 -2h4v2zM1298 0l-499 -127l53 -131h430l29 72l-15 30l-155 -41l-23 62l215 53zM1296 168l-499 -129l37 -86l499 125zM807 319v-116l33 -82 l485 123v75h-518zM1159 692q-29 4 -49 5t-43 1t-45.5 -1t-50.5 -5l28 -301h131l29 301v0zM938 391l-33 289q-27 -6 -43 -13.5t-30.5 -11.5t-21.5 7.5t-9 27t2 30.5t12 17q57 16 121.5 27.5t130.5 11.5t130.5 -11t123.5 -28q6 -2 9 -16t2 -30.5t-8 -28t-21 -7.5 q-14 8 -34 13.5t-44 11.5l-31 -289h129q53 49 95 127t42 176q0 82 -30.5 154t-84 126t-125 85t-153.5 31t-154.5 -31t-126 -85t-85 -126t-31.5 -154q0 -86 35.5 -165.5t105.5 -137.5h127zM1548 694q0 -109 -40 -196.5t-99 -143.5v-155l-33 -11l64 -151l-60 -14l60 -146 l-62 -16l23 -51l-60 -136h-100q-4 -37 -54 -62.5t-120 -25.5q-72 0 -122 26t-54 62h-100l-99 242l62 16l-64 152l70 16l-39 95v159q-59 59 -99 147.5t-40 192.5q0 100 37.5 188.5t103 154t154 103.5t190.5 38q98 0 186 -38t154 -103.5t103.5 -154t37.5 -188.5zM2079 745 q2 -27 2 -51v-51l-242 14q4 37 0 74l240 14v0zM1733 1434q20 -16 37.5 -34t33.5 -38l-176 -158q-25 29 -53 53zM1104 1434q-18 2 -37.5 1t-38.5 -1l-12 237q53 4 100 0l-12 -237v0zM326 1364q16 20 33.5 37.5t37.5 34.5l160 -181q-25 -20 -53 -51l-178 160v0z" />
<glyph unicode="&#xfb00;" horiz-adv-x="1302" d="M451 897l-183 -954q-16 -92 -43.5 -163t-62.5 -124q51 -25 111.5 -37t119.5 -12q141 0 222 72.5t114 240.5l186 977h-464zM1049 1329q-57 29 -114.5 39t-111.5 10q-145 0 -230 -74.5t-108 -216.5l-12 -69h467l12 69q12 76 37 136.5t60 105.5zM1540 1360q-37 10 -78 15 t-76 5q-119 0 -187.5 -68.5t-96.5 -224.5l-12 -69h294l-26 -121h-291l-184 -967q-25 -127 -71 -213t-110.5 -139t-147.5 -76.5t-181 -23.5q-156 0 -316 65q-53 -37 -114.5 -53t-135.5 -16q-94 0 -176 18l39 133q39 -12 79 -17t75 -5q117 0 187.5 73.5t105.5 262.5l182 958 h-219l26 121h218l10 59q37 209 162 317.5t342 108.5q162 0 315 -63q96 66 254 65q84 0 172 -18z" />
<glyph unicode="&#xfb01;" horiz-adv-x="1171" d="M1077 1341q-53 18 -115.5 28.5t-113.5 10.5q-160 0 -247 -75.5t-116 -217.5l-12 -69h617l-195 -1018h-152l172 897h-464l-183 -954q-47 -252 -162.5 -360.5t-298.5 -108.5q-94 0 -176 18l39 133q39 -12 79 -17t75 -5q117 0 187.5 73.5t105.5 262.5l182 958h-217l24 121 h218l8 49q35 217 164 327.5t364 110.5q78 0 145.5 -10t127.5 -27z" />
<glyph unicode="&#xfb02;" horiz-adv-x="1167" d="M895 0h-150l261 1366q-47 8 -92.5 12t-86.5 4q-147 0 -227 -60t-106 -196l-21 -108h291l-27 -121h-286l-183 -954q-47 -252 -162.5 -360.5t-298.5 -108.5q-94 0 -176 18l39 133q39 -12 79 -17t75 -5q117 0 187.5 73.5t105.5 262.5l182 958h-217l24 121h218l20 112 q35 186 157 280.5t339 94.5q92 0 177 -7t159 -19z" />
<glyph unicode="&#xfb03;" horiz-adv-x="1787" d="M451 897l-183 -954q-16 -92 -43.5 -163t-62.5 -124q51 -25 111.5 -37t119.5 -12q141 0 222 72.5t114 240.5l186 977h-464zM1059 1325q-61 29 -121.5 41t-114.5 12q-145 0 -230 -74.5t-108 -216.5l-12 -69h465l10 55q12 74 41 139.5t70 112.5zM1692 1341 q-51 18 -113.5 28.5t-116.5 10.5q-154 0 -244 -71.5t-118 -229.5l-10 -61h616l-195 -1018h-151l172 897h-465l-184 -967q-25 -127 -71 -213t-110.5 -139t-147.5 -76.5t-181 -23.5q-156 0 -316 65q-53 -37 -114.5 -53t-135.5 -16q-94 0 -176 18l39 133q39 -12 79 -17t75 -5 q117 0 187.5 73.5t105.5 262.5l182 958h-219l26 121h218l10 59q37 209 162 317.5t342 108.5q170 0 329 -71q59 39 139 57t169 18q80 0 147.5 -11t126.5 -28z" />
<glyph unicode="&#xfb04;" horiz-adv-x="1787" d="M451 897l-183 -954q-16 -92 -43.5 -163t-62.5 -124q51 -25 111.5 -37t119.5 -12q141 0 222 72.5t114 240.5l186 977h-464zM1047 1329q-59 29 -114.5 39t-109.5 10q-145 0 -230 -74.5t-108 -216.5l-12 -69h467l21 112q25 121 86 199zM1511 0h-149l260 1366q-47 10 -92 13 t-86 3q-147 0 -227 -60t-107 -196l-20 -108h294l-24 -121h-293l-184 -967q-25 -127 -71 -213t-110.5 -139t-147.5 -76.5t-181 -23.5q-156 0 -316 65q-53 -37 -114.5 -53t-135.5 -16q-94 0 -176 18l39 133q39 -12 79 -17t75 -5q117 0 187.5 73.5t105.5 262.5l182 958h-217 l24 121h218l10 59q39 209 163 317.5t341 108.5q82 0 163.5 -17.5t155.5 -47.5q59 35 133 52t166 17t177 -8t159 -20z" />
<glyph horiz-adv-x="1966" d="M596 117q-2 -16 -17.5 -41t-31.5 -37q-8 -2 -17.5 -8t-19.5 0q-12 4 -5 15t11 22q0 4 3 20t12.5 36.5t22.5 42t32 34.5q18 2 22 2q6 0 13 4q4 -6 -0.5 -18.5t-9.5 -27t-10 -27.5t-5 -17zM877 158q8 -29 -5.5 -59.5t-35.5 -53.5q-6 -8 -13.5 -9t-15.5 -5q-25 4 -24 26.5 t1 40.5q8 16 12.5 34t14.5 32q16 8 26.5 22.5t26.5 14.5l4 -6q-8 -14 -0.5 -20.5t9.5 -16.5zM545 371q-25 4 -52.5 3t-54.5 -3q-16 -2 -31.5 -5.5t-27.5 -11.5q-10 -33 -20.5 -66.5t-18.5 -66.5q-6 -53 -19.5 -111.5t-21.5 -113.5q8 0 16.5 3t12.5 -1q14 4 24 -1t23 1 q10 33 15 64.5t16 64.5q6 10 16 15t20.5 9.5t17.5 0t15 6.5l8 57q-6 10 -18 9t-25 -1q-8 -8 -14 -8q-16 4 -11 19.5t1 25.5q-2 6 3 11t9 10q23 6 43.5 9t40.5 7l12 8q2 18 9.5 34t11.5 32zM659 70q-2 23 4.5 48t12.5 50t10 49.5t-4 42.5q-10 8 -24.5 13.5t-18.5 -5.5l-4 -12 q-16 -4 -38 4t-40 -4q-16 -8 -21.5 -16.5t-9.5 -24.5q2 -6 -3 -9t-12 -6t-12 -9.5t-3 -18.5q-4 -8 -1 -13t-6 -14q-4 -10 -11 -26.5t-13 -20.5q-20 -12 -17 -40.5t11 -45.5q-4 -14 5 -22t19 -13q4 4 8.5 6.5t8.5 -1.5q16 -4 38.5 15t39.5 30q12 2 12 -2t-3 -10.5t-5 -14.5 t2 -12q10 -4 13 -7.5t13 -3.5q8 4 16.5 5.5t16.5 7.5l16 80v0zM915 61q25 35 27 72t0 78q4 6 -2 12t-14 10.5t-16.5 9.5t-10.5 7q-4 4 -10 4q-4 0 -6 -6q-23 2 -41 -8q-12 -6 -18.5 -16.5t-16.5 -14.5q-4 -4 -9 -1t-7 7q14 37 17 75t5 77l-2 14h-16q-18 -6 -19.5 -22.5 t-7.5 -28.5q-12 -35 -17.5 -70t-17.5 -70q-4 -35 -13 -67.5t-11 -63.5q-4 -18 -10.5 -35.5t-8.5 -37.5q12 -8 30.5 -2t33.5 12q10 4 16 2t11 -8t8.5 -12.5t9.5 -10.5q16 0 26 2q25 12 55.5 39.5t34.5 52.5zM1161 252q-16 -2 -34.5 -5t-32.5 -22q-10 -8 -15.5 -23.5 t-21.5 -11.5q-4 16 -1 29.5t7 30.5q-8 4 -15.5 0t-15.5 0q-18 -8 -28 -27q-10 -59 -20.5 -113.5t-14.5 -113.5l6 -8q10 -8 23.5 -3t23.5 1q-4 23 5 42t5 42q10 23 20.5 46t30.5 44q12 10 26.5 13t31.5 13q4 16 12 33t8 33zM1219 31q8 41 14 80t12 75q10 31 10 54 q-12 10 -26.5 4t-30.5 -4q-18 -23 -20 -49.5t-9 -53.5q-8 -10 -11 -24.5t-7 -28.5q4 -20 -5 -45t1 -45q29 0 63 10q9 11 9 27zM1280 367q-2 10 -6 18t-14 12q-4 4 -10.5 5t-10.5 -5q-10 -12 -17.5 -30.5t-0.5 -30.5q2 -10 14 -11t22 3q23 12 23 39zM1475 -20 q-4 16 -9.5 33.5t-15.5 31.5q-10 23 -20.5 42t-8.5 46q-2 10 -6 17.5t0 17.5q18 16 41 26.5t39 26.5l-14 35q-18 -2 -33.5 -9t-32.5 -11q-10 -4 -21.5 -12.5t-19.5 1.5q10 41 18.5 81t14.5 79l-4 6q-16 0 -27.5 5t-25.5 10q-6 -23 -13.5 -48.5t-11.5 -50.5q-8 -16 -8 -41 q0 -23 -10 -39q-10 -63 -23.5 -106t-19.5 -105l-4 -14h49q6 2 12 -2t12 2q4 14 5 27.5t5.5 30t0 34t18.5 23.5q12 -4 10 -13.5t2 -17.5q-2 -14 5 -24.5t7 -22.5q18 -12 25.5 -32.5t24.5 -35.5q6 2 10 -3t14 -1q15 1 15 13zM877 1104q-4 23 -12.5 44t-33.5 26 q-4 -10 -13 -7.5t-17 0.5q-27 12 -56 -12q-25 -31 -13.5 -59.5t26.5 -55.5q2 -8 9 -6t15 0q12 -4 25.5 3t26.5 12q14 12 30.5 22t12.5 33zM1571 -127q-45 4 -100.5 -5t-98.5 -3q-115 4 -223.5 -8.5t-220.5 0.5q-51 -8 -99.5 -3t-97.5 9q-59 4 -121.5 3t-126.5 -1 q-43 0 -102 -3t-102 -14q-8 -2 -19 -2q-8 0 -12 11q0 33 -2 66.5t8 66.5q4 41 2 82t4 82q-8 47 -1 91t-1 91q0 66 5 132.5t9 135.5q4 74 1 146.5t1 146.5q8 16 23.5 13t30.5 1q16 -10 37.5 -5t37.5 3q6 6 15.5 11.5t11.5 -9.5q4 -4 1 -12t5 -12q-4 -29 -3 -78t4 -106.5 t7.5 -118t6.5 -109.5q66 20 120 56t117 59q10 4 19.5 12t23.5 12q4 2 8 6.5t13 0.5q10 -4 8 -14.5t-2 -20.5q-20 -59 -10 -125q4 -10 13 -6t15 4q16 14 34.5 23.5t35.5 21.5q20 12 40.5 23.5t43.5 19.5q25 16 48 32.5t50 26.5l41 33q2 8 12 14q6 0 11.5 -4t11.5 -8 q0 -29 6 -58.5t6 -58.5q2 -6 6 -5t6 -3q8 -10 4 -20.5t-8 -20.5l4 -4q35 8 65 26.5t59.5 39t59 39t64.5 26.5q10 10 22.5 13t22.5 14q10 2 18.5 9t17.5 13t19.5 9.5t22.5 -7.5q4 0 8 -2t6 -6q-2 -8 1.5 -13t7.5 -11q-4 -16 0 -29.5t-4 -26.5q2 -27 0 -51.5t10 -46.5 q-4 -14 5 -25.5t-1 -21.5q2 -16 0 -29.5t8 -25.5q2 -10 3 -19.5t-5 -17.5q4 -23 5 -47.5t9 -47.5q-4 -8 -2 -16t2 -16q0 -78 11.5 -151t13.5 -150q0 -4 3 -9.5t-1 -9.5zM961 1360q-27 -27 -62 -17q-8 12 -15 23.5t-7 26.5q-20 41 -64.5 51t-87.5 22l-63 4q-4 -4 -12.5 -2 t-14.5 -2q-37 -10 -63.5 -20t-53.5 -23q-14 -16 -35.5 -27.5t-27.5 -33.5q-16 -31 -24.5 -70t-14.5 -73q10 -8 22.5 -5t22.5 0q45 4 86 5h90q10 -4 0 -15q-18 -12 -31.5 -1t-30.5 5q-20 2 -42.5 -1t-43.5 -1q-18 -4 -38 -4t-37 -10l-6 -8q-8 -39 -10.5 -63.5t-2.5 -65.5 q2 -14 -3 -28.5t5 -29.5q27 -2 42.5 -1t28.5 2t28.5 3.5t42.5 2.5q8 4 14 2t12 -5q2 -2 1 -4t1 -4l-10 -4q-23 4 -41 3t-37.5 -3t-42 -4t-53.5 0q-23 -2 -47.5 -4t-48.5 0q-31 -2 -66 -2t-63 8l-2 6q6 6 18 11q16 -8 36.5 -9.5t41.5 -5.5q16 2 29.5 1t25.5 7q4 53 18.5 94.5 t24.5 96.5l-4 8q-31 2 -59.5 0t-55.5 10q0 10 9 11q27 -8 55 -9q31 0 59 2l4 7q10 35 20.5 70.5t27.5 64.5l2 6q51 53 115.5 86t142.5 41q35 4 71.5 -4t65.5 -23q10 -4 20 -4q12 0 23 -4q35 -8 66.5 -24.5t52.5 -47.5q2 -4 0 -9t-4 -9zM926 1145q2 -37 -21 -64 q-25 -14 -45 -31.5t-49 -21.5q-6 2 -8 -1t-5 -6t-6.5 -5t-9.5 2q-10 8 -24.5 4t-26.5 -2q-12 0 -21.5 1t-19.5 5q-14 14 -27.5 31.5t1.5 42.5q16 41 55 61q23 10 47.5 21.5t50.5 5.5q33 -2 65 -8t44 -35zM1323 1028q-25 0 -52.5 -1t-53.5 -9q-6 4 -12.5 5t-10.5 11 q8 29 13 57.5t1 57.5q-4 6 -13 1t-15 -9q-31 -16 -60.5 -40t-36.5 -59q-8 -8 -19 -11t-20 1q-10 14 -2.5 30.5t2.5 33.5l7 63q-6 6 -16.5 3t-20.5 1q-4 4 -13.5 2t-7.5 9q27 -2 52.5 2t54.5 0q6 -6 5 -14.5t-3 -16.5t0 -14.5t10 -10.5q29 12 55.5 29.5t55.5 28.5q6 -4 14 -3 t14 1q8 0 13.5 -3.5t7.5 -13.5q2 -23 -1 -44t-5 -44q2 -6 1 -13t3 -11q18 -4 26 0q8 0 16.5 -2.5t18.5 -2.5q6 -4 0 -10zM1817 1169q-4 -8 -7 -8q-23 4 -44 1t-44 -5q-70 -4 -108.5 -6t-75.5 -8q-16 -14 -17 -32.5t-12 -35.5q-2 -10 1 -16t3 -15q4 -6 12.5 -9t14.5 -5 q16 2 29.5 8t21.5 19q0 14 -10 24q-10 8 -21.5 6t-19.5 9q8 10 21.5 8t25.5 -2q16 -6 27 -33q-8 -31 -43 -55q-10 -4 -21.5 -5t-23.5 -5q-23 6 -48.5 16t-37.5 33q-6 25 3 46t13 44q-4 10 -12 8t-17 0l-69 -2q0 4 -2 4t-2 4q8 4 16 4t14 2q18 -4 39 -2t39 2q10 6 11.5 15.5 t3.5 19.5q8 14 10 32.5t16 29.5q10 6 15.5 -2.5t9.5 -12.5q10 -16 4 -35.5t0 -38.5q4 -12 18.5 -8t24.5 0q47 4 100.5 3t132.5 10q7 -5 9 -7z" />
<glyph horiz-adv-x="2695" d="M2308 1352q25 -39 30 -85t-4.5 -95.5t-29.5 -98.5t-47 -94q-41 -70 -107.5 -130.5t-146.5 -90.5q33 20 62.5 43.5t54.5 54.5q37 33 74.5 72t54.5 92q33 41 43 84t14 86q6 59 -9.5 118.5t-70.5 88.5q14 18 27.5 16t24 -12t17.5 -25.5t13 -23.5zM2099 1114q10 -31 3 -63.5 t-17 -67.5q-10 -16 -25.5 -31.5t-34.5 -19.5q-14 4 -20 13t-14 22l10 28q10 -4 7 -16t9 -16q10 -4 20.5 6t16.5 16q16 47 18.5 92t-14.5 86l-14 -6q-29 -23 -53.5 -42t-44.5 -50l-19 -8q-33 -29 -59.5 -60.5t-55.5 -54.5q-12 -2 -16 3t-5 13.5t-1 18.5t-2 16q4 8 5 18.5 t-5 16.5q-10 2 -13 -7t-12 -13q-16 -16 -31.5 -23.5t-37.5 -9.5q-23 6 -26 18.5t3 27.5t14.5 33.5t12.5 35.5q14 31 35.5 54t50.5 48q23 4 47 12t37 -16l6 -12q-18 -35 -28.5 -73t-22.5 -75q0 -6 2 -13t10 -7q23 0 32 18t25 31q51 39 97.5 79t91.5 81q12 -4 14 -15.5t1 -24 t-2 -25.5t3 -22q8 -6 2 -16zM1886 1384q-8 -10 -23.5 -20t-29.5 -8q-4 6 -7 14t-16 -2q-68 -47 -132 -99t-99 -122q-16 -41 -27.5 -86t-14.5 -88t7 -81t39 -65q16 -16 42 -13t48 1q14 8 25.5 17.5t25.5 17.5q-2 -18 -19 -26.5t-34 -20.5q-33 -12 -66.5 -5t-54.5 29 q-37 43 -37 95q-8 4 -7 10t4 12t5.5 12.5t-4.5 10.5q6 6 5.5 13t-2 15.5t0 15.5t7.5 17q10 61 39.5 113.5t70.5 98.5t91.5 86t101.5 75q8 0 19 3t20 3q10 0 17 -4.5t5 -18.5zM1444 1020q-20 -35 -56 -60.5t-75 -25.5q-41 0 -74 15.5t-43 49.5q-10 23 -6 48.5t14 54.5 q6 18 21.5 30.5t19.5 30.5q68 49 135 25q6 -6 13.5 -9t3.5 -16q-8 -8 -14.5 0t-16.5 8q-27 8 -54.5 -1t-51.5 -31q-20 -25 -35 -54.5t-8 -58.5q33 -61 96 -70q20 8 41 9q23 0 41 20q14 8 24.5 25.5t24.5 9.5zM1120 963q-16 -25 -28.5 -50.5t-34.5 -48.5q-14 -6 -24.5 1 t-14.5 20q-8 35 -6 74.5t16 78.5q-2 2 2 16.5t9 33t8.5 37t-0.5 26.5q-18 -31 -26.5 -63.5t-16 -64.5t-19.5 -61.5t-41 -56.5q-4 -4 -16.5 -7t-24.5 3t-20.5 23.5t-5.5 58.5q12 39 21 75t22 72q6 14 2 30t14 28q16 8 25 -8q-4 -31 -14.5 -65t-18.5 -65.5t-12.5 -59 t2.5 -48.5q12 -10 20 -4t14 18.5t10.5 25.5t10.5 17q16 41 22 86t27 86q6 6 12 15.5t12.5 16.5t13.5 10.5t17 -5.5q6 -41 0 -78.5t-15 -76.5t-16.5 -78t-3.5 -78q2 -6 8.5 -8t14.5 6l6 11q6 12 13.5 24t16.5 22.5t19 10.5zM793 901q-4 -4 -9.5 -8t-22 -8t-50 -9.5 t-95.5 -9.5q-72 -6 -136 -17t-132 -34q-16 -23 -31.5 -16.5t-25.5 12.5q0 18 17.5 25.5t23.5 23.5q16 25 30.5 49.5t28.5 48.5q-2 12 8.5 26.5t20.5 27.5q63 104 123.5 209.5t107.5 216.5q0 12 2 23.5t13 19.5q14 4 16 -4.5t6 -14.5q-29 -80 -69.5 -153.5t-85 -146 t-88.5 -146.5t-78 -152l2 -4q78 12 152.5 26.5t156.5 16.5q23 -4 53 -4q31 0 57 10l5 -8v0zM1483 428q-37 -6 -74 -16.5t-73 -20.5t-71.5 -17t-72.5 -3q-8 -6 -14.5 -22.5t-7.5 -33t6.5 -26.5t25.5 -4q8 8 13.5 23.5t19.5 19.5q6 -18 -4 -36t-25 -32q-6 -4 -21.5 -5t-27.5 8 t-17 31.5t7 65.5q-4 6 -7 12.5t3 16.5q27 16 33 42t16 52q-4 2 -3 4t-3 5q-41 -23 -64.5 -60t-58.5 -65q-2 -14 -12.5 -25.5t-21.5 -23t-20.5 -23.5t-9.5 -29q-6 -6 -9 -16t-6 -19.5t-8 -16.5t-20 -9q-18 4 -22 15t-2 24.5t7 28t7 26.5q0 39 14.5 71.5t16.5 67.5 q-20 -10 -29.5 -28.5t-25.5 -34.5q-12 -12 -24.5 -28.5t-26 -31t-29 -21.5t-35.5 -3q-16 35 5.5 73.5t47.5 73.5q12 10 24.5 23.5t26 24t27.5 15.5t31 -1q8 -6 20 0q27 43 45.5 90t30.5 94l22 16q12 -4 13.5 -10t-2.5 -14t-9.5 -16.5t-5.5 -16.5q-18 -57 -39.5 -113.5 t-37.5 -111.5q-8 -31 -20.5 -59.5t-8.5 -59.5q41 43 80 94t92 94q35 37 76 62q14 -12 25.5 -29.5t23.5 -27.5q-4 -18 -10.5 -41t-3.5 -41q57 12 108 20t107 25q6 -4 9 -10.5t-1 -16.5zM1825 -70q-12 -12 -25.5 -16t-29 -6t-30 -4t-26.5 -10q-35 -4 -67.5 -13.5t-53.5 -44.5 q-12 -20 -27.5 -39.5t-29.5 -40t-23.5 -42t-9.5 -46.5q0 -18 19.5 -17t31.5 5q8 0 14.5 9t16.5 3q8 -6 -2 -12t-14 -14q-18 -10 -39 -15.5t-39 4.5q-12 16 -17.5 34t5.5 40q6 16 26.5 49t73.5 103q-14 8 -30.5 6t-33 -5t-33 -5.5t-30.5 4.5q10 12 27.5 18t31.5 10 q29 6 57.5 4t49.5 25q18 23 19 46.5t10 47.5q-10 4 -8.5 12.5t3.5 12.5q-6 23 -22 35t-36.5 17t-43 6t-43.5 1q-47 -4 -92 -34.5t-70 -71.5q-20 -33 -24 -66t4 -67q-8 -25 -3 -47.5t11 -44t7 -46t-17 -51.5q-12 -10 -27.5 -8t-25.5 6q-25 14 -23 45t-2 57q18 12 20 34t19 38 q4 10 5 26.5t-11 22.5q-35 -4 -76 -4t-76 -24q-2 -23 -3 -45.5t-7 -45t-17.5 -43t-33.5 -34.5q-25 -6 -47 8q-18 18 -11 44t13 50q20 31 41.5 64.5t60.5 46.5q12 -10 31.5 -6t36.5 8l98 2q10 10 13 25.5t9 27.5q31 59 85.5 105.5t119.5 50.5q35 4 67 2t60 -19q0 -10 5 -16 t12.5 -10t13.5 -10.5t6 -16.5q12 -29 0 -67.5t-27 -71.5q47 0 93.5 8t89.5 16zM993 -111q-10 -6 -17 -3t-14.5 7.5t-15.5 7.5t-18 -3q-31 -18 -38 -48t-30 -51q-8 -29 -20.5 -54.5t-16.5 -51.5q-6 -4 -13 -8t-17 0q-10 16 0 36.5t12 36.5q20 18 20 45q0 25 17 45 q-4 10 0 25.5t2 26.5q-10 4 -16.5 -4.5t-14.5 2.5q8 20 35 36q16 0 21 -12l10 -24q8 2 17 11t18.5 16t18.5 9.5t17 -8.5l43 -37v0zM748 16q-12 -10 -6 -17t-1 -17q-16 -78 -25 -156t-28.5 -152.5t-55.5 -142.5t-106 -125q-72 -41 -151.5 -50t-149.5 11q-8 4 -15 11.5 t-3 17.5q8 20 19.5 40.5t37.5 28.5q-10 -16 -20.5 -32.5t-16.5 -34.5q23 -16 54.5 -22.5t66.5 -4.5t71 12.5t64 24.5q31 10 51.5 28.5t36 41t27.5 46t27 46.5q27 72 44 154.5t27 144.5q10 23 9.5 49.5t9.5 48.5q-2 10 -11.5 7t-13.5 -5q-18 -16 -28.5 -35.5t-28.5 -31.5 q0 -16 -9.5 -24.5t-19.5 -15.5t-19.5 -15.5t-11.5 -22.5q-51 -47 -96 -95t-88 -98q-10 -12 -18.5 -24.5t-24.5 -9.5q-6 14 -5 29.5t6 30.5t10 31.5t5 32.5q16 35 32 73t48 71q29 51 72 98t98 78q29 8 48.5 -5t37.5 -28q23 23 33 49q23 -8 17 -41zM1825 1178q-6 8 -12.5 -1.5 t-12.5 -5.5q-51 -23 -74.5 -69.5t-31.5 -93.5q12 -4 25.5 8t25.5 8q8 14 23.5 29.5t27.5 31t17.5 33t-5.5 33.5q12 0 14.5 11.5t2.5 15.5zM1200 416q10 2 10 4t4 6q8 10 15.5 27.5t-8.5 21.5zM944 471q-12 4 -26.5 -6t-24.5 -23q-29 -29 -52.5 -61.5t-15.5 -67.5 q10 -4 15.5 2.5t9.5 12.5q27 23 48.5 47t41.5 55l4 41v0zM1290 -205q-12 -12 -18 -26.5t-10 -28.5q0 -16 3 -33.5t23 -21.5q16 27 14 57t-12 53zM1077 -236q4 8 9.5 22.5t7.5 28t-1 23.5t-16 12l-37 -38q-8 -23 -16 -47.5t-4 -47.5q6 -6 16.5 -5t21.5 7.5t17 17.5t2 27z M670 -12q-2 23 -25.5 26.5t-42.5 -4.5q-27 -18 -51.5 -38.5t-46.5 -43.5q-16 -31 -35.5 -61.5t-38 -61t-32 -62.5t-15.5 -67q4 -2 6 1.5t6 7.5q35 37 73 71.5t75 71.5t69.5 76t57.5 84z" />
<glyph horiz-adv-x="987" d="M899 1489l-246 131l-286 -131l-39 88l338 172l288 -166z" />
<glyph horiz-adv-x="1052" d="M1090 1655q-41 -70 -98.5 -107t-123.5 -37q-51 0 -85.5 17.5t-63.5 38t-55.5 38t-59.5 17.5q-72 0 -135 -94l-76 59q82 143 219 144q51 0 86 -17.5t64 -38t54.5 -38t60.5 -17.5q70 0 135 94l78 -59v0z" />
<glyph horiz-adv-x="860" d="M1032 1739q-8 -47 -31.5 -90t-61.5 -76t-90 -52.5t-118 -19.5t-107.5 19.5t-66.5 52.5t-31 76t4 90h99q-10 -53 19.5 -91t101.5 -38q70 0 114.5 33.5t57.5 95.5h110v0z" />
<glyph horiz-adv-x="557" d="M850 1604q0 -47 -31 -77t-71 -30q-41 0 -68 27.5t-27 66.5q0 45 31 75t72 30t67.5 -27.5t26.5 -64.5z" />
<glyph horiz-adv-x="804" d="M852 1714q0 -55 -19.5 -101t-54.5 -81t-83 -54.5t-107 -19.5q-86 0 -138.5 44t-52.5 122q0 53 20.5 100.5t55.5 82t84 54t107 19.5q86 0 137 -44t51 -122zM604 1552q59 0 94 42t35 104q0 41 -22.5 65.5t-63.5 24.5q-59 0 -95 -44t-36 -104q0 -41 23.5 -64.5t64.5 -23.5z " />
<glyph horiz-adv-x="45" d="M633 1509l-160 -344l-102 33l135 350z" />
<glyph horiz-adv-x="1095" d="M1042 1597q0 -41 -28.5 -69.5t-69.5 -28.5t-66.5 25.5t-25.5 66.5t28.5 70t69.5 29t66.5 -27t25.5 -66zM651 1597q0 -41 -28.5 -69.5t-69.5 -28.5t-66.5 25.5t-25.5 66.5t28.5 70t69.5 29t66.5 -27t25.5 -66z" />
<glyph horiz-adv-x="561" d="M688 1350q0 -45 -29.5 -74t-70.5 -29t-67.5 28t-26.5 66q0 43 29.5 72t70.5 29t67.5 -27.5t26.5 -64.5zM346 1350q0 -45 -29.5 -74t-70.5 -29t-67.5 28t-26.5 66q0 43 29.5 72t70.5 29t67.5 -27.5t26.5 -64.5z" />
<glyph horiz-adv-x="737" d="M508 1163l-203 285l119 78l176 -301z" />
<glyph horiz-adv-x="720" d="M354 1163l-78 76l246 287l99 -94z" />
<glyph horiz-adv-x="874" d="M664 1178l-144 176l-201 -176l-63 71l287 267l200 -265z" />
<glyph horiz-adv-x="1001" d="M860 1378q-39 -68 -88 -104.5t-115 -36.5q-39 0 -66.5 15.5t-49 34t-41 33.5t-39.5 15q-35 0 -61.5 -23.5t-49.5 -62.5l-67 58q41 72 88 107.5t110 35.5q39 0 68 -15.5t50.5 -34t39.5 -33.5t41 -15q35 0 61.5 23.5t49.5 64.5l69 -62v0z" />
<glyph horiz-adv-x="792" d="M301 1276l23 117h460l-22 -117h-461z" />
<glyph horiz-adv-x="823" d="M821 1468q-23 -127 -94.5 -193.5t-179.5 -66.5q-109 0 -154 67.5t-22 192.5h104q-10 -57 11.5 -100t80.5 -43q55 0 96.5 39t51.5 104h106z" />
<glyph horiz-adv-x="1755" d="M1528 705q0 111 -31 156.5t-82 45.5q-53 0 -105.5 -33.5t-101.5 -89t-93 -127t-80 -148.5t-61.5 -151.5t-37.5 -138.5l-18 -92q37 -10 73.5 -15.5t83.5 -5.5q123 0 210 55.5t140.5 142.5t78 194t24.5 207zM1683 731q0 -139 -36.5 -273t-113.5 -238.5t-196.5 -169 t-285.5 -64.5q-88 0 -163 8t-140 22l258 1350q-47 10 -92.5 13t-86.5 3q-147 0 -226 -60t-107 -196l-21 -108h291l-27 -121h-286l-183 -954q-47 -252 -162.5 -360.5t-298.5 -108.5q-94 0 -176 18l39 133q39 -12 79 -17t75 -5q117 0 187.5 73.5t105.5 262.5l184 958h-219 l24 121h218l20 112q37 186 158 281.5t338 95.5q92 0 177 -8t159 -20l-95 -504q-4 -25 -12 -55.5t-20.5 -75.5t-33 -110.5t-48.5 -160.5h4q39 96 90 181.5t112.5 148t133 99t153.5 36.5q111 0 167 -73.5t56 -233.5z" />
<glyph horiz-adv-x="1812" d="M1538 0h-152l125 655q27 131 2.5 191.5t-102.5 60.5q-51 0 -103.5 -32.5t-101.5 -88t-93 -127t-79 -148.5t-60.5 -152.5t-37.5 -141.5l-41 -217h-150l261 1366q-47 10 -92.5 13t-86.5 3q-147 0 -226 -60t-107 -196l-21 -108h291l-27 -121h-286l-183 -954 q-47 -252 -162.5 -360.5t-298.5 -108.5q-94 0 -176 18l39 133q39 -12 79 -17t75 -5q117 0 187.5 73.5t105.5 262.5l184 958h-219l24 121h218l20 112q37 186 158 281.5t338 95.5q92 0 177 -8t159 -20l-91 -480q-6 -29 -13 -63.5t-20.5 -82.5t-33 -113.5t-49.5 -155.5l4 -2 q37 86 86 167.5t110.5 146.5t134 103.5t154.5 38.5q141 0 191.5 -92t19.5 -256z" />
<glyph horiz-adv-x="1177" d="M1077 1341q-51 18 -114.5 28.5t-114.5 10.5q-160 0 -247 -75.5t-114 -217.5l-14 -69h625l-224 -1161q-37 -193 -124.5 -288t-272.5 -95q-37 0 -69.5 5t-59.5 11l29 135q29 -10 61.5 -16t59.5 -6q55 0 92 14t63.5 49t44 91.5t33.5 140.5l193 999h-473l-183 -954 q-47 -252 -162.5 -360.5t-298.5 -108.5q-94 0 -176 18l39 133q39 -12 79 -17t75 -5q117 0 187.5 73.5t105.5 262.5l184 958h-219l24 121h220l6 49q68 440 528 440q78 0 145.5 -11t127.5 -28z" />
<glyph horiz-adv-x="1597" d="M1157 557l320 -557h-185l-293 549l-104 -549h-150l261 1366q-47 10 -92.5 13t-86.5 3q-147 0 -227 -60t-106 -196l-21 -108h291l-27 -121h-286l-183 -954q-49 -252 -163.5 -360.5t-299.5 -108.5q-43 0 -88 4t-86 14l37 133q41 -12 81 -17t75 -5q117 0 187.5 73.5 t105.5 262.5l182 958h-217l24 121h218l20 112q35 186 157 281.5t339 95.5q92 0 177 -8t159 -20l-170 -901l489 487l107 -92z" />
<glyph horiz-adv-x="358" d="M358 2007v-2662h-358v2662h358z" />
<glyph horiz-adv-x="1421" d="M1217 883q0 176 -86.5 279.5t-264.5 103.5q-129 0 -237.5 -60.5t-187.5 -165t-123 -243t-44 -293.5q0 -178 87.5 -281.5t252.5 -103.5q123 0 232.5 58.5t191.5 161.5t130.5 242.5t48.5 301.5zM1249 -356q-129 -18 -221 -4t-172 35.5t-161 37t-187 0.5l24 133 q80 10 144.5 6t121 -15t108.5 -25.5t108.5 -25.5t119 -15t142.5 6zM1384 901q0 -197 -61 -365.5t-168.5 -291.5t-252 -192.5t-308.5 -69.5q-248 0 -368 131t-120 370q0 188 59.5 355.5t165 292t249 197.5t311.5 73q240 0 366.5 -130t126.5 -370z" />
</font>
</defs>
</svg>
