<?xml version="1.0" standalone="no"?>
<!DOCTYPE svg PUBLIC "-//W3C//DTD SVG 20010904//EN"
 "http://www.w3.org/TR/2001/REC-SVG-20010904/DTD/svg10.dtd">
<svg version="1.0" xmlns="http://www.w3.org/2000/svg"
 width="512.000000pt" height="512.000000pt" viewBox="0 0 512.000000 512.000000"
 preserveAspectRatio="xMidYMid meet">
<metadata>
Created by potrace 1.11, written by Peter Selinger 2001-2013
</metadata>
<g transform="translate(0.000000,512.000000) scale(0.100000,-0.100000)"
fill="#000000" stroke="none">
<path d="M180 2560 l0 -2560 2470 0 2470 0 0 2560 0 2560 -2470 0 -2470 0 0
-2560z m708 663 l-3 -408 -182 -3 -183 -2 0 410 0 410 185 0 185 0 -2 -407z
m1462 -653 l0 -1060 -230 0 -230 0 0 855 0 855 -200 0 -200 0 0 205 0 205 430
0 430 0 0 -1060z m2250 880 l0 -179 -427 -880 -428 -880 -257 -1 c-142 0 -258
3 -258 7 0 5 775 1632 807 1696 2 4 -115 7 -261 7 l-266 0 0 -135 0 -135 -220
0 -220 0 0 340 0 340 765 0 765 0 0 -180z"/>
</g>
</svg>
